<svg xmlns="http://www.w3.org/2000/svg" width="30" height="30.892" viewBox="0 0 30 30.892"><defs><style>.a,.b{fill:none;}.a{stroke-linejoin:round;}.c,.e{fill:#fff;}.d,.e{stroke:none;}</style></defs><g class="a" transform="translate(2.978 0)"><path class="d" d="M11.215,30.269C1.756,17.56,0,16.255,0,11.585,0,5.187,5.6,0,12.5,0S25,5.187,25,11.585c0,4.671-1.756,5.975-11.215,18.684A1.636,1.636,0,0,1,11.215,30.269Z"/><path class="e" d="M 12.50000095367432 29.49228668212891 C 12.5541410446167 29.49228668212891 12.62931060791016 29.47628593444824 12.66157054901123 29.43310737609863 C 14.35217094421387 27.16171646118164 15.7740306854248 25.28446578979492 17.02852058410645 23.62819671630859 C 22.59668159484863 16.27670669555664 23.60000038146973 14.95203685760498 23.60000038146973 11.5846061706543 C 23.60000038146973 5.968796253204346 18.62056159973145 1.399996399879456 12.50000095367432 1.399996399879456 C 6.379440784454346 1.399996399879456 1.400000929832458 5.968796253204346 1.400000929832458 11.5846061706543 C 1.400000929832458 14.95203685760498 2.403321027755737 16.27670669555664 7.971480846405029 23.62819671630859 C 9.225971221923828 25.28446578979492 10.64783096313477 27.16171646118164 12.33703136444092 29.43121719360352 C 12.37069129943848 29.47629737854004 12.44586086273193 29.49228668212891 12.50000095367432 29.49228668212891 M 12.5 30.89229011535645 C 12.01280879974365 30.89229011535645 11.52575874328613 30.68456649780273 11.21537113189697 30.26900672912598 C 1.755860924720764 17.55978584289551 9.5367431640625e-07 16.25542640686035 9.5367431640625e-07 11.5846061706543 C 9.5367431640625e-07 5.186586380004883 5.596420764923096 -3.569641194189899e-06 12.50000095367432 -3.569641194189899e-06 C 19.4035816192627 -3.569641194189899e-06 25 5.186586380004883 25 11.5846061706543 C 25 16.25542640686035 23.244140625 17.55978584289551 13.78463077545166 30.26900672912598 C 13.47428894042969 30.68449020385742 12.98707389831543 30.89229011535645 12.5 30.89229011535645 Z"/></g><g class="b" transform="translate(9.385 5.532)"><path class="d" d="M6.133,0A6.133,6.133,0,1,1,0,6.133,6.133,6.133,0,0,1,6.133,0Z"/><path class="e" d="M 6.132899761199951 1.59999942779541 C 3.633449554443359 1.59999942779541 1.59999942779541 3.633449554443359 1.59999942779541 6.132899761199951 C 1.59999942779541 8.632349967956543 3.633449554443359 10.66580009460449 6.132899761199951 10.66580009460449 C 8.632349967956543 10.66580009460449 10.66580009460449 8.632349967956543 10.66580009460449 6.132899761199951 C 10.66580009460449 3.633449554443359 8.632349967956543 1.59999942779541 6.132899761199951 1.59999942779541 M 6.132899761199951 0 C 9.520009994506836 0 12.2657995223999 2.745789527893066 12.2657995223999 6.132899761199951 C 12.2657995223999 9.520009994506836 9.520009994506836 12.2657995223999 6.132899761199951 12.2657995223999 C 2.745789527893066 12.2657995223999 0 9.520009994506836 0 6.132899761199951 C 0 2.745789527893066 2.745789527893066 0 6.132899761199951 0 Z"/></g><path class="c" d="M3,0A3,3,0,0,1,6,3C6,4.657,0,4.657,0,3A3,3,0,0,1,3,0Z" transform="translate(0 26.07)"/><path class="c" d="M3,0A3,3,0,0,1,6,3C6,4.657,0,4.657,0,3A3,3,0,0,1,3,0Z" transform="translate(24 26.07)"/></svg>