<svg xmlns="http://www.w3.org/2000/svg" width="14" height="14" viewBox="0 0 14 14"><defs><style>.a{fill:#002269;}.b{fill:#fff;}</style></defs><g transform="translate(-37 -468)"><path class="a" d="M7,0A7,7,0,1,1,0,7,7,7,0,0,1,7,0Z" transform="translate(37 468)"/><path class="b" d="M-885.741-23.135a.549.549,0,0,1-.438-.2c-.575-.734-1.058-1.34-1.484-1.874C-889.6-27.638-890-28.143-890-29.386a4.034,4.034,0,0,1,4.26-3.75,4.034,4.034,0,0,1,4.26,3.75c0,1.243-.4,1.748-2.338,4.175l-.005.007c-.425.533-.907,1.137-1.479,1.867A.549.549,0,0,1-885.741-23.135Zm-.029-8.045a1.665,1.665,0,0,0-1.663,1.662,1.665,1.665,0,0,0,1.663,1.663,1.665,1.665,0,0,0,1.662-1.663A1.664,1.664,0,0,0-885.77-31.18Z" transform="translate(929.733 503.136)"/></g></svg>