<svg xmlns="http://www.w3.org/2000/svg" xmlns:xlink="http://www.w3.org/1999/xlink" width="60" height="60.299" viewBox="0 0 60 60.299"><defs><style>.a{fill:#c17ae0;}.b,.e{fill:#fff;}.c{fill:none;}.d,.e{stroke:none;}.f{filter:url(#a);}</style><filter id="a" x="0" y="0" width="60" height="60.299" filterUnits="userSpaceOnUse"><feOffset input="SourceAlpha"/><feGaussianBlur stdDeviation="3" result="b"/><feFlood flood-color="#080808" flood-opacity="0.161"/><feComposite operator="in" in2="b"/><feComposite in="SourceGraphic"/></filter></defs><g transform="translate(-49.873 -144)"><g class="f" transform="matrix(1, 0, 0, 1, 49.87, 144)"><g class="a" transform="translate(9 9)"><path class="d" d="M 21 41.7990608215332 C 18.23274040222168 41.7990608215332 15.54848003387451 41.25333404541016 13.02180004119873 40.17702102661133 C 10.58082962036133 39.13723373413086 8.388449668884277 37.64851379394531 6.505559921264648 35.75221252441406 C 4.622429847717285 33.85567092895508 3.143980026245117 31.64725303649902 2.111279964447021 29.18828201293945 C 1.042109966278076 26.64249229431152 0.5 23.93786239624023 0.5 21.14953231811523 C 0.5 18.36120223999023 1.042109966278076 15.65658187866211 2.111279964447021 13.11079216003418 C 3.143980026245117 10.65182209014893 4.622429847717285 8.443392753601074 6.505559921264648 6.546852111816406 C 8.388449668884277 4.650562286376953 10.58082962036133 3.161842346191406 13.02180004119873 2.122042417526245 C 15.54848003387451 1.045732259750366 18.23274040222168 0.5000023245811462 21 0.5000023245811462 C 23.76725959777832 0.5000023245811462 26.4515209197998 1.045732259750366 28.97820091247559 2.122042417526245 C 31.41917037963867 3.161842346191406 33.61154937744141 4.650562286376953 35.49443817138672 6.546852111816406 C 37.37757110595703 8.443392753601074 38.85602188110352 10.65182209014893 39.88872146606445 13.11079216003418 C 40.95788955688477 15.65658187866211 41.5 18.36120223999023 41.5 21.14953231811523 C 41.5 23.93786239624023 40.95788955688477 26.64249229431152 39.88872146606445 29.18828201293945 C 38.85602188110352 31.64725303649902 37.37757110595703 33.85567092895508 35.49443817138672 35.75221252441406 C 33.61154937744141 37.64851379394531 31.41917037963867 39.13723373413086 28.97820091247559 40.17702102661133 C 26.4515209197998 41.25333404541016 23.76725959777832 41.7990608215332 21 41.7990608215332 Z"/><path class="e" d="M 21 1.000003814697266 C 18.30046081542969 1.000003814697266 15.68213081359863 1.532283782958984 13.21775054931641 2.582042694091797 C 10.83646965026855 3.596412658691406 8.697540283203125 5.048892974853516 6.860370635986328 6.899150848388672 C 5.022708892822266 8.749893188476562 3.579990386962891 10.90492248535156 2.572269439697266 13.30439186096191 C 1.52899169921875 15.78855323791504 1 18.42804145812988 1 21.14953231811523 C 1 23.87102317810059 1.52899169921875 26.51050186157227 2.572269439697266 28.99467277526855 C 3.579990386962891 31.39413261413574 5.022708892822266 33.54917144775391 6.860370635986328 35.3999137878418 C 8.697540283203125 37.25016021728516 10.83646965026855 38.70265197753906 13.21775054931641 39.71702194213867 C 15.68213081359863 40.76678085327148 18.30046081542969 41.2990608215332 21 41.2990608215332 C 23.69953918457031 41.2990608215332 26.31787109375 40.76678085327148 28.78224945068359 39.71702194213867 C 31.16353034973145 38.70265197753906 33.30245971679688 37.25016021728516 35.13962936401367 35.3999137878418 C 36.97729110717773 33.54917144775391 38.42000961303711 31.39413261413574 39.42773056030273 28.99467277526855 C 40.47100830078125 26.51050186157227 41 23.87102317810059 41 21.14953231811523 C 41 18.42804145812988 40.47100830078125 15.78855323791504 39.42773056030273 13.30439186096191 C 38.42000961303711 10.90492248535156 36.97729110717773 8.749893188476562 35.13962936401367 6.899150848388672 C 33.30245971679688 5.048892974853516 31.16353034973145 3.596412658691406 28.78224945068359 2.582042694091797 C 26.31787109375 1.532283782958984 23.69953918457031 1.000003814697266 21 1.000003814697266 M 21 3.814697265625e-06 C 32.59798049926758 3.814697265625e-06 42 9.468963623046875 42 21.14953231811523 C 42 32.83009338378906 32.59798049926758 42.2990608215332 21 42.2990608215332 C 9.402019500732422 42.2990608215332 0 32.83009338378906 0 21.14953231811523 C 0 9.468963623046875 9.402019500732422 3.814697265625e-06 21 3.814697265625e-06 Z"/></g></g><g transform="translate(65.828 159.712)"><path class="b" d="M891,686l.608,10.141h1.825L894.042,686Z" transform="translate(-878.345 -668.589)"/><path class="b" d="M0,0,.608,10.141H2.434L3.042,0Z" transform="matrix(0.174, -0.985, 0.985, 0.174, 17.191, 15.825)"/><path class="b" d="M0,0,.608,10.141H2.434L3.042,0Z" transform="matrix(0.174, 0.985, -0.985, 0.174, 10.971, 12.829)"/><g class="c" transform="translate(0 0)"><path class="d" d="M14.187,0A14.187,14.187,0,1,1,0,14.187,14.187,14.187,0,0,1,14.187,0Z"/><path class="e" d="M 14.187424659729 3.999994277954102 C 8.57005500793457 3.999994277954102 3.999994277954102 8.57005500793457 3.999994277954102 14.187424659729 C 3.999994277954102 19.80478477478027 8.57005500793457 24.37484359741211 14.187424659729 24.37484359741211 C 19.80478477478027 24.37484359741211 24.37484359741211 19.80478477478027 24.37484359741211 14.187424659729 C 24.37484359741211 8.57005500793457 19.80478477478027 3.999994277954102 14.187424659729 3.999994277954102 M 14.187424659729 -5.7220458984375e-06 C 22.02292442321777 -5.7220458984375e-06 28.37484550476074 6.351924896240234 28.37484550476074 14.187424659729 C 28.37484550476074 22.02292442321777 22.02292442321777 28.37484550476074 14.187424659729 28.37484550476074 C 6.351924896240234 28.37484550476074 -5.7220458984375e-06 22.02292442321777 -5.7220458984375e-06 14.187424659729 C -5.7220458984375e-06 6.351924896240234 6.351924896240234 -5.7220458984375e-06 14.187424659729 -5.7220458984375e-06 Z"/></g><g transform="translate(10.195 10.196)"><path class="b" d="M4.084,8.166A4.083,4.083,0,1,1,8.167,4.082,4.089,4.089,0,0,1,4.084,8.166Zm0-6.17A2.086,2.086,0,1,0,6.168,4.082,2.088,2.088,0,0,0,4.082,2Z" transform="translate(0 0)"/></g></g></g></svg>