<svg xmlns="http://www.w3.org/2000/svg" xmlns:xlink="http://www.w3.org/1999/xlink" width="60" height="60" viewBox="0 0 60 60"><defs><style>.a,.b,.c{fill:#f7a55f;}.b,.c{stroke-linecap:round;}.c{stroke:#fefefe;stroke-linejoin:round;stroke-miterlimit:10;stroke-width:2px;}.d,.e,.f{stroke:none;}.e{fill:#fff;}.f{fill:#fefefe;}.g{fill:none;}.h{filter:url(#a);}</style><filter id="a" x="0" y="0" width="60" height="60" filterUnits="userSpaceOnUse"><feOffset input="SourceAlpha"/><feGaussianBlur stdDeviation="3" result="b"/><feFlood flood-color="#080808" flood-opacity="0.161"/><feComposite operator="in" in2="b"/><feComposite in="SourceGraphic"/></filter></defs><g transform="translate(-137.034 -143)"><g class="h" transform="matrix(1, 0, 0, 1, 137.03, 143)"><g class="a" transform="translate(9 9)"><path class="d" d="M 21 41.50001525878906 C 18.2322998046875 41.50001525878906 15.54765033721924 40.95806503295898 13.0206298828125 39.88922500610352 C 10.57956027984619 38.85674667358398 8.387160301208496 37.37854385375977 6.504310131072998 35.49569702148438 C 4.621469974517822 33.61285400390625 3.143270015716553 31.42044639587402 2.110790014266968 28.9793758392334 C 1.041949987411499 26.45235633850098 0.5 23.7677059173584 0.5 21.0000057220459 C 0.5 18.2323055267334 1.041949987411499 15.54765605926514 2.110790014266968 13.0206356048584 C 3.143270015716553 10.57956600189209 4.621469974517822 8.387166023254395 6.504310131072998 6.504315853118896 C 8.387160301208496 4.621475696563721 10.57956027984619 3.143275737762451 13.0206298828125 2.110795736312866 C 15.54765033721924 1.041955709457397 18.2322998046875 0.5000057220458984 21 0.5000057220458984 C 23.7677001953125 0.5000057220458984 26.45235061645508 1.041955709457397 28.9793701171875 2.110795736312866 C 31.42044067382812 3.143275737762451 33.61283874511719 4.621475696563721 35.49568939208984 6.504315853118896 C 37.3785285949707 8.387166023254395 38.85673141479492 10.57956600189209 39.88920974731445 13.0206356048584 C 40.95804977416992 15.54765605926514 41.5 18.2323055267334 41.5 21.0000057220459 C 41.5 23.7677059173584 40.95804977416992 26.45235633850098 39.88920974731445 28.9793758392334 C 38.85673141479492 31.42044639587402 37.3785285949707 33.61285400390625 35.49568939208984 35.49569702148438 C 33.61283874511719 37.37854385375977 31.42044067382812 38.85674667358398 28.9793701171875 39.88922500610352 C 26.45235061645508 40.95806503295898 23.7677001953125 41.50001525878906 21 41.50001525878906 Z"/><path class="e" d="M 21 0.9999961853027344 C 18.29957962036133 0.9999961853027344 15.68045997619629 1.528656005859375 13.21540069580078 2.571285247802734 C 10.83394050598145 3.578567504882812 8.694950103759766 5.020774841308594 6.857860565185547 6.857864379882812 C 5.020778656005859 8.694953918457031 3.578559875488281 10.83393478393555 2.5712890625 13.21540641784668 C 1.528659820556641 15.68046569824219 1 18.29958534240723 1 21.0000057220459 C 1 23.70042610168457 1.528659820556641 26.31954574584961 2.5712890625 28.78460693359375 C 3.578559875488281 31.16606521606445 5.020778656005859 33.3050537109375 6.857860565185547 35.14214706420898 C 8.694950103759766 36.97922515869141 10.83394050598145 38.42144393920898 13.21540069580078 39.42871475219727 C 15.68045997619629 40.47134399414062 18.29957962036133 41.00000762939453 21 41.00000762939453 C 23.70042037963867 41.00000762939453 26.31954002380371 40.47134399414062 28.78459930419922 39.42871475219727 C 31.16606140136719 38.42144393920898 33.30504989624023 36.97922515869141 35.14213943481445 35.14214706420898 C 36.97922134399414 33.3050537109375 38.42144012451172 31.16606521606445 39.4287109375 28.78460693359375 C 40.47134017944336 26.31954574584961 41 23.70042610168457 41 21.0000057220459 C 41 18.29958534240723 40.47134017944336 15.68046569824219 39.4287109375 13.21540641784668 C 38.42144012451172 10.83393478393555 36.97922134399414 8.694953918457031 35.14213943481445 6.857864379882812 C 33.30504989624023 5.020774841308594 31.16606140136719 3.578567504882812 28.78459930419922 2.571285247802734 C 26.31954002380371 1.528656005859375 23.70042037963867 0.9999961853027344 21 0.9999961853027344 M 21 -3.814697265625e-06 C 32.59798049926758 -3.814697265625e-06 42 9.402027130126953 42 21.0000057220459 C 42 32.59798431396484 32.59798049926758 42.00000762939453 21 42.00000762939453 C 9.402019500732422 42.00000762939453 0 32.59798431396484 0 21.0000057220459 C 0 9.402027130126953 9.402019500732422 -3.814697265625e-06 21 -3.814697265625e-06 Z"/></g></g><g transform="translate(157.636 158.883)"><g transform="translate(0 1.821)"><g class="b" transform="translate(0 0)"><path class="d" d="M 8.096906661987305 27.87344741821289 L 8.096877098083496 27.87344741821289 C 8.014986991882324 27.87344741821289 7.931907176971436 27.87004661560059 7.84995698928833 27.86335754394531 C 7.09848690032959 27.80105590820312 6.415287017822266 27.46268653869629 5.974357128143311 26.93491744995117 C 5.60828685760498 26.49674606323242 5.435347080230713 25.95806694030762 5.487397193908691 25.41811752319336 L 5.50234842300415 25.26151657104492 L 5.31546688079834 26.0032958984375 C 5.068107128143311 26.98451614379883 4.089207172393799 27.66972732543945 2.934916973114014 27.66975593566895 C 2.723047018051147 27.66976737976074 2.509497165679932 27.64663696289062 2.300217151641846 27.60100746154785 C 1.566297054290771 27.44195747375488 0.9373170733451843 27.01631736755371 0.5757770538330078 26.43348693847656 C 0.2730070948600769 25.94537734985352 0.1802270859479904 25.38315582275391 0.3145370781421661 24.85037612915039 L 2.595247030258179 15.79765319824219 C 2.211800336837769 16.06801223754883 1.742943286895752 16.21987533569336 1.256577134132385 16.21991729736328 C 0.8043971061706543 16.21995735168457 0.366997092962265 16.09117698669434 -0.008342919871211052 15.84750652313232 C -0.516512930393219 15.51694679260254 -0.866132915019989 14.99443626403809 -0.9683329463005066 14.4134464263916 C -1.070042967796326 13.83519649505615 -0.9290529489517212 13.25532627105713 -0.5713329315185547 12.78067684173584 L 4.477396965026855 6.085806846618652 C 4.900106906890869 5.524916648864746 5.58411693572998 5.189906597137451 6.30692720413208 5.189906597137451 C 6.382808208465576 5.189906597137451 6.459246158599854 5.193624496459961 6.534924507141113 5.200974941253662 L 10.71984767913818 5.26580810546875 L 13.28477573394775 3.777009010314941 L 15.59823703765869 0.05556665733456612 C 16.00369644165039 -0.5957333445549011 16.74669647216797 -1.000003337860107 17.53762626647949 -1.000003337860107 C 17.92129707336426 -1.000003337860107 18.30165672302246 -0.9048633575439453 18.6375675201416 -0.7248833179473877 C 19.17424774169922 -0.4373433291912079 19.56984710693359 0.05557665973901749 19.72289657592773 0.6274866461753845 C 19.8740177154541 1.192126631736755 19.78588676452637 1.778866648674011 19.47475624084473 2.279626607894897 L 16.96027755737305 6.324426651000977 C 16.90801239013672 6.408398628234863 16.84978485107422 6.489075183868408 16.78646278381348 6.565342426300049 C 16.60235786437988 6.833618640899658 16.35544586181641 7.061609268188477 16.06795692443848 7.22797679901123 L 12.29442596435547 9.418304443359375 L 11.81453227996826 13.24260520935059 L 10.60933685302734 25.86617660522461 C 10.49917697906494 27.01080703735352 9.419096946716309 27.87341690063477 8.096906661987305 27.87344741821289 Z"/><path class="f" d="M 8.096877098083496 26.87344741821289 C 8.89035701751709 26.87342643737793 9.552967071533203 26.40388679504395 9.613866806030273 25.77113723754883 L 10.8204870223999 13.13263702392578 L 11.3638973236084 8.802176475524902 L 15.56709671020508 6.362446784973145 C 15.74631690979004 6.258736610412598 15.88748741149902 6.119846820831299 15.9869270324707 5.961466789245605 C 16.03253746032715 5.910706520080566 16.07416725158691 5.855656623840332 16.11100769042969 5.796466827392578 L 18.62535667419434 1.751886606216431 C 18.97288703918457 1.19253671169281 18.76657676696777 0.4787166714668274 18.16529655456543 0.1565666645765305 C 17.96723175048828 0.05044498294591904 17.75102424621582 4.086303704298189e-07 17.53762435913086 4.086303704298189e-07 C 17.10318946838379 4.086303704298189e-07 16.6805591583252 0.2091679722070694 16.44750785827637 0.5835266709327698 L 14.00241661071777 4.516706466674805 L 10.98183727264404 6.269986629486084 L 6.473067283630371 6.200136661529541 C 6.417795658111572 6.193294525146484 6.362338542938232 6.189908981323242 6.306923866271973 6.189908981323242 C 5.910639762878418 6.189908981323242 5.520370006561279 6.363412380218506 5.275816917419434 6.687906742095947 L 0.2272670865058899 13.38253688812256 C -0.1710129231214523 13.91100692749023 -0.03200291842222214 14.63915634155273 0.5361770987510681 15.00875663757324 C 0.7559152245521545 15.15141296386719 1.007424116134644 15.21993923187256 1.256486654281616 15.2199182510376 C 1.652686715126038 15.21988391876221 2.04251766204834 15.04638862609863 2.287067174911499 14.7219066619873 L 4.705447196960449 11.51501655578613 L 1.284197092056274 25.09482574462891 C 1.117597103118896 25.75568580627441 1.668137073516846 26.44081687927246 2.513236999511719 26.62395668029785 C 2.655497074127197 26.65497207641602 2.797013521194458 26.66976165771484 2.934892892837524 26.66975784301758 C 3.61609148979187 26.66973876953125 4.207211494445801 26.3086109161377 4.345767021179199 25.75899696350098 L 6.453207015991211 17.3940258026123 L 7.258037090301514 17.3940258026123 L 6.482787132263184 25.51406669616699 C 6.417696952819824 26.18927574157715 7.066417217254639 26.79496574401855 7.931386947631836 26.86667633056641 C 7.987077236175537 26.8712272644043 8.042266845703125 26.87344741821289 8.096877098083496 26.87344741821289 M 8.096926689147949 28.87344741821289 L 8.096877098083496 28.87344741821289 C 7.987926959991455 28.87344741821289 7.877447128295898 28.86893653869629 7.768527030944824 28.86003684997559 C 6.8379807472229 28.78288459777832 5.97821044921875 28.38486862182617 5.370477676391602 27.75772094726562 C 4.744428634643555 28.32777786254883 3.880091905593872 28.66972732543945 2.934957027435303 28.66975593566895 C 2.651617050170898 28.66977691650391 2.366337060928345 28.638916015625 2.087146997451782 28.57803726196289 C 1.091117024421692 28.36219596862793 0.2295970767736435 27.7724666595459 -0.2740029096603394 26.96061706542969 C -0.7209329009056091 26.24011611938477 -0.8562828898429871 25.40387725830078 -0.6551229357719421 24.60592651367188 L 1.205774307250977 17.21953773498535 C 0.5778654217720032 17.21016502380371 -0.02914885617792606 17.0262622833252 -0.5528829097747803 16.68623733520508 C -1.293312907218933 16.20459747314453 -1.803162932395935 15.43969631195068 -1.953202962875366 14.58669662475586 C -2.101302862167358 13.74479675292969 -1.888702869415283 12.86715698242188 -1.369932889938354 12.17880630493164 L 3.678977012634277 5.483696460723877 C 4.289397239685059 4.673746585845947 5.271936893463135 4.189906597137451 6.30692720413208 4.189906597137451 C 6.40019702911377 4.189906597137451 6.494078636169434 4.19385290145874 6.587380409240723 4.201667785644531 L 10.45785140991211 4.261629104614258 L 12.56714725494385 3.037299156188965 L 14.74896717071533 -0.4723833501338959 C 15.33580684661865 -1.415063381195068 16.40410614013672 -2.000003337860107 17.53762626647949 -2.000003337860107 C 18.08548736572266 -2.000003337860107 18.62914657592773 -1.863883376121521 19.10981750488281 -1.606353282928467 C 19.88912773132324 -1.188813328742981 20.46468734741211 -0.4688433408737183 20.68890762329102 0.3689566552639008 C 20.90898704528809 1.191306710243225 20.77604675292969 2.080076694488525 20.32416725158691 2.807376623153687 L 17.80954742431641 6.852376461029053 C 17.74115753173828 6.962262153625488 17.66592025756836 7.068118572235107 17.58469200134277 7.168863773345947 C 17.31966400146484 7.543025016784668 16.97131538391113 7.860589504241943 16.56881713867188 8.093506813049316 L 13.22495460510254 10.03443717956543 L 12.80861854553223 13.35224056243896 L 11.60481739044189 25.96121597290039 C 11.44496726989746 27.62206649780273 9.936966896057129 28.8733959197998 8.096926689147949 28.87344741821289 Z"/></g></g><g class="c" transform="translate(7.199 0)"><circle class="d" cx="1.787" cy="1.787" r="1.787"/><circle class="g" cx="1.787" cy="1.787" r="2.787"/></g></g></g></svg>