<svg xmlns="http://www.w3.org/2000/svg" xmlns:xlink="http://www.w3.org/1999/xlink" width="60" height="59.927" viewBox="0 0 60 59.927"><defs><style>.a{fill:#f96562;}.b,.d{fill:#fff;}.c,.d{stroke:none;}.e{filter:url(#a);}</style><filter id="a" x="0" y="0" width="60" height="59.927" filterUnits="userSpaceOnUse"><feOffset input="SourceAlpha"/><feGaussianBlur stdDeviation="3" result="b"/><feFlood flood-color="#080808" flood-opacity="0.161"/><feComposite operator="in" in2="b"/><feComposite in="SourceGraphic"/></filter></defs><g transform="translate(-242.125 -155.097)"><g class="e" transform="matrix(1, 0, 0, 1, 242.13, 155.1)"><g class="a" transform="translate(9 9)"><path class="c" d="M 21 41.42745590209961 C 18.2321891784668 41.42745590209961 15.54745006561279 40.88642501831055 13.02033996582031 39.81939697265625 C 10.57925033569336 38.7886848449707 8.386839866638184 37.31304550170898 6.504010200500488 35.43346786499023 C 4.621230125427246 33.55393600463867 3.143100023269653 31.36541557312012 2.11067008972168 28.92869567871094 C 1.0419100522995 26.40622520446777 0.5 23.72642517089844 0.5 20.96372604370117 C 0.5 18.20102691650391 1.0419100522995 15.52122592926025 2.11067008972168 12.99875640869141 C 3.143100023269653 10.56203651428223 4.621230125427246 8.373516082763672 6.504010200500488 6.493986129760742 C 8.386839866638184 4.614406108856201 10.57925033569336 3.138766050338745 13.02033996582031 2.10805606842041 C 15.54745006561279 1.041025996208191 18.2321891784668 0.4999960362911224 21 0.4999960362911224 C 23.7678108215332 0.4999960362911224 26.45255088806152 1.041025996208191 28.97966003417969 2.10805606842041 C 31.42074966430664 3.138766050338745 33.6131591796875 4.614406108856201 35.49599075317383 6.493986129760742 C 37.37876892089844 8.373516082763672 38.85689926147461 10.56203651428223 39.88933181762695 12.99875640869141 C 40.95809173583984 15.52122592926025 41.5 18.20102691650391 41.5 20.96372604370117 C 41.5 23.72642517089844 40.95809173583984 26.40622520446777 39.88933181762695 28.92869567871094 C 38.85689926147461 31.36541557312012 37.37876892089844 33.55393600463867 35.49599075317383 35.43346786499023 C 33.6131591796875 37.31304550170898 31.42074966430664 38.7886848449707 28.97966003417969 39.81939697265625 C 26.45255088806152 40.88642501831055 23.7678108215332 41.42745590209961 21 41.42745590209961 Z"/><path class="d" d="M 21 0.9999961853027344 C 18.29936027526855 0.9999961853027344 15.68004989624023 1.527774810791016 13.21483039855957 2.568675994873047 C 10.83332061767578 3.574226379394531 8.694320678710938 5.013954162597656 6.857250213623047 6.847846984863281 C 5.020301818847656 8.681625366210938 3.578220367431641 10.81671524047852 2.571048736572266 13.19381523132324 C 1.528579711914062 15.65423583984375 1 18.2684154510498 1 20.96372604370117 C 1 23.65903663635254 1.528579711914062 26.27321624755859 2.571048736572266 28.73363494873047 C 3.578220367431641 31.11073684692383 5.020301818847656 33.24582672119141 6.857250213623047 35.07960510253906 C 8.694320678710938 36.91349792480469 10.83332061767578 38.35322570800781 13.21483039855957 39.3587760925293 C 15.68004989624023 40.39967727661133 18.29936027526855 40.92745590209961 21 40.92745590209961 C 23.70063972473145 40.92745590209961 26.31995010375977 40.39967727661133 28.78516960144043 39.3587760925293 C 31.16667938232422 38.35322570800781 33.30567932128906 36.91349792480469 35.14274978637695 35.07960510253906 C 36.97969818115234 33.24582672119141 38.42177963256836 31.11073684692383 39.42895126342773 28.73363494873047 C 40.47142028808594 26.27321624755859 41 23.65903663635254 41 20.96372604370117 C 41 18.2684154510498 40.47142028808594 15.65423583984375 39.42895126342773 13.19381523132324 C 38.42177963256836 10.81671524047852 36.97969818115234 8.681625366210938 35.14274978637695 6.847846984863281 C 33.30567932128906 5.013954162597656 31.16667938232422 3.574226379394531 28.78516960144043 2.568675994873047 C 26.31995010375977 1.527774810791016 23.70063972473145 0.9999961853027344 21 0.9999961853027344 M 21 -3.814697265625e-06 C 32.59798049926758 -3.814697265625e-06 42 9.385776519775391 42 20.96372604370117 C 42 32.54167556762695 32.59798049926758 41.92745590209961 21 41.92745590209961 C 9.402019500732422 41.92745590209961 0 32.54167556762695 0 20.96372604370117 C 0 9.385776519775391 9.402019500732422 -3.814697265625e-06 21 -3.814697265625e-06 Z"/></g></g><g transform="translate(262.122 171.487)"><path class="b" d="M12.683,24.616v-.667H7.046v.667a2.114,2.114,0,1,1-4.227,0v-.672a3,3,0,0,1-2.819-3V5A5.006,5.006,0,0,1,5,0h9.729a5.005,5.005,0,0,1,5,5V20.948a3,3,0,0,1-2.818,3v.672a2.114,2.114,0,1,1-4.228,0Zm4.228-2.076a1.409,1.409,0,1,0-.317-.036h.317v.036Zm-9.865,0h5.637V22.5H13a1.409,1.409,0,0,0-.317-2.781H7.046A1.408,1.408,0,0,0,6.729,22.5h.317v.036ZM1.409,21.131A1.411,1.411,0,0,0,2.819,22.54V22.5h.317a1.409,1.409,0,1,0-1.727-1.373Zm0-10.5V15.5H18.32V10.635a5.006,5.006,0,0,0-5-5H6.41A5.006,5.006,0,0,0,1.409,10.635ZM5.637,2.818A1.411,1.411,0,0,0,7.046,4.226h5.638a1.409,1.409,0,0,0,0-2.818H7.046A1.411,1.411,0,0,0,5.637,2.818Z"/></g></g></svg>