<svg xmlns="http://www.w3.org/2000/svg" xmlns:xlink="http://www.w3.org/1999/xlink" width="60" height="60" viewBox="0 0 60 60"><defs><style>.a,.c{fill:#007db6;}.b,.d,.g{fill:none;}.c,.d{stroke-linecap:round;stroke-linejoin:round;stroke-miterlimit:10;}.d{stroke:#fff;stroke-width:2px;}.e,.f{stroke:none;}.f{fill:#fff;}.h{filter:url(#a);}</style><filter id="a" x="0" y="0" width="60" height="60" filterUnits="userSpaceOnUse"><feOffset input="SourceAlpha"/><feGaussianBlur stdDeviation="3" result="b"/><feFlood flood-color="#080808" flood-opacity="0.161"/><feComposite operator="in" in2="b"/><feComposite in="SourceGraphic"/></filter></defs><g transform="translate(-137.023 -143)"><g class="h" transform="matrix(1, 0, 0, 1, 137.02, 143)"><g class="a" transform="translate(9 9)"><path class="e" d="M 20.99999809265137 41.5 C 18.23229789733887 41.5 15.54764842987061 40.95804977416992 13.02062797546387 39.88920974731445 C 10.57955837249756 38.85672760009766 8.387158393859863 37.3785285949707 6.504308223724365 35.49568939208984 C 4.621468067169189 33.61283874511719 3.14326810836792 31.42043876647949 2.110788106918335 28.97936820983887 C 1.041948080062866 26.45234870910645 0.4999980926513672 23.76769828796387 0.4999980926513672 20.99999809265137 C 0.4999980926513672 18.23229789733887 1.041948080062866 15.54764842987061 2.110788106918335 13.02062797546387 C 3.14326810836792 10.57955837249756 4.621468067169189 8.387158393859863 6.504308223724365 6.504308223724365 C 8.387158393859863 4.621468067169189 10.57955837249756 3.14326810836792 13.02062797546387 2.110788106918335 C 15.54764842987061 1.041948080062866 18.23229789733887 0.4999980926513672 20.99999809265137 0.4999980926513672 C 23.76769828796387 0.4999980926513672 26.45234870910645 1.041948080062866 28.97936820983887 2.110788106918335 C 31.42043876647949 3.14326810836792 33.61283874511719 4.621468067169189 35.49568939208984 6.504308223724365 C 37.3785285949707 8.387158393859863 38.85672760009766 10.57955837249756 39.88920974731445 13.02062797546387 C 40.95804977416992 15.54764842987061 41.5 18.23229789733887 41.5 20.99999809265137 C 41.5 23.76769828796387 40.95804977416992 26.45234870910645 39.88920974731445 28.97936820983887 C 38.85672760009766 31.42043876647949 37.3785285949707 33.61283874511719 35.49568939208984 35.49568939208984 C 33.61283874511719 37.3785285949707 31.42043876647949 38.85672760009766 28.97936820983887 39.88920974731445 C 26.45234870910645 40.95804977416992 23.76769828796387 41.5 20.99999809265137 41.5 Z"/><path class="f" d="M 20.99999809265137 0.9999961853027344 C 18.2995777130127 0.9999961853027344 15.68045806884766 1.528659820556641 13.21539878845215 2.5712890625 C 10.83393859863281 3.578559875488281 8.6949462890625 5.020778656005859 6.857856750488281 6.857856750488281 C 5.020778656005859 8.6949462890625 3.578559875488281 10.83393859863281 2.5712890625 13.21539878845215 C 1.528659820556641 15.68045806884766 0.9999961853027344 18.2995777130127 0.9999961853027344 20.99999809265137 C 0.9999961853027344 23.70041847229004 1.528659820556641 26.31953811645508 2.5712890625 28.78459930419922 C 3.578559875488281 31.16605758666992 5.020778656005859 33.30504608154297 6.857856750488281 35.14213943481445 C 8.6949462890625 36.97921752929688 10.83393859863281 38.42143630981445 13.21539878845215 39.42870712280273 C 15.68045806884766 40.47133636474609 18.2995777130127 41 20.99999809265137 41 C 23.70041847229004 41 26.31953811645508 40.47133636474609 28.78459930419922 39.42870712280273 C 31.16605758666992 38.42143630981445 33.30504608154297 36.97921752929688 35.14213943481445 35.14213943481445 C 36.97921752929688 33.30504608154297 38.42143630981445 31.16605758666992 39.42870712280273 28.78459930419922 C 40.47133636474609 26.31953811645508 41 23.70041847229004 41 20.99999809265137 C 41 18.2995777130127 40.47133636474609 15.68045806884766 39.42870712280273 13.21539878845215 C 38.42143630981445 10.83393859863281 36.97921752929688 8.6949462890625 35.14213943481445 6.857856750488281 C 33.30504608154297 5.020778656005859 31.16605758666992 3.578559875488281 28.78459930419922 2.5712890625 C 26.31953811645508 1.528659820556641 23.70041847229004 0.9999961853027344 20.99999809265137 0.9999961853027344 M 20.99999809265137 -3.814697265625e-06 C 32.59797668457031 -3.814697265625e-06 42 9.402019500732422 42 20.99999809265137 C 42 32.59797668457031 32.59797668457031 42 20.99999809265137 42 C 9.402019500732422 42 -3.814697265625e-06 32.59797668457031 -3.814697265625e-06 20.99999809265137 C -3.814697265625e-06 9.402019500732422 9.402019500732422 -3.814697265625e-06 20.99999809265137 -3.814697265625e-06 Z"/></g></g><g transform="translate(158.116 157.462)"><g transform="translate(0 7.344)"><g class="b" transform="translate(-9.823 -8.257)"><path class="e" d="M17.025,25.4s-1.91,2.4-3.373,4.382-4.328-.025-2.616-2.33,3.283-4.137,3.283-4.137l.933-5.032.259-1.357,2.812,3.232Z"/><path class="f" d="M 12.19037532806396 30.59576797485352 C 12.69892406463623 30.59576797485352 13.23296546936035 30.35500144958496 13.65191173553467 29.78662109375 C 15.11452198028564 27.80232238769531 17.02455139160156 25.40460205078125 17.02455139160156 25.40460205078125 L 18.32276153564453 20.16231155395508 L 15.511061668396 16.93066215515137 L 15.25241184234619 18.28717231750488 L 14.31913185119629 23.31954193115234 C 14.31913185119629 23.31954193115234 12.74777221679688 25.15171241760254 11.03605175018311 27.45690155029297 C 9.814640998840332 29.10179710388184 10.92350006103516 30.59576797485352 12.19037532806396 30.59576797485352 M 12.19037246704102 32.59577178955078 C 10.81504249572754 32.59577178955078 9.524322509765625 31.79646110534668 8.902102470397949 30.5594425201416 C 8.229242324829102 29.22173118591309 8.426702499389648 27.61617279052734 9.43032169342041 26.26458168029785 C 10.69914054870605 24.55584907531738 11.88082981109619 23.11461067199707 12.44918155670166 22.43440437316895 L 13.28594207763672 17.92248153686523 L 13.28686237335205 17.91752243041992 L 13.28780174255371 17.91257286071777 L 13.54645252227783 16.55606269836426 L 14.31756210327148 12.51192188262939 L 17.01991271972656 15.61789226531982 L 19.83161163330078 18.84954261779785 L 20.5140323638916 19.63389205932617 L 20.26412200927734 20.6430721282959 L 18.96591186523438 25.88536262512207 L 18.86095237731934 26.3091926574707 L 18.58889198303223 26.65073204040527 C 18.57001304626465 26.6744327545166 16.68455123901367 29.04309272766113 15.26183223724365 30.97328186035156 C 14.50180244445801 32.00440216064453 13.38230228424072 32.59577178955078 12.19037246704102 32.59577178955078 Z"/></g><g class="b" transform="translate(-7.837 -6.915)"><path class="e" d="M20.574,9.613c.034.048,3.108,3.8,3.108,3.8s1.08.283,3.154.912,1.346,3.1-.613,2.553-3.65-1.055-3.65-1.055l-2.5-2.746S20.541,9.565,20.574,9.613Z"/><path class="f" d="M 20.57347297668457 9.6123046875 C 20.53415107727051 9.6123046875 20.07049179077148 13.07988739013672 20.07049179077148 13.07988739013672 L 22.57291221618652 15.82550716400146 C 22.57291221618652 15.82550716400146 24.26380348205566 16.331787109375 26.22305297851562 16.88038635253906 C 26.41629981994629 16.93449592590332 26.59736061096191 16.95918464660645 26.7651424407959 16.95918464660645 C 28.29843902587891 16.95918464660645 28.70566940307617 14.89354801177979 26.83652305603027 14.32723712921143 C 24.76283264160156 13.69894695281982 23.68244171142578 13.4155969619751 23.68244171142578 13.4155969619751 C 23.68244171142578 13.4155969619751 20.6078929901123 9.661037445068359 20.57422256469727 9.612796783447266 C 20.5739917755127 9.612466812133789 20.57374382019043 9.6123046875 20.57347297668457 9.6123046875 M 20.57347297668457 7.612306594848633 L 21.61737251281738 7.612306594848633 L 22.17755126953125 8.415483474731445 C 22.41439247131348 8.708351135253906 23.75025939941406 10.34128189086914 24.82572746276855 11.65493488311768 C 25.35998344421387 11.80426979064941 26.2271556854248 12.05282974243164 27.41645240783691 12.41316699981689 C 29.21592330932617 12.9583568572998 30.29818344116211 14.51702690124512 30.04830169677734 16.20355606079102 C 29.81172180175781 17.80027770996094 28.43096351623535 18.95918655395508 26.7651424407959 18.95918655395508 C 26.40989303588867 18.95918655395508 26.04607200622559 18.90775680541992 25.68379211425781 18.80631637573242 C 23.72989273071289 18.25921630859375 22.01632308959961 17.74657821655273 21.99924278259277 17.7414665222168 L 21.46817207336426 17.58245658874512 L 21.09475326538086 17.17273712158203 L 18.59233283996582 14.42711734771729 L 17.96464347839355 13.73842716217041 L 18.08813285827637 12.81481742858887 C 18.08930206298828 12.80609703063965 18.2061824798584 11.9324369430542 18.32638168334961 11.06999683380127 C 18.39756202697754 10.55937767028809 18.4561824798584 10.15093612670898 18.50063323974609 9.856037139892578 C 18.52895355224609 9.668157577514648 18.55163192749023 9.525396347045898 18.56997299194336 9.419607162475586 C 18.58368301391602 9.340566635131836 18.59562301635742 9.27836799621582 18.60754203796387 9.223836898803711 C 18.81511306762695 8.274997711181641 19.62353324890137 7.612306594848633 20.57347297668457 7.612306594848633 Z"/></g><g class="c" transform="translate(-11 -14)"><path class="e" d="M 24.15040969848633 37.25469207763672 C 23.47087097167969 37.25469207763672 22.82605171203613 36.99190139770508 22.338623046875 36.54456329345703 L 21.94687080383301 36.74068069458008 L 21.65800285339355 35.56311416625977 C 21.5777587890625 35.35992813110352 21.52278518676758 35.13931655883789 21.49404716491699 34.90505218505859 L 20.2966423034668 30.09779739379883 L 17.21882820129395 27.28988838195801 C 16.7550163269043 27.0160961151123 16.35780715942383 26.65107154846191 16.05978012084961 26.22467231750488 L 15.8800106048584 26.04535293579102 L 15.86289119720459 25.90735816955566 C 15.55611324310303 25.35718154907227 15.39504051208496 24.74270820617676 15.39504051208496 24.11576271057129 C 15.39504051208496 23.87698745727539 15.42299747467041 23.63168144226074 15.48015880584717 23.37133407592773 L 15.47681045532227 23.35232162475586 L 15.53219032287598 23.14084243774414 C 15.53721523284912 23.12164688110352 15.84492206573486 21.94504737854004 16.18258094787598 20.57303810119629 L 16.17445755004883 20.57898712158203 L 14.58242702484131 24.14862251281738 C 14.27538871765137 25.11935615539551 13.36886215209961 25.79015159606934 12.3487606048584 25.79015159606934 C 11.05365085601807 25.79015159606934 10 24.73650169372559 10 23.44138145446777 C 10 23.03971290588379 10.10592937469482 22.64286231994629 10.30712413787842 22.28823661804199 L 12.19348049163818 17.83812141418457 L 12.24297046661377 17.72136306762695 L 12.2578182220459 17.70196151733398 C 12.39966487884521 17.40805053710938 12.60315132141113 17.14603996276855 12.85543251037598 16.9324779510498 L 12.86844062805176 16.91557312011719 L 12.97279071807861 16.83565139770508 L 16.98603057861328 13.76180267333984 C 17.62831115722656 13.270432472229 18.42657089233398 13.00000190734863 19.23418045043945 13.00000190734863 L 20.7609806060791 13.00000190734863 L 20.9234504699707 13.00000190734863 L 20.9341869354248 13.00356292724609 C 22.71515464782715 13.08511257171631 24.13883972167969 14.5595874786377 24.13883972167969 16.3603515625 C 24.13883972167969 16.54710006713867 24.12030792236328 16.7373161315918 24.08259582519531 16.93524551391602 L 24.09803009033203 16.97234153747559 L 24.00669097900391 17.29914283752441 L 22.20838165283203 23.91250610351562 L 25.10663986206055 27.80119132995605 L 25.22659111022949 27.96213150024414 L 25.27515029907227 28.15690231323242 L 26.60548400878906 33.4935188293457 C 26.75874900817871 33.83968734741211 26.83636093139648 34.20083618164062 26.83636093139648 34.56873321533203 C 26.83636093139648 36.04977035522461 25.63145065307617 37.25469207763672 24.15040969848633 37.25469207763672 Z"/><path class="f" d="M 24.15040969848633 36.25469207763672 C 25.08172988891602 36.25469207763672 25.83636093139648 35.50005340576172 25.83636093139648 34.56873321533203 C 25.83636093139648 34.30167388916016 25.7689208984375 34.05282211303711 25.65832138061523 33.82825088500977 L 24.30484008789062 28.39878273010254 L 21.11569976806641 24.11981201171875 L 23.0417308807373 17.03675270080566 C 23.0417308807373 17.03675270080566 23.03701019287109 17.02528190612793 23.03431129455566 17.01921272277832 C 23.09568023681641 16.80881309509277 23.13883972167969 16.59031295776367 23.13883972167969 16.3603515625 C 23.13883972167969 15.0567626953125 22.08208084106445 14.00000190734863 20.77851104736328 14.00000190734863 C 20.77445983886719 14.00000190734863 20.77108955383301 14.00135231018066 20.76704978942871 14.00135231018066 C 20.7650203704834 14.00135231018066 20.76300048828125 14.00000190734863 20.7609806060791 14.00000190734863 L 19.23418045043945 14.00000190734863 C 18.64140129089355 14.00000190734863 18.06480979919434 14.19557189941406 17.59409141540527 14.55569267272949 L 13.58085060119629 17.62954139709473 L 13.57411003112793 17.63830184936523 C 13.37517070770264 17.78532218933105 13.21669006347656 17.98358154296875 13.12295055389404 18.21693229675293 L 13.11418056488037 18.22839164733887 L 11.20232009887695 22.73867225646973 C 11.07621002197266 22.94368171691895 11 23.18309211730957 11 23.44138145446777 C 11 24.18658256530762 11.60357093811035 24.79015159606934 12.3487606048584 24.79015159606934 C 12.96852016448975 24.79015159606934 13.4850902557373 24.37000274658203 13.64289093017578 23.80015182495117 L 15.36931037902832 19.92919158935547 L 17.77213096618652 18.16904258728027 C 17.3283805847168 20.22928237915039 16.49957084655762 23.39417266845703 16.49957084655762 23.39417266845703 L 16.50159072875977 23.40564155578613 C 16.43887138366699 23.63358306884766 16.39504051208496 23.86827278137207 16.39504051208496 24.11576271057129 C 16.39504051208496 24.65460205078125 16.5568904876709 25.15364265441895 16.8293399810791 25.57513236999512 L 16.83001136779785 25.58053207397461 L 16.83406066894531 25.58457183837891 C 17.07818031311035 25.95953178405762 17.41672134399414 26.2609920501709 17.81056976318359 26.47611236572266 L 21.19392967224121 29.56277275085449 L 22.48064041137695 34.72856140136719 C 22.4981803894043 34.91199111938477 22.53864097595215 35.0880012512207 22.61079978942871 35.24985122680664 L 22.61956977844238 35.28560256958008 L 22.62766075134277 35.28155136108398 C 22.89673042297363 35.85478210449219 23.47467994689941 36.25469207763672 24.15040969848633 36.25469207763672 M 24.15040969848633 38.25469207763672 C 22.82500839233398 38.25469207763672 21.596435546875 37.52800750732422 20.94656944274902 36.38154983520508 C 20.85004997253418 36.23422241210938 20.77263641357422 36.0735969543457 20.71737480163574 35.90341567993164 C 20.6191291809082 35.64831161499023 20.54968070983887 35.37650680541992 20.5099925994873 35.09173202514648 L 19.39935302734375 30.63281059265137 L 16.61686515808105 28.09433174133301 C 16.05162811279297 27.74320220947266 15.56778526306152 27.28159713745117 15.20396614074707 26.74499702453613 C 15.1613245010376 26.68545532226562 15.12206649780273 26.62372779846191 15.08630466461182 26.56006622314453 C 14.93854236602783 26.31850433349609 14.81355381011963 26.06593704223633 14.71225929260254 25.8054084777832 C 14.09903240203857 26.41935539245605 13.25539302825928 26.79015159606934 12.3487606048584 26.79015159606934 C 10.50225067138672 26.79015159606934 9 25.28790283203125 9 23.44138145446777 C 9 22.88714599609375 9.140204429626465 22.34054756164551 9.406935691833496 21.84956741333008 L 11.272780418396 17.44784164428711 C 11.29111862182617 17.40458488464355 11.31095695495605 17.36203002929688 11.33225727081299 17.32023620605469 C 11.54657554626465 16.85524559020996 11.86697101593018 16.44467544555664 12.26928997039795 16.11963844299316 C 12.30027198791504 16.09272766113281 12.33209991455078 16.0667552947998 12.36473083496094 16.04176139831543 L 16.37796974182129 12.9679126739502 C 17.19414138793945 12.34350204467773 18.20818138122559 12.00000190734863 19.23418045043945 12.00000190734863 L 20.7609806060791 12.00000190734863 C 20.76388359069824 12.00000190734863 20.76679420471191 12.00000953674316 20.76969718933105 12.00002193450928 C 20.77263450622559 12.00000858306885 20.77557373046875 12.00000190734863 20.77851104736328 12.00000190734863 C 23.18280029296875 12.00000190734863 25.13883972167969 13.95604228973389 25.13883972167969 16.3603515625 C 25.13883972167969 16.67650032043457 25.10006141662598 16.99539756774902 25.02073860168457 17.32871246337891 C 25.00899696350098 17.40667343139648 24.99262619018555 17.48440551757812 24.97165107727051 17.56154251098633 L 23.30106544494629 23.70519065856934 L 25.90845108032227 27.2036018371582 C 26.06680107116699 27.41607284545898 26.18136024475098 27.65789222717285 26.24545097351074 27.9150218963623 L 27.55635261535645 33.17369079589844 C 27.74227523803711 33.62213134765625 27.83636093139648 34.09030151367188 27.83636093139648 34.56873321533203 C 27.83636093139648 36.60118103027344 26.1828498840332 38.25469207763672 24.15040969848633 38.25469207763672 Z"/></g></g><g class="d" transform="translate(8.648 0)"><ellipse class="e" cx="1.778" cy="1.778" rx="1.778" ry="1.778"/><ellipse class="g" cx="1.778" cy="1.778" rx="2.778" ry="2.778"/></g></g></g></svg>