<svg id="Layer_1" data-name="Layer 1" xmlns="http://www.w3.org/2000/svg" viewBox="0 0 51.5 51.5"><defs><style>.cls-1{fill:#707070;stroke:#fff;stroke-linecap:round;stroke-linejoin:round;stroke-width:1.5px;}.cls-1,.cls-2{fill-rule:evenodd;}.cls-2{fill:#fff;}</style></defs><title>help-desktop-close-icon</title><path class="cls-1" d="M26,1A25,25,0,1,1,1,26,25,25,0,0,1,26,1Z" transform="translate(-0.25 -0.25)"/><path class="cls-2" d="M11.58,11.09a1.17,1.17,0,0,1,1.66,0L41.4,39.26a1.17,1.17,0,1,1-1.66,1.66L11.58,12.74A1.17,1.17,0,0,1,11.58,11.09Z" transform="translate(-0.25 -0.25)"/><path class="cls-2" d="M10.6,39.26,38.77,11.09a1.17,1.17,0,0,1,1.66,1.66L12.25,40.91a1.17,1.17,0,1,1-1.66-1.66Z" transform="translate(-0.25 -0.25)"/></svg>