<?xml version="1.0" encoding="utf-8"?>
<!-- Generator: Adobe Illustrator 14.0.0, SVG Export Plug-In . SVG Version: 6.00 Build 43363)  -->
<!DOCTYPE svg PUBLIC "-//W3C//DTD SVG 1.1//EN" "http://www.w3.org/Graphics/SVG/1.1/DTD/svg11.dtd">
<svg version="1.1" xmlns="http://www.w3.org/2000/svg" xmlns:xlink="http://www.w3.org/1999/xlink" x="0px" y="0px" width="250px"
	 height="250px" viewBox="0 0 250 250" enable-background="new 0 0 250 250" xml:space="preserve">
<g id="Layer_2">
	<rect y="-1" fill="#E2E3E4" width="250" height="251"/>
</g>
<g id="Layer_3">
	<rect x="92.833" y="52.5" fill="#A3A2A2" width="28.667" height="197.5"/>
	<rect x="-0.167" y="52.168" fill="#A3A2A2" width="35.333" height="197.665"/>
	<rect x="35.167" y="98.833" fill="#D3D3D3" width="57.667" height="151.167"/>
	<rect x="35.167" y="169.5" fill="#BFBEBE" width="57.833" height="80.5"/>
	<rect y="98.833" fill="#747373" width="35.167" height="3"/>
	<rect x="93" y="98.833" fill="#747373" width="33.5" height="3"/>
	<rect x="93" y="168.5" fill="#747373" width="33.5" height="3"/>
	<rect y="168.5" fill="#747373" width="35.167" height="3"/>
	<rect x="127.334" y="141.833" fill="#D3D3D3" width="122.666" height="108.167"/>
	<polygon fill="#0099FF" points="61.833,63.167 50.5,74.167 56.167,74.167 56.167,97.333 66.875,97.333 66.875,73.75 72.167,73.75 	
		"/>
	<polygon fill="#0099FF" points="61.833,227.834 73.166,216.834 67.5,216.834 67.5,193.666 56.791,193.666 56.791,217.25 
		51.5,217.25 	"/>
	<polygon fill="#0099FF" points="231.658,100.176 218.076,99.974 221.522,103.419 207.432,117.51 213.944,124.022 228.288,109.679 
		231.506,112.897 	"/>
	<polygon fill="#0099FF" points="150.771,180.848 164.353,181.05 160.906,177.604 174.997,163.514 168.484,157.001 154.141,171.344 
		150.923,168.127 	"/>
	<path fill="#848484" d="M36.5,117.083v49.083h52.917v-49.083H36.5z M85.833,162.833H39.667v-43.25h46.167V162.833z"/>
	<circle fill="#848484" cx="48.771" cy="134.563" r="4.021"/>
	<path fill="#848484" d="M45.75,151.875v10.333h6.417c0,0,0-11.458,0-10.333c-0.125,1.625,2.667,2.25,2.792,0.083
		c0,0,0.021-11.146,0-11.708s-0.417-1.916-2.625-1.958s-6.24,0-7.115,0s-2.375,0.989-2.375,2.489s0.031,9.636,0.031,11.386
		S45.458,154.375,45.75,151.875z"/>
	<circle fill="#848484" cx="78.521" cy="134.563" r="4.021"/>
	<path fill="#848484" d="M75.5,151.626v10.333h6.417c0,0,0-11.458,0-10.333c-0.125,1.625,2.667,2.25,2.792,0.083
		c0,0,0.021-10.209,0-10.865s-0.417-2.759-2.625-2.801S75.125,138,75.125,138s-2.531,0.25-2.531,2.813
		c0,1.5,0.031,9.355,0.031,11.105S75.208,154.126,75.5,151.626z"/>
	<circle fill="#0099FF" cx="63.459" cy="134.563" r="4.021"/>
	<path fill="#0099FF" d="M60.438,151.626v10.333h6.417c0,0,0-11.458,0-10.333c-0.125,1.625,2.667,2.25,2.792,0.083
		c0,0,0.01-10.615,0.01-11.334s-0.427-2.29-2.635-2.332s-6.396,0.02-7.083,0.02s-2.313,0.988-2.313,2.488s0,9.637,0,11.387
		S60.146,154.126,60.438,151.626z"/>
	<polygon fill="#A3A2A2" points="128.334,222 142.834,222 142.834,213.833 151.167,213.833 151.167,203.5 160,203.5 160,195 
		169.167,195 169.167,186.5 178.334,186.5 178.334,177.5 186.834,177.5 186.834,168.833 196,168.833 196,159.667 205.167,159.667 
		205.167,150.667 213.5,150.667 213.5,142.333 222.167,142.333 222.167,133.5 231.5,133.5 231.5,125.333 241.667,125.333 
		241.667,117.167 250,117.167 250,250 128.167,250 	"/>
	<rect x="127.334" y="141.833" fill="#A1A1A1" width="18.166" height="3.834"/>
	<rect x="229" y="142.5" fill="#8E8E8E" width="21" height="4.333"/>
	<rect y="49.5" fill="#3E3F40" width="250.5" height="3"/>
	<rect x="121" y="50" fill="#3E3F40" width="9" height="203"/>
	<circle fill="#0099FF" cx="192.063" cy="133.75" r="3.75"/>
	<path fill="#0099FF" d="M186.938,139.563c0,0,1.625-1.813,3.25-1.688s3.563-0.188,5.375,0.313c0.479,0.604,0.833,4.417,0.771,4.729
		c1.167,0,3.854,0.646,5.292,0.646c2.125,0.5,1.563,2.25,0.563,2.375L196,145.625v3.125c0,0,5,2.021,5.063,2.208
		s0.063,7.042,0,8.042s-2.167,1.188-2.354-0.125c-0.25-1.438-0.333-6.75-0.333-6.75l-4.625-0.813l-0.917,0.438l-1.708,10.875
		l-0.813,6.25c0,0-2.375,0.875-2.438-0.25l0.688-18.25L189,142.25l-3.625,3l2.188,2.313c0,0,2.25,1.813,0.625,2.5
		c0,0-1.375,0.875-2.625-0.875c-1.813-1.625-3.625-2.563-3.5-3.813S186.938,139.563,186.938,139.563z"/>
	<text transform="matrix(1 0 0 1 25.5288 22.8335)"><tspan x="0" y="0" font-family="'MyriadPro-Regular'" font-size="12">Use the elevators or stairs to go to the </tspan><tspan x="54.557" y="14.4" font-family="'MyriadPro-Regular'" font-size="12">designated floor</tspan></text>
</g>
<g id="Layer_1" display="none">
	<image display="inline" overflow="visible" width="250" height="251" xlink:href="up_down.png"  transform="matrix(1 0 0 1 0 -1)">
	</image>
</g>
</svg>
