<svg xmlns="http://www.w3.org/2000/svg" width="22" height="22.654" viewBox="0 0 22 22.654"><defs><style>.a,.b{fill:none;}.a{stroke-linejoin:round;}.c,.e{fill:#080808;}.d,.e{stroke:none;}</style></defs><g class="a" transform="translate(2.179 0)"><path class="d" d="M8.225,22.2C1.288,12.877,0,11.921,0,8.5,0,3.8,4.1,0,9.167,0s9.167,3.8,9.167,8.5c0,3.425-1.288,4.382-8.225,13.7A1.2,1.2,0,0,1,8.225,22.2Z"/><path class="e" d="M 9.166674613952637 21.11836242675781 C 10.32834434509277 19.5598087310791 11.31471729278564 18.25752067565918 12.190016746521 17.10188865661621 C 16.39603614807129 11.54878807067871 16.93333625793457 10.75259876251221 16.93333625793457 8.495378494262695 C 16.93333625793457 4.582968235015869 13.44922733306885 1.399998426437378 9.166666984558105 1.399998426437378 C 4.884107112884521 1.399998426437378 1.399996995925903 4.582968235015869 1.399996995925903 8.495378494262695 C 1.399996995925903 9.739788055419922 1.588997006416321 10.47896862030029 2.177826881408691 11.53741836547852 C 2.866986989974976 12.77622890472412 4.100206851959229 14.40441799163818 6.143326759338379 17.10189819335938 C 7.018963813781738 18.25797462463379 8.005636215209961 19.56064796447754 9.166674613952637 21.11836242675781 M 9.166670799255371 22.65434074401855 C 8.809395790100098 22.65434074401855 8.452224731445312 22.50201034545898 8.224606513977051 22.19726753234863 C 1.287626981735229 12.87716865539551 -3.015441961906618e-06 11.9206485748291 -3.015441961906618e-06 8.495378494262695 C -3.015441961906618e-06 3.803498506546021 4.104046821594238 -1.54052736434096e-06 9.166666984558105 -1.54052736434096e-06 C 14.22929668426514 -1.54052736434096e-06 18.33333778381348 3.803498506546021 18.33333778381348 8.495378494262695 C 18.33333778381348 11.9206485748291 17.04570770263672 12.87716865539551 10.10873699188232 22.19726753234863 C 9.881150245666504 22.50195693969727 9.523858070373535 22.65434074401855 9.166670799255371 22.65434074401855 Z"/></g><g class="b" transform="translate(6.892 4.062)"><path class="d" d="M4.488,0A4.488,4.488,0,1,1,0,4.488,4.488,4.488,0,0,1,4.488,0Z"/><path class="e" d="M 4.487727642059326 1.599997520446777 C 2.895427703857422 1.599997520446777 1.599997520446777 2.895427703857422 1.599997520446777 4.487727642059326 C 1.599997520446777 6.08002758026123 2.895427703857422 7.375457763671875 4.487727642059326 7.375457763671875 C 6.08002758026123 7.375457763671875 7.375457763671875 6.08002758026123 7.375457763671875 4.487727642059326 C 7.375457763671875 2.895427703857422 6.08002758026123 1.599997520446777 4.487727642059326 1.599997520446777 M 4.487727642059326 -1.9073486328125e-06 C 6.966237545013428 -1.9073486328125e-06 8.975457191467285 2.009227752685547 8.975457191467285 4.487727642059326 C 8.975457191467285 6.966237545013428 6.966237545013428 8.975457191467285 4.487727642059326 8.975457191467285 C 2.009227752685547 8.975457191467285 -1.9073486328125e-06 6.966237545013428 -1.9073486328125e-06 4.487727642059326 C -1.9073486328125e-06 2.009227752685547 2.009227752685547 -1.9073486328125e-06 4.487727642059326 -1.9073486328125e-06 Z"/></g><path class="c" d="M2.2,0a2.2,2.2,0,0,1,2.2,2.2C4.39,3.408,0,3.408,0,2.2A2.2,2.2,0,0,1,2.2,0Z" transform="translate(0 19.126)"/><path class="c" d="M2.2,0a2.2,2.2,0,0,1,2.2,2.2C4.39,3.408,0,3.408,0,2.2A2.2,2.2,0,0,1,2.2,0Z" transform="translate(17.61 19.126)"/></svg>