<svg xmlns="http://www.w3.org/2000/svg" width="13.998" height="18.002" viewBox="0 0 13.998 18.002"><defs><style>.a,.b{fill:none;}.a{stroke-linejoin:round;}.c,.e{fill:#fff;}.d,.e{stroke:none;}</style></defs><g transform="translate(0 2.665)"><g class="a" transform="translate(0 -2.665)"><path class="d" d="M6.28,17.639C.983,10.233,0,9.473,0,6.751A6.878,6.878,0,0,1,7,0a6.878,6.878,0,0,1,7,6.751c0,2.722-.983,3.482-6.28,10.888A.894.894,0,0,1,6.28,17.639Z"/><path class="e" d="M 6.998836040496826 16.23928833007812 C 7.765981674194336 15.17108821868896 8.430434226989746 14.25805187225342 9.027297019958496 13.43788433074951 C 12.24432754516602 9.017284393310547 12.59765720367432 8.474034309387207 12.59765720367432 6.750833988189697 C 12.59765720367432 3.800374031066895 10.08603763580322 1.400004148483276 6.998827457427979 1.400004148483276 C 3.911617517471313 1.400004148483276 1.399997472763062 3.800374031066895 1.399997472763062 6.750833988189697 C 1.399997472763062 8.474034309387207 1.753327488899231 9.017284393310547 4.970367431640625 13.43789386749268 C 5.567453384399414 14.25835609436035 6.232175827026367 15.1717643737793 6.998836040496826 16.23928833007812 M 6.998826503753662 18.00222015380859 C 6.726044178009033 18.00222015380859 6.453343868255615 17.88117408752441 6.279557228088379 17.63901329040527 C 0.9831174612045288 10.23281383514404 -2.542572019592626e-06 9.472714424133301 -2.542572019592626e-06 6.750833988189697 C -2.542572019592626e-06 3.022444009780884 3.133477449417114 4.090881247975631e-06 6.998827457427979 4.090881247975631e-06 C 10.86418724060059 4.090881247975631e-06 13.99765777587891 3.022444009780884 13.99765777587891 6.750833988189697 C 13.99765777587891 9.472714424133301 13.0145378112793 10.23281383514404 7.718107223510742 17.63901329040527 C 7.544338703155518 17.88113021850586 7.271542072296143 18.00222015380859 6.998826503753662 18.00222015380859 Z"/></g><g class="b" transform="translate(3.573 0.425)"><path class="d" d="M3.449,0A3.449,3.449,0,1,1,0,3.449,3.449,3.449,0,0,1,3.449,0Z"/><path class="e" d="M 3.448610544204712 1.600000381469727 C 2.429280757904053 1.600000381469727 1.600000381469727 2.429280757904053 1.600000381469727 3.448610544204712 C 1.600000381469727 4.467940330505371 2.429280757904053 5.297220706939697 3.448610544204712 5.297220706939697 C 4.467940330505371 5.297220706939697 5.297220706939697 4.467940330505371 5.297220706939697 3.448610544204712 C 5.297220706939697 2.429280757904053 4.467940330505371 1.600000381469727 3.448610544204712 1.600000381469727 M 3.448610544204712 4.76837158203125e-07 C 5.353230476379395 4.76837158203125e-07 6.897220611572266 1.544000625610352 6.897220611572266 3.448610544204712 C 6.897220611572266 5.353230476379395 5.353230476379395 6.897220611572266 3.448610544204712 6.897220611572266 C 1.544000625610352 6.897220611572266 4.76837158203125e-07 5.353230476379395 4.76837158203125e-07 3.448610544204712 C 4.76837158203125e-07 1.544000625610352 1.544000625610352 4.76837158203125e-07 3.448610544204712 4.76837158203125e-07 Z"/></g><path class="c" d="M1.525,0A1.525,1.525,0,0,1,3.051,1.525c0,.842-3.051.842-3.051,0A1.525,1.525,0,0,1,1.525,0Z" transform="translate(0 13.18)"/><path class="c" d="M1.525,0A1.525,1.525,0,0,1,3.051,1.525c0,.842-3.051.842-3.051,0A1.525,1.525,0,0,1,1.525,0Z" transform="translate(10.942 13.18)"/></g></svg>