<svg xmlns="http://www.w3.org/2000/svg" viewBox="0 0 14.001 14.001"><defs><style>.a{fill:none;}.b,.c{stroke:none;}.c{fill:#fff;}</style></defs><g class="a" transform="translate(0)"><path class="b" d="M7,0A7,7,0,1,1,0,7,7,7,0,0,1,7,0Z"/><path class="c" d="M 7.000655174255371 1.999995231628418 C 4.243285179138184 1.999995231628418 1.999995231628418 4.243285179138184 1.999995231628418 7.000655174255371 C 1.999995231628418 9.758025169372559 4.243285179138184 12.00130462646484 7.000655174255371 12.00130462646484 C 9.758025169372559 12.00130462646484 12.00130462646484 9.758025169372559 12.00130462646484 7.000655174255371 C 12.00130462646484 4.243285179138184 9.758025169372559 1.999995231628418 7.000655174255371 1.999995231628418 M 7.000655174255371 -4.76837158203125e-06 C 10.86700534820557 -4.76837158203125e-06 14.00130558013916 3.134295463562012 14.00130558013916 7.000655174255371 C 14.00130558013916 10.86700534820557 10.86700534820557 14.00130558013916 7.000655174255371 14.00130558013916 C 3.134295463562012 14.00130558013916 -4.76837158203125e-06 10.86700534820557 -4.76837158203125e-06 7.000655174255371 C -4.76837158203125e-06 3.134295463562012 3.134295463562012 -4.76837158203125e-06 7.000655174255371 -4.76837158203125e-06 Z"/></g></svg>