<svg xmlns="http://www.w3.org/2000/svg" width="50" height="40.742" viewBox="0 0 50 40.742"><defs><style>.a{fill:#7cb441;}.b{fill:#deeccf;}.c{fill:#f96562;}</style></defs><g transform="translate(616.14 -340.41) rotate(90)"><rect class="a" width="8" height="50" transform="translate(373.152 566.14)"/><rect class="b" width="4" height="10" rx="2" transform="translate(375.152 570.14)"/><rect class="b" width="4" height="10" rx="2" transform="translate(375.152 586.14)"/><rect class="b" width="4" height="10" rx="2" transform="translate(375.152 602.14)"/><path class="c" d="M-3935.4-385.648a1.879,1.879,0,0,1-1.541-.767c-2.037-2.805-3.735-5.1-5.233-7.13-6.809-9.215-8.226-11.133-8.226-15.853a13.809,13.809,0,0,1,4.394-10.077,15.309,15.309,0,0,1,10.607-4.174,15.309,15.309,0,0,1,10.607,4.174A13.81,13.81,0,0,1-3920.4-409.4c0,4.721-1.417,6.639-8.227,15.854-1.5,2.029-3.2,4.33-5.232,7.129A1.882,1.882,0,0,1-3935.4-385.648Zm0-30a5.006,5.006,0,0,0-5,5,5.005,5.005,0,0,0,5,5,5.005,5.005,0,0,0,5-5A5.006,5.006,0,0,0-3935.4-415.65Z" transform="translate(764.059 -3344.263) rotate(-90)"/></g></svg>