<svg xmlns="http://www.w3.org/2000/svg" viewBox="0 0 14 17.3"><defs><style>.a{fill:#fff;}</style></defs><g transform="translate(-15 -266)"><path class="a" d="M-883-16.7a.884.884,0,0,1-.719-.349c-.947-1.272-1.742-2.322-2.444-3.249-3.176-4.193-3.837-5.066-3.837-7.215A6.766,6.766,0,0,1-883-34a6.766,6.766,0,0,1,7,6.487c0,2.149-.661,3.021-3.837,7.214-.7.927-1.5,1.977-2.445,3.249A.884.884,0,0,1-883-16.7Zm0-13.3a2,2,0,0,0-2,2,2,2,0,0,0,2,2,2,2,0,0,0,2-2A2,2,0,0,0-883-30Z" transform="translate(905 300)"/></g></svg>