<?xml version="1.0" encoding="utf-8"?>
<!-- Generator: Adobe Illustrator 16.0.0, SVG Export Plug-In . SVG Version: 6.00 Build 0)  -->
<!DOCTYPE svg PUBLIC "-//W3C//DTD SVG 1.1//EN" "http://www.w3.org/Graphics/SVG/1.1/DTD/svg11.dtd">
<svg version="1.1" id="Layer_1" xmlns="http://www.w3.org/2000/svg" xmlns:xlink="http://www.w3.org/1999/xlink" x="0px" y="0px"
	 width="8px" height="140px" viewBox="0 0 8 140" enable-background="new 0 0 8 140" xml:space="preserve">
<g>
	<g transform="translate(-21 -224)">
		<circle id="Ellipse_41" fill="#FFFFFF" cx="25" cy="227.99" r="1"/>
	</g>
	<g transform="translate(-21 -218)">
		<circle id="Ellipse_41-2" fill="#FFFFFF" cx="25" cy="227.99" r="1"/>
	</g>
	<g transform="translate(-21 -212)">
		<circle id="Ellipse_41-3" fill="#FFFFFF" cx="25" cy="227.99" r="1"/>
	</g>
	<g transform="translate(-21 -206)">
		<circle id="Ellipse_41-4" fill="#FFFFFF" cx="25" cy="227.99" r="1"/>
	</g>
	<g transform="translate(-21 -200)">
		<circle id="Ellipse_41-5" fill="#FFFFFF" cx="25" cy="227.99" r="1"/>
	</g>
	<g transform="translate(-21 -194)">
		<circle id="Ellipse_41-6" fill="#FFFFFF" cx="25" cy="227.99" r="1"/>
	</g>
	<g transform="translate(-21 -188)">
		<circle id="Ellipse_41-7" fill="#FFFFFF" cx="25" cy="228" r="1"/>
	</g>
	<g transform="translate(-21 -182)">
		<circle id="Ellipse_41-8" fill="#FFFFFF" cx="25" cy="228" r="1"/>
	</g>
	<g transform="translate(-21 -176)">
		<circle id="Ellipse_41-9" fill="#FFFFFF" cx="25" cy="228" r="1"/>
	</g>
	<g transform="translate(-21 -224)">
		<circle id="Ellipse_41_1_" fill="#FFFFFF" cx="25" cy="282" r="1"/>
	</g>
	<g transform="translate(-21 -218)">
		<circle id="Ellipse_41-2_1_" fill="#FFFFFF" cx="25" cy="282" r="1"/>
	</g>
	<g transform="translate(-21 -212)">
		<circle id="Ellipse_41-3_1_" fill="#FFFFFF" cx="25" cy="282" r="1"/>
	</g>
	<g transform="translate(-21 -206)">
		<circle id="Ellipse_41-4_1_" fill="#FFFFFF" cx="25" cy="282" r="1"/>
	</g>
	<g transform="translate(-21 -200)">
		<circle id="Ellipse_41-5_1_" fill="#FFFFFF" cx="25" cy="282" r="1"/>
	</g>
	<g transform="translate(-21 -194)">
		<circle id="Ellipse_41-6_1_" fill="#FFFFFF" cx="25" cy="282" r="1"/>
	</g>
	<g transform="translate(-21 -188)">
		<circle id="Ellipse_41-7_1_" fill="#FFFFFF" cx="25" cy="282" r="1"/>
	</g>
	<g transform="translate(-21 -182)">
		<circle id="Ellipse_41-8_1_" fill="#FFFFFF" cx="25" cy="282" r="1"/>
	</g>
	<g transform="translate(-21 -176)">
		<circle id="Ellipse_41-9_1_" fill="#FFFFFF" cx="25" cy="282.01" r="1"/>
	</g>
	<g transform="translate(-21 -224)">
		<circle id="Ellipse_41_2_" fill="#FFFFFF" cx="25" cy="336.01" r="1"/>
	</g>
	<g transform="translate(-21 -218)">
		<circle id="Ellipse_41-2_2_" fill="#FFFFFF" cx="25" cy="336.01" r="1"/>
	</g>
	<g transform="translate(-21 -212)">
		<circle id="Ellipse_41-3_2_" fill="#FFFFFF" cx="25" cy="336.01" r="1"/>
	</g>
	<g transform="translate(-21 -206)">
		<circle id="Ellipse_41-4_2_" fill="#FFFFFF" cx="25" cy="336.01" r="1"/>
	</g>
	<g transform="translate(-21 -200)">
		<circle id="Ellipse_41-5_2_" fill="#FFFFFF" cx="25" cy="336.01" r="1"/>
	</g>
</g>
</svg>
