<svg xmlns="http://www.w3.org/2000/svg" viewBox="0 0 26 26"><defs><style>.a{fill:none;}.b{fill:#fff;}.c,.d{stroke:none;}.d{fill:#6e6e6e;}</style></defs><g class="a"><path class="c" d="M13,0A13,13,0,1,1,0,13,13,13,0,0,1,13,0Z"/><path class="d" d="M 13.00000095367432 3.000001907348633 C 7.485980987548828 3.000001907348633 3.000001907348633 7.485980987548828 3.000001907348633 13.00000095367432 C 3.000001907348633 18.5140209197998 7.485980987548828 23 13.00000095367432 23 C 18.5140209197998 23 23 18.5140209197998 23 13.00000095367432 C 23 7.485980987548828 18.5140209197998 3.000001907348633 13.00000095367432 3.000001907348633 M 13.00000095367432 1.9073486328125e-06 C 20.17970085144043 1.9073486328125e-06 26 5.820301055908203 26 13.00000095367432 C 26 20.17970085144043 20.17970085144043 26 13.00000095367432 26 C 5.820301055908203 26 1.9073486328125e-06 20.17970085144043 1.9073486328125e-06 13.00000095367432 C 1.9073486328125e-06 5.820301055908203 5.820301055908203 1.9073486328125e-06 13.00000095367432 1.9073486328125e-06 Z"/></g><g class="a" transform="translate(-880.133 -670.708)"><path class="c" d="M891,686l.862,10.12h2.587l.862-10.12Z"/><path class="d" d="M 891 685.9999389648438 L 895.311279296875 685.9999389648438 L 894.448974609375 696.119873046875 L 891.8621826171875 696.119873046875 L 891 685.9999389648438 Z"/></g><g class="a" transform="matrix(0.174, 0.985, -0.985, 0.174, 10.338, 10.952)"><path class="c" d="M0,0,.862,10.12H3.449L4.311,0Z"/><path class="d" d="M -3.814697265625e-06 -9.5367431640625e-07 L 4.311436653137207 -9.5367431640625e-07 L 3.449156284332275 10.12001991271973 L 0.8622763156890869 10.12001991271973 L -3.814697265625e-06 -9.5367431640625e-07 Z"/></g><g class="a" transform="matrix(0.174, -0.985, 0.985, 0.174, 14.957, 15.198)"><path class="c" d="M0,0,.862,10.12H3.449L4.311,0Z"/><path class="d" d="M -3.814697265625e-06 -9.5367431640625e-07 L 4.311436653137207 -9.5367431640625e-07 L 3.449156284332275 10.12001991271973 L 0.8622763156890869 10.12001991271973 L -3.814697265625e-06 -9.5367431640625e-07 Z"/></g><g class="b" transform="translate(9.428 9.428)"><path class="c" d="M 3.57227635383606 6.644556522369385 C 1.87821638584137 6.644556522369385 0.4999963641166687 5.266336441040039 0.4999963641166687 3.57227635383606 C 0.4999963641166687 1.87821638584137 1.87821638584137 0.4999963641166687 3.57227635383606 0.4999963641166687 C 5.266336441040039 0.4999963641166687 6.644556522369385 1.87821638584137 6.644556522369385 3.57227635383606 C 6.644556522369385 5.266336441040039 5.266336441040039 6.644556522369385 3.57227635383606 6.644556522369385 Z"/><path class="d" d="M 3.57227635383606 0.9999961853027344 C 2.153916358947754 0.9999961853027344 0.9999961853027344 2.153916358947754 0.9999961853027344 3.57227635383606 C 0.9999961853027344 4.990636348724365 2.153916358947754 6.144556522369385 3.57227635383606 6.144556522369385 C 4.990636348724365 6.144556522369385 6.144556522369385 4.990636348724365 6.144556522369385 3.57227635383606 C 6.144556522369385 2.153916358947754 4.990636348724365 0.9999961853027344 3.57227635383606 0.9999961853027344 M 3.57227635383606 -3.814697265625e-06 C 5.545186519622803 -3.814697265625e-06 7.144556522369385 1.599366188049316 7.144556522369385 3.57227635383606 C 7.144556522369385 5.545186519622803 5.545186519622803 7.144556522369385 3.57227635383606 7.144556522369385 C 1.599366188049316 7.144556522369385 -3.814697265625e-06 5.545186519622803 -3.814697265625e-06 3.57227635383606 C -3.814697265625e-06 1.599366188049316 1.599366188049316 -3.814697265625e-06 3.57227635383606 -3.814697265625e-06 Z"/></g></svg>