<svg xmlns="http://www.w3.org/2000/svg" viewBox="0 0 22 22"><defs><style>.a{fill:none;}.b{fill:#fff;}.c,.d{stroke:none;}.d{fill:#080808;}</style></defs><g transform="translate(-30.999 -147.862)"><g transform="translate(30.999 147.862)"><g class="a" transform="translate(0 0)"><path class="c" d="M11,0A11,11,0,1,1,0,11,11,11,0,0,1,11,0Z"/><path class="d" d="M 11.00001621246338 1.999996185302734 C 6.037385940551758 1.999996185302734 1.999996185302734 6.037385940551758 1.999996185302734 11.00001621246338 C 1.999996185302734 15.962646484375 6.037385940551758 20.00003623962402 11.00001621246338 20.00003623962402 C 15.962646484375 20.00003623962402 20.00003623962402 15.962646484375 20.00003623962402 11.00001621246338 C 20.00003623962402 6.037385940551758 15.962646484375 1.999996185302734 11.00001621246338 1.999996185302734 M 11.00001621246338 -3.814697265625e-06 C 17.07515716552734 -3.814697265625e-06 22.00003623962402 4.924875259399414 22.00003623962402 11.00001621246338 C 22.00003623962402 17.07515716552734 17.07515716552734 22.00003623962402 11.00001621246338 22.00003623962402 C 4.924875259399414 22.00003623962402 -3.814697265625e-06 17.07515716552734 -3.814697265625e-06 11.00001621246338 C -3.814697265625e-06 4.924875259399414 4.924875259399414 -3.814697265625e-06 11.00001621246338 -3.814697265625e-06 Z"/></g><g class="a" transform="translate(-881.605 -673.328)"><path class="c" d="M891,686l.692,8.125h2.077l.692-8.125Z"/><path class="d" d="M 891 686.0000610351562 L 894.46142578125 686.0000610351562 L 893.769287109375 694.1249389648438 L 891.6922607421875 694.1249389648438 L 891 686.0000610351562 Z"/></g><g class="a" transform="matrix(0.174, 0.985, -0.985, 0.174, 8.892, 9.521)"><path class="c" d="M0,0,.692,8.125H2.769L3.461,0Z"/><path class="d" d="M -3.814697265625e-06 4.76837158203125e-06 L 3.46147608757019 4.76837158203125e-06 L 2.769165992736816 8.124904632568359 L 0.6923060417175293 8.124904632568359 L -3.814697265625e-06 4.76837158203125e-06 Z"/></g><g class="a" transform="matrix(0.174, -0.985, 0.985, 0.174, 12.759, 12.929)"><path class="c" d="M0,0,.692,8.125H2.769L3.461,0Z"/><path class="d" d="M -3.814697265625e-06 4.76837158203125e-06 L 3.46147608757019 4.76837158203125e-06 L 2.769165992736816 8.124904632568359 L 0.6923060417175293 8.124904632568359 L -3.814697265625e-06 4.76837158203125e-06 Z"/></g><g class="b" transform="translate(7.912 7.735)"><path class="c" d="M 3.214168548583984 5.928338527679443 C 1.717568516731262 5.928338527679443 0.499998539686203 4.710768699645996 0.499998539686203 3.214168548583984 C 0.499998539686203 1.717568516731262 1.717568516731262 0.499998539686203 3.214168548583984 0.499998539686203 C 4.710768699645996 0.499998539686203 5.928338527679443 1.717568516731262 5.928338527679443 3.214168548583984 C 5.928338527679443 4.710768699645996 4.710768699645996 5.928338527679443 3.214168548583984 5.928338527679443 Z"/><path class="d" d="M 3.214168548583984 0.9999985694885254 C 1.993268489837646 0.9999985694885254 0.9999985694885254 1.993268489837646 0.9999985694885254 3.214168548583984 C 0.9999985694885254 4.435068607330322 1.993268489837646 5.428338527679443 3.214168548583984 5.428338527679443 C 4.435068607330322 5.428338527679443 5.428338527679443 4.435068607330322 5.428338527679443 3.214168548583984 C 5.428338527679443 1.993268489837646 4.435068607330322 0.9999985694885254 3.214168548583984 0.9999985694885254 M 3.214168548583984 -1.430511474609375e-06 C 4.98930835723877 -1.430511474609375e-06 6.428338527679443 1.439028739929199 6.428338527679443 3.214168548583984 C 6.428338527679443 4.98930835723877 4.98930835723877 6.428338527679443 3.214168548583984 6.428338527679443 C 1.439028739929199 6.428338527679443 -1.430511474609375e-06 4.98930835723877 -1.430511474609375e-06 3.214168548583984 C -1.430511474609375e-06 1.439028739929199 1.439028739929199 -1.430511474609375e-06 3.214168548583984 -1.430511474609375e-06 Z"/></g></g></g></svg>