<svg xmlns="http://www.w3.org/2000/svg" viewBox="0 0 14.001 14.001"><defs><style>.a{fill:none;}.b,.d{fill:#fff;}.c,.d{stroke:none;}</style></defs><g transform="translate(-30.999 -147.862)"><g transform="translate(33.901 150.861)"><g class="a" transform="translate(-887.923 -680.933)"><path class="c" d="M891,686l.441,5.171h1.322L893.2,686Z"/><path class="d" d="M 890.9999389648438 686 L 893.202880859375 686 L 892.7623901367188 691.1708374023438 L 891.4405517578125 691.1708374023438 L 890.9999389648438 686 Z"/></g><g class="a" transform="matrix(0.174, 0.985, -0.985, 0.174, 2.757, 3.061)"><path class="c" d="M0,0,.441,5.171H1.762L2.2,0Z"/><path class="d" d="M -9.5367431640625e-07 -3.337860107421875e-06 L 2.202958822250366 -3.337860107421875e-06 L 1.762358903884888 5.170876502990723 L 0.4405989646911621 5.170876502990723 L -9.5367431640625e-07 -3.337860107421875e-06 Z"/></g><g class="a" transform="matrix(0.174, -0.985, 0.985, 0.174, 5.218, 5.23)"><path class="c" d="M0,0,.441,5.171H1.762L2.2,0Z"/><path class="d" d="M -9.5367431640625e-07 -3.337860107421875e-06 L 2.202958822250366 -3.337860107421875e-06 L 1.762358903884888 5.170876502990723 L 0.4405989646911621 5.170876502990723 L -9.5367431640625e-07 -3.337860107421875e-06 Z"/></g><g class="a" transform="translate(-2.902 -2.998)"><path class="c" d="M7,0A7,7,0,1,1,0,7,7,7,0,0,1,7,0Z"/><path class="d" d="M 7.000655174255371 1.999995231628418 C 4.243285179138184 1.999995231628418 1.999995231628418 4.243285179138184 1.999995231628418 7.000655174255371 C 1.999995231628418 9.758025169372559 4.243285179138184 12.00130462646484 7.000655174255371 12.00130462646484 C 9.758025169372559 12.00130462646484 12.00130462646484 9.758025169372559 12.00130462646484 7.000655174255371 C 12.00130462646484 4.243285179138184 9.758025169372559 1.999995231628418 7.000655174255371 1.999995231628418 M 7.000655174255371 -4.76837158203125e-06 C 10.86700534820557 -4.76837158203125e-06 14.00130558013916 3.134295463562012 14.00130558013916 7.000655174255371 C 14.00130558013916 10.86700534820557 10.86700534820557 14.00130558013916 7.000655174255371 14.00130558013916 C 3.134295463562012 14.00130558013916 -4.76837158203125e-06 10.86700534820557 -4.76837158203125e-06 7.000655174255371 C -4.76837158203125e-06 3.134295463562012 3.134295463562012 -4.76837158203125e-06 7.000655174255371 -4.76837158203125e-06 Z"/></g><g transform="translate(0 0)"><path class="b" d="M-905.856-160.907a2.048,2.048,0,0,1-2.046-2.046A2.048,2.048,0,0,1-905.856-165a2.047,2.047,0,0,1,2.045,2.045A2.048,2.048,0,0,1-905.856-160.907Zm0-3.091a1.046,1.046,0,0,0-1.045,1.045,1.046,1.046,0,0,0,1.045,1.045,1.046,1.046,0,0,0,1.045-1.045A1.046,1.046,0,0,0-905.857-164Z" transform="translate(910 167)"/></g></g></g></svg>