<svg xmlns="http://www.w3.org/2000/svg" viewBox="0 0 22 29.33"><defs><style>.a{fill:#ff9802;}.b,.d{fill:#fff;}.b{stroke-linejoin:round;}.c,.d{stroke:none;}</style></defs><g transform="translate(-15 -585.295)"><rect class="a" width="22" height="29.33" rx="3" transform="translate(15 585.295)"/><g transform="translate(17.75 593.42)"><g class="b" transform="translate(0 -3)"><path class="c" d="M 5.583326816558838 14 L 5.333326816558838 14 L 2.666527032852173 14 L 2.416527032852173 14 L 2.416527032852173 13.75 L 2.416527032852173 5.749979972839355 L -2.95608515443746e-06 5.749979972839355 L -0.4909329414367676 5.749979972839355 L -0.2021929621696472 5.352940082550049 L 3.79759693145752 -0.147039994597435 L 3.99977707862854 -0.4250499904155731 L 4.201967239379883 -0.147039994597435 L 8.20203685760498 5.352940082550049 L 8.490806579589844 5.749979972839355 L 7.999856948852539 5.749979972839355 L 5.583326816558838 5.749979972839355 L 5.583326816558838 13.75 L 5.583326816558838 14 Z"/><path class="d" d="M 5.333326816558838 13.75 L 5.333326816558838 5.499979972839355 L 7.999856948852539 5.499979972839355 L 3.999787092208862 -8.881784197001252e-16 L -2.95608515443746e-06 5.499979972839355 L 2.666527032852173 5.499979972839355 L 2.666527032852173 13.75 L 5.333326816558838 13.75 M 5.333326816558838 14.25 L 2.666527032852173 14.25 C 2.390387058258057 14.25 2.166527032852173 14.0261402130127 2.166527032852173 13.75 L 2.166527032852173 5.999979972839355 L -2.95608515443746e-06 5.999979972839355 C -0.1880629509687424 5.999979972839355 -0.3602229654788971 5.894460201263428 -0.4455529451370239 5.726870059967041 C -0.5308929681777954 5.559289932250977 -0.5149829387664795 5.357999801635742 -0.4043729603290558 5.205900192260742 L 3.595417022705078 -0.29407998919487 C 3.689496994018555 -0.4234499931335449 3.839807033538818 -0.5 3.99977707862854 -0.5 C 4.159747123718262 -0.5 4.310057163238525 -0.4234600067138672 4.404157161712646 -0.2940900027751923 L 8.404227256774902 5.20589017868042 C 8.514837265014648 5.357979774475098 8.530756950378418 5.559279918670654 8.445417404174805 5.726870059967041 C 8.360076904296875 5.894450187683105 8.18791675567627 5.999979972839355 7.999856948852539 5.999979972839355 L 5.833326816558838 5.999979972839355 L 5.833326816558838 13.75 C 5.833326816558838 14.0261402130127 5.609467029571533 14.25 5.333326816558838 14.25 Z"/></g><g class="b" transform="translate(8.5 3)"><path class="c" d="M 3.99977707862854 14.17504978179932 L 3.79759693145752 13.89704036712646 L -0.2021929621696472 8.397060394287109 L -0.4909329414367676 8.000020027160645 L -2.95608515443746e-06 8.000020027160645 L 2.416527032852173 8.000020027160645 L 2.416527032852173 -8.881784197001252e-16 L 2.416527032852173 -0.25 L 2.666527032852173 -0.25 L 5.333326816558838 -0.25 L 5.583326816558838 -0.25 L 5.583326816558838 -8.881784197001252e-16 L 5.583326816558838 8.000020027160645 L 7.999856948852539 8.000020027160645 L 8.490806579589844 8.000020027160645 L 8.20203685760498 8.397060394287109 L 4.201967239379883 13.89704036712646 L 3.99977707862854 14.17504978179932 Z"/><path class="d" d="M 3.999787092208862 13.75 L 7.999856948852539 8.250020027160645 L 5.333326816558838 8.250020027160645 L 5.333326816558838 -8.881784197001252e-16 L 2.666527032852173 -8.881784197001252e-16 L 2.666527032852173 8.250020027160645 L -2.95608515443746e-06 8.250020027160645 L 3.999787092208862 13.75 M 3.99977707862854 14.25 C 3.839807033538818 14.25 3.689496994018555 14.1734504699707 3.595417022705078 14.04407978057861 L -0.4043729603290558 8.544099807739258 C -0.5149829387664795 8.392000198364258 -0.5308929681777954 8.190710067749023 -0.4455529451370239 8.023130416870117 C -0.3602229654788971 7.855539798736572 -0.1880629509687424 7.750020027160645 -2.95608515443746e-06 7.750020027160645 L 2.166527032852173 7.750020027160645 L 2.166527032852173 -8.881784197001252e-16 C 2.166527032852173 -0.2761400043964386 2.390387058258057 -0.5 2.666527032852173 -0.5 L 5.333326816558838 -0.5 C 5.609467029571533 -0.5 5.833326816558838 -0.2761400043964386 5.833326816558838 -8.881784197001252e-16 L 5.833326816558838 7.750020027160645 L 7.999856948852539 7.750020027160645 C 8.18791675567627 7.750020027160645 8.360076904296875 7.855549812316895 8.445417404174805 8.023130416870117 C 8.530756950378418 8.190719604492188 8.514837265014648 8.392020225524902 8.404227256774902 8.544110298156738 L 4.404157161712646 14.04409027099609 C 4.310057163238525 14.17346000671387 4.159747123718262 14.25 3.99977707862854 14.25 Z"/></g></g></g></svg>