<svg xmlns="http://www.w3.org/2000/svg" width="59.128" height="19.464" viewBox="0 0 59.128 19.464"><defs><style>.a{fill:#ea4335;}.b{fill:#fbbc05;}.c{fill:#4285f4;}.d{fill:#34a853;}</style></defs><g transform="translate(-0.36 -0.47)"><path class="a" d="M81.008,29.864A4.879,4.879,0,1,1,76.129,25,4.8,4.8,0,0,1,81.008,29.864Zm-2.136,0a2.75,2.75,0,1,0-2.743,2.947A2.8,2.8,0,0,0,78.872,29.864Z" transform="translate(-55.345 -19.151)"/><path class="b" d="M129.008,29.864A4.879,4.879,0,1,1,124.129,25,4.8,4.8,0,0,1,129.008,29.864Zm-2.136,0a2.75,2.75,0,1,0-2.743,2.947A2.8,2.8,0,0,0,126.872,29.864Z" transform="translate(-92.819 -19.151)"/><path class="c" d="M176.554,25.294v8.732c0,3.592-2.118,5.059-4.622,5.059a4.632,4.632,0,0,1-4.311-2.866l1.86-.774a2.687,2.687,0,0,0,2.449,1.726c1.6,0,2.6-.989,2.6-2.851v-.7h-.075a3.311,3.311,0,0,1-2.561,1.105,4.867,4.867,0,0,1,0-9.725,3.37,3.37,0,0,1,2.561,1.088h.075V25.3h2.028Zm-1.877,4.587a2.74,2.74,0,0,0-2.6-2.965,2.958,2.958,0,0,0,0,5.894A2.718,2.718,0,0,0,174.677,29.881Z" transform="translate(-130.278 -19.151)"/><path class="d" d="M217.583,3V17.253H215.5V3Z" transform="translate(-167.963 -1.975)"/><path class="a" d="M236.311,31.457l1.658,1.105a4.841,4.841,0,0,1-4.052,2.156,4.759,4.759,0,0,1-4.826-4.864,4.622,4.622,0,0,1,4.587-4.864,4.517,4.517,0,0,1,4.162,3.094l.221.553-6.5,2.693a2.475,2.475,0,0,0,2.357,1.474A2.776,2.776,0,0,0,236.311,31.457Zm-5.1-1.75,4.346-1.8a1.883,1.883,0,0,0-1.8-1.031A2.668,2.668,0,0,0,231.208,29.707Z" transform="translate(-178.573 -19.143)"/><path class="c" d="M8.02,9.447V7.384h6.953a6.837,6.837,0,0,1,.1,1.246,6.814,6.814,0,0,1-1.787,4.826,6.906,6.906,0,0,1-5.267,2.118A7.658,7.658,0,0,1,.36,8.022,7.658,7.658,0,0,1,8.022.47,7.2,7.2,0,0,1,13.2,2.551L11.741,4.007A5.26,5.26,0,0,0,8.02,2.533,5.417,5.417,0,0,0,2.6,8.022,5.417,5.417,0,0,0,8.02,13.511,5.052,5.052,0,0,0,11.833,12a4.277,4.277,0,0,0,1.118-2.555Z" transform="translate(0 0)"/></g></svg>