<svg id="Layer_1" data-name="Layer 1" xmlns="http://www.w3.org/2000/svg" width="24" height="24" viewBox="0 0 24 24"><defs><style>.cls-1{fill:none;stroke:#00216a;stroke-linecap:round;stroke-linejoin:round;stroke-width:1.6px;}.cls-2{fill:#00216a;}.cls-3{fill:#e5e8f0;}</style></defs><title>parking-icon1</title><path class="cls-1" d="M1,4.67V23l7.1-3.67V1Z"/><path class="cls-1" d="M15.9,4.67V23L23,19.33V1Z"/><path class="cls-1" d="M15.55,4.67V23l-7.1-3.67V1Z"/><path class="cls-2" d="M10.77,5.36,12,6.15l8.6,5.48,1.06.67L20.6,13,12,18.45l-1.23.78V14.93H3.3V9.67h7.47V5.36Z"/><path class="cls-3" d="M11.57,17.78l8.6-5.48-8.6-5.48v3.65H4.1v3.65h7.47v3.65m0,1.6a1.6,1.6,0,0,1-1.6-1.6V15.73H4.1a1.6,1.6,0,0,1-1.6-1.6V10.47a1.6,1.6,0,0,1,1.6-1.6H10V6.82a1.6,1.6,0,0,1,2.46-1.35L21,11a1.6,1.6,0,0,1,0,2.7l-8.6,5.48A1.6,1.6,0,0,1,11.57,19.38Z"/></svg>