<svg xmlns="http://www.w3.org/2000/svg" width="22" height="20.357" viewBox="0 0 22 20.357"><defs><style>.a{fill:#fff;}</style></defs><g transform="translate(-48.838 -63.622)"><path class="a" d="M57.3,152.08a.671.671,0,0,1,0-.952l6.916-6.916a2.045,2.045,0,0,0-.905-.212H50.069A2.075,2.075,0,0,0,48,146.069v11.587a2.075,2.075,0,0,0,2.069,2.069H63.311a2.075,2.075,0,0,0,2.069-2.069V146.069a2.045,2.045,0,0,0-.212-.905l-6.916,6.916A.671.671,0,0,1,57.3,152.08Z" transform="translate(0.838 -75.747)"/><path class="a" d="M345.858,64.258a.9.9,0,0,0-.606-.26h-5.6a.75.75,0,0,0-.011,1.5l3.883.029L340.2,68.852a2.309,2.309,0,0,1,1.062,1.062l3.324-3.324.029,3.883a.75.75,0,1,0,1.5-.012V64.807A.82.82,0,0,0,345.858,64.258Z" transform="translate(-275.279 -0.377)"/></g></svg>