<svg xmlns="http://www.w3.org/2000/svg" viewBox="0 0 146 36"><defs><style>.a{fill:rgba(0,33,106,0.1);}.a,.c{stroke:#00216a;}.b,.d{fill:#00216a;}.b{font-size:13px;font-family:Arial-BoldMT, Arial;font-weight:700;opacity:0.996;}.c,.f{fill:none;}.c{stroke-linecap:round;stroke-width:1.6px;}.c,.d{stroke-linejoin:round;}.e,.g{stroke:none;}.g{fill:#e5e8f0;}</style></defs><g transform="translate(-249 -134)"><g class="a" transform="translate(249 134)"><rect class="e" width="146" height="36" rx="18"/><rect class="f" x="0.5" y="0.5" width="145" height="35" rx="17.5"/></g><g transform="translate(6)"><text class="b" transform="translate(294 157)"><tspan x="0" y="0">View on Map</tspan></text><g transform="translate(5 -411)"><path class="c" d="M2474,5648.667V5667l7.1-3.667V5645Z" transform="translate(-2218 -5093)"/><path class="c" d="M2474,5648.667V5667l7.1-3.667V5645Z" transform="translate(-2203.097 -5093)"/><path class="c" d="M2481.1,5648.667V5667l-7.1-3.667V5645Z" transform="translate(-2210.549 -5093)"/><g class="d" transform="translate(-1482.425 -3125.622) rotate(180)"><path class="e" d="M -1748.20068359375 -3681.986328125 L -1749.430541992188 -3682.76953125 L -1758.0302734375 -3688.24755859375 L -1759.089599609375 -3688.92236328125 L -1758.030151367188 -3689.59716796875 L -1749.430419921875 -3695.073974609375 L -1748.20068359375 -3695.857177734375 L -1748.20068359375 -3694.399169921875 L -1748.20068359375 -3691.548095703125 L -1741.529418945312 -3691.548095703125 L -1740.729370117188 -3691.548095703125 L -1740.729370117188 -3690.748046875 L -1740.729370117188 -3687.095703125 L -1740.729370117188 -3686.295654296875 L -1741.529418945312 -3686.295654296875 L -1748.20068359375 -3686.295654296875 L -1748.20068359375 -3683.4443359375 L -1748.20068359375 -3681.986328125 Z"/><path class="g" d="M -1749.000732421875 -3694.399169921875 L -1757.600463867188 -3688.92236328125 L -1749.000732421875 -3683.4443359375 L -1749.000732421875 -3687.095703125 L -1741.529418945312 -3687.095703125 L -1741.529418945312 -3690.748046875 L -1749.000732421875 -3690.748046875 L -1749.000732421875 -3694.399169921875 M -1749.000610351562 -3695.999267578125 C -1748.736206054688 -3695.999267578125 -1748.47119140625 -3695.93359375 -1748.231079101562 -3695.8017578125 C -1747.718994140625 -3695.52099609375 -1747.400756835938 -3694.983154296875 -1747.400756835938 -3694.399169921875 L -1747.400756835938 -3692.34814453125 L -1741.529418945312 -3692.34814453125 C -1740.645751953125 -3692.34814453125 -1739.929443359375 -3691.631591796875 -1739.929443359375 -3690.748046875 L -1739.929443359375 -3687.095703125 C -1739.929443359375 -3686.212158203125 -1740.645751953125 -3685.49560546875 -1741.529418945312 -3685.49560546875 L -1747.400756835938 -3685.49560546875 L -1747.400756835938 -3683.4443359375 C -1747.400756835938 -3682.8603515625 -1747.718994140625 -3682.322509765625 -1748.231079101562 -3682.04150390625 C -1748.471313476562 -3681.909912109375 -1748.736206054688 -3681.84423828125 -1749.000610351562 -3681.84423828125 C -1749.300048828125 -3681.84423828125 -1749.598754882812 -3681.92822265625 -1749.8603515625 -3682.094970703125 L -1758.460083007812 -3687.572998046875 C -1758.921264648438 -3687.86669921875 -1759.200439453125 -3688.375732421875 -1759.200439453125 -3688.92236328125 C -1759.200439453125 -3689.46923828125 -1758.921142578125 -3689.978271484375 -1758.4599609375 -3690.27197265625 L -1749.860229492188 -3695.748779296875 C -1749.5986328125 -3695.915283203125 -1749.299926757812 -3695.999267578125 -1749.000610351562 -3695.999267578125 Z"/></g></g></g></g></svg>