<svg xmlns="http://www.w3.org/2000/svg" viewBox="0 0 14 13.999"><defs><style>.a{fill:#fff;}</style></defs><path class="a" d="M-882,6a7.007,7.007,0,0,1-7-7,7.008,7.008,0,0,1,7-7,7.008,7.008,0,0,1,7,7A7.007,7.007,0,0,1-882,6Zm-2.651-10.683v8.35h1.686V.516h1.1A9.681,9.681,0,0,0-880.117.4a2.443,2.443,0,0,0,.874-.4,2.3,2.3,0,0,0,.71-.823,2.742,2.742,0,0,0,.279-1.294,2.6,2.6,0,0,0-.485-1.625,2.194,2.194,0,0,0-1.2-.818,9.707,9.707,0,0,0-2.005-.125ZM-882.042-.9h-.923v-2.37h.815a8.164,8.164,0,0,1,1.213.057,1.171,1.171,0,0,1,.678.371,1.083,1.083,0,0,1,.268.752,1.133,1.133,0,0,1-.191.65,1.108,1.108,0,0,1-.527.409A4.377,4.377,0,0,1-882.042-.9Z" transform="translate(889 8)"/></svg>