<svg xmlns="http://www.w3.org/2000/svg" width="12" height="12" viewBox="0 0 12 12"><defs><style>.a{fill:#8ab752;}.b{fill:#fff;}</style></defs><g transform="translate(-68 -252)"><rect class="a" width="12" height="12" rx="2" transform="translate(68 252)"/><path class="b" d="M9.626.422,7.6,0a.487.487,0,0,0-.537.244L6.121,2.213a.394.394,0,0,0,.135.492l1.184.872A6.919,6.919,0,0,1,3.978,6.692L3.009,5.627a.5.5,0,0,0-.547-.121L.275,6.349A.418.418,0,0,0,0,6.834L.47,8.662a.461.461,0,0,0,.457.327c5,0,9.062-3.647,9.062-8.156A.433.433,0,0,0,9.626.422Z" transform="translate(78.643 252.919) rotate(90)"/></g></svg>