<svg xmlns="http://www.w3.org/2000/svg" viewBox="0 0 34 34">
  <defs>
    <style>
      .cls-1 {
        fill: transparent;
      }

      .cls-2 {
        fill: #fff;
      }

      .cls-3 {
        fill: none;
        stroke: #fff;
        stroke-linecap: round;
        stroke-linejoin: round;
        stroke-width: 1.8px;
      }
    </style>
  </defs>
  <g id="Printer" transform="translate(-325 -200)">
    <circle id="Circle" class="cls-1" cx="17" cy="17" r="17" transform="translate(325 200)"/>
    <g id="Printer_Icon" data-name="Printer Icon" transform="translate(0)">
      <path id="Subtraction_1" data-name="Subtraction 1" class="cls-2" d="M-3126-157h-3a1,1,0,0,1-1-1v-5h22v5a1,1,0,0,1-1,1h-3v-3h-14v3Z" transform="translate(3461 380)"/>
      <path id="Subtraction_2" data-name="Subtraction 2" class="cls-2" d="M-3108-149.5h-22V-156a1,1,0,0,1,1-1h2v3h16v-3h2a1,1,0,0,1,1,1v6.5Z" transform="translate(3461 368)"/>
      <path id="Rectangle_238" data-name="Rectangle 238" class="cls-2" d="M1,0H11a1,1,0,0,1,1,1V6a0,0,0,0,1,0,0H0A0,0,0,0,1,0,6V1A1,1,0,0,1,1,0Z" transform="translate(336 206)"/>
      <rect id="Rectangle_235" data-name="Rectangle 235" class="cls-3" width="14" height="11" rx="1" transform="translate(335 216)"/>
    </g>
  </g>
</svg>
