<svg xmlns="http://www.w3.org/2000/svg" width="23.6" height="28.997" viewBox="0 0 23.6 28.997"><defs><style>.a,.b{fill:#fff;}.a,.b,.c{stroke-linecap:round;}.b,.c{stroke:#080808;stroke-width:1.6px;}.b{stroke-linejoin:round;stroke-miterlimit:10;}.c,.f{fill:none;}.c{stroke-dasharray:4 4.3;}.d,.e{stroke:none;}.e{fill:#080808;}</style></defs><g transform="translate(4.634 2.6)"><g class="a" transform="translate(0 1.328)"><path class="d" d="M 5.974194526672363 20.62818145751953 L 5.974164485931396 20.62818145751953 C 5.912164688110352 20.62818145751953 5.849214553833008 20.6256103515625 5.787064552307129 20.62055015563965 C 5.215914726257324 20.57319068908691 4.696304798126221 20.31548118591309 4.360384464263916 19.91339111328125 C 4.1671462059021 19.68209648132324 4.044078350067139 19.41408920288086 3.999135732650757 19.13417625427246 L 3.982214689254761 19.20133972167969 C 3.792734622955322 19.95297050476074 3.045684576034546 20.47786140441895 2.165494680404663 20.47789001464844 C 2.004714727401733 20.47790145874023 1.842704653739929 20.46035003662109 1.683944582939148 20.42574119567871 C 1.126124620437622 20.30486106872559 0.6475946307182312 19.98060035705566 0.3720046281814575 19.53634071350098 C 0.1396446228027344 19.16175079345703 0.06854462623596191 18.72989082336426 0.1717946231365204 18.3203010559082 L 1.816356301307678 11.79261016845703 C 1.550992965698242 11.94546604156494 1.243915438652039 12.0297679901123 0.9271546006202698 12.0297908782959 C 0.5814746022224426 12.02982044219971 0.2470346242189407 11.93134021759033 -0.04000537469983101 11.74498081207275 C -0.4293853640556335 11.49170017242432 -0.6973153948783875 11.09111022949219 -0.7756953835487366 10.64552021026611 C -0.8537653684616089 10.20170021057129 -0.745625376701355 9.756740570068359 -0.4711853861808777 9.392610549926758 L 3.253954648971558 4.452900409698486 C 3.577494621276855 4.023570537567139 4.100744724273682 3.767130613327026 4.653464794158936 3.767130613327026 C 4.710611820220947 3.767130613327026 4.768183708190918 3.769891500473022 4.825197219848633 3.775350093841553 L 7.893190860748291 3.822881460189819 L 9.757356643676758 2.740832567214966 L 11.45613479614258 0.008180640637874603 C 11.76657485961914 -0.4904793500900269 12.33500480651855 -0.7999993562698364 12.93988418579102 -0.7999993562698364 C 13.23317432403564 -0.7999993562698364 13.52396488189697 -0.7272593379020691 13.7808141708374 -0.5896393656730652 C 14.19187450408936 -0.3694093525409698 14.49494457244873 0.008390640839934349 14.6123046875 0.4469006359577179 C 14.72829437255859 0.880280613899231 14.66070461273193 1.330560684204102 14.42198467254639 1.714800596237183 L 12.56669425964355 4.699210643768311 C 12.52710247039795 4.76281213760376 12.48306751251221 4.823933601379395 12.43521213531494 4.881758213043213 C 12.2943229675293 5.086267948150635 12.10586261749268 5.260008811950684 11.88662433624268 5.386870861053467 L 9.129101753234863 6.987468719482422 L 8.779014587402344 9.777376174926758 L 7.889834403991699 19.09088134765625 C 7.805454730987549 19.96751976013184 6.981934547424316 20.62815093994141 5.974194526672363 20.62818145751953 Z"/><path class="e" d="M 5.974164485931396 19.82818031311035 C 6.559614658355713 19.82816123962402 7.048514842987061 19.48173141479492 7.093454837799072 19.01485061645508 L 7.983744621276855 9.68972110748291 L 8.384684562683105 6.494560718536377 L 11.48595428466797 4.694440841674805 C 11.61819458007812 4.617920875549316 11.72234439849854 4.515440464019775 11.79571437835693 4.398580551147461 C 11.82937431335449 4.361130714416504 11.86009502410889 4.320510864257812 11.88727474212646 4.276840686798096 L 13.74245452880859 1.292610645294189 C 13.99887466430664 0.8798906207084656 13.84664440155029 0.3532106280326843 13.40299415588379 0.115520641207695 C 13.25685691833496 0.03722066059708595 13.09733390808105 1.226806602971919e-06 12.93988037109375 1.226806602971919e-06 C 12.61934089660645 1.226806602971919e-06 12.30750846862793 0.1543332785367966 12.13555431365967 0.4305506348609924 L 10.33147430419922 3.332590579986572 L 8.102794647216797 4.626220703125 L 4.776054859161377 4.574680805206299 C 4.735272884368896 4.569632530212402 4.694352626800537 4.567134380340576 4.653465747833252 4.567134380340576 C 4.361072063446045 4.567134380340576 4.073122978210449 4.695151329040527 3.892684698104858 4.93458080291748 L 0.1676846295595169 9.874110221862793 C -0.1261853724718094 10.26403045654297 -0.02361537702381611 10.80129051208496 0.3956146240234375 11.07399082183838 C 0.5577443242073059 11.17924880981445 0.7433155179023743 11.22981071472168 0.927081823348999 11.2297945022583 C 1.21941089630127 11.22976970672607 1.507040619850159 11.10175704956055 1.687474608421326 10.86234092712402 L 3.471844673156738 8.496180534362793 L 0.9475246071815491 18.51585006713867 C 0.8246046304702759 19.00345993041992 1.230804681777954 19.50897026062012 1.854354619979858 19.64410018920898 C 1.959319829940796 19.66698455810547 2.06373143196106 19.67789649963379 2.165464162826538 19.67789268493652 C 2.668077707290649 19.67787742614746 3.104226350784302 19.41142845153809 3.206454515457153 19.00590133666992 L 4.761404514312744 12.83393096923828 L 5.355234622955322 12.83393096923828 L 4.783234596252441 18.82519149780273 C 4.735204696655273 19.3233699798584 5.213854789733887 19.7702808380127 5.852054595947266 19.82319068908691 C 5.893154621124268 19.82653999328613 5.933874607086182 19.82818031311035 5.974164485931396 19.82818031311035 M 5.974214553833008 21.42818069458008 L 5.974164485931396 21.42818069458008 C 5.890564441680908 21.42818069458008 5.805744647979736 21.42472076416016 5.722074508666992 21.41790008544922 C 5.046929359436035 21.36193466186523 4.419862747192383 21.08627319335938 3.957171440124512 20.6499195098877 C 3.481689453125 21.04428291320801 2.850988149642944 21.27787971496582 2.165494680404663 21.27789115905762 C 1.947684645652771 21.27791023254395 1.728314638137817 21.25419044494629 1.513604640960693 21.20740127563477 C 0.7459846138954163 21.04104042053223 0.08141462504863739 20.58551979064941 -0.3078253865242004 19.95804023742676 C -0.655505359172821 19.39755058288574 -0.7606653571128845 18.7464714050293 -0.6039353609085083 18.1247501373291 L 0.7318885326385498 12.8225154876709 C 0.3009388446807861 12.79027938842773 -0.113042376935482 12.65138244628906 -0.4756453633308411 12.41597080230713 C -1.050825357437134 12.04183101654053 -1.446935415267944 11.44732093811035 -1.563595414161682 10.78411102294922 C -1.678815364837646 10.12911033630371 -1.513505339622498 9.446420669555664 -1.110065340995789 8.911110877990723 L 2.615214586257935 3.971210718154907 C 3.088924646377563 3.34264063835144 3.851004600524902 2.967130661010742 4.653464794158936 2.967130661010742 C 4.724315166473389 2.967130661010742 4.795613288879395 2.970067977905273 4.866488456726074 2.975887537002563 L 7.683613300323486 3.019532442092896 L 9.183258056640625 2.149068832397461 L 10.77672481536865 -0.4141793549060822 C 11.23224449157715 -1.145939350128174 12.0609245300293 -1.599999308586121 12.93988418579102 -1.599999308586121 C 13.36454486846924 -1.599999308586121 13.78598499298096 -1.494469404220581 14.15862464904785 -1.294799327850342 C 14.76377487182617 -0.9705893397331238 15.21081447601318 -0.4111493527889252 15.38510417938232 0.2400606423616409 C 15.55634498596191 0.8798806667327881 15.45298480987549 1.571280598640442 15.10151481628418 2.136980533599854 L 13.24610424041748 5.121570587158203 C 13.19361782073975 5.205909252166748 13.13594532012939 5.287181377410889 13.07372856140137 5.364578723907471 C 12.86815166473389 5.653784275054932 12.59854221343994 5.899201393127441 12.28729438781738 6.079300403594971 L 9.873530387878418 7.48036527633667 L 9.574256896972656 9.865323066711426 L 8.686214447021484 19.16691017150879 C 8.562074661254883 20.4565315246582 7.396224498748779 21.42813110351562 5.974214553833008 21.42818069458008 Z"/></g><g class="b" transform="translate(5.311 -1)"><circle class="d" cx="1.318" cy="1.318" r="1.318"/><circle class="f" cx="1.318" cy="1.318" r="2.118"/></g><path class="c" d="M0,0H22" transform="translate(-3.834 25.597)"/></g></svg>