<svg xmlns="http://www.w3.org/2000/svg" width="13.961" height="20.842" viewBox="0 0 13.961 20.842"><defs><style>.a,.b,.e{fill:none;}.a,.b{stroke-linecap:round;}.b{stroke:#fefefe;stroke-linejoin:round;stroke-miterlimit:10;stroke-width:1.4px;}.c,.d{stroke:none;}.d{fill:#fefefe;}</style></defs><g transform="translate(-14.979 -158.454)"><g class="a" transform="translate(16.378 161.935)"><path class="c" d="M4.711,15.956a.837.837,0,0,1-.86-.8l.46-4.823H3.833L2.581,15.3a.884.884,0,0,1-1.088.514.817.817,0,0,1-.73-.908L2.795,6.839l-1.436,1.9a.784.784,0,0,1-1.04.17.663.663,0,0,1-.183-.966l3-3.976a.772.772,0,0,1,.711-.29l2.678.041L8.316,2.683,9.768.347a.779.779,0,0,1,1.02-.254.667.667,0,0,1,.273.947l-1.493,2.4a.7.7,0,0,1-.074.1.715.715,0,0,1-.249.238l-2.5,1.449L6.426,7.8,5.71,15.306a.839.839,0,0,1-.9.655Q4.76,15.961,4.711,15.956Z"/><path class="d" d="M 4.808876514434814 15.96050930023193 C 5.280136585235596 15.96049880981445 5.673676490783691 15.6816291809082 5.709846496582031 15.30582904815674 L 6.426486492156982 7.799648761749268 L 6.749226570129395 5.227728843688965 L 9.245586395263672 3.778738975524902 C 9.352016448974609 3.717149019241333 9.435866355895996 3.634658813476562 9.494926452636719 3.54059886932373 C 9.522016525268555 3.510448932647705 9.546736717224121 3.477748870849609 9.56861686706543 3.442598819732666 L 11.061936378479 1.04046893119812 C 11.26834678649902 0.7082589268684387 11.14580631256104 0.2843189239501953 10.7886962890625 0.09298890829086304 C 10.67106151580811 0.02996022626757622 10.54265022277832 -1.050109858624637e-06 10.41590785980225 -1.050109858624637e-06 C 10.1578893661499 -1.050109858624637e-06 9.906883239746094 0.1242270097136497 9.768465995788574 0.3465689122676849 L 8.316286087036133 2.682538986206055 L 6.522316455841064 3.723828792572021 L 3.8444664478302 3.682348966598511 C 3.811639547348022 3.678285837173462 3.778704881668091 3.676275253295898 3.745793104171753 3.676275253295898 C 3.510432481765747 3.676275253295898 3.27864670753479 3.77931809425354 3.133406400680542 3.972038984298706 L 0.1349764168262482 7.948069095611572 C -0.1015735790133476 8.26193904876709 -0.01900357939302921 8.694398880004883 0.3184464275836945 8.913908958435059 C 0.4489316344261169 8.998619079589844 0.5983461141586304 9.03931713104248 0.746245801448822 9.039316177368164 C 0.9815800189971924 9.039315223693848 1.213073134422302 8.936272621154785 1.358326435089111 8.743538856506348 L 2.794646501541138 6.838918685913086 L 0.7627063989639282 14.90415859222412 C 0.6637664437294006 15.29665851593018 0.9907364249229431 15.70356845855713 1.492656469345093 15.81232929229736 C 1.577147126197815 15.83074951171875 1.66119658946991 15.83953380584717 1.743085861206055 15.83953189849854 C 2.14766263961792 15.83952045440674 2.498741388320923 15.62503910064697 2.581026315689087 15.29861927032471 L 3.832676410675049 10.3305492401123 L 4.310676574707031 10.3305492401123 L 3.850246429443359 15.15315914154053 C 3.811586380004883 15.55416870117188 4.196876525878906 15.91389846801758 4.710586547851562 15.95648860931396 C 4.743666648864746 15.95918846130371 4.776446342468262 15.96050930023193 4.808876514434814 15.96050930023193 M 4.808906555175781 17.36050796508789 L 4.808876514434814 17.36050796508789 C 4.738486289978027 17.36050796508789 4.667096614837646 17.35759925842285 4.596696376800537 17.35184860229492 C 4.062288761138916 17.30754280090332 3.563145637512207 17.09937858581543 3.180586338043213 16.76865196228027 C 2.788300037384033 17.06562042236328 2.285879611968994 17.2395133972168 1.74311637878418 17.23952865600586 C 1.559766411781311 17.23954963684082 1.375126361846924 17.21958923339844 1.194446444511414 17.18019866943359 C 0.5472463965415955 17.03995895385742 -0.01376357860863209 16.65490913391113 -0.3430035710334778 16.12415885925293 C -0.6390435695648193 15.64693927764893 -0.7284736037254333 15.09213924407959 -0.5948235988616943 14.5619592666626 L 0.4488720297813416 10.41927528381348 C 0.130860760807991 10.3760986328125 -0.173353835940361 10.26377773284912 -0.4438535869121552 10.08817863464355 C -0.9329335689544678 9.770029067993164 -1.26974356174469 9.264308929443359 -1.369003534317017 8.699989318847656 C -1.467103600502014 8.142258644104004 -1.326433539390564 7.561069011688232 -0.9830535650253296 7.105458736419678 L 2.015626430511475 3.129088878631592 C 2.417966365814209 2.595218896865845 3.06485652923584 2.276278972625732 3.74579644203186 2.276278972625732 C 3.804625272750854 2.276278972625732 3.863819122314453 2.278665065765381 3.922693967819214 2.283394813537598 L 6.155533313751221 2.317981719970703 L 7.31158971786499 1.646961450576782 L 8.579486846923828 -0.3925710916519165 C 8.966536521911621 -1.014271140098572 9.670026779174805 -1.400001049041748 10.41590595245361 -1.400001049041748 C 10.77617645263672 -1.400001049041748 11.13372611999512 -1.310451030731201 11.44991683959961 -1.141021132469177 C 11.96419620513916 -0.8654910922050476 12.34420680999756 -0.3897110819816589 12.49246597290039 0.1642889082431793 C 12.63827610015869 0.7091088891029358 12.55029678344727 1.297758936882019 12.25109672546387 1.779318928718567 L 10.75759601593018 4.18173885345459 C 10.71352577209473 4.252536773681641 10.66520881652832 4.32074499130249 10.6131477355957 4.385734081268311 C 10.43863391876221 4.630411624908447 10.21025085449219 4.838018894195557 9.946805953979492 4.990468978881836 L 8.051968574523926 6.090308666229248 L 7.818154335021973 7.953576564788818 L 7.103506565093994 15.43888854980469 C 6.998026371002197 16.53482818603516 6.011606216430664 17.3604793548584 4.808906555175781 17.36050796508789 Z"/></g><g class="b" transform="translate(20.654 159.854)"><ellipse class="c" cx="1.061" cy="1.061" rx="1.061" ry="1.061"/><ellipse class="e" cx="1.061" cy="1.061" rx="1.761" ry="1.761"/></g></g></svg>