<svg xmlns="http://www.w3.org/2000/svg" width="14" height="14" viewBox="0 0 14 14"><defs><style>.a{fill:#f96562;}.b{fill:#fff;stroke:#fff;stroke-width:0.5px;}</style></defs><g transform="translate(-15 -130)"><path class="a" d="M7,0A7,7,0,1,1,0,7,7,7,0,0,1,7,0Z" transform="translate(15 130)"/><path class="b" d="M7.617,8.116a.479.479,0,0,1-.346-.149L5.057,5.747a3.15,3.15,0,0,1-1.864.617H3.181A3.215,3.215,0,0,1,0,3.17,3.147,3.147,0,0,1,3.144,0h.013A3.214,3.214,0,0,1,6.338,3.193,3.178,3.178,0,0,1,5.73,5.067L7.947,7.29a.48.48,0,0,1-.21.811A.476.476,0,0,1,7.617,8.116ZM3.15.636A2.518,2.518,0,0,0,.634,3.173,2.571,2.571,0,0,0,3.178,5.727h.01a2.5,2.5,0,0,0,1.78-.74,2.538,2.538,0,0,0,.735-1.8A2.569,2.569,0,0,0,3.16.636Z" transform="translate(17.936 132.5)"/></g></svg>