<svg xmlns="http://www.w3.org/2000/svg" width="22" height="28" viewBox="0 0 22 28"><defs><style>.a{fill:#080808;stroke-linejoin:round;}.a,.b{stroke:#080808;}.b,.d{fill:none;}.c{stroke:none;}</style></defs><g transform="translate(-15 -509)"><path class="a" d="M4.22,29.6V11.482h5.5a18.7,18.7,0,0,1,4.075.272,4.451,4.451,0,0,1,2.443,1.774,5.9,5.9,0,0,1,.984,3.529,6.249,6.249,0,0,1-.567,2.806,4.89,4.89,0,0,1-1.441,1.786,4.821,4.821,0,0,1-1.777.859,18.342,18.342,0,0,1-3.554.26H7.646V29.6ZM7.646,14.548v5.143H9.522a8.325,8.325,0,0,0,2.709-.284,2.278,2.278,0,0,0,1.071-.89,2.556,2.556,0,0,0,.388-1.409,2.438,2.438,0,0,0-.544-1.632,2.332,2.332,0,0,0-1.378-.8A15.435,15.435,0,0,0,9.3,14.548Z" transform="translate(15.28 502.145)"/><g class="b" transform="translate(15 509)"><rect class="c" width="22" height="28" rx="3"/><rect class="d" x="0.5" y="0.5" width="21" height="27" rx="2.5"/></g></g></svg>