<svg xmlns="http://www.w3.org/2000/svg" width="14" height="16.45" viewBox="0 0 14 16.45"><defs><style>.a{fill:#fff;}</style></defs><path class="a" d="M-361.013-557.715h-10.5a1.752,1.752,0,0,1-1.751-1.75v-11.2a1.752,1.752,0,0,1,1.751-1.75h.788v-.35a1.4,1.4,0,0,1,1.4-1.4,1.4,1.4,0,0,1,1.4,1.4v.35h3.5v-.35a1.4,1.4,0,0,1,1.4-1.4,1.4,1.4,0,0,1,1.4,1.4v.35h.612a1.752,1.752,0,0,1,1.75,1.75v11.2A1.752,1.752,0,0,1-361.013-557.715Zm-1.149-4.25a.9.9,0,0,0-.9.9.9.9,0,0,0,.9.9.9.9,0,0,0,.9-.9A.9.9,0,0,0-362.162-561.965Zm-4.1,0a.9.9,0,0,0-.9.9.9.9,0,0,0,.9.9.9.9,0,0,0,.9-.9A.9.9,0,0,0-366.262-561.965Zm-4.1,0a.9.9,0,0,0-.9.9.9.9,0,0,0,.9.9.9.9,0,0,0,.9-.9A.9.9,0,0,0-370.363-561.965Zm4.1-4.7a1.5,1.5,0,0,0-1.5,1.5,1.5,1.5,0,0,0,1.5,1.5,1.5,1.5,0,0,0,1.5-1.5A1.5,1.5,0,0,0-366.262-566.664Zm4.1.6a.9.9,0,0,0-.9.9.9.9,0,0,0,.9.9.9.9,0,0,0,.9-.9A.9.9,0,0,0-362.162-566.065Zm-8.2,0a.9.9,0,0,0-.9.9.9.9,0,0,0,.9.9.9.9,0,0,0,.9-.9A.9.9,0,0,0-370.363-566.065Zm8.2-4.1a.9.9,0,0,0-.9.9.9.9,0,0,0,.9.9.9.9,0,0,0,.9-.9A.9.9,0,0,0-362.162-570.164Zm-4.1,0a.9.9,0,0,0-.9.9.9.9,0,0,0,.9.9.9.9,0,0,0,.9-.9A.9.9,0,0,0-366.262-570.164Zm-4.1,0a.9.9,0,0,0-.9.9.9.9,0,0,0,.9.9.9.9,0,0,0,.9-.9A.9.9,0,0,0-370.363-570.164Zm7.338-3.3a.7.7,0,0,0-.7.7v1.049a.7.7,0,0,0,.7.7.7.7,0,0,0,.7-.7v-1.049A.7.7,0,0,0-363.025-573.465Zm-6.3,0a.7.7,0,0,0-.7.7v1.049a.7.7,0,0,0,.7.7.7.7,0,0,0,.7-.7v-1.049A.7.7,0,0,0-369.325-573.465Z" transform="translate(373.262 574.165)"/></svg>