<svg xmlns="http://www.w3.org/2000/svg" width="14" height="18.924" viewBox="0 0 14 18.924"><defs><style>.a{fill:#fff;}</style></defs><path class="a" d="M9,17.424v-.469H5v.469a1.5,1.5,0,1,1-3,0v-.469H1.535A1.536,1.536,0,0,1,0,15.421V2.558A2.56,2.56,0,0,1,2.558,0h8.885A2.56,2.56,0,0,1,14,2.558V15.421a1.536,1.536,0,0,1-1.535,1.534H12v.469a1.5,1.5,0,1,1-3,0Zm3-1.466a1,1,0,1,0-.226-.026H12v.026Zm-3,0v-.026h.228A1,1,0,0,0,9,13.963H5a1,1,0,0,0-.226,1.969H5v.026Zm-8-1a1,1,0,0,0,1,1v-.026h.226A1,1,0,1,0,1,14.96ZM1,6.547v4.424H13V6.547A2.56,2.56,0,0,0,10.443,3.99H3.557A2.56,2.56,0,0,0,1,6.547ZM4,1.995a1,1,0,0,0,1,1H9A1,1,0,1,0,9,1H5A1,1,0,0,0,4,1.995Z"/></svg>