<svg xmlns="http://www.w3.org/2000/svg" width="23.6" height="28.231" viewBox="0 0 23.6 28.231"><defs><style>.a{fill:#080808;}.b{fill:none;stroke:#080808;stroke-linecap:round;stroke-width:1.6px;stroke-dasharray:4 4;}</style></defs><g transform="translate(-0.2 -1.84)"><path class="a" d="M11.571,22.453v-.608H6.429v.608a1.929,1.929,0,0,1-3.857,0v-.639A3,3,0,0,1,0,18.845V5A5.006,5.006,0,0,1,5,0h8a5.006,5.006,0,0,1,5,5V18.845a3,3,0,0,1-2.571,2.969v.639a1.929,1.929,0,0,1-3.857,0Zm3.857-1.894a1.285,1.285,0,1,0-.291-.033h.291v.033Zm-3.857,0v-.033h.292a1.285,1.285,0,0,0-.291-2.536H6.428a1.285,1.285,0,0,0-.291,2.536h.292v.033ZM1.286,19.274A1.287,1.287,0,0,0,2.571,20.56v-.033h.291a1.285,1.285,0,1,0-1.577-1.252Zm0-9.134v3.994H16.714V10.14a5.005,5.005,0,0,0-5-5H6.286A5.005,5.005,0,0,0,1.286,10.14ZM5.143,2.57A1.286,1.286,0,0,0,6.428,3.855h5.144a1.285,1.285,0,1,0,0-2.57H6.428A1.287,1.287,0,0,0,5.143,2.57Z" transform="translate(2.096 1.84)"/><path class="b" d="M0,0H22" transform="translate(1 29.271)"/></g></svg>