<svg xmlns="http://www.w3.org/2000/svg" width="15.464" height="21.721" viewBox="0 0 15.464 21.721"><defs><style>.a,.b,.e{fill:none;}.b{stroke:#fff;stroke-linecap:round;stroke-linejoin:round;stroke-miterlimit:10;stroke-width:1.4px;}.c,.d{stroke:none;}.d{fill:#fff;}</style></defs><g transform="translate(1.691 -0.6)"><g transform="translate(-0.29 6.942)"><g class="a" transform="translate(0 0)"><path class="c" d="M1.471,13.979A1.055,1.055,0,0,1,.538,13.4a1.3,1.3,0,0,1,.215-1.37C1.81,10.6,2.784,9.467,2.794,9.455L3.11,8.2,4.92,9.688l-.446,1.064c-.011.014-1.19,1.5-2.1,2.724A1.131,1.131,0,0,1,1.471,13.979Zm6.7-.052a1.052,1.052,0,0,1-.95-.607L7.214,13.3c-.047-.106-.648-2.2-1.007-3.661-.463-.443-1-.92-1.471-1.341A12.324,12.324,0,0,1,3.624,7.249l0-.006a1.688,1.688,0,0,1-.27-.912,1.669,1.669,0,0,1,.067-.445V5.879c0-.019.519-2,.79-3.27L2.714,3.71,1.642,6.133a.839.839,0,0,1-.8.619A.841.841,0,0,1,.126,5.468L1.313,2.646l.005-.007A.845.845,0,0,1,1.6,2.277l0-.006L4.1.347A1.68,1.68,0,0,1,5.116,0h.956a1.475,1.475,0,0,1,1.47,1.476,1.467,1.467,0,0,1-.065.412l0,.011-1.2,4.432L8.17,9.1l1.048,3.774A1.052,1.052,0,0,1,8.17,13.927Zm3.674-7.683a1.253,1.253,0,0,1-.337-.049c-1.2-.337-2.257-.652-2.268-.655L7.718,4.608c.079-.277.478-1.651.506-1.658C8.246,2.98,9.86,4,9.929,4.041c.074.02.75.2,1.96.567a.918.918,0,0,1,.766.984A.782.782,0,0,1,11.844,6.244Z"/><path class="d" d="M 1.470559000968933 13.97885894775391 C 1.817168951034546 13.97883892059326 2.139678955078125 13.80014896392822 2.378698825836182 13.47569942474365 C 3.283808946609497 12.24706935882568 4.462429046630859 10.76581859588623 4.473898887634277 10.75139904022217 L 4.920299053192139 9.687599182128906 L 3.109498977661133 8.195399284362793 L 2.793598890304565 9.455398559570312 C 2.783889055252075 9.466718673706055 1.810248970985413 10.60400867462158 0.7532989382743835 12.0275993347168 C 0.4106289446353912 12.48950862884521 0.3321789503097534 12.98902893066406 0.538038969039917 13.39807891845703 C 0.7156289219856262 13.75090885162354 1.081658959388733 13.97887897491455 1.470559000968933 13.97885894775391 M 8.170199394226074 13.92659854888916 C 8.747828483581543 13.92659854888916 9.217808723449707 13.45353889465332 9.217808723449707 12.87179946899414 L 8.170199394226074 9.098098754882812 L 6.284698963165283 6.332398891448975 L 7.481759071350098 1.900249004364014 C 7.481759071350098 1.899749040603638 7.477949142456055 1.890269041061401 7.477199077606201 1.88909900188446 C 7.521409034729004 1.735419034957886 7.541998863220215 1.60443902015686 7.541998863220215 1.476899027824402 C 7.541998863220215 0.6628090143203735 6.882868766784668 0.0004990106099285185 6.071838855743408 0.0004990106099285185 L 6.064198970794678 -9.893798278426402e-07 L 5.115599155426025 -9.893798278426402e-07 C 4.74984884262085 -9.893798278426402e-07 4.388039112091064 0.1233690083026886 4.096798896789551 0.3473989963531494 L 1.603798985481262 2.270689010620117 L 1.59929895401001 2.276998996734619 C 1.47278892993927 2.371189117431641 1.375648975372314 2.496378898620605 1.318508982658386 2.638798952102661 L 1.313098907470703 2.645998954772949 L 0.1260089427232742 5.468399047851562 C 0.04357894137501717 5.602348804473877 8.94180266186595e-06 5.754528999328613 8.94180266186595e-06 5.908499240875244 C 8.94180266186595e-06 6.373498916625977 0.3758789300918579 6.7517991065979 0.8378989696502686 6.7517991065979 C 1.210758924484253 6.7517991065979 1.541258931159973 6.497118949890137 1.641608953475952 6.132598876953125 L 2.714398860931396 3.709809064865112 L 4.207499027252197 2.6090989112854 C 3.936249017715454 3.878468990325928 3.422138929367065 5.860188961029053 3.417299032211304 5.878788948059082 L 3.418198823928833 5.885999202728271 C 3.372758865356445 6.052958965301514 3.351598978042603 6.194229125976562 3.351598978042603 6.330598831176758 C 3.351598978042603 6.652338981628418 3.444958925247192 6.96790885925293 3.621518850326538 7.243059158325195 L 3.624299049377441 7.249498844146729 C 3.707699060440063 7.378299236297607 4.161549091339111 7.782769203186035 4.736518859863281 8.29517936706543 C 5.209098815917969 8.71631908416748 5.744739055633545 9.193649291992188 6.207298755645752 9.636299133300781 C 6.566818714141846 11.09722900390625 7.167078971862793 13.19148921966553 7.214398860931396 13.29749870300293 L 7.219799041748047 13.3199987411499 C 7.400269031524658 13.69416904449463 7.764449119567871 13.92659854888916 8.170199394226074 13.92659854888916 M 11.84443855285645 6.243709087371826 C 12.33498859405518 6.243618965148926 12.60849857330322 5.905818939208984 12.65501880645752 5.5920090675354 C 12.70419883728027 5.260159015655518 12.53308868408203 4.803339004516602 11.88900852203369 4.607998847961426 C 10.67873859405518 4.241199016571045 10.00308895111084 4.060658931732178 9.928798675537109 4.040998935699463 C 9.860098838806152 3.997678995132446 8.245658874511719 2.979689121246338 8.224248886108398 2.949839115142822 C 8.196688652038574 2.956768989562988 7.797668933868408 4.331378936767578 7.718399047851562 4.607998847961426 L 9.239398956298828 5.539498805999756 C 9.249909400939941 5.542638778686523 10.30435848236084 5.857708930969238 11.50739860534668 6.194698810577393 C 11.62356853485107 6.22723913192749 11.73695850372314 6.243729114532471 11.84443855285645 6.243709087371826 M 1.470638990402222 15.37885856628418 L 1.470628976821899 15.37885856628418 C 0.5576489567756653 15.37890911102295 -0.2992710471153259 14.84846878051758 -0.7124910354614258 14.02750873565674 C -1.158201098442078 13.14185905456543 -1.030561089515686 12.08242893218994 -0.3710810542106628 11.19346904754639 C 0.4153918325901031 10.13418579101562 1.159610629081726 9.226070404052734 1.514331102371216 8.801027297973633 L 1.723531365394592 7.966609954833984 C 1.449589252471924 8.086206436157227 1.149333119392395 8.151799201965332 0.8378989696502686 8.151799201965332 C -0.3960810601711273 8.151799201965332 -1.399991035461426 7.145459175109863 -1.399991035461426 5.908499240875244 C -1.399991035461426 5.539357662200928 -1.307905912399292 5.176045894622803 -1.132617473602295 4.849837303161621 L 0.02259894087910652 2.103219032287598 L 0.08976893872022629 1.943518996238708 L 0.1155536025762558 1.909204721450806 C 0.2294483929872513 1.693113088607788 0.3784418106079102 1.496780633926392 0.5566867589950562 1.327786803245544 L 0.5843989253044128 1.288928985595703 L 0.748638927936554 1.162219047546387 L 3.241638898849487 -0.7610709667205811 C 3.777818918228149 -1.173521041870117 4.442789077758789 -1.400000929832458 5.115599155426025 -1.400000929832458 L 6.064198970794678 -1.400000929832458 L 6.109959125518799 -1.400000929832458 L 6.12504768371582 -1.399013161659241 C 7.683207511901855 -1.370480179786682 8.941998481750488 -0.09133890271186829 8.941998481750488 1.476899027824402 C 8.941998481750488 1.500291347503662 8.941679954528809 1.523684740066528 8.941039085388184 1.547134280204773 L 9.214278221130371 1.928084015846252 C 9.462723731994629 2.08867621421814 9.943028450012207 2.394309520721436 10.49814891815186 2.744843006134033 C 10.79834365844727 2.82744836807251 11.40494918823242 2.998406171798706 12.29506874084473 3.268178939819336 C 13.06613922119141 3.502038955688477 13.48768901824951 3.950469017028809 13.70558929443359 4.285499095916748 C 13.99882888793945 4.736349105834961 14.11754894256592 5.273229122161865 14.03988933563232 5.797248840332031 C 13.88130855560303 6.866979122161865 12.95809936523438 7.643508911132812 11.84469890594482 7.643709182739258 L 11.84443855285645 6.243709087371826 L 11.84469890594482 7.643709182739258 C 11.60948848724365 7.643749237060547 11.36895847320557 7.609808921813965 11.12977886199951 7.542809009552002 C 9.930739402770996 7.206939220428467 8.882708549499512 6.894079208374023 8.838679313659668 6.880928993225098 L 8.66386890411377 6.828699111938477 L 8.50822925567627 6.733398914337158 L 8.06914234161377 6.46449089050293 L 9.326958656311035 8.309489250183105 L 9.45728874206543 8.500658988952637 L 9.519179344177246 8.72360897064209 L 10.56678867340088 12.4973087310791 L 10.6178092956543 12.68107891082764 L 10.6178092956543 12.87179946899414 C 10.6178092956543 14.22537899017334 9.519819259643555 15.32659912109375 8.170199394226074 15.32659912109375 C 7.222198963165283 15.32659912109375 6.374838829040527 14.79075908660889 5.958808898925781 13.92819881439209 L 5.893528938293457 13.79284858703613 L 5.861251831054688 13.65835571289062 C 5.747736930847168 13.30769538879395 5.551347255706787 12.61876964569092 5.353593826293945 11.89588356018066 C 4.97321081161499 12.37839221954346 4.165019512176514 13.41129779815674 3.505858898162842 14.30605888366699 C 3.003628969192505 14.9877986907959 2.261828899383545 15.37880897521973 1.470638990402222 15.37885856628418 Z"/></g></g><g class="b" transform="translate(5.174 2)"><ellipse class="c" cx="1.054" cy="1.054" rx="1.054" ry="1.054"/><ellipse class="e" cx="1.054" cy="1.054" rx="1.754" ry="1.754"/></g></g></svg>