<svg xmlns="http://www.w3.org/2000/svg" width="23.6" height="28.997" viewBox="0 0 23.6 28.997"><defs><style>.a,.b,.c{fill:#fff;}.a,.d{stroke:#080808;stroke-width:1.6px;}.a,.c,.d{stroke-linecap:round;}.a,.c{stroke-linejoin:round;stroke-miterlimit:10;}.d,.f{fill:none;}.d{stroke-dasharray:4 4;}.e,.g{stroke:none;}.g{fill:#080808;}</style></defs><g transform="translate(-15.2 -257.803)"><g transform="translate(7.759 257.403)"><g class="a" transform="translate(17.136 2)"><ellipse class="e" cx="1.541" cy="1.541" rx="1.541" ry="1.541"/><ellipse class="f" cx="1.541" cy="1.541" rx="2.341" ry="2.341"/></g><g transform="translate(12 8.676)"><g class="b" transform="translate(-10.02 -10.749)"><path class="e" d="M 11.70677852630615 27.46971702575684 C 10.96074867248535 27.46971702575684 10.26015853881836 27.03522872924805 9.921928405761719 26.36280822753906 C 9.545308113098145 25.61404800415039 9.661898612976074 24.73669815063477 10.24180889129639 23.95573806762695 C 11.22653865814209 22.62958908081055 12.13543224334717 21.53356742858887 12.47615337371826 21.1289234161377 L 13.10250854492188 17.75155830383301 L 13.28759860992432 16.78082847595215 L 13.59603881835938 15.16318798065186 L 14.67697811126709 16.40555763244629 L 16.68087768554688 18.70873832702637 L 16.95384788513184 19.0224781036377 L 16.85387802124023 19.42615699768066 L 15.92863845825195 23.16231727600098 L 15.88665866851807 23.33184814453125 L 15.77782821655273 23.46846771240234 C 15.76430892944336 23.48544883728027 14.41359806060791 25.18225860595703 13.39238834381104 26.56770706176758 C 12.96363830566406 27.14937782287598 12.36501884460449 27.46971702575684 11.70677852630615 27.46971702575684 Z"/><path class="g" d="M 11.7067813873291 26.66972160339355 C 12.06922435760498 26.66972160339355 12.44983577728271 26.49812889099121 12.7484188079834 26.09304809570312 C 13.7908182144165 24.67884826660156 15.15209865570068 22.97000885009766 15.15209865570068 22.97000885009766 L 16.07733917236328 19.23384857177734 L 14.07343864440918 16.93066787719727 L 13.88909816741943 17.89743804931641 L 13.22394847869873 21.48398780822754 C 13.22394847869873 21.48398780822754 12.10403823852539 22.78976821899414 10.88409805297852 24.43266868591309 C 10.01359558105469 25.60497856140137 10.803879737854 26.66972160339355 11.7067813873291 26.66972160339355 M 11.70677852630615 28.26971817016602 C 10.66119861602783 28.26971817016602 9.680078506469727 27.66231727600098 9.207248687744141 26.72228813171387 C 8.697418212890625 25.70869827270508 8.84406852722168 24.49617767333984 9.599518775939941 23.47880744934082 C 10.48474025726318 22.28667068481445 11.31092166900635 21.2763557434082 11.72790336608887 20.77636337280273 L 12.31592845916748 17.60567855834961 L 12.31665897369385 17.60171699523926 L 12.31741809844971 17.59775733947754 L 12.50175857543945 16.6309871673584 L 13.11864852905273 13.39570808410645 L 15.28050899505615 15.88044834136963 L 17.28440856933594 18.18362808227539 L 17.83035850524902 18.81110763549805 L 17.63041877746582 19.61845779418945 L 16.70517921447754 23.35461807250977 L 16.62121772766113 23.69367790222168 L 16.40356826782227 23.96691703796387 C 16.39012908935547 23.98377799987793 15.04830837249756 25.66948699951172 14.03634834289551 27.04237747192383 C 13.46142864227295 27.82236862182617 12.61232852935791 28.26971817016602 11.70677852630615 28.26971817016602 Z"/></g><g class="b" transform="translate(-11.351 -7.69)"><path class="e" d="M 24.84177207946777 15.64839458465576 C 24.64558219909668 15.64839458465576 24.44302177429199 15.61953449249268 24.23972129821777 15.5626049041748 C 22.85250282287598 15.17418479919434 21.63661193847656 14.81043529510498 21.62449264526367 14.80680465698242 L 21.41207122802734 14.74320507049561 L 21.2627010345459 14.57931518554688 L 19.47923278808594 12.62252521514893 L 19.22815132141113 12.34705448150635 L 19.27755165100098 11.97760486602783 C 19.27838134765625 11.97140502929688 19.36144256591797 11.3504753112793 19.4468822479248 10.73753452301025 C 19.49728202819824 10.37589454650879 19.53873252868652 10.08711528778076 19.5700626373291 9.879215240478516 C 19.5886116027832 9.756144523620605 19.60483169555664 9.653594970703125 19.61728286743164 9.581805229187012 C 19.62570190429688 9.533225059509277 19.63311195373535 9.495104789733887 19.6388111114502 9.469084739685059 C 19.73806190490723 9.015384674072266 20.10718154907227 8.812304496765137 20.4289722442627 8.812304496765137 L 20.84615135192871 8.812304496765137 L 21.0715389251709 9.134786605834961 C 21.20601272583008 9.301931381225586 22.29214286804199 10.62947082519531 23.10124588012695 11.61766719818115 C 23.44087791442871 11.71109580993652 24.11865234375 11.90220928192139 25.12460136413574 12.2069845199585 C 26.2725715637207 12.55479526519775 26.67422103881836 13.46773529052734 26.56302261352539 14.2182149887085 C 26.43826103210449 15.06028461456299 25.7304515838623 15.64839458465576 24.84177207946777 15.64839458465576 Z"/><path class="g" d="M 20.42896842956543 9.6123046875 C 20.40093994140625 9.6123046875 20.07049179077148 12.0836353302002 20.07049179077148 12.0836353302002 L 21.85396194458008 14.04042530059814 C 21.85396194458008 14.04042530059814 23.05906105041504 14.40125465393066 24.45542144775391 14.79223537445068 C 24.59314918518066 14.83079814910889 24.72219276428223 14.8483943939209 24.84177207946777 14.8483943939209 C 25.93454742431641 14.8483943939209 26.22478103637695 13.37622928619385 24.89263153076172 12.97261524200439 C 23.41472244262695 12.52484512329102 22.64473152160645 12.32289505004883 22.64473152160645 12.32289505004883 C 22.64473152160645 12.32289505004883 20.4535026550293 9.647034645080566 20.42950248718262 9.612654685974121 C 20.4293384552002 9.612420082092285 20.42916107177734 9.6123046875 20.42896842956543 9.6123046875 M 20.4289722442627 8.012304306030273 L 21.2852611541748 8.012304306030273 L 21.72154426574707 8.666315078735352 C 21.91861724853516 8.909399032592773 22.81842994689941 10.00931453704834 23.55972480773926 10.91481399536133 C 23.94499588012695 11.02290821075439 24.5463752746582 11.19588375091553 25.3565616607666 11.44135475158691 C 26.72394180297852 11.85563468933105 27.54547119140625 13.04573535919189 27.35439109802246 14.3354549407959 C 27.17299270629883 15.55977535247803 26.11628150939941 16.44839477539062 24.84177207946777 16.44839477539062 C 24.57270240783691 16.44839477539062 24.29758262634277 16.40956497192383 24.02406120300293 16.33299446105957 C 22.62998199462891 15.94264507293701 21.40721130371094 15.57684516906738 21.39502143859863 15.57319450378418 L 20.97017097473145 15.44598484039307 L 20.67143249511719 15.11821460723877 L 18.88796234130859 13.16142463684082 L 18.38581275939941 12.61046504974365 L 18.4846019744873 11.87158489227295 C 18.48544120788574 11.86535453796387 18.56880187988281 11.24221515655518 18.654541015625 10.62709522247314 C 18.70535278320312 10.26253509521484 18.74723243713379 9.970794677734375 18.77900123596191 9.759984970092773 C 18.79938125610352 9.624794960021973 18.81575202941895 9.521804809570312 18.82905197143555 9.445115089416504 C 19.07054138183594 8.052515029907227 20.29064178466797 8.012304306030273 20.4289722442627 8.012304306030273 Z"/></g><g class="c" transform="translate(-11 -14)"><path class="e" d="M 20.37229156494141 30.66082000732422 C 19.8866081237793 30.66082000732422 19.42476272583008 30.48076438903809 19.06734085083008 30.17203903198242 L 18.74278259277344 30.3346004486084 L 18.51247596740723 29.39419364929199 C 18.45440292358398 29.24565887451172 18.41438865661621 29.08501625061035 18.39310455322266 28.91490173339844 L 17.5473747253418 25.51955032348633 L 15.37991714477539 23.54217720031738 C 15.04436779022217 23.34262847900391 14.75647449493408 23.07792091369629 14.53914451599121 22.7690315246582 L 14.3982515335083 22.62862968444824 L 14.38337898254395 22.51776885986328 C 14.1614933013916 22.11550712585449 14.04504203796387 21.66702079772949 14.04504203796387 21.2094612121582 C 14.04504203796387 21.03816604614258 14.0644359588623 20.86265563964844 14.10404777526855 20.6772346496582 L 14.10132217407227 20.66176986694336 L 14.14564228057861 20.49253082275391 C 14.14796447753906 20.48365592956543 14.24111270904541 20.12747764587402 14.37197017669678 19.61135292053223 L 13.63492584228516 21.26395797729492 C 13.40326023101807 21.98933029174805 12.72468948364258 22.49009132385254 11.96126174926758 22.49009132385254 C 10.99010181427002 22.49009132385254 10.20000171661377 21.69999122619629 10.20000171661377 20.72883033752441 C 10.20000171661377 20.42911720275879 10.27855491638184 20.13306617736816 10.4277458190918 19.86835098266602 L 11.77021217346191 16.70133972167969 L 11.80978202819824 16.60799980163574 L 11.82173728942871 16.59237098693848 C 11.92660617828369 16.37792587280273 12.0752592086792 16.18644332885742 12.25880336761475 16.02941513061523 L 12.26948165893555 16.01554107666016 L 12.3529224395752 15.95164012908936 L 15.2131519317627 13.76093006134033 C 15.6860818862915 13.39911079406738 16.27383232116699 13.20000076293945 16.86849212646484 13.20000076293945 L 17.95664215087891 13.20000076293945 L 18.08646202087402 13.20000076293945 L 18.09614562988281 13.20320987701416 C 19.40603446960449 13.26956844329834 20.45134162902832 14.35611534118652 20.45134162902832 15.68220996856689 C 20.45134162902832 15.81257724761963 20.4392204284668 15.94498157501221 20.41456985473633 16.08208465576172 L 20.42717170715332 16.11231994628906 L 20.35410118103027 16.37420082092285 L 19.08359909057617 21.0465087890625 L 21.12379264831543 23.78388023376465 L 21.21975135803223 23.91263008117676 L 21.25859260559082 24.06843948364258 L 22.20489501953125 27.8645191192627 C 22.31707191467285 28.12029838562012 22.37386131286621 28.3871955871582 22.37386131286621 28.65925025939941 C 22.37386131286621 29.76292037963867 21.47596168518066 30.66082000732422 20.37229156494141 30.66082000732422 Z"/><path class="g" d="M 20.37229156494141 29.86082077026367 C 21.03604125976562 29.86082077026367 21.57386207580566 29.32299995422363 21.57386207580566 28.65925025939941 C 21.57386207580566 28.46891975402832 21.52580261230469 28.29156112670898 21.44697189331055 28.13150978088379 L 20.48235130310059 24.26194953918457 L 18.20945167541504 21.21235084533691 L 19.58213233947754 16.16427993774414 C 19.58213233947754 16.16427993774414 19.57876205444336 16.1561107635498 19.57684135437012 16.15178108215332 C 19.62058258056641 16.0018310546875 19.65134239196777 15.84610080718994 19.65134239196777 15.68220996856689 C 19.65134239196777 14.75314998626709 18.89819145202637 14 17.96914291381836 14 C 17.96625137329102 14 17.96385192871094 14.00096035003662 17.96096229553223 14.00096035003662 C 17.95952224731445 14.00096035003662 17.95808219909668 14 17.95664215087891 14 L 16.86849212646484 14 C 16.44602203369141 14 16.03508186340332 14.13938045501709 15.6996021270752 14.39603996276855 L 12.83937168121338 16.58675003051758 L 12.83456230163574 16.5930004119873 C 12.69278240203857 16.69778060913086 12.57983207702637 16.83908081054688 12.51302242279053 17.00539016723633 L 12.5067720413208 17.0135612487793 L 11.14419174194336 20.22801971435547 C 11.05431175231934 20.37413024902344 11.00000190734863 20.54475021362305 11.00000190734863 20.72883033752441 C 11.00000190734863 21.25992965698242 11.43016242980957 21.69009017944336 11.96126174926758 21.69009017944336 C 12.40296173095703 21.69009017944336 12.77112197875977 21.39066123962402 12.8835916519165 20.98452949523926 L 14.1140022277832 18.22570037841797 L 15.82649230957031 16.97126007080078 C 15.51023197174072 18.4395809173584 14.91954231262207 20.6951904296875 14.91954231262207 20.6951904296875 L 14.92098236083984 20.70335960388184 C 14.87628173828125 20.86581039428711 14.84504222869873 21.0330696105957 14.84504222869873 21.2094612121582 C 14.84504222869873 21.59349060058594 14.96039199829102 21.94915008544922 15.15456199645996 22.24954986572266 L 15.15504169464111 22.25339126586914 L 15.15793228149414 22.25626945495605 C 15.33192157745361 22.52350997924805 15.57319164276123 22.73834991455078 15.8538818359375 22.89167022705078 L 18.26520156860352 25.09152030944824 L 19.18224143981934 28.77316093444824 C 19.19474220275879 28.90389060974121 19.22358131408691 29.02933120727539 19.27501106262207 29.14468002319336 L 19.28125190734863 29.1701602935791 L 19.28702163696289 29.16727066040039 C 19.47879219055176 29.57580947875977 19.89069175720215 29.86082077026367 20.37229156494141 29.86082077026367 M 20.37229156494141 31.4608211517334 C 19.36674118041992 31.4608211517334 18.43453407287598 30.91066741943359 17.93986701965332 30.04234313964844 C 17.86483764648438 29.92697143554688 17.80444717407227 29.80153465270996 17.76090431213379 29.66873359680176 C 17.68806266784668 29.47854614257812 17.63624000549316 29.27651596069336 17.60613822937012 29.06535530090332 L 16.82954025268555 25.94755554199219 L 14.89717578887939 24.18465614318848 C 14.47048759460449 23.91691589355469 14.10622692108154 23.56466102600098 13.83424282073975 23.15535545349121 C 13.81289577484131 23.1240177154541 13.79264736175537 23.09192657470703 13.7735710144043 23.05920791625977 C 13.70279884338379 22.94490814208984 13.63885498046875 22.8272762298584 13.58192443847656 22.70689964294434 C 13.13519763946533 23.07402610778809 12.56655788421631 23.29009056091309 11.96126174926758 23.29009056091309 C 10.54898166656494 23.29009056091309 9.400001525878906 22.14110946655273 9.400001525878906 20.72883033752441 C 9.400001525878906 20.30747222900391 9.505771636962891 19.8920783996582 9.70711612701416 19.51854705810547 L 11.03365230560303 16.38912010192871 C 11.04784107208252 16.35565185546875 11.06315231323242 16.32271003723145 11.07955932617188 16.29033470153809 C 11.24311256408691 15.93666362762451 11.48680114746094 15.62433528900146 11.79248142242432 15.37678527832031 C 11.81652641296387 15.35598087310791 11.84120082855225 15.33588409423828 11.86648178100586 15.31652069091797 L 14.72671222686768 13.12581062316895 C 15.33874225616455 12.65758037567139 16.09912109375 12.40000057220459 16.86849212646484 12.40000057220459 L 17.95664215087891 12.40000057220459 C 17.9587516784668 12.40000057220459 17.96085739135742 12.40000438690186 17.96296691894531 12.4000129699707 C 17.96502876281738 12.40000534057617 17.96708297729492 12.40000057220459 17.96914291381836 12.40000057220459 C 19.77895164489746 12.40000057220459 21.2513427734375 13.87239074707031 21.2513427734375 15.68220996856689 C 21.2513427734375 15.91905975341797 21.22270584106445 16.15732002258301 21.16413688659668 16.40559387207031 C 21.15484809875488 16.46537208557129 21.14215278625488 16.52497100830078 21.12607192993164 16.58411026000977 L 19.9577465057373 20.88065910339355 L 21.76523208618164 23.30579948425293 C 21.89192199707031 23.47578048706055 21.98356246948242 23.66924095153809 22.03484153747559 23.87494087219238 L 22.96600532531738 27.61029243469238 C 23.10403633117676 27.94742965698242 23.17386245727539 28.29938316345215 23.17386245727539 28.65925025939941 C 23.17386245727539 30.20404052734375 21.91708183288574 31.4608211517334 20.37229156494141 31.4608211517334 Z"/></g></g></g><path class="d" d="M0,0H22" transform="translate(16 286)"/></g></svg>