<svg xmlns="http://www.w3.org/2000/svg" viewBox="0 0 23.6 31.841"><defs><style>.a,.b,.c{fill:#fff;}.a,.d{stroke:#080808;stroke-width:1.6px;}.a,.c,.d{stroke-linecap:round;}.a,.c{stroke-linejoin:round;stroke-miterlimit:10;}.d,.f{fill:none;}.d{stroke-dasharray:4 4;}.e,.g{stroke:none;}.g{fill:#080808;}</style></defs><g transform="translate(-248.2 -197.959)"><g transform="translate(239.759 197.559)"><g class="a" transform="translate(17.555 2)"><ellipse class="e" cx="1.666" cy="1.666" rx="1.666" ry="1.666"/><ellipse class="f" cx="1.666" cy="1.666" rx="2.466" ry="2.466"/></g><g transform="translate(12 9.221)"><g class="b" transform="translate(-9.98 -10.245)"><path class="e" d="M 11.8046817779541 28.26445007324219 C 11.02222156524658 28.26445007324219 10.28734111785889 27.80860900878906 9.932501792907715 27.1031494140625 C 9.53663158416748 26.31612968444824 9.660591125488281 25.39206886291504 10.2725715637207 24.56790924072266 C 11.34761810302734 23.12014389038086 12.33889770507812 21.92634010314941 12.69786643981934 21.50037956237793 L 13.3784818649292 17.8304500579834 L 13.57861137390137 16.78081893920898 L 13.88705158233643 15.16316986083984 L 14.96799182891846 16.40555000305176 L 17.13541221618652 18.89667892456055 L 17.40838241577148 19.21042060852051 L 17.30841064453125 19.61409950256348 L 16.30767059326172 23.65513038635254 L 16.26569175720215 23.82465934753418 L 16.15686225891113 23.96127891540527 C 16.14223098754883 23.97965049743652 14.68058109283447 25.81583976745605 13.57528114318848 27.31538009643555 C 13.12416172027588 27.92740058898926 12.49535179138184 28.26445007324219 11.8046817779541 28.26445007324219 Z"/><path class="g" d="M 11.80467796325684 27.46445083618164 C 12.19669628143311 27.46445083618164 12.60836410522461 27.27885627746582 12.93131160736084 26.84071922302246 C 14.05877113342285 25.31110954284668 15.53113174438477 23.46282005310059 15.53113174438477 23.46282005310059 L 16.5318717956543 19.42178916931152 L 14.36445140838623 16.93066024780273 L 14.16507148742676 17.9763298034668 L 13.44564151763916 21.85554885864258 C 13.44564151763916 21.85554885864258 12.23435115814209 23.26787948608398 10.91486167907715 25.04483985900879 C 9.973323822021484 26.31281852722168 10.82809829711914 27.46445083618164 11.80467796325684 27.46445083618164 M 11.8046817779541 29.06444931030273 C 10.72267150878906 29.06444931030273 9.707261085510254 28.43569946289062 9.217811584472656 27.4626293182373 C 8.689031600952148 26.41135025024414 8.843221664428711 25.15091896057129 9.630281448364258 24.09096908569336 C 10.60189342498779 22.78250694274902 11.50734901428223 21.6772575378418 11.94965839385986 21.14759063720703 L 12.5919017791748 17.6845703125 L 12.59263134002686 17.68061065673828 L 12.59338188171387 17.67664909362793 L 12.79276180267334 16.63097953796387 L 13.40965175628662 13.39567947387695 L 15.57153129577637 15.88043975830078 L 17.73895072937012 18.3715705871582 L 18.28489112854004 18.99905014038086 L 18.08495140075684 19.80640029907227 L 17.0842113494873 23.8474292755127 L 17.00025177001953 24.18648910522461 L 16.78260231018066 24.45972061157227 C 16.7680606842041 24.47798919677734 15.31528186798096 26.30307006835938 14.21925163269043 27.7900505065918 C 13.62227153778076 28.59994888305664 12.74220180511475 29.06444931030273 11.8046817779541 29.06444931030273 Z"/></g><g class="b" transform="translate(-10.64 -7.533)"><path class="e" d="M 25.23111915588379 16.07566261291504 C 25.02486991882324 16.07566261291504 24.81169891357422 16.04526329040527 24.59753036499023 15.9852933883667 C 23.09766960144043 15.56533336639404 21.78312873840332 15.17207336425781 21.77002906799316 15.1681432723999 L 21.55760955810547 15.10454368591309 L 21.40823936462402 14.94065284729004 L 19.47924041748047 12.82419300079346 L 19.22815895080566 12.5487232208252 L 19.27755928039551 12.17928314208984 C 19.27845001220703 12.17257308959961 19.3682689666748 11.50115299224854 19.46064949035645 10.83836364746094 C 19.51514053344727 10.44745349884033 19.55992889404297 10.13535308837891 19.59379005432129 9.910733222961426 C 19.61478996276855 9.771352767944336 19.63142013549805 9.666593551635742 19.64461898803711 9.590473175048828 C 19.65351867675781 9.539133071899414 19.66133880615234 9.498843193054199 19.66736030578613 9.471343040466309 C 19.76696014404297 9.016082763671875 20.13632965087891 8.81230354309082 20.45821952819824 8.81230354309082 L 20.87541961669922 8.81230354309082 L 21.10104560852051 9.135108947753906 C 21.24199676513672 9.310447692871094 22.43187141418457 10.76478290557861 23.31121063232422 11.8387451171875 C 23.67098426818848 11.93752861022949 24.41032028198242 12.14556217193604 25.51809883117676 12.48119354248047 C 26.72250938415527 12.84610366821289 27.1444091796875 13.80051326751709 27.02824974060059 14.58449363708496 C 26.89817047119141 15.46247291564941 26.15915870666504 16.07566261291504 25.23111915588379 16.07566261291504 Z"/><path class="g" d="M 20.45822143554688 9.612303733825684 C 20.42790412902832 9.612303733825684 20.07049942016602 12.28530311584473 20.07049942016602 12.28530311584473 L 21.9995002746582 14.40176296234131 C 21.9995002746582 14.40176296234131 23.30292892456055 14.79203319549561 24.81324005126953 15.21492290496826 C 24.96220588684082 15.25663375854492 25.10178375244141 15.27566623687744 25.23111915588379 15.27566623687744 C 26.41307067871094 15.27566623687744 26.72698211669922 13.68336391448975 25.28612899780273 13.24682331085205 C 23.68762016296387 12.76251316070557 22.85478973388672 12.54408359527588 22.85478973388672 12.54408359527588 C 22.85478973388672 12.54408359527588 20.48474884033203 9.649872779846191 20.45879936218262 9.612683296203613 C 20.45862197875977 9.612428665161133 20.45843124389648 9.612303733825684 20.45822143554688 9.612303733825684 M 20.45821952819824 8.012302398681641 L 21.27779006958008 8.012302398681641 L 21.73442077636719 8.646106719970703 C 21.8989429473877 8.849872589111328 22.93356132507324 10.11457920074463 23.76953315734863 11.13569641113281 C 24.18313789367676 11.25144577026367 24.84606170654297 11.44167041778564 25.75006866455078 11.71556282043457 C 27.1655387878418 12.14441299438477 28.01656913757324 13.37237358093262 27.81960868835449 14.70173358917236 C 27.63298034667969 15.96139335632324 26.54435920715332 16.87566375732422 25.23111915588379 16.87566375732422 C 24.95195960998535 16.87566375732422 24.66621971130371 16.83529281616211 24.38184928894043 16.75567245483398 C 22.87514877319336 16.33379364013672 21.55373001098633 15.93847274780273 21.54055976867676 15.93453311920166 L 21.11570930480957 15.80732345581055 L 20.81696891784668 15.47955322265625 L 18.88796997070312 13.36309337615967 L 18.38582038879395 12.81214332580566 L 18.48460960388184 12.07326316833496 C 18.48550987243652 12.06653308868408 18.57563018798828 11.39290332794189 18.66831016540527 10.72793292999268 C 18.72319984436035 10.33410358428955 18.76841926574707 10.01903343200684 18.80271911621094 9.79149341583252 C 18.82460975646973 9.646233558654785 18.8421688079834 9.535773277282715 18.85638046264648 9.45378303527832 C 18.86709976196289 9.392003059387207 18.8764591217041 9.343243598937988 18.88583946228027 9.300363540649414 C 19.05175971984863 8.541973114013672 19.69834899902344 8.012302398681641 20.45821952819824 8.012302398681641 Z"/></g><g class="c" transform="translate(-11 -14)"><path class="e" d="M 21.1370849609375 31.9550952911377 C 20.61261367797852 31.9550952911377 20.11464500427246 31.75489807128906 19.73538589477539 31.41330718994141 L 19.41847610473633 31.5717658996582 L 19.18790054321289 30.63071060180664 C 19.12576484680176 30.47284507751465 19.0831127166748 30.30164909362793 19.06070518493652 30.12003326416016 L 18.14022827148438 26.42463684082031 L 15.77638912200928 24.26810646057129 C 15.41704559326172 24.05548286437988 15.10912418365479 23.77240371704102 14.8777027130127 23.44186019897461 L 14.73744487762451 23.30159568786621 L 14.72269153594971 23.19222259521484 C 14.48409557342529 22.76399230957031 14.35880470275879 22.28572463989258 14.35880470275879 21.79776573181152 C 14.35880470275879 21.61338043212891 14.38017082214355 21.42407989501953 14.42383193969727 21.22347068786621 L 14.42113494873047 21.20818519592285 L 14.46547508239746 21.03885459899902 C 14.46897792816162 21.02547073364258 14.66341114044189 20.28201484680176 14.89315509796143 19.35735702514648 L 13.78884220123291 21.83343505859375 C 13.54786777496338 22.59291648864746 12.83821773529053 23.11761474609375 12.03970527648926 23.11761474609375 C 11.02529525756836 23.11761474609375 10.20000553131104 22.29232597351074 10.20000553131104 21.27791595458984 C 10.20000553131104 20.96379089355469 10.28267669677734 20.65348052978516 10.43969821929932 20.37611770629883 L 11.89317512512207 16.94724464416504 L 11.93268489837646 16.85403442382812 L 11.94455051422119 16.83851432800293 C 12.05515766143799 16.6102180480957 12.21325302124023 16.40660095214844 12.40902423858643 16.24031066894531 L 12.41950511932373 16.2266845703125 L 12.50301551818848 16.1627254486084 L 15.59664535522461 13.79324531555176 C 16.09683609008789 13.41058540344238 16.71845436096191 13.19999504089355 17.34737586975098 13.19999504089355 L 18.52431488037109 13.19999504089355 L 18.65413475036621 13.19999504089355 L 18.66305923461914 13.20295143127441 C 20.04954147338867 13.26850509643555 21.15730476379395 14.41705894470215 21.15730476379395 15.81948471069336 C 21.15730476379395 15.96254348754883 21.14339256286621 16.10811233520508 21.11508560180664 16.25935363769531 L 21.12755584716797 16.2892951965332 L 21.05441474914551 16.55079460144043 L 19.67189979553223 21.63504219055176 L 21.8975658416748 24.62127494812012 L 21.9935245513916 24.75002479553223 L 22.0323657989502 24.90583610534668 L 23.05724143981934 29.01708602905273 C 23.1763801574707 29.28697776794434 23.23671531677246 29.56856346130371 23.23671531677246 29.85546493530273 C 23.23671531677246 31.01320457458496 22.29482460021973 31.9550952911377 21.1370849609375 31.9550952911377 Z"/><path class="g" d="M 21.1370849609375 31.15509605407715 C 21.85499572753906 31.15509605407715 22.43671607971191 30.5733757019043 22.43671607971191 29.85546493530273 C 22.43671607971191 29.64960479736328 22.38472557067871 29.4577751159668 22.29946517944336 29.28466606140137 L 21.25612449645996 25.09934425354004 L 18.79775428771973 21.80088424682617 L 20.28244590759277 16.34088516235352 C 20.28244590759277 16.34088516235352 20.27880477905273 16.33204460144043 20.27672576904297 16.3273754119873 C 20.32403564453125 16.16518592834473 20.3573055267334 15.99674510955811 20.3573055267334 15.81948471069336 C 20.3573055267334 14.81460475921631 19.54269599914551 13.99999523162842 18.5378360748291 13.99999523162842 C 18.53471565246582 13.99999523162842 18.5321159362793 14.0010347366333 18.52899551391602 14.0010347366333 C 18.52743530273438 14.0010347366333 18.52587509155273 13.99999523162842 18.52431488037109 13.99999523162842 L 17.34737586975098 13.99999523162842 C 16.89042472839355 13.99999523162842 16.44595527648926 14.15075492858887 16.08309555053711 14.42835521697998 L 12.98946475982666 16.7978343963623 L 12.98426532745361 16.80459594726562 C 12.8309154510498 16.91792488098145 12.70874500274658 17.07075500488281 12.63648509979248 17.25063514709473 L 12.62973499298096 17.25946426391602 L 11.15595531463623 20.73623466491699 C 11.05874538421631 20.89426422119141 11.00000476837158 21.07881546020508 11.00000476837158 21.27791595458984 C 11.00000476837158 21.85235595703125 11.46526527404785 22.3176155090332 12.03970527648926 22.3176155090332 C 12.51744556427002 22.3176155090332 12.9156551361084 21.99375534057617 13.0372953414917 21.55447578430176 L 14.36811542510986 18.57052421569824 L 16.22033500671387 17.21371459960938 C 15.87827491760254 18.80186462402344 15.23937511444092 21.24152565002441 15.23937511444092 21.24152565002441 L 15.24093532562256 21.25036430358887 C 15.19259548187256 21.42607498168945 15.15880489349365 21.60698509216309 15.15880489349365 21.79776573181152 C 15.15880489349365 22.213134765625 15.28356552124023 22.59781455993652 15.49358558654785 22.92272567749023 L 15.49410533905029 22.9268856048584 L 15.49722480773926 22.93000602722168 C 15.68541526794434 23.21903610229492 15.94637489318848 23.451416015625 16.24996566772461 23.61724472045898 L 18.85805511474609 25.99660491943359 L 19.84993553161621 29.97866439819336 C 19.86344528198242 30.12006568908691 19.89463424682617 30.2557544708252 19.95026588439941 30.38051605224609 L 19.95701599121094 30.40806579589844 L 19.96325492858887 30.40494537353516 C 20.17067527770996 30.84682464599609 20.61619567871094 31.15509605407715 21.1370849609375 31.15509605407715 M 21.1370849609375 32.75509643554688 C 20.09507369995117 32.75509643554688 19.12909507751465 32.18410873413086 18.61760902404785 31.28328132629395 C 18.54112243652344 31.16624069213867 18.47972106933594 31.03881072998047 18.43573379516602 30.90377426147461 C 18.35903930664062 30.70429420471191 18.30471992492676 30.4919376373291 18.27352714538574 30.2696475982666 L 17.42239570617676 26.85264205932617 L 15.29443168640137 24.91130065917969 C 14.84387969970703 24.63050270080566 14.45948600769043 24.25986289978027 14.17337131500244 23.82885551452637 C 14.15172100067139 23.79706764221191 14.13120651245117 23.76451873779297 14.11188983917236 23.73130798339844 C 14.00660228729248 23.56145668029785 13.91577053070068 23.38457870483398 13.8399019241333 23.20236587524414 C 13.36252593994141 23.64979553222656 12.72388744354248 23.91761589050293 12.03970527648926 23.91761589050293 C 10.58416557312012 23.91761589050293 9.400005340576172 22.73345565795898 9.400005340576172 21.27791595458984 C 9.400005340576172 20.84186935424805 9.510025978088379 20.41191482543945 9.719393730163574 20.02555084228516 L 11.15661525726318 16.63502502441406 C 11.17110061645508 16.60085487365723 11.18675422668457 16.56723594665527 11.20355224609375 16.53420448303223 C 11.37235069274902 16.16828536987305 11.62441539764404 15.8452205657959 11.94089317321777 15.58932399749756 C 11.96547031402588 15.56799983978271 11.99070262908936 15.54742050170898 12.01657485961914 15.5276050567627 L 15.11020565032959 13.15812492370605 C 15.74949550628662 12.66904544830322 16.54375457763672 12.39999485015869 17.34737586975098 12.39999485015869 L 18.52431488037109 12.39999485015869 C 18.52658271789551 12.39999485015869 18.52884483337402 12.40000057220459 18.5311107635498 12.40001010894775 C 18.53335380554199 12.40000057220459 18.53559684753418 12.39999485015869 18.5378360748291 12.39999485015869 C 20.42333602905273 12.39999485015869 21.95730590820312 13.93397521972656 21.95730590820312 15.81948471069336 C 21.95730590820312 16.06698799133301 21.92709732055664 16.31639099121094 21.86530113220215 16.57684326171875 C 21.85593032836914 16.63840484619141 21.84295082092285 16.69979095458984 21.82638549804688 16.76071548461914 L 20.54604721069336 21.46920204162598 L 22.53900527954102 24.1432056427002 C 22.66569519042969 24.31317520141602 22.7573356628418 24.50663566589355 22.80861473083496 24.71233558654785 L 23.81808853149414 28.76180076599121 C 23.9632682800293 29.11335563659668 24.03671455383301 29.48034477233887 24.03671455383301 29.85546493530273 C 24.03671455383301 31.45432472229004 22.7359447479248 32.75509643554688 21.1370849609375 32.75509643554688 Z"/></g></g></g><path class="d" d="M0,0H22" transform="translate(249 229)"/></g></svg>