<svg id="Layer_2" data-name="Layer 2" xmlns="http://www.w3.org/2000/svg" viewBox="0 0 40 40"><defs><style>.cls-1{fill:#fff;}.cls-2{fill:#ff9800;}</style></defs><title>entrance-exit 1</title><g id="Layer_1" data-name="Layer 1"><rect class="cls-1" x="6.6" y="1.7" width="21.1" height="30.4"/><g id="Layer_4" data-name="Layer 4"><path class="cls-2" d="M27.8.5H6.5a.86.86,0,0,0-.8.8V31.9a.86.86,0,0,0,.6.7l11.2,3.3a.83.83,0,0,0,1.1-.8V32.9h6.6V31.2H18.6V15.4l-5.1-2.1a2.53,2.53,0,1,1,1.9-4.7l3.2,1.3V4.6a.76.76,0,0,0-.6-.8L12.4,2.2H26.9V8.3L28.6,8V1.3A.86.86,0,0,0,27.8.5Z"/><path d="M31.1,13.8h-6l-9.7-4a1.3,1.3,0,1,0-1,2.4l9.7,4V37.9a1.6,1.6,0,0,0,3.2,0V26.4H28V38a1.6,1.6,0,0,0,3.2,0V17a.3.3,0,0,1,.6,0h0v9.6a1.3,1.3,0,1,0,2.6,0V17A3.38,3.38,0,0,0,31.1,13.8Z"/><path d="M30.3,10.2a2.7,2.7,0,1,1-2.7-2.7A2.69,2.69,0,0,1,30.3,10.2Z"/></g></g></svg>