<svg id="Layer_1" data-name="Layer 1" xmlns="http://www.w3.org/2000/svg" viewBox="0 0 40 40"><defs><style>.cls-1{fill:#ff9800;}.cls-2{fill:#fff;}</style></defs><title>parking - New</title><g id="Layer_2" data-name="Layer 2"><g id="Layer_4" data-name="Layer 4"><path class="cls-1" d="M39.4.5A2,2,0,0,0,38,0H2A2.39,2.39,0,0,0,.6.5,1.76,1.76,0,0,0,0,1.8V38.1a1.61,1.61,0,0,0,.6,1.3A1.68,1.68,0,0,0,2,40H38a2.39,2.39,0,0,0,1.4-.5,1.61,1.61,0,0,0,.6-1.3V1.8A1.76,1.76,0,0,0,39.4.5Z"/></g></g><g id="Layer_1-2" data-name="Layer 1"><g id="Layer_11" data-name="Layer 11"><path class="cls-2" d="M20.8,5.8a8.91,8.91,0,0,1,6.7,2.8,9.07,9.07,0,0,1,2.8,6.7A8.91,8.91,0,0,1,27.5,22a9.07,9.07,0,0,1-6.7,2.8H16v9.5H9.7V5.8Zm.3,12.6a3.1,3.1,0,0,0,2.2-.9,3.17,3.17,0,0,0,.9-2.3,3.34,3.34,0,0,0-.9-2.3,2.94,2.94,0,0,0-2.2-.9H16v6.4Z"/></g></g></svg>