<?xml version="1.0" encoding="utf-8"?>
<!-- Generator: Adobe Illustrator 21.0.2, SVG Export Plug-In . SVG Version: 6.00 Build 0)  -->
<svg version="1.1" id="Layer_1" xmlns="http://www.w3.org/2000/svg" xmlns:xlink="http://www.w3.org/1999/xlink" x="0px" y="0px"
	 viewBox="0 0 40 40" style="enable-background:new 0 0 40 40;" xml:space="preserve">
<g>
	<g>
		<path d="M20,0.5C9.2,0.5,0.5,9.2,0.5,20S9.2,39.5,20,39.5S39.5,30.8,39.5,20S30.8,0.5,20,0.5z M20,37.1c-9.4,0-17.1-7.7-17.1-17.1
			S10.6,2.9,20,2.9S37.1,10.6,37.1,20S29.4,37.1,20,37.1z"/>
	</g>
	<path d="M30.5,20c0-0.6-0.5-1.1-1.1-1.1H13.2l4.2-4.2c0.4-0.4,0.4-1.1,0-1.5c-0.4-0.4-1.1-0.4-1.5,0l-6.1,6.1
		c-0.4,0.4-0.4,1.1,0,1.5l6.1,6.1c0.2,0.2,0.5,0.3,0.8,0.3c0.3,0,0.6-0.1,0.8-0.3c0.4-0.4,0.4-1.1,0-1.5l-4.2-4.2h16.2
		C30,21.1,30.5,20.6,30.5,20z"/>
</g>
</svg>
