<?xml version="1.0" encoding="utf-8"?>
<!-- Generator: Adobe Illustrator 21.0.2, SVG Export Plug-In . SVG Version: 6.00 Build 0)  -->
<svg version="1.1" id="Layer_1" xmlns="http://www.w3.org/2000/svg" xmlns:xlink="http://www.w3.org/1999/xlink" x="0px" y="0px"
	 viewBox="0 0 40 40" enable-background="new 0 0 40 40" xml:space="preserve">
<g id="Layer_49">
	<path fill="#FFFFFF" d="M37.481,22.015H7.378l7.879,7.897c0.788,0.79,0.788,2.056,0,2.846c-0.394,0.395-0.903,0.592-1.428,0.592
		s-1.034-0.197-1.428-0.592L1.091,21.423c-0.788-0.79-0.788-2.056,0-2.846L12.4,7.242c0.788-0.79,2.052-0.79,2.839,0
		c0.788,0.79,0.788,2.056,0,2.846L7.36,17.985h30.12c1.116,0,2.019,0.905,2.019,2.024C39.5,21.127,38.597,22.015,37.481,22.015z"/>
</g>
</svg>
