<?xml version="1.0" encoding="utf-8"?>
<!-- Generator: Adobe Illustrator 21.0.2, SVG Export Plug-In . SVG Version: 6.00 Build 0)  -->
<svg version="1.1" id="Layer_1" xmlns="http://www.w3.org/2000/svg" xmlns:xlink="http://www.w3.org/1999/xlink" x="0px" y="0px"
	 viewBox="0 0 40 40" style="enable-background:new 0 0 40 40;" xml:space="preserve">
<g id="Layer_49">
	<path d="M37.5,22H7.4l7.9,7.9c0.8,0.8,0.8,2.1,0,2.8c-0.4,0.4-0.9,0.6-1.4,0.6s-1-0.2-1.4-0.6L1.1,21.4c-0.8-0.8-0.8-2.1,0-2.8
		L12.4,7.2c0.8-0.8,2.1-0.8,2.8,0c0.8,0.8,0.8,2.1,0,2.8L7.4,18h30.1c1.1,0,2,0.9,2,2C39.5,21.1,38.6,22,37.5,22z"/>
</g>
</svg>
