<?xml version="1.0" encoding="utf-8"?>
<!-- Generator: Adobe Illustrator 21.0.2, SVG Export Plug-In . SVG Version: 6.00 Build 0)  -->
<svg version="1.1" id="Layer_2" xmlns="http://www.w3.org/2000/svg" xmlns:xlink="http://www.w3.org/1999/xlink" x="0px" y="0px"
	 viewBox="0 0 40 40" style="enable-background:new 0 0 40 40;" xml:space="preserve">
<style type="text/css">
	.st0{fill:#FFFFFF;}
</style>
<g id="Layer_32">
	<g>
		<path class="st0" d="M35,4.8l4.5,13v17.4c0,0.5-0.2,1-0.7,1.5c-0.4,0.4-0.9,0.7-1.5,0.7h-2.2c-0.5,0-1-0.2-1.5-0.7
			c-0.4-0.4-0.7-0.9-0.7-1.5V33H7v2.2c0,0.5-0.2,1-0.7,1.5c-0.4,0.4-0.9,0.7-1.5,0.7H2.6c-0.5,0-1-0.2-1.5-0.7
			c-0.4-0.4-0.7-0.9-0.7-1.5V17.8L5,4.8c0.5-1.4,1.6-2.1,3.1-2.1h23.8C33.4,2.7,34.5,3.4,35,4.8z M4.9,15.7h30.3l-3.3-9.8H8.1
			L4.9,15.7z M5.8,25.5c0.6,0.6,1.4,0.9,2.3,0.9s1.7-0.3,2.3-0.9s1-1.4,1-2.3s-0.3-1.7-1-2.3c-0.6-0.6-1.4-1-2.3-1s-1.7,0.3-2.3,1
			c-0.6,0.6-0.9,1.4-0.9,2.3S5.2,24.9,5.8,25.5z M29.6,25.5c0.6,0.6,1.4,0.9,2.3,0.9s1.7-0.3,2.3-0.9s0.9-1.4,0.9-2.3
			s-0.3-1.7-0.9-2.3c-0.6-0.6-1.4-1-2.3-1s-1.7,0.3-2.3,1c-0.6,0.6-1,1.4-1,2.3S29,24.9,29.6,25.5z"/>
	</g>
</g>
</svg>
