<?xml version="1.0" encoding="utf-8"?>
<!-- Generator: Adobe Illustrator 21.0.2, SVG Export Plug-In . SVG Version: 6.00 Build 0)  -->
<svg version="1.1" id="Layer_2" xmlns="http://www.w3.org/2000/svg" xmlns:xlink="http://www.w3.org/1999/xlink" x="0px" y="0px"
	 viewBox="0 0 40 40" enable-background="new 0 0 40 40" xml:space="preserve">
<g id="Layer_26">
	<g>
		<g>
			<g>
				<g>
					<defs>
						<path id="SVGID_1_" d="M8.65,12.4c0,1.9,0.5,3.8,1.4,5.4L20.15,39l9.9-21.2c0.9-1.6,1.4-3.5,1.4-5.4c0-6.3-5.1-11.4-11.4-11.4
							S8.65,6.1,8.65,12.4"/>
					</defs>
					<clipPath id="SVGID_2_">
						<use xlink:href="#SVGID_1_"  overflow="visible"/>
					</clipPath>
					
						<linearGradient id="SVGID_3_" gradientUnits="userSpaceOnUse" x1="-610.3041" y1="-88.2521" x2="-610.1169" y2="-88.2521" gradientTransform="matrix(0 176.0028 -176.0028 0 -15512.5107 107417.6172)">
						<stop  offset="0" style="stop-color:#FB7468"/>
						<stop  offset="1" style="stop-color:#D74038"/>
					</linearGradient>
					<rect x="8.65" y="1" clip-path="url(#SVGID_2_)" fill="url(#SVGID_3_)" width="22.9" height="38.1"/>
				</g>
			</g>
		</g>
	</g>
	<g>
		<path fill="none" stroke="#5C1410" stroke-miterlimit="10" d="M30.15,17.8l-10,21.2L9.95,17.8c-0.9-1.7-1.4-3.5-1.4-5.4
			C8.65,6.1,13.75,1,20.05,1s11.4,5.1,11.4,11.4C31.45,14.3,31.05,16.2,30.15,17.8z"/>
		<path fill="#5C1410" d="M23.45,12.6c0,1.9-1.5,3.4-3.4,3.4s-3.4-1.5-3.4-3.4s1.5-3.4,3.4-3.4S23.45,10.7,23.45,12.6"/>
	</g>
</g>
</svg>
