<?xml version="1.0" encoding="utf-8"?>
<!-- Generator: Adobe Illustrator 21.0.2, SVG Export Plug-In . SVG Version: 6.00 Build 0)  -->
<svg version="1.1" id="Layer_1" xmlns="http://www.w3.org/2000/svg" xmlns:xlink="http://www.w3.org/1999/xlink" x="0px" y="0px"
	 viewBox="0 0 56 26" enable-background="new 0 0 56 26" xml:space="preserve">
<g>
	<path fill-rule="evenodd" clip-rule="evenodd" fill="#F5F9FB" d="M2.6,25.503c-1.158,0-2.1-0.748-2.1-1.667V2.165
		c0-0.919,0.942-1.667,2.1-1.667h50.799c1.158,0,2.101,0.748,2.101,1.667v21.671c0,0.919-0.942,1.667-2.101,1.667H2.6z"/>
	<path fill="#2196F3" d="M53.4,0.997c0.867,0,1.6,0.535,1.6,1.167v21.671c0,0.633-0.733,1.167-1.6,1.167H2.6
		c-0.867,0-1.6-0.535-1.6-1.167V2.164c0-0.633,0.733-1.167,1.6-1.167H53.4 M53.4-0.003H2.6c-1.436,0-2.6,0.97-2.6,2.167v21.671
		c0,1.197,1.164,2.167,2.6,2.167h50.8c1.436,0,2.6-0.97,2.6-2.167V2.164C56,0.967,54.836-0.003,53.4-0.003L53.4-0.003z"/>
</g>
<text transform="matrix(1 0 0 1 9.8452 17.022)" fill="#2196F3" font-family="'OpenSans-Semibold'" font-size="13.9963px">back</text>
</svg>
