<?xml version="1.0" encoding="utf-8"?>
<!-- Generator: Adobe Illustrator 21.0.2, SVG Export Plug-In . SVG Version: 6.00 Build 0)  -->
<svg version="1.1" id="Layer_1" xmlns="http://www.w3.org/2000/svg" xmlns:xlink="http://www.w3.org/1999/xlink" x="0px" y="0px"
	 viewBox="0 0 26 26" enable-background="new 0 0 26 26" xml:space="preserve">
<g>
	<path fill-rule="evenodd" clip-rule="evenodd" fill="#F5F9FB" d="M2.6,25.503c-1.158,0-2.1-0.748-2.1-1.667V2.165
		c0-0.919,0.942-1.667,2.1-1.667h20.799c1.158,0,2.101,0.748,2.101,1.667v21.671c0,0.919-0.942,1.667-2.101,1.667H2.6z"/>
	<path fill="#2196F3" d="M23.4,0.997c0.867,0,1.6,0.535,1.6,1.167v21.671c0,0.633-0.733,1.167-1.6,1.167H2.6
		c-0.867,0-1.6-0.535-1.6-1.167V2.164c0-0.633,0.733-1.167,1.6-1.167H23.4 M23.4-0.003H2.6c-1.436,0-2.6,0.97-2.6,2.167v21.671
		c0,1.197,1.164,2.167,2.6,2.167h20.8c1.436,0,2.6-0.97,2.6-2.167V2.164C26,0.967,24.836-0.003,23.4-0.003L23.4-0.003z"/>
</g>
<path fill="#2196F3" d="M19.827,12.83c0.254-0.289,0.229-0.731-0.055-0.988L13.513,6.18c-0.284-0.257-0.74-0.252-1.018,0.012
	l-6.28,5.952c-0.278,0.264-0.292,0.706-0.03,0.987L6.343,13.3c0.261,0.281,0.683,0.315,0.942,0.075l0.469-0.435v6.362
	c0,0.391,0.306,0.706,0.683,0.706h2.448c0.377,0,0.683-0.316,0.683-0.706v-4.451h3.122v4.451c-0.005,0.39,0.264,0.706,0.641,0.706
	h2.594c0.377,0,0.683-0.316,0.683-0.706V13.03c0,0,0.129,0.117,0.289,0.263c0.16,0.145,0.495,0.029,0.749-0.26L19.827,12.83z"/>
</svg>
