<svg id="Layer_1" data-name="Layer 1" xmlns="http://www.w3.org/2000/svg" viewBox="0 0 40 40"><defs><style>.cls-1{fill:#fff;}.cls-2{fill:#ff9800;}</style></defs><title>elevator 22</title><g id="Layer_1-2" data-name="Layer 1"><rect class="cls-1" x="2.4" y="6.5" width="26.5" height="26.9"/><path class="cls-2" d="M30,4.9a1.28,1.28,0,0,0-1-.4H2a1.16,1.16,0,0,0-1,.4,1.28,1.28,0,0,0-.4,1V34.1a1.28,1.28,0,0,0,.4,1,1.28,1.28,0,0,0,1,.4H29a1.16,1.16,0,0,0,1-.4,1.28,1.28,0,0,0,.4-1V5.9A1.28,1.28,0,0,0,30,4.9ZM28,33.1H2.9V6.9H28Z"/><path d="M8.4,12.4a2.36,2.36,0,0,1-.7-1.6,2,2,0,0,1,.7-1.6A2.36,2.36,0,0,1,10,8.5a2,2,0,0,1,1.6.7,2.57,2.57,0,0,1,.7,1.6A2.4,2.4,0,0,1,10,13.1a2,2,0,0,1-1.6-.7Z"/><path d="M5.5,23.3a.72.72,0,0,0,1,0,.76.76,0,0,0,.2-.5V16.7c0-.1,0-.2.1-.2h.4c.1,0,.1.1.1.2V30.8a1,1,0,0,0,1,1,1,1,0,0,0,1-1V22.2c0-.2.1-.3.2-.3s.2-.1.3-.1.1,0,.3.1.2.1.2.3v8.6a1,1,0,0,0,1,1,1.14,1.14,0,0,0,.8-.3.91.91,0,0,0,.3-.7V16.7c0-.1,0-.2.1-.2h.4c.1,0,.1.1.1.2v6.1a.59.59,0,0,0,.2.5.76.76,0,0,0,.5.2c.2,0,.3-.1.5-.2a.76.76,0,0,0,.2-.5V16.3a2.72,2.72,0,0,0-.6-1.7,2.14,2.14,0,0,0-1.7-.8h-5a1.82,1.82,0,0,0-1.6.8A3.37,3.37,0,0,0,5,16.3v6.5c.3.2.3.4.5.5Z"/><path d="M20.9,13.1a2,2,0,0,0,1.6-.7,2.36,2.36,0,0,0,.7-1.6,2,2,0,0,0-.7-1.6,2.57,2.57,0,0,0-1.6-.7,2,2,0,0,0-1.6.7,2.36,2.36,0,0,0-.7,1.6,2,2,0,0,0,.7,1.6,1.86,1.86,0,0,0,1.6.7Z"/><path d="M16.3,23.3a.7.7,0,0,0,1.2-.5V16.7c0-.1,0-.2.1-.2H18c.1,0,.1.1.1.2V30.8a1,1,0,0,0,2,0V22.2c0-.2.1-.3.2-.3s.2-.1.3-.1a.37.37,0,0,1,.3.1c.1,0,.2.1.2.3v8.6a.91.91,0,0,0,.3.7,1,1,0,0,0,.8.3,1,1,0,0,0,1-1V16.6c0-.1,0-.2.1-.2h.4c.1,0,.1.1.1.2v6.1a.59.59,0,0,0,.2.5.7.7,0,0,0,1.2-.5V16.2a2.34,2.34,0,0,0-.7-1.7,2.29,2.29,0,0,0-1.7-.8H17.9a1.82,1.82,0,0,0-1.6.8,3.37,3.37,0,0,0-.5,1.7v6.5a7.37,7.37,0,0,1,.5.6Z"/><path d="M35.3,5.2c.1-.1.2-.2.3-.2a.76.76,0,0,1,.4.2L39.4,9a.44.44,0,0,1,.1.5.55.55,0,0,1-.5.3H37.1v8a.47.47,0,0,1-.5.5H34.7a.47.47,0,0,1-.5-.5v-8H32.3c-.2,0-.4-.1-.4-.3A.44.44,0,0,1,32,9Z"/><path d="M35.3,35.3a.5.5,0,0,0,.8,0l3.4-3.9a.44.44,0,0,0,.1-.5c-.1-.2-.2-.3-.4-.3H37.3v-8a.47.47,0,0,0-.5-.5H34.9a.47.47,0,0,0-.5.5v8H32.5c-.2,0-.4.1-.4.3a.44.44,0,0,0,.1.5Z"/></g></svg>