<?xml version="1.0" encoding="utf-8"?>
<!-- Generator: Adobe Illustrator 21.0.2, SVG Export Plug-In . SVG Version: 6.00 Build 0)  -->
<svg version="1.1" id="Layer_1" xmlns="http://www.w3.org/2000/svg" xmlns:xlink="http://www.w3.org/1999/xlink" x="0px" y="0px"
	 viewBox="0 0 40 40" style="enable-background:new 0 0 40 40;" xml:space="preserve">
<g id="Layer_7">
	<g>
		<path d="M35.6,4.4c1.1,0,2,0.4,2.8,1.1c0.8,0.8,1.1,1.7,1.1,2.8v23.4c0,1.1-0.4,2-1.1,2.8c-0.8,0.8-1.7,1.1-2.8,1.1H4.4
			c-1.1,0-2-0.4-2.8-1.1c-0.8-0.8-1.1-1.7-1.1-2.8V8.3c0-1.1,0.4-2,1.1-2.8c0.8-0.8,1.7-1.1,2.8-1.1L35.6,4.4L35.6,4.4z M35.6,12.2
			V8.3L20,18.1L4.4,8.3v3.9L20,21.9L35.6,12.2z"/>
	</g>
</g>
</svg>
