<?xml version="1.0" encoding="utf-8"?>
<!-- Generator: Adobe Illustrator 21.0.2, SVG Export Plug-In . SVG Version: 6.00 Build 0)  -->
<svg version="1.1" id="Layer_1" xmlns="http://www.w3.org/2000/svg" xmlns:xlink="http://www.w3.org/1999/xlink" x="0px" y="0px"
	 viewBox="0 0 40 40" enable-background="new 0 0 40 40" xml:space="preserve">
<g id="Layer_47">
	<g>
		<path fill="#8A8A8A" d="M6.562,6.607C10.269,2.899,14.749,1.045,20,1.045c5.25,0,9.73,1.855,13.438,5.562
			C37.145,10.315,39,14.78,39,20c0,5.221-1.855,9.686-5.562,13.394C29.73,37.1,25.25,38.955,20,38.955
			c-5.251,0-9.73-1.855-13.437-5.562C2.854,29.686,1,25.221,1,20C1,14.78,2.854,10.315,6.562,6.607z M9.276,30.768
			c2.966,2.967,6.541,4.45,10.723,4.45c4.183,0,7.756-1.482,10.724-4.45c2.966-2.966,4.449-6.555,4.449-10.768
			c0-4.212-1.482-7.801-4.449-10.768c-2.967-2.966-6.54-4.45-10.723-4.45c-4.182,0-7.757,1.484-10.723,4.45
			C6.309,12.199,4.827,15.788,4.827,20C4.827,24.213,6.309,27.802,9.276,30.768z M24.939,12.435l2.67,2.67L22.625,20l4.984,4.895
			l-2.67,2.669l-4.984-4.895l-4.895,4.895l-2.67-2.669L17.286,20l-4.895-4.895l2.67-2.67l4.895,4.895L24.939,12.435z"/>
	</g>
</g>
</svg>
