<?xml version="1.0" encoding="utf-8"?>
<!-- Generator: Adobe Illustrator 21.0.2, SVG Export Plug-In . SVG Version: 6.00 Build 0)  -->
<svg version="1.1" id="Layer_1" xmlns="http://www.w3.org/2000/svg" xmlns:xlink="http://www.w3.org/1999/xlink" x="0px" y="0px"
	 viewBox="0 0 40 40" enable-background="new 0 0 40 40" xml:space="preserve">
<g id="Layer_2">
	<g>
		<path d="M18.863,8.571c0-2.521-2.05-4.572-4.572-4.572S9.72,6.049,9.72,8.571s2.05,4.572,4.572,4.572S18.863,11.092,18.863,8.571z
			"/>
		<path fill="#FF9800" d="M0.548,31.988c-0.359,2.189,1.326,4.013,3.381,4.013h10.312c0.372,0,0.722-0.184,0.936-0.493
			l13.599-17.356c0.217-0.276,0.548-0.438,0.9-0.438h6.407c1.822,0,3.353-1.487,3.414-3.313c0-0.001,0-0.001,0-0.001
			c0.064-1.901-1.365-3.544-3.659-3.544H25.776c-0.375,0-0.727,0.184-0.941,0.493l-13.6,17.356c-0.217,0.276-0.548,0.438-0.9,0.438
			H4.174C2.371,29.143,0.812,30.367,0.548,31.988z"/>
		<path d="M9.728,17.714v9.143h0.059l8.649-11.046c-0.724-1.571-2.304-2.669-4.144-2.669C11.77,13.142,9.728,15.193,9.728,17.714z"
			/>
	</g>
</g>
</svg>
