<?xml version="1.0" encoding="utf-8"?>
<!-- Generator: Adobe Illustrator 21.0.2, SVG Export Plug-In . SVG Version: 6.00 Build 0)  -->
<svg version="1.1" id="Layer_1" xmlns="http://www.w3.org/2000/svg" xmlns:xlink="http://www.w3.org/1999/xlink" x="0px" y="0px"
	 viewBox="0 0 40 40" enable-background="new 0 0 40 40" xml:space="preserve">
<g id="Layer_3">
	<g>
		<g>
			<path fill="#FFFFFF" d="M7.375,0.5c-0.852,0-1.537,0.869-1.537,1.94v35.119c0,1.073,0.685,1.941,1.537,1.941
				c0.847,0,1.537-0.868,1.537-1.941V2.44C8.913,1.369,8.223,0.5,7.375,0.5z M29.333,11.119c-0.269-0.455-0.264-1.065,0.007-1.478
				c1.452-2.19,2.948-3.986,4.359-5.42c1.244-1.263-0.376-2.184-0.742-2.376c-7.404-3.934-14.802,4.298-22.201,1.792V23.07
				c7.411,2.508,14.82-5.762,22.234-1.774c0.361,0.19,0.689,0.143,0.849-0.157c0.16-0.303,0.122-0.821-0.102-1.328
				C32.269,16.461,30.801,13.624,29.333,11.119z"/>
		</g>
	</g>
</g>
</svg>
