<?xml version="1.0" encoding="utf-8"?>
<!-- Generator: Adobe Illustrator 21.0.2, SVG Export Plug-In . SVG Version: 6.00 Build 0)  -->
<svg version="1.1" id="Layer_1" xmlns="http://www.w3.org/2000/svg" xmlns:xlink="http://www.w3.org/1999/xlink" x="0px" y="0px"
	 viewBox="0 0 40 40" style="enable-background:new 0 0 40 40;" xml:space="preserve">
<g id="Layer_4">
	<path d="M17.7,36.8l0.7,1.6c0.3,0.7,0.9,1.1,1.6,1.1s1.3-0.4,1.6-1.1l1.5-3.4c1.8-4.1,4.1-8.1,6.3-11.9l1-1.7
		c1.2-2.2,1.9-4.7,1.9-7.3c0-3.9-1.5-7.6-4.1-10.2c-2.6-2.6-6.1-3.8-9.5-3.4C13.2,1.3,8.7,6.2,7.9,12.2c-0.4,3.6,0.4,7.1,2.2,10
		C13.1,26.7,15.4,31.7,17.7,36.8z M20,8.3c2.9,0,5.2,2.6,5.2,5.8c0,3.2-2.3,5.9-5.2,5.9s-5.2-2.6-5.2-5.9C14.8,10.9,17.1,8.3,20,8.3
		z"/>
</g>
</svg>
