<?xml version="1.0" encoding="utf-8"?>
<!-- Generator: Adobe Illustrator 21.0.2, SVG Export Plug-In . SVG Version: 6.00 Build 0)  -->
<svg version="1.1" id="Layer_1" xmlns="http://www.w3.org/2000/svg" xmlns:xlink="http://www.w3.org/1999/xlink" x="0px" y="0px"
	 viewBox="0 0 40 40" enable-background="new 0 0 40 40" xml:space="preserve">
<g id="Layer_27">
	<g>
		<path fill="#F9A41C" d="M20,23.788c10.77,0,19.5,2.655,19.5,5.931S30.77,35.65,20,35.65S0.5,32.994,0.5,29.719
			S9.23,23.788,20,23.788"/>
		<path fill="#F95D1C" d="M20,26.95c5.674,0,10.273,1.239,10.273,2.769s-4.6,2.77-10.273,2.77s-10.272-1.24-10.272-2.77
			S14.326,26.95,20,26.95"/>
		<path d="M22.109,7.943c0.42-0.402,0.63-0.887,0.63-1.453s-0.191-1.06-0.575-1.48c-0.383-0.42-0.858-0.64-1.424-0.658
			s-1.051,0.174-1.452,0.576c-0.402,0.402-0.611,0.887-0.63,1.453s0.164,1.061,0.548,1.48c0.383,0.42,0.857,0.64,1.424,0.658
			C21.196,8.537,21.689,8.345,22.109,7.943z M13.262,16.223c0,0.256,0.091,0.483,0.274,0.685c0.183,0.201,0.401,0.302,0.657,0.302
			c0.073,0,0.219-0.036,0.438-0.109l3.232-1.81c0.109-0.073,0.201-0.165,0.274-0.274l0.932-1.48l0.383,3.674l-3.287,11.242
			c0,0.036-0.009,0.082-0.027,0.137s-0.027,0.101-0.027,0.137c0,0.402,0.137,0.74,0.411,1.015c0.273,0.274,0.593,0.411,0.958,0.411
			c0.658,0.037,1.115-0.273,1.37-0.932l2.356-8.115l0.273,2.467c0,0.073,0.019,0.146,0.055,0.22
			c0.037,0.073,0.073,0.155,0.109,0.247c0.037,0.091,0.056,0.155,0.056,0.191L24,29.383c0.255,0.512,0.657,0.768,1.205,0.768
			c0.401,0.037,0.739-0.082,1.014-0.356c0.273-0.274,0.41-0.612,0.41-1.015c0-0.182-0.036-0.383-0.109-0.603l-2.137-4.771
			l-1.205-10.089l1.315,1.315l0.383,3.619c0.036,0.22,0.137,0.42,0.302,0.604c0.164,0.183,0.374,0.273,0.63,0.273
			s0.475-0.091,0.657-0.273c0.183-0.184,0.274-0.402,0.274-0.658v-0.109l-0.493-4.223c-0.037-0.183-0.109-0.347-0.22-0.493
			L22.3,9.589c-0.438-0.402-0.895-0.604-1.369-0.604c-0.694,0-1.278,0.293-1.753,0.877l-2.466,3.948L13.7,15.455
			C13.408,15.637,13.262,15.894,13.262,16.223z"/>
	</g>
</g>
</svg>
