<svg id="Layer_1" data-name="Layer 1" xmlns="http://www.w3.org/2000/svg" viewBox="0 0 17.87201 29.81903"><defs><style>.cls-1{fill:#fff;}</style></defs><title>key-icon-9.13.18</title><path id="Y" class="cls-1" d="M26.40234,29.76172h.90625L28.959,32.51953l1.64844-2.75781h.915L29.34961,33.1875V35.5h-.77734V33.1875Z" transform="translate(-14.5 -5.68097)"/><path id="E" class="cls-1" d="M21.55176,29.76172h4.16406v.70312H22.30957V32.207H25.458v.66406H22.30957v1.94532h3.46484V35.5H21.55176Z" transform="translate(-14.5 -5.68097)"/><path id="K" class="cls-1" d="M16.10938,29.76172h.75781v2.80859l2.87109-2.80859h1.08643l-2.45166,2.31543L20.87549,35.5H19.8584l-2.05615-2.88379L16.86719,33.5v2h-.75781Z" transform="translate(-14.5 -5.68097)"/><path id="Pin" class="cls-1" d="M23.436,5.681C18.5,5.681,14.5,9.405,14.5,13.999c0,3.354,1.255,4.29,8.018,13.416h-.001a1.16583,1.16583,0,0,0,1.837,0c6.763-9.126,8.018-10.06195,8.018-13.416C32.372,9.405,28.372,5.681,23.436,5.681Zm-.2807,17.133c-1.0708,0-1.70166-.55664-1.70166-1.51171,0-.96289.63086-1.51856,1.70166-1.51856,1.07129,0,1.69336.55567,1.69336,1.51856C24.84863,22.25732,24.22656,22.814,23.15527,22.814Zm2.67285-6.27539c-1.13671.65528-1.45214,1.0293-1.45214,1.8086v.39062H21.78564l-.0249-.332a2.48873,2.48873,0,0,1,1.41114-2.83008c1.1289-.66406,1.41992-1.01367,1.41992-1.74414a1.18884,1.18884,0,0,0-1.32862-1.13672,1.30336,1.30336,0,0,0-1.36963,1.33594H19.1958c.0249-2.17383,1.60205-3.59375,4.2583-3.59375,2.52344,0,4.167,1.32813,4.167,3.32031A3.02776,3.02776,0,0,1,25.82812,16.53857Z" transform="translate(-14.5 -5.68097)"/></svg>