<?xml version="1.0" encoding="utf-8"?>
<!-- Generator: Adobe Illustrator 21.0.2, SVG Export Plug-In . SVG Version: 6.00 Build 0)  -->
<svg version="1.1" id="Layer_1" xmlns="http://www.w3.org/2000/svg" xmlns:xlink="http://www.w3.org/1999/xlink" x="0px" y="0px"
	 viewBox="0 0 40 40" style="enable-background:new 0 0 40 40;" xml:space="preserve">
<g>
	<g>
		<path d="M20,0.5c-7.6,0-13.7,6.2-13.7,13.7c0,2.6,0.7,5,2,7.2L19.2,39c0.2,0.3,0.6,0.5,1,0.5h0c0.4,0,0.8-0.2,1-0.6l10.6-17.7
			c1.3-2.1,1.9-4.5,1.9-7C33.7,6.7,27.6,0.5,20,0.5z M29.8,20.1l-9.6,16.1l-9.9-15.9c-1.1-1.8-1.7-3.9-1.7-6
			C8.6,7.9,13.7,2.8,20,2.8s11.4,5.1,11.4,11.4C31.4,16.3,30.9,18.3,29.8,20.1z M20,7.4c-3.8,0-6.9,3.1-6.9,6.9c0,3.8,3,6.9,6.9,6.9
			c3.9,0,6.9-3.1,6.9-6.9C26.9,10.4,23.8,7.4,20,7.4z M20,18.8c-2.5,0-4.6-2.1-4.6-4.6c0-2.5,2.1-4.6,4.6-4.6s4.6,2.1,4.6,4.6
			C24.6,16.7,22.6,18.8,20,18.8z"/>
	</g>
</g>
</svg>
