<?xml version="1.0" encoding="utf-8"?>
<!-- Generator: Adobe Illustrator 22.1.0, SVG Export Plug-In . SVG Version: 6.00 Build 0)  -->
<svg version="1.1" id="Layer_2_1_" xmlns="http://www.w3.org/2000/svg" xmlns:xlink="http://www.w3.org/1999/xlink" x="0px" y="0px"
	 viewBox="0 0 972.7 25" width="973" height="26" xml:space="preserve">
<style type="text/css">
	.st0{fill:#188DAF;}
	.st1{fill:none;stroke:#FFFFFF;stroke-miterlimit:10;}
	.st2{fill:#FFFFFF;}
	.st3{fill:#625BA8;stroke:#FFFFFF;stroke-miterlimit:10;}
	.st4{fill:#F15C4B;stroke:#FFFFFF;stroke-miterlimit:10;}
	.st5{fill:#0B8241;}
	.st6{fill:#8B7F99;stroke:#FFFFFF;stroke-miterlimit:10;}
	.st7{fill:#494DA0;stroke:#FFFFFF;stroke-miterlimit:10;}
	.st8{fill:#2C5398;}
	.st9{fill:#57B1C9;stroke:#FFFFFF;stroke-miterlimit:10;}
	.st10{fill:#F05F8E;stroke:#FFFFFF;stroke-miterlimit:10;}
	.st11{fill:#C8DC67;stroke:#FFFFFF;stroke-miterlimit:10;}
	.st12{fill:#80AF6B;stroke:#FFFFFF;stroke-miterlimit:10;}
	.st13{fill:#F9BF39;stroke:#FFFFFF;stroke-miterlimit:10;}
	.st14{fill:#4F3F24;stroke:#FFFFFF;stroke-miterlimit:10;}
	.st15{fill:#30124C;stroke:#FFFFFF;stroke-miterlimit:10;}
	.st16{fill:#FFFFFF;stroke:#30124C;stroke-miterlimit:10;}
	.st17{fill:#30124C;}
	.st18{fill:#EA9892;}
	.st19{fill:#4D586E;stroke:#FFFFFF;stroke-miterlimit:10;}
	.st20{fill:#BF9DCA;stroke:#FFFFFF;stroke-miterlimit:10;}
	.st21{fill:#BF9DCA;}
	.st22{fill:#FFFFFF;stroke:#BF9DCA;stroke-width:0.5;stroke-miterlimit:10;}
</style>
<g id="InformationIcon">
	<g>
		<g>
			<circle class="st0" cx="212.4" cy="12.5" r="11.5"/>
			<circle class="st1" cx="212.4" cy="12.5" r="11.5"/>
		</g>
		<path class="st2" d="M214.5,6c0,1.1-0.8,1.9-1.8,1.9s-1.9-1-1.9-1.9c0-1.1,0.8-1.9,1.9-1.9C213.5,4,214.5,5,214.5,6 M210.9,11.3
			h-1.8v-0.8h1.8c1.2,0,2.5-0.1,3.5-0.1v10.3h1.6v0.8h-6.9v-0.8h1.7L210.9,11.3L210.9,11.3z"/>
	</g>
</g>
<g id="WaitingIcons_1_">
	<circle class="st3" cx="262.3" cy="12.5" r="11.5"/>
	<g>
		<polygon class="st2" points="267.3,13.4 262.7,12.6 263.3,12.1 264.4,12.3 265.5,12.1 		"/>
		<path class="st2" d="M264.4,4.7c0.9,0,1.7,0.8,1.7,1.7s-0.6,1.7-1.7,1.7c-0.9,0-1.7-0.8-1.7-1.7S263.5,4.7,264.4,4.7"/>
		<path class="st2" d="M264.9,16.7v4c0,0.5,0.4,0.9,0.9,0.9s0.9-0.4,0.9-0.9v-4c0-0.5-0.4-0.9-0.9-0.9S264.9,16.2,264.9,16.7"/>
		<path class="st2" d="M261.6,13.9c-0.1,0.5,0.3,1,0.8,1l3.9,0.6c0.5,0.1,1-0.3,1-0.8c0.1-0.5-0.3-1-0.8-1l-3.9-0.6
			C262.2,13,261.7,13.4,261.6,13.9"/>
		<path class="st2" d="M264.4,9.4l2.1-0.3v1.5c0.3,0.3,1,0.8,1,0.8c0.1,0.1,0.1,0.2,0.1,0.3c-0.1,0.1-0.2,0.1-0.3,0.1l-1.3-1
			c-0.3-0.2-0.7-0.1-0.8,0.1c-0.2,0.3-0.1,0.7,0.1,0.8l2.3,1.6c0.1,0.1,0.3,0.1,0.4,0.1s0.3-0.1,0.4-0.1c0.2-0.1,0.3-0.5,0.3-0.8
			L268,10c-0.2-0.6-0.8-1.4-1.7-1.4h-3.5c-0.8,0-1.5,0.8-1.7,1.4l-0.8,2.5c-0.1,0.3,0,0.6,0.3,0.8c0.1,0.1,0.3,0.1,0.4,0.1
			s0.3-0.1,0.4-0.1l2.3-1.6c0.3-0.2,0.3-0.6,0.1-0.8s-0.6-0.3-0.8-0.1l-1.3,1c-0.1,0.1-0.2,0.1-0.3-0.1c0,0-0.1-0.1,0.1-0.3
			c0,0,0.7-0.6,1-0.8V9L264.4,9.4z"/>
	</g>
	<g>
		<path class="st2" d="M270.5,19c0,0.3-0.2,0.6-0.6,0.6h-2.8V17h1.2v-2.6c0-0.3,0.2-0.6,0.6-0.6h1c0.3,0,0.6,0.2,0.6,0.6L270.5,19
			L270.5,19z"/>
		<path class="st2" d="M264.4,19.5H259c-0.3,0-0.6-0.2-0.6-0.6v-4.8c0-0.3,0.2-0.6,0.6-0.6h1c0.3,0,0.6,0.2,0.6,0.6v2.6h3.8V19.5z"
			/>
	</g>
	<g>
		<path class="st2" d="M257.1,8.9c-1.3,0-2.4-1-2.4-2.4s1-2.4,2.4-2.4c1.3,0,2.4,1,2.4,2.4S258.4,8.9,257.1,8.9 M257.1,8.3
			c1,0,1.8-0.8,1.8-1.8s-0.8-1.8-1.8-1.8s-1.8,0.8-1.8,1.8S256.1,8.3,257.1,8.3"/>
		<path class="st2" d="M257.1,6.8c-0.1,0-0.1,0-0.1,0c-0.1,0-0.1-0.1-0.1-0.1V5.3c0-0.1,0.1-0.2,0.2-0.2s0.2,0.1,0.2,0.2v1l0.9-0.4
			c0.1-0.1,0.2,0,0.2,0.1c0.1,0.1,0,0.2-0.1,0.2L257.1,6.8z"/>
	</g>
</g>
<g id="DiningIcon_12_">
	<circle class="st4" cx="661.3" cy="12.5" r="11.5"/>
	<path class="st2" d="M664.2,21.8h-0.5c-0.3,0-0.5-0.2-0.5-0.5v-5.8c0-0.1,0-0.1,0-0.2l0.2-1.1c0-0.3,0-0.5,0-0.8l-0.1-1
		c0-0.1,0-0.1-0.1-0.1l-0.5-0.4c-0.1-0.1-0.1-0.2-0.2-0.3c-0.1-0.3-0.1-1.1,0-2.8c0.1-1.5,0.5-3.2,0.7-4.2c0.1-0.5,0.5-0.9,1-1l0,0
		c0.1-0.1,0.3,0.1,0.3,0.2v17.6C664.7,21.6,664.5,21.8,664.2,21.8z"/>
	<path class="st2" d="M660.9,3.5L660.9,3.5c0-0.1-0.1-0.1-0.2-0.1c-0.1,0-0.2,0.1-0.2,0.2l0,0l-0.1,3.9l0,0c0,0.1-0.1,0.2-0.2,0.2
		c-0.1,0-0.2-0.1-0.2-0.2l0,0l-0.1-3.9l0,0l0,0l0,0l0,0c0-0.1-0.1-0.1-0.2-0.1c-0.1,0-0.1,0.1-0.2,0.1l0,0l-0.1,3.9l0,0
		c0,0.1-0.1,0.2-0.2,0.2s-0.2,0-0.2-0.1l0,0v-4l0,0c0-0.1-0.1-0.1-0.1-0.1l-0.1,0.1l0,0l-0.1,3.9l0,0c0,0.1-0.1,0.2-0.2,0.2
		c-0.1,0-0.2-0.1-0.2-0.2l-0.1-3.9l0,0l0,0l0,0l0,0c0-0.1-0.1-0.1-0.2-0.1c-0.1,0-0.1,0.1-0.2,0.1l0,0l0,0l0,0l0,0l-0.3,4.8
		c0,0.5,0.3,0.9,0.8,0.9l0,0c0.1,0,0.1,0.1,0.1,0.1v0.1c0.2,1,0.1,2.4,0.1,3.1l-0.1,1.1v7.8c0,0.2,0.2,0.4,0.4,0.4h0.6
		c0.2,0,0.4-0.2,0.4-0.4v-8l-0.1-1.1c-0.1-0.7-0.3-2.1,0.1-3.1v0c0-0.1,0.1-0.1,0.1-0.1c0.5,0,0.8-0.4,0.8-0.9L660.9,3.5z"/>
</g>
<g id="ATMIcon">
	<g>
		<g>
			<circle class="st5" cx="611.4" cy="12.5" r="11.5"/>
			<circle class="st1" cx="611.4" cy="12.5" r="11.5"/>
		</g>
		<g id="ATMIcon_x5F_v1_9_">
			<path class="st2" d="M610.8,17.1v-3.9c-1.2-0.3-2.1-0.9-2.7-1.6c-0.6-0.7-0.8-1.6-0.8-2.6s0.3-1.9,1-2.6s1.5-1.1,2.6-1.2V4.3h1.4
				v0.9c1,0.1,1.8,0.5,2.4,1c0.6,0.6,1,1.3,1.1,2.3l-2.4,0.3c-0.1-0.8-0.6-1.2-1.1-1.5V11c1.5,0.4,2.6,1,3.1,1.6s0.8,1.5,0.8,2.5
				c0,1.1-0.3,2.1-1,2.9s-1.7,1.2-2.8,1.5v1.7H611v-1.7c-1.1-0.1-1.9-0.6-2.6-1.2s-1.1-1.7-1.3-2.9l2.5-0.3c0.1,0.5,0.3,1,0.6,1.3
				C610.1,16.6,610.4,16.8,610.8,17.1z M610.8,7.1c-0.3,0.1-0.7,0.3-0.9,0.6c-0.2,0.3-0.3,0.6-0.3,1c0,0.3,0.1,0.6,0.3,0.9
				s0.5,0.5,0.9,0.7V7.1L610.8,7.1L610.8,7.1z M612.1,17.2c0.5-0.1,0.8-0.3,1.2-0.6c0.3-0.3,0.4-0.8,0.4-1.2s-0.1-0.8-0.3-1.1
				c-0.3-0.3-0.6-0.6-1.2-0.7L612.1,17.2L612.1,17.2z"/>
		</g>
	</g>
</g>
<g id="LoungeIcon_1_">
	<circle class="st6" cx="312.2" cy="12.5" r="11.5"/>
	<g>
		<g>
			<path class="st2" d="M308.4,14.4c0.1,0.1,0.2,0.2,0.3,0.2h6.8c0.1,0,0.3-0.1,0.3-0.2l0.6-1.3c0.1-0.1,0-0.1-0.1-0.2
				c-2.8-0.9-5.8-0.9-8.6,0c-0.1,0-0.1,0.1-0.1,0.2L308.4,14.4z"/>
			<path class="st2" d="M320.4,11.7c-0.1-0.6-0.6-1.1-1.2-1.2s-1.2,0.3-1.5,0.8l0,0l-0.8,1.8l0,0l0,0l-0.8,1.5
				c-0.1,0.2-0.3,0.3-0.6,0.3h-7c-0.2,0-0.4-0.1-0.6-0.3l-0.8-1.5l0,0l-0.4-1l0,0l0,0l-0.4-0.9l0,0c-0.2-0.6-0.8-0.9-1.5-0.8
				c-0.6,0.1-1.1,0.6-1.2,1.2c-0.1,0.6,0.3,1.2,0.9,1.5l0.5,2.8V16c0,0.3,0.3,0.6,0.6,0.6h12.7c0.3,0,0.6-0.3,0.6-0.6v-0.1l0.5-2.8
				C320.1,13,320.5,12.3,320.4,11.7z"/>
		</g>
		<path class="st2" d="M316.8,6.5c-2.6,0-4.6,0-4.6,0s-2.1,0-4.6,0s-2.5,3.7-2.5,3.7h0.2c0.7,0,1.3,0.3,1.7,1c0,0.1,0.1,0.1,0.1,0.1
			l0.6,1.3c0,0.1,0.1,0.1,0.1,0.1c0.4-0.1,2-0.8,4.5-0.8s4,0.6,4.5,0.8c0.1,0,0.1,0,0.1-0.1l0.6-1.3c0-0.1,0-0.1,0.1-0.1
			c0.3-0.6,1-1,1.7-1h0.2C319.4,10.2,319.4,6.5,316.8,6.5z"/>
		<path class="st2" d="M307,18.6L307,18.6c-0.6,0-1-0.4-1-1v-0.8h1.9v0.8C307.9,18.2,307.5,18.6,307,18.6z"/>
		<path class="st2" d="M317.5,18.6L317.5,18.6c-0.6,0-1-0.4-1-1v-0.8h1.9v0.8C318.5,18.2,318.1,18.6,317.5,18.6z"/>
	</g>
</g>
<g id="ParkingIcon">
	<g id="DiningIcon_9_">
		<circle class="st7" cx="12.9" cy="12.5" r="11.5"/>
	</g>
	<g>
		<path class="st2" d="M8.3,5.6c0.9-0.1,2.3-0.3,4.1-0.3c1.9,0,3.2,0.4,4.1,1.1C17.4,7.1,18,8.2,18,9.5s-0.4,2.5-1.3,3.2
			c-1,1-2.6,1.4-4.4,1.4c-0.4,0-0.7,0-1,0v4.8h-3L8.3,5.6L8.3,5.6z M11.3,11.7c0.3,0,0.6,0.1,1,0.1C14,11.8,15,11,15,9.6
			c0-1.3-0.9-2-2.4-2c-0.6,0-1,0-1.3,0.1V11.7L11.3,11.7z"/>
	</g>
</g>
<g>
	<polygon id="EntranceIcon" class="st8" points="104.5,19.6 112.7,5.5 120.9,19.6 	"/>
</g>
<g id="ValetIcon_5_">
	<circle class="st7" cx="62.8" cy="12.5" r="11.5"/>
	<g id="ValetIcon_x5F_v2_5_">
		<path class="st2" d="M72,11.9l-0.6-0.6c-0.3-0.3-0.6-0.4-1-0.4h-8.1c-0.6-1.8-2.4-3-4.4-3c-2.6,0-4.6,2.1-4.6,4.6s2.1,4.6,4.6,4.6
			c1.5,0,2.9-0.8,3.7-1.9h1.7l1.2-1.2l1.2,1.2l1.2-1.2l1.2,1.2l1.2-1.2l1.2,1.2h0.4l1.1-1.9C72.4,13,72.3,12.3,72,11.9z M56.2,14
			c-0.8,0-1.5-0.7-1.5-1.5s0.7-1.5,1.5-1.5s1.5,0.7,1.5,1.5S57,14,56.2,14z"/>
	</g>
</g>
<g>
	<g id="WheelchairIcon_2_">
		<path class="st8" d="M163.1,6.2c0.9,0,1.7-0.7,1.7-1.7c0-0.9-0.7-1.7-1.7-1.7s-1.7,0.7-1.7,1.7C161.5,5.5,162.2,6.2,163.1,6.2"/>
		<path class="st8" d="M170.6,18l-3.1-5.1c-0.2-0.3-0.5-0.5-0.8-0.5h-4l0.9-3.8l0,0c0.1-0.1,0.1-0.3,0.1-0.5c0-0.9-0.7-1.5-1.5-1.5
			c-0.5,0-0.9,0.2-1.1,0.5L158,8c-0.3,0.1-0.6,0.5-0.5,0.8L158,11c-1.4,1.1-2.2,2.9-2.2,4.8c0,3.5,2.8,6.3,6.3,6.3
			c2.6,0,4.8-1.5,5.8-3.8l-1-1.6c-0.4,2.3-2.4,4-4.9,4c-2.7,0-4.9-2.2-4.9-4.9c0-1.3,0.5-2.5,1.3-3.3c0.1,0.1,0.3,0.2,0.6,0.2
			c0.3-0.1,0.6-0.5,0.5-0.8l-0.6-2.7l1.5-0.5l-1,4.4c0,0.1,0,0.3,0,0.3c0,0.7,0.5,1.3,1.2,1.5c0.2,0.1,0.3,0.1,0.5,0.1h5.5l2.4,4.1
			c0.3,0.5,0.9,0.6,1.3,0.3C170.7,19.1,170.8,18.5,170.6,18"/>
	</g>
</g>
<g id="MenRestroomIcons">
	<circle class="st9" cx="561.5" cy="12.5" r="11.5"/>
	<g id="MensRestroom_x5F_v1_7_">
		<path class="st2" d="M561.5,6.6c0.8,0,1.5-0.6,1.5-1.5s-0.6-1.5-1.5-1.5c-0.8,0-1.5,0.6-1.5,1.5C560,5.9,560.7,6.6,561.5,6.6"/>
		<path class="st2" d="M563.1,6.9c1,0,1.9,0.8,1.9,1.9v4.5c0,0.3-0.3,0.6-0.6,0.6s-0.6-0.3-0.6-0.6V9.2h-0.3v11.3
			c0,0.5-0.4,0.8-0.8,0.8c-0.5,0-0.8-0.3-0.8-0.8V14h-0.3v6.5c0,0.5-0.3,0.8-0.8,0.8S560,21,560,20.5V9.2h-0.3v4.1
			c0,0.3-0.3,0.6-0.6,0.6s-0.6-0.3-0.6-0.6V8.8c0-1,0.8-1.9,1.9-1.9H563.1z"/>
	</g>
</g>
<g id="WomenRestroomIcons">
	
		<ellipse transform="matrix(0.1602 -0.9871 0.9871 0.1602 417.3121 515.4916)" class="st10" cx="511.6" cy="12.5" rx="11.5" ry="11.5"/>
	<g id="WomensRestroom_x5F_v1_7_">
		<path class="st2" d="M511.3,16v5.1c0,0.3,0.3,0.7,0.7,0.7c0.3,0,0.7-0.3,0.7-0.7c0-0.3,0-2.8,0-5.1h1.9l-1.9-6.7h0.3
			c0,0,1,3.5,1.2,4c0.1,0.3,0.4,0.5,0.7,0.3c0.3-0.1,0.4-0.4,0.3-0.7c-0.1-0.2-0.7-2.5-1.2-4.3c-0.2-0.7-0.9-1.4-1.7-1.4h-2.4
			c-0.7,0-1.5,0.7-1.7,1.4c-0.6,1.8-1.2,4.1-1.2,4.3c-0.1,0.3,0.1,0.6,0.3,0.7c0.3,0.1,0.6-0.1,0.7-0.3c0.1-0.4,1.2-4,1.2-4h0.3
			l-2,6.7h1.9c0,2.3,0,4.8,0,5.1c0,0.3,0.3,0.7,0.7,0.7c0.3,0,0.7-0.3,0.7-0.7V16H511.3z"/>
		<path class="st2" d="M511.1,6.9c0.8,0,1.5-0.6,1.5-1.5S511.9,4,511.1,4s-1.5,0.6-1.5,1.5C509.6,6.3,510.3,6.9,511.1,6.9"/>
	</g>
</g>
<g id="UnisexRestroomIcons">
	<circle class="st9" cx="461.8" cy="12.5" r="11.5"/>
	<path class="st10" d="M461.8,1c-6.4,0-11.5,5.1-11.5,11.5S455.4,24,461.8,24V1z"/>
	<g>
		<path class="st2" d="M467.2,7.4c0.7,0,1.2-0.6,1.2-1.2S467.8,5,467.2,5c-0.7,0-1.2,0.6-1.2,1.2C465.9,6.9,466.5,7.4,467.2,7.4"/>
		<path class="st2" d="M468.6,7.8c0.9,0,1.6,0.7,1.6,1.6v3.9c0,0.3-0.2,0.6-0.6,0.6c-0.3,0-0.6-0.3-0.6-0.6V9.8h-0.3v9.6
			c0,0.4-0.3,0.7-0.8,0.7s-0.8-0.3-0.8-0.7v-5.5H467v5.5c0,0.4-0.3,0.7-0.8,0.7c-0.4,0-0.8-0.3-0.8-0.7V9.8h-0.3v3.5
			c0,0.3-0.3,0.6-0.6,0.6s-0.6-0.3-0.6-0.6V9.4c0-0.9,0.7-1.6,1.6-1.6C465.5,7.8,468.6,7.8,468.6,7.8z"/>
	</g>
	<g>
		<path class="st2" d="M457,15.2v4.4c0,0.3,0.3,0.6,0.6,0.6c0.3,0,0.6-0.3,0.6-0.6c0-0.3,0-2.4,0-4.4h1.6L458,9.4h0.3
			c0,0,0.9,3,1,3.4c0.1,0.3,0.3,0.4,0.6,0.3c0.3-0.1,0.3-0.3,0.3-0.6c-0.1-0.2-0.6-2.1-1-3.7c-0.1-0.6-0.8-1.2-1.4-1.2h-2
			c-0.6,0-1.2,0.6-1.4,1.2c-0.5,1.6-1,3.5-1.1,3.7c-0.1,0.3,0.1,0.6,0.3,0.6c0.3,0.1,0.6-0.1,0.6-0.3c0.1-0.3,1-3.4,1-3.4h0.3
			l-1.7,5.7h1.6c0,2,0,4.1,0,4.4c0,0.3,0.3,0.6,0.6,0.6c0.3,0,0.6-0.3,0.6-0.6v-4.4L457,15.2L457,15.2z"/>
		<path class="st2" d="M456.9,7.4c0.7,0,1.2-0.6,1.2-1.2S457.5,5,456.9,5s-1.2,0.6-1.2,1.2S456.2,7.4,456.9,7.4"/>
	</g>
</g>
<g id="StairIcons_x5F_Act">
	<circle class="st11" cx="411.9" cy="12.5" r="11.5"/>
	<g id="Stair_x5F_Icon_51_">
		<g id="StairIcon_53_">
			<polygon class="st2" points="407.4,19.1 404.4,19.1 404.4,13.4 408.6,13.4 408.6,9.3 412.7,9.3 412.7,5 418.4,5 418.4,8 415.7,8 
				415.7,12.3 411.6,12.3 411.6,16.4 407.4,16.4 			"/>
		</g>
	</g>
</g>
<g id="ElevatorIcons_x5F_Act">
	<circle class="st12" cx="362" cy="12.5" r="11.5"/>
	<g>
		<path class="st2" d="M365,8.7c0-1.7,2.6-1.7,2.6,0v5.1l1.2-1.7c0.8-1,2.6,0.4,1.5,1.5l-3.2,3.8c-0.6,0.6-1.2,0.6-1.7,0l-3-3.8
			c-0.8-1,0.6-2.6,1.5-1.5l1.2,1.7"/>
		<path class="st2" d="M356.4,16.4c0,1.7,2.4,1.7,2.6,0v-5.1l1.2,1.7c0.8,1,2.6-0.4,1.5-1.5l-3.2-3.8c-0.6-0.6-1.2-0.6-1.7,0l-3,3.8
			c-1,1,0.6,2.4,1.5,1.5l1.2-1.7"/>
	</g>
</g>
<g id="GiftShopIcon">
	<circle class="st13" cx="761" cy="12.5" r="11.5"/>
	<path class="st2" d="M757.1,8.6h1c-0.7-0.5-1-1.2-0.7-1.9c0.3-0.6,1.2-0.8,2.1-0.3c0.5,0.3,0.8,0.8,0.9,1.2L760,8.2
		c-0.1,0.1,0,0.3,0.2,0.3h1.7c0.2,0,0.3-0.2,0.2-0.3l-0.3-0.5c0.1-0.3,0.3-0.7,0.7-0.9c0.7-0.3,1.5-0.2,1.8,0.3s0,1-0.5,1.5h0.8
		c0.6-0.6,0.8-1.4,0.5-2c-0.4-0.8-1.6-1-2.6-0.4c-0.5,0.3-0.8,0.8-1,1.2c-0.3-0.3-0.6-0.3-1-0.1c-0.2-0.6-0.6-1.2-1.2-1.7
		c-1.2-0.6-2.6-0.4-3.1,0.6C755.9,6.9,756.2,7.9,757.1,8.6z"/>
	<path class="st2" d="M764.2,8.9H763h-0.3h-5.1H755v2.2h0.8v8.5h10.7v-8.5h0.8V8.9H764.2z M755.7,10.5V9.6h4v0.8L755.7,10.5
		L755.7,10.5z M765.7,13.9h-3.2v-2.7h3.2V13.9z M759.5,11.2v2.7h-3.2v-2.7H759.5z M756.4,16.9h3.2V19h-3.2V16.9z M762.5,18.9v-2.2
		h3.2v2.2H762.5z M766.5,10.5h-4V9.6h4V10.5z"/>
</g>
<g id="CafeIcon">
	<circle class="st14" cx="711.1" cy="12.5" r="11.5"/>
	<path id="CoffeeIcon_1_" class="st2" d="M715.9,14c0-0.1,0-0.5,0-0.6h0.3c1.7,0,3-1.3,3-3s-1.3-3-3-3h-9.9V14
		c0,0.8,0.7,1.5,1.5,1.5h6.7C715.3,15.5,715.9,14.8,715.9,14 M716.3,12.2c-0.1,0-0.3,0-0.3,0V8.6h0.3c1,0,1.8,0.8,1.8,1.8
		S717.2,12.2,716.3,12.2 M702.7,15.9c0,1,0.8,1.7,1.7,1.7h13.5c1,0,1.7-0.8,1.7-1.7C719.6,15.9,702.7,15.9,702.7,15.9z"/>
</g>
<g id="PianoIcon">
	<circle class="st15" cx="960.5" cy="12.5" r="11.5"/>
	<g>
		<g>
			<path class="st16" d="M956.7,20h-2.9c-0.5,0-0.8-0.3-0.8-0.8V5.9c0-0.5,0.3-0.8,0.8-0.8h2.9V20z"/>
			<rect x="956.7" y="5.1" class="st16" width="3.7" height="15"/>
			<rect x="960.5" y="5.1" class="st16" width="3.7" height="15"/>
			<path class="st16" d="M967.1,20h-2.9V5h2.9c0.5,0,0.8,0.3,0.8,0.8v13.3C967.9,19.6,967.6,20,967.1,20z"/>
		</g>
		<g>
			<rect x="955.7" y="5.1" class="st17" width="2.3" height="8.5"/>
			<rect x="959.3" y="5.1" class="st17" width="2.3" height="8.5"/>
			<rect x="963" y="5.1" class="st17" width="2.3" height="8.5"/>
		</g>
	</g>
</g>
<g id="PicnicTableIcon">
	<g>
		<g>
			<circle class="st18" cx="910.6" cy="12.5" r="11.5"/>
			<circle class="st1" cx="910.6" cy="12.5" r="11.5"/>
		</g>
		<g>
			<path class="st2" d="M904,9.1h13.2c0.4,0,0.7-0.3,0.7-0.7s-0.3-0.7-0.7-0.7H904c-0.4,0-0.7,0.3-0.7,0.7S903.6,9.1,904,9.1z"/>
			<path class="st2" d="M918.5,11.9h-3l-1.2-2.3H907l-1.2,2.3h-3c-0.4,0-0.7,0.3-0.7,0.7s0.3,0.7,0.7,0.7h2.3l-1.6,3
				c-0.2,0.3-0.1,0.8,0.3,1c0.3,0.2,0.8,0.1,1-0.3l1.9-3.7h8l1.9,3.7c0.1,0.2,0.3,0.3,0.6,0.3c0.1,0,0.2,0,0.3-0.1
				c0.3-0.2,0.5-0.6,0.3-1l-1.6-3h2.3c0.4,0,0.7-0.3,0.7-0.7C919.1,12.2,918.9,11.9,918.5,11.9z M907.3,11.9l0.5-0.9h5.6l0.5,0.9
				H907.3z"/>
		</g>
	</g>
</g>
<g id="PharmacyIcon_3_">
	<circle class="st19" cx="810.9" cy="12.5" r="11.5"/>
	<path id="PharmacyIcon_x5F_v1_1_" class="st2" d="M816.1,13.8l2.6-3.6h-2.4l-1.4,2.1l-1.3-2.1h-2.1c0-0.6-0.1-1.1-0.5-1.6
		c-0.3-0.5-0.7-0.8-1.2-1s-1.3-0.3-2.4-0.3H803v10.5h2.1v-4.4h0.4c0.5,0,0.8,0.1,1,0.1c0.2,0.1,0.4,0.2,0.6,0.4
		c0.2,0.2,0.6,0.7,1.1,1.5l1.5,2.3h1.2h0.6h1.3h0.5l1.6-2.4l1.5,2.4h2.5L816.1,13.8z M806.6,11.8H805V9.2h1.7c0.8,0,1.4,0,1.5,0.1
		c0.3,0.1,0.6,0.2,0.8,0.4s0.3,0.5,0.3,0.8s-0.1,0.6-0.2,0.8c-0.1,0.2-0.3,0.3-0.6,0.4C808.2,11.7,807.6,11.8,806.6,11.8z M812.2,16
		h-1l-0.1-0.2c-0.5-0.8-0.9-1.4-1.2-1.7s-0.7-0.6-1.1-0.9c0.9-0.1,1.6-0.5,2.1-1c0.3-0.4,0.6-0.9,0.7-1.5l2.3,3.2L812.2,16z"/>
</g>
<g id="VendingIcon_2_">
	<circle class="st20" cx="860.7" cy="12.5" r="11.4"/>
	<g id="VendingIcon_3_">
		<path class="st2" d="M864.9,4h-8.7c-0.8,0-1.4,0.6-1.4,1.4v14c0,0.8,0.6,1.4,1.4,1.4h8.7c0.8,0,1.4-0.6,1.4-1.4v-14
			C866.3,4.7,865.7,4,864.9,4z"/>
		<path class="st21" d="M861.6,17.2h-4.7c-0.7,0-1.2-0.5-1.2-1.2V6.2c0-0.7,0.5-1.2,1.2-1.2h4.7c0.7,0,1.2,0.5,1.2,1.2V16
			C862.9,16.7,862.4,17.2,861.6,17.2z"/>
		<g>
			<path class="st22" d="M865.5,11.4L865.5,11.4c0.1,0,0.2-0.2,0.2-0.4v-0.1c0-0.2-0.1-0.4-0.3-0.4h-1.6c-0.1,0-0.3,0.2-0.3,0.4V11
				c0,0.2,0.1,0.4,0.3,0.4h-0.1"/>
			<polygon class="st21" points="865.4,12.3 863.8,12.3 864.1,10.8 865.1,10.8 			"/>
		</g>
		<g>
			<g>
				<path class="st21" d="M864.1,8.2h-0.3c-0.1,0-0.1-0.1-0.1-0.1V7.8c0-0.1,0.1-0.1,0.1-0.1h0.3c0.1,0,0.1,0.1,0.1,0.1V8
					C864.2,8.1,864.2,8.2,864.1,8.2z"/>
				<path class="st21" d="M864.7,8.2h-0.3c-0.1,0-0.1-0.1-0.1-0.1V7.8c0-0.1,0.1-0.1,0.1-0.1h0.3c0.1,0,0.1,0.1,0.1,0.1V8
					C864.9,8.1,864.8,8.2,864.7,8.2z"/>
				<path class="st21" d="M865.4,8.2h-0.3c-0.1,0-0.1-0.1-0.1-0.1V7.8c0-0.1,0.1-0.1,0.1-0.1h0.3c0.1,0,0.1,0.1,0.1,0.1V8
					C865.5,8.1,865.5,8.2,865.4,8.2z"/>
				<path class="st21" d="M864.1,8.8h-0.3c-0.1,0-0.1-0.1-0.1-0.1V8.4c0-0.1,0.1-0.1,0.1-0.1h0.3c0.1,0,0.1,0.1,0.1,0.1v0.3
					C864.2,8.8,864.2,8.8,864.1,8.8z"/>
				<path class="st21" d="M864.7,8.8h-0.3c-0.1,0-0.1-0.1-0.1-0.1V8.4c0-0.1,0.1-0.1,0.1-0.1h0.3c0.1,0,0.1,0.1,0.1,0.1v0.3
					C864.9,8.8,864.8,8.8,864.7,8.8z"/>
				<path class="st21" d="M865.4,8.8h-0.3c-0.1,0-0.1-0.1-0.1-0.1V8.4c0-0.1,0.1-0.1,0.1-0.1h0.3c0.1,0,0.1,0.1,0.1,0.1v0.3
					C865.5,8.8,865.5,8.8,865.4,8.8z"/>
				<path class="st21" d="M864.1,9.6h-0.3c-0.1,0-0.1-0.1-0.1-0.1V9.2c0-0.1,0.1-0.1,0.1-0.1h0.3c0.1,0,0.1,0.1,0.1,0.1v0.3
					C864.2,9.5,864.2,9.6,864.1,9.6z"/>
				<path class="st21" d="M864.7,9.6h-0.3c-0.1,0-0.1-0.1-0.1-0.1V9.2c0-0.1,0.1-0.1,0.1-0.1h0.3c0.1,0,0.1,0.1,0.1,0.1v0.3
					C864.9,9.5,864.8,9.6,864.7,9.6z"/>
				<path class="st21" d="M865.4,9.6h-0.3c-0.1,0-0.1-0.1-0.1-0.1V9.2c0-0.1,0.1-0.1,0.1-0.1h0.3c0.1,0,0.1,0.1,0.1,0.1v0.3
					C865.5,9.5,865.5,9.6,865.4,9.6z"/>
			</g>
		</g>
		<path class="st22" d="M862.3,19.5h-6c-0.3,0-0.6-0.3-0.6-0.6v-0.2c0-0.3,0.3-0.6,0.6-0.6h6c0.3,0,0.6,0.3,0.6,0.6v0.2
			C862.9,19.2,862.7,19.5,862.3,19.5z"/>
		<g>
			<path class="st2" d="M858.4,14.1l-1.7-5.3h1.3l0.6,2.3c0.2,0.6,0.3,1.2,0.5,1.9l0,0c0.1-0.6,0.3-1.2,0.5-1.9l0.7-2.3h1.3
				l-1.8,5.3H858.4L858.4,14.1z"/>
		</g>
	</g>
</g>
</svg>
