<?xml version="1.0" encoding="utf-8"?>
<!-- Generator: Adobe Illustrator 21.0.2, SVG Export Plug-In . SVG Version: 6.00 Build 0)  -->
<svg version="1.1" id="Layer_1" xmlns="http://www.w3.org/2000/svg" xmlns:xlink="http://www.w3.org/1999/xlink" x="0px" y="0px"
	 viewBox="0 0 40 40" enable-background="new 0 0 40 40" xml:space="preserve">
<g id="Layer_4">
	<path fill="#FFFFFF" d="M17.732,36.835l0.709,1.585C18.737,39.081,19.34,39.5,20,39.5s1.264-0.419,1.559-1.08l1.499-3.359
		c1.827-4.095,4.077-8.059,6.257-11.893l0.992-1.748c1.229-2.176,1.877-4.689,1.877-7.27c0-3.884-1.484-7.596-4.073-10.186
		c-2.586-2.587-6.064-3.828-9.535-3.371C13.16,1.283,8.688,6.169,7.936,12.21c-0.442,3.581,0.354,7.135,2.246,10.013
		C13.137,26.705,15.439,31.691,17.732,36.835z M20,8.3c2.879,0,5.223,2.625,5.223,5.85c0,3.226-2.344,5.85-5.223,5.85
		s-5.222-2.624-5.222-5.851C14.778,10.925,17.121,8.3,20,8.3z"/>
</g>
</svg>
