<?xml version="1.0" encoding="utf-8"?>
<!-- Generator: Adobe Illustrator 18.0.0, SVG Export Plug-In . SVG Version: 6.00 Build 0)  -->
<!DOCTYPE svg PUBLIC "-//W3C//DTD SVG 1.1//EN" "http://www.w3.org/Graphics/SVG/1.1/DTD/svg11.dtd">
<svg version="1.1" id="Layer_2" xmlns="http://www.w3.org/2000/svg" xmlns:xlink="http://www.w3.org/1999/xlink" x="0px" y="0px"
	 width="573.7px" height="25px" viewBox="0 0 573.7 25"  xml:space="preserve">
<g id="ParkingIcon_1_">
	<g id="DiningIcon_1_">
		<circle fill="#660066" stroke="#FFFFFF" cx="12.9" cy="12.5" r="11.5"/>
	</g>
	<path fill="#FFFFFF" d="M14.3,15c2.7,0,4.9-2.2,4.9-5c0-2.7-2.2-5-4.9-5H8.1v14.8H11v-5C10.9,15,13.4,15,14.3,15"/>
	<path fill="#660066" d="M10.9,12.1V7.7h3.3c1.2,0,2.2,1,2.2,2.2c0,1.2-1,2.2-2.2,2.2C13.7,12.1,10.9,12.1,10.9,12.1"/>
</g>
<g id="ValetIcon">
	<g id="DiningIcon_2_">
		<circle fill="#660066" stroke="#FFFFFF" cx="62.7" cy="12.5" r="11.5"/>
	</g>
	<g enable-background="new    ">
		<path fill="#FFFFFF" d="M60.5,20.1l-4.7-15h3.7l1.9,6.3c0.5,1.8,1,3.5,1.4,5.3h0.1c0.4-1.8,0.8-3.5,1.4-5.3L66.1,5h3.6l-5.1,15
			L60.5,20.1L60.5,20.1z"/>
	</g>
</g>
<g id="InformationIcons">
	<path fill="#006BAC" stroke="#FFFFFF" stroke-miterlimit="10" d="M123.6,12.5c0,5.9-4.9,10.9-10.9,10.9c-6,0-10.9-4.9-10.9-10.9
		c0-5.9,4.9-10.9,10.9-10.9C118.7,1.6,123.6,6.4,123.6,12.5z"/>
	<g enable-background="new    ">
		<path fill="#FFFFFF" d="M111.5,15.2v-0.5c-0.1-0.9,0.2-1.9,1.1-3.1c0.8-0.9,1.3-1.6,1.3-2.4c0-0.9-0.6-1.5-1.7-1.5
			c-0.7,0-1.4,0.2-1.8,0.6l-0.5-1.1c0.6-0.5,1.6-0.7,2.5-0.7c2.1,0,3,1.3,3,2.6c0,1.1-0.7,2.1-1.5,3.1c-0.8,0.9-1,1.7-1,2.6v0.5
			h-1.4L111.5,15.2L111.5,15.2z M111.2,17.6c0-0.7,0.5-1.1,1-1.1s1,0.5,1,1.1c0,0.6-0.5,1.1-1,1.1S111.2,18.1,111.2,17.6z"/>
	</g>
</g>
<g id="GiftShopIcons">
	<path fill="none" stroke="#FFFFFF" stroke-miterlimit="10" d="M569.6,4.6c0-1.6-1.8-2.5-4-1.7c-1.6,0.5-3.1,1.8-3.9,3.2
		c-0.3-0.8-0.8-1.5-1.6-2.1c-1.9-1.6-4.6-1.8-5.9-0.8c-1.4,1.1-1,3.2,1.1,4.7c0.2,0.1,0.4,0.3,0.6,0.4H554v13.5h14.9V8.3h-1.8
		C568.3,7.3,569.5,5.9,569.6,4.6z M565.5,3.6c1.7-0.5,3.1,0.1,3.1,1.4c-0.1,1.2-1.3,2.3-2.9,2.9c-1.7,0.5-3.1-0.1-3.1-1.4
		C562.6,5.4,563.8,4.1,565.5,3.6z M555.5,7.3c-1.4-1.1-1.7-2.6-0.8-3.3c1-0.8,2.9-0.5,4.3,0.6c1.4,1.1,1.7,2.6,0.8,3.3
		c-0.3,0.2-0.6,0.3-0.9,0.4h-1.2C557.1,8.1,556.3,7.8,555.5,7.3z"/>
	<path fill="#006BAC" d="M569.6,4.6c0-1.6-1.8-2.5-4-1.7c-1.6,0.5-3.1,1.8-3.9,3.2c-0.3-0.8-0.8-1.5-1.6-2.1
		c-1.9-1.6-4.6-1.8-5.9-0.8c-1.4,1.1-1,3.2,1.1,4.7c0.2,0.1,0.4,0.3,0.6,0.4H554v13.5h14.9V8.3h-1.8C568.3,7.3,569.5,5.9,569.6,4.6z
		 M565.5,3.6c1.7-0.5,3.1,0.1,3.1,1.4c-0.1,1.2-1.3,2.3-2.9,2.9c-1.7,0.5-3.1-0.1-3.1-1.4C562.6,5.4,563.8,4.1,565.5,3.6z
		 M555.5,7.3c-1.4-1.1-1.7-2.6-0.8-3.3c1-0.8,2.9-0.5,4.3,0.6c1.4,1.1,1.7,2.6,0.8,3.3c-0.3,0.2-0.6,0.3-0.9,0.4h-1.2
		C557.1,8.1,556.3,7.8,555.5,7.3z"/>
</g>
<g id="UnisexRestroomIcons_1_">
	<g>
		<g>
			<path fill="none" stroke="#FFFFFF" stroke-miterlimit="10" d="M206.4,6.6c0.8,0,1.5-0.7,1.5-1.5s-0.7-1.5-1.5-1.5
				s-1.5,0.7-1.5,1.5C204.9,5.9,205.6,6.6,206.4,6.6z"/>
			<g>
				<path fill="none" stroke="#FFFFFF" stroke-miterlimit="10" d="M206.2,15.7v4.9c0,0.9-1.4,0.9-1.4,0v-4.9H203l1.9-6.7h-0.3
					l-1.2,3.8c-0.3,0.9-1.5,0.5-1.2-0.4l1.3-4.1c0.1-0.5,0.8-1.4,1.7-1.4h1l0,0h1.1c1.1,0,1.6,0.9,1.8,1.4l1.3,4.1
					c0.3,0.9-0.9,1.3-1.2,0.4L208,9h-0.3l1.9,6.7h-1.8v4.9c0,0.9-1.4,0.9-1.4,0v-4.9H206.2L206.2,15.7z"/>
			</g>
		</g>
		<g>
			<path fill="#006BAC" d="M206.4,6.6c0.8,0,1.5-0.7,1.5-1.5s-0.7-1.5-1.5-1.5s-1.5,0.7-1.5,1.5C204.9,5.9,205.6,6.6,206.4,6.6z"/>
			<g>
				<path fill="#006BAC" d="M206.2,15.7v4.9c0,0.9-1.4,0.9-1.4,0v-4.9H203l1.9-6.7h-0.3l-1.2,3.8c-0.3,0.9-1.5,0.5-1.2-0.4l1.3-4.1
					c0.1-0.5,0.8-1.4,1.7-1.4h1l0,0h1.1c1.1,0,1.6,0.9,1.8,1.4l1.3,4.1c0.3,0.9-0.9,1.3-1.2,0.4L208,9h-0.3l1.9,6.7h-1.8v4.9
					c0,0.9-1.4,0.9-1.4,0v-4.9H206.2L206.2,15.7z"/>
			</g>
		</g>
	</g>
	<g>
		<g>
			<path fill="#FCFCFC" stroke="#FFFFFF" stroke-miterlimit="10" d="M218.2,6.6c0.8,0,1.5-0.7,1.5-1.5s-0.7-1.5-1.5-1.5
				s-1.5,0.7-1.5,1.5C216.7,5.9,217.4,6.6,218.2,6.6z"/>
			<g>
				<path fill="#FCFCFC" stroke="#FFFFFF" stroke-miterlimit="10" d="M216.6,7c-1.1,0-1.8,0.9-1.8,1.9v4.4c0,0.9,1.3,0.9,1.3,0v-4
					h0.3v11.2c0,1.2,1.6,1.2,1.6,0v-6.6h0.3v6.6c0,1.2,1.6,1.2,1.6,0V9.3h0.3v4c0,0.9,1.3,0.9,1.3,0V8.9c0-1-0.8-1.9-1.8-1.9H216.6
					L216.6,7z"/>
			</g>
		</g>
		<g>
			<path fill="#006BAC" d="M218.2,6.6c0.8,0,1.5-0.7,1.5-1.5s-0.7-1.5-1.5-1.5s-1.5,0.7-1.5,1.5C216.7,5.9,217.4,6.6,218.2,6.6z"/>
			<g>
				<path fill="#006BAC" d="M216.6,7c-1.1,0-1.8,0.9-1.8,1.9v4.4c0,0.9,1.3,0.9,1.3,0v-4h0.3v11.2c0,1.2,1.6,1.2,1.6,0v-6.6h0.3v6.6
					c0,1.2,1.6,1.2,1.6,0V9.3h0.3v4c0,0.9,1.3,0.9,1.3,0V8.9c0-1-0.8-1.9-1.8-1.9H216.6L216.6,7z"/>
			</g>
		</g>
	</g>
	<g>
		<rect x="211.5" y="3.8" fill="#FFFFFF" stroke="#FFFFFF" width="1.6" height="17.5"/>
		<rect x="211.5" y="3.8" fill="#006BAC" width="1.6" height="17.5"/>
	</g>
</g>
<g id="ATMIcons">
	<g enable-background="new    ">
		<path fill="none" stroke="#FFFFFF" stroke-miterlimit="10" d="M361.3,22.2V20c-1.3,0-2.6-0.4-3.4-1l0.5-1.5
			c0.8,0.5,1.9,0.9,3.2,0.9c1.6,0,2.6-0.9,2.6-2.2c0-1.2-0.9-2-2.5-2.6c-2.3-0.9-3.6-1.9-3.6-3.8c0-1.8,1.3-3.2,3.3-3.6V4h1.4v2.1
			c1.3,0,2.2,0.4,2.9,0.8l-0.6,1.5c-0.5-0.3-1.4-0.8-2.8-0.8c-1.7,0-2.3,1-2.3,1.9c0,1.1,0.8,1.7,2.7,2.5c2.3,0.9,3.4,2.1,3.4,4
			c0,1.7-1.2,3.4-3.5,3.8v2.3L361.3,22.2L361.3,22.2z"/>
	</g>
	<g enable-background="new    ">
		<path fill="#006BAC" d="M361.3,22.2V20c-1.3,0-2.6-0.4-3.4-1l0.5-1.5c0.8,0.5,1.9,0.9,3.2,0.9c1.6,0,2.6-0.9,2.6-2.2
			c0-1.2-0.9-2-2.5-2.6c-2.3-0.9-3.6-1.9-3.6-3.8c0-1.8,1.3-3.2,3.3-3.6V4h1.4v2.1c1.3,0,2.2,0.4,2.9,0.8l-0.6,1.5
			c-0.5-0.3-1.4-0.8-2.8-0.8c-1.7,0-2.3,1-2.3,1.9c0,1.1,0.8,1.7,2.7,2.5c2.3,0.9,3.4,2.1,3.4,4c0,1.7-1.2,3.4-3.5,3.8v2.3
			L361.3,22.2L361.3,22.2z"/>
	</g>
</g>
<g id="PharmacyIcons">
	<g enable-background="new    ">
		<path fill="none" stroke="#FFFFFF" stroke-width="0.5" d="M503.4,6.9c0.8-0.2,1.9-0.2,2.9-0.2c1.6,0,2.7,0.3,3.4,1
			c0.6,0.5,0.9,1.3,0.9,2.3c0,1.6-1,2.6-2.2,3v0.1c0.9,0.3,1.5,1.2,1.7,2.4c0.4,1.7,0.7,2.8,0.9,3.3h-1.6c-0.2-0.3-0.5-1.4-0.8-2.8
			c-0.4-1.6-1-2.3-2.4-2.3h-1.4v5.2h-1.5v-12H503.4z M504.9,12.3h1.6c1.6,0,2.7-0.9,2.7-2.3c0-1.5-1.1-2.2-2.7-2.2
			c-0.7,0-1.3,0.1-1.5,0.1v4.4H504.9z"/>
		<path fill="none" stroke="#FFFFFF" stroke-width="0.5" d="M513.6,10.1l1.2,1.8c0.3,0.5,0.6,0.9,0.9,1.4h0.1c0.3-0.5,0.6-1,0.8-1.4
			l1.2-1.8h1.7l-2.9,4.1l3,4.4h-1.8l-1.3-1.9c-0.3-0.5-0.6-1-0.9-1.5l0,0c-0.3,0.5-0.6,1-0.9,1.5l-1.2,1.9h-1.7l3-4.4l-2.9-4.2
			L513.6,10.1L513.6,10.1z"/>
	</g>
	<g enable-background="new    ">
		<path fill="#006BAC" d="M503.4,6.9c0.8-0.2,1.9-0.2,2.9-0.2c1.6,0,2.7,0.3,3.4,1c0.6,0.5,0.9,1.3,0.9,2.3c0,1.6-1,2.6-2.2,3v0.1
			c0.9,0.3,1.5,1.2,1.7,2.4c0.4,1.7,0.7,2.8,0.9,3.3h-1.6c-0.2-0.3-0.5-1.4-0.8-2.8c-0.4-1.6-1-2.3-2.4-2.3h-1.4v5.2h-1.5v-12H503.4
			z M504.9,12.3h1.6c1.6,0,2.7-0.9,2.7-2.3c0-1.5-1.1-2.2-2.7-2.2c-0.7,0-1.3,0.1-1.5,0.1v4.4H504.9z"/>
		<path fill="#006BAC" d="M513.6,10.1l1.2,1.8c0.3,0.5,0.6,0.9,0.9,1.4h0.1c0.3-0.5,0.6-1,0.8-1.4l1.2-1.8h1.7l-2.9,4.1l3,4.4h-1.8
			l-1.3-1.9c-0.3-0.5-0.6-1-0.9-1.5l0,0c-0.3,0.5-0.6,1-0.9,1.5l-1.2,1.9h-1.7l3-4.4l-2.9-4.2L513.6,10.1L513.6,10.1z"/>
	</g>
</g>
<g id="DiningIcons">
	<g>
		<path fill="none" stroke="#FFFFFF" stroke-miterlimit="10" d="M458.2,3.5h-0.3c0,0-1.5,4.1,0.8,5.3c0.3,0.2,0.5,0.4,0.5,0.8
			c-0.1,3-1.4,11-0.3,12.3c0,0,0.3,0.2,0.6,0.2s0.6-0.1,0.7-0.2c1.1-1.3,0.2-9.6,0.2-12.3c0-0.6,0.5-0.9,0.6-0.9
			c0.9-0.5,1.6-0.8,1-5.2h-0.3L461.4,7c0,0-0.3,0.3-0.4-0.1c-0.2-0.6-0.4-3.4-0.4-3.4h-0.3c0,0-0.2,3.2-0.3,3.5
			c-0.1,0.4-0.4,0-0.4,0l-0.3-3.5h-0.2c0,0-0.2,2.5-0.4,3.4c-0.1,0.3-0.3,0.1-0.3,0.1C458.2,6.5,458.2,3.5,458.2,3.5z"/>
		<path fill="none" stroke="#FFFFFF" stroke-miterlimit="10" d="M463.6,6.2c-0.5,1.5-1.5,3.8-0.7,5.9c0.1,0.4,0.6,1.7,0.6,1.7
			s-0.7,8.2-0.3,8.1c0.1,0,1.2,0.4,1.4-0.2c0.4-3.4,1.5-16.9,1.5-18.8C465.6,2.8,464.2,4.6,463.6,6.2z"/>
	</g>
	<g>
		<path fill="#006BAC" d="M458.2,3.5h-0.3c0,0-1.5,4.1,0.8,5.3c0.3,0.2,0.5,0.4,0.5,0.8c-0.1,3-1.4,11-0.3,12.3c0,0,0.3,0.2,0.6,0.2
			s0.6-0.1,0.7-0.2c1.1-1.3,0.2-9.6,0.2-12.3c0-0.6,0.5-0.9,0.6-0.9c0.9-0.5,1.6-0.8,1-5.2h-0.3L461.4,7c0,0-0.3,0.3-0.4-0.1
			c-0.2-0.6-0.4-3.4-0.4-3.4h-0.3c0,0-0.2,3.2-0.3,3.5c-0.1,0.4-0.4,0-0.4,0l-0.3-3.5h-0.2c0,0-0.2,2.5-0.4,3.4
			c-0.1,0.3-0.3,0.1-0.3,0.1C458.2,6.5,458.2,3.5,458.2,3.5z"/>
		<path fill="#006BAC" d="M463.6,6.2c-0.5,1.5-1.5,3.8-0.7,5.9c0.1,0.4,0.6,1.7,0.6,1.7s-0.7,8.2-0.3,8.1c0.1,0,1.2,0.4,1.4-0.2
			c0.4-3.4,1.5-16.9,1.5-18.8C465.6,2.8,464.2,4.6,463.6,6.2z"/>
	</g>
</g>
<g id="ElevatorIcons">
	<g>
		<g>
			<g>
				<path fill="#FFFFFF" stroke="#FFFFFF" stroke-miterlimit="10" d="M159.3,13.6"/>
			</g>
		</g>
		<g>
			<g>
				<path fill="#FFFFFF" stroke="#FFFFFF" stroke-miterlimit="10" d="M162.3,14.4c-0.6,0-1,0.4-1,0.9v2.1c0,0.4,0.7,0.4,0.7,0v-1.9
					h0.2v5.2c0,0.6,0.9,0.5,0.9,0v-3.1h0.2v3.1c0,0.5,0.9,0.6,0.9,0v-5.2h0.2v1.9c0,0.4,0.7,0.4,0.7,0v-2c0-0.5-0.4-0.9-1-0.9
					L162.3,14.4L162.3,14.4z"/>
			</g>
			<g>
				<path fill="#FFFFFF" stroke="#FFFFFF" stroke-miterlimit="10" d="M163.2,14.2c0.4,0,0.8-0.3,0.8-0.7c0-0.4-0.4-0.7-0.8-0.7
					c-0.4,0-0.8,0.3-0.8,0.7C162.4,14,162.7,14.2,163.2,14.2z"/>
				<path fill="#FFFFFF" stroke="#FFFFFF" stroke-miterlimit="10" d="M163.2,13.6"/>
			</g>
		</g>
		<g>
			<path fill="#FFFFFF" stroke="#FFFFFF" stroke-miterlimit="10" d="M170.2,22h-14V11.6h14V22z M157,21.5h12.2
				c0.2,0,0.4-0.2,0.4-0.4v-8.6c0-0.2-0.2-0.4-0.4-0.4H157c-0.2,0-0.4,0.2-0.4,0.4v8.6C156.6,21.3,156.8,21.5,157,21.5z"/>
		</g>
		<g>
			<polygon fill="#FFFFFF" stroke="#FFFFFF" stroke-miterlimit="10" points="159.9,2.5 156.5,6.1 158.4,6.1 158.4,10.6 161.1,10.6 
				161.1,6.1 163,6.1 			"/>
			<polygon fill="#FFFFFF" stroke="#FFFFFF" stroke-miterlimit="10" points="167.7,7.1 167.7,2.5 165,2.5 165,7.1 163.1,7.1 
				166.1,10.6 169.8,7.1 			"/>
		</g>
	</g>
	<g>
		<g>
			<g>
				<path fill="#006BAC" d="M159.3,13.6"/>
			</g>
		</g>
		<g>
			<g>
				<path fill="#006BAC" d="M162.3,14.4c-0.6,0-1,0.4-1,0.9v2.1c0,0.4,0.7,0.4,0.7,0v-1.9h0.2v5.2c0,0.6,0.9,0.5,0.9,0v-3.1h0.2v3.1
					c0,0.5,0.9,0.6,0.9,0v-5.2h0.2v1.9c0,0.4,0.7,0.4,0.7,0v-2c0-0.5-0.4-0.9-1-0.9L162.3,14.4L162.3,14.4z"/>
			</g>
			<g>
				<path fill="#006BAC" d="M163.2,14.2c0.4,0,0.8-0.3,0.8-0.7c0-0.4-0.4-0.7-0.8-0.7c-0.4,0-0.8,0.3-0.8,0.7
					C162.4,14,162.7,14.2,163.2,14.2z"/>
				<path fill="#006BAC" d="M163.2,13.6"/>
			</g>
		</g>
		<g>
			<path fill="#006BAC" d="M170.2,22h-14V11.6h14V22z M157,21.5h12.2c0.2,0,0.4-0.2,0.4-0.4v-8.6c0-0.2-0.2-0.4-0.4-0.4H157
				c-0.2,0-0.4,0.2-0.4,0.4v8.6C156.6,21.3,156.8,21.5,157,21.5z"/>
		</g>
		<g>
			<polygon fill="#006BAC" points="159.9,2.5 156.5,6.1 158.4,6.1 158.4,10.6 161.1,10.6 161.1,6.1 163,6.1 			"/>
			<polygon fill="#006BAC" points="167.7,7.1 167.7,2.5 165,2.5 165,7.1 163.1,7.1 166.1,10.6 169.8,7.1 			"/>
		</g>
	</g>
</g>
<g id="ArtIcons">
	<g>
		<path fill="none" stroke="#FFFFFF" stroke-miterlimit="10" d="M416.2,13.9c-0.7-2.7-1.8-5.9-6.9-5.9c-3.4,0-6.1,2.6-6.1,5.3
			s1.7,5.6,5.1,4.8c1.1-0.3,1.7-0.6,2.7-0.1c1.1,0.5,2.2,2.4,3.4,2C415.8,19.5,416.8,16.4,416.2,13.9z M403.9,12.2
			c0-0.5,0.3-0.9,0.9-0.9c0.6,0,0.9,0.3,0.9,0.9c0,0.5-0.3,0.9-0.9,0.9C404.3,13.1,403.9,12.7,403.9,12.2z M405.1,15.6
			c-0.5,0-0.9-0.3-0.9-0.9c0-0.5,0.3-0.9,0.9-0.9c0.5,0,0.9,0.3,0.9,0.9C406,15.3,405.5,15.6,405.1,15.6z M406,10
			c0-0.5,0.3-0.9,0.9-0.9c0.5,0,0.9,0.3,0.9,0.9c0,0.5-0.3,0.9-0.9,0.9C406.4,10.7,406,10.4,406,10z M407.7,17.4
			c-0.5,0-0.9-0.3-0.9-0.9c0-0.5,0.3-0.9,0.9-0.9c0.5,0,0.9,0.3,0.9,0.9C408.6,17,408.1,17.4,407.7,17.4z M410,10.3
			c-0.5,0-0.9-0.3-0.9-0.9c0-0.5,0.3-0.9,0.9-0.9c0.5,0,0.9,0.3,0.9,0.9C410.9,9.9,410.5,10.3,410,10.3z M412,10.7
			c0-0.5,0.3-0.9,0.9-0.9c0.5,0,0.9,0.3,0.9,0.9c0,0.5-0.3,0.9-0.9,0.9C412.3,11.6,412,11.3,412,10.7z M414.8,18.4
			c-0.5,0.7-1.1,1-1.6,0.7c-0.5-0.2-0.5-1,0-1.7c0.5-0.7,1.1-1,1.6-0.7S415.3,17.8,414.8,18.4z"/>
		<g>
			<path fill="none" stroke="#FFFFFF" stroke-miterlimit="10" d="M411.9,18.2c0.6-0.8,1.2-2.6,2-4c0.8-1.5,1.2-1.9,1.5-2.4
				c0.3-0.6,1-1.6,1-1.6l-0.8-0.3c0,0-0.3,1.2-0.7,1.8c-0.3,0.6-0.9,1.6-1.5,2.4c-0.9,1.4-1.9,2.6-2.5,3.6c-1.1,1.6-1.8,3.6-1.8,3.7
				C409.2,21.5,410.9,19.8,411.9,18.2z"/>
			<path fill="none" stroke="#FFFFFF" stroke-miterlimit="10" d="M416,10.3c-0.2-0.1-0.3-0.5-0.3-0.9c0-0.5,0.1-0.7,0.7-1
				c0.6-0.3,1.6-1.5,1.7-2c0.1,0.6,0.5,3.6-1.1,4C416.4,10.4,416.2,10.3,416,10.3z"/>
		</g>
	</g>
	<g>
		<path fill="#312976" d="M416.2,13.9c-0.7-2.7-1.8-5.9-6.9-5.9c-3.4,0-6.1,2.6-6.1,5.3s1.7,5.6,5.1,4.8c1.1-0.3,1.7-0.6,2.7-0.1
			c1.1,0.5,2.2,2.4,3.4,2C415.8,19.5,416.8,16.4,416.2,13.9z M403.9,12.2c0-0.5,0.3-0.9,0.9-0.9c0.6,0,0.9,0.3,0.9,0.9
			c0,0.5-0.3,0.9-0.9,0.9C404.3,13.1,403.9,12.7,403.9,12.2z M405.1,15.6c-0.5,0-0.9-0.3-0.9-0.9c0-0.5,0.3-0.9,0.9-0.9
			c0.5,0,0.9,0.3,0.9,0.9C406,15.3,405.5,15.6,405.1,15.6z M406,10c0-0.5,0.3-0.9,0.9-0.9c0.5,0,0.9,0.3,0.9,0.9
			c0,0.5-0.3,0.9-0.9,0.9C406.4,10.7,406,10.4,406,10z M407.7,17.4c-0.5,0-0.9-0.3-0.9-0.9c0-0.5,0.3-0.9,0.9-0.9
			c0.5,0,0.9,0.3,0.9,0.9C408.6,17,408.1,17.4,407.7,17.4z M410,10.3c-0.5,0-0.9-0.3-0.9-0.9c0-0.5,0.3-0.9,0.9-0.9
			c0.5,0,0.9,0.3,0.9,0.9C410.9,9.9,410.5,10.3,410,10.3z M412,10.7c0-0.5,0.3-0.9,0.9-0.9c0.5,0,0.9,0.3,0.9,0.9
			c0,0.5-0.3,0.9-0.9,0.9C412.3,11.6,412,11.3,412,10.7z M414.8,18.4c-0.5,0.7-1.1,1-1.6,0.7c-0.5-0.2-0.5-1,0-1.7
			c0.5-0.7,1.1-1,1.6-0.7S415.3,17.8,414.8,18.4z"/>
		<g>
			<path fill="#006BAC" d="M411.9,18.2c0.6-0.8,1.2-2.6,2-4c0.8-1.5,1.2-1.9,1.5-2.4c0.3-0.6,1-1.6,1-1.6l-0.8-0.3
				c0,0-0.3,1.2-0.7,1.8c-0.3,0.6-0.9,1.6-1.5,2.4c-0.9,1.4-1.9,2.6-2.5,3.6c-1.1,1.6-1.8,3.6-1.8,3.7
				C409.2,21.5,410.9,19.8,411.9,18.2z"/>
			<path fill="#006BAC" d="M416,10.3c-0.2-0.1-0.3-0.5-0.3-0.9c0-0.5,0.1-0.7,0.7-1c0.6-0.3,1.6-1.5,1.7-2c0.1,0.6,0.5,3.6-1.1,4
				C416.4,10.4,416.2,10.3,416,10.3z"/>
		</g>
	</g>
</g>
<g id="WomenRestroomIcons_1_">
	<g>
		<path fill="none" stroke="#FFFFFF" stroke-miterlimit="10" d="M262.3,6.6c0.8,0,1.5-0.7,1.5-1.5s-0.7-1.5-1.5-1.5
			s-1.5,0.7-1.5,1.5C260.8,5.9,261.5,6.6,262.3,6.6z"/>
		<g>
			<path fill="none" stroke="#FFFFFF" stroke-miterlimit="10" d="M262.1,15.7v4.9c0,0.9-1.4,0.9-1.4,0v-4.9h-1.8l1.9-6.7h-0.3
				l-1.2,3.8c-0.3,0.9-1.5,0.5-1.2-0.4l1.3-4.1c0.1-0.5,0.8-1.4,1.7-1.4h1l0,0h1.1c1.1,0,1.6,0.9,1.8,1.4l1.3,4.1
				c0.3,0.9-0.9,1.3-1.2,0.4L263.9,9h-0.3l1.9,6.7h-1.8v4.9c0,0.9-1.4,0.9-1.4,0v-4.9H262.1L262.1,15.7z"/>
		</g>
	</g>
	<g>
		<path fill="#006BAC" d="M262.3,6.6c0.8,0,1.5-0.7,1.5-1.5s-0.7-1.5-1.5-1.5s-1.5,0.7-1.5,1.5C260.8,5.9,261.5,6.6,262.3,6.6z"/>
		<g>
			<path fill="#006BAC" d="M262.1,15.7v4.9c0,0.9-1.4,0.9-1.4,0v-4.9h-1.8l1.9-6.7h-0.3l-1.2,3.8c-0.3,0.9-1.5,0.5-1.2-0.4l1.3-4.1
				c0.1-0.5,0.8-1.4,1.7-1.4h1l0,0h1.1c1.1,0,1.6,0.9,1.8,1.4l1.3,4.1c0.3,0.9-0.9,1.3-1.2,0.4L263.9,9h-0.3l1.9,6.7h-1.8v4.9
				c0,0.9-1.4,0.9-1.4,0v-4.9H262.1L262.1,15.7z"/>
		</g>
	</g>
</g>
<g id="MenRestroomIcons_1_">
	<g>
		<path fill="#FCFCFC" stroke="#FFFFFF" stroke-miterlimit="10" d="M312.3,6.6c0.8,0,1.5-0.7,1.5-1.5s-0.7-1.5-1.5-1.5
			s-1.5,0.7-1.5,1.5C310.8,5.9,311.5,6.6,312.3,6.6z"/>
		<g>
			<path fill="#FCFCFC" stroke="#FFFFFF" stroke-miterlimit="10" d="M310.7,7c-1.1,0-1.8,0.9-1.8,1.9v4.4c0,0.9,1.3,0.9,1.3,0v-4
				h0.3v11.2c0,1.2,1.6,1.2,1.6,0v-6.6h0.3v6.6c0,1.2,1.6,1.2,1.6,0V9.3h0.3v4c0,0.9,1.3,0.9,1.3,0V8.9c0-1-0.8-1.9-1.8-1.9H310.7
				L310.7,7z"/>
		</g>
	</g>
	<g>
		<path fill="#006BAC" d="M312.3,6.6c0.8,0,1.5-0.7,1.5-1.5s-0.7-1.5-1.5-1.5s-1.5,0.7-1.5,1.5C310.8,5.9,311.5,6.6,312.3,6.6z"/>
		<g>
			<path fill="#006BAC" d="M310.7,7c-1.1,0-1.8,0.9-1.8,1.9v4.4c0,0.9,1.3,0.9,1.3,0v-4h0.3v11.2c0,1.2,1.6,1.2,1.6,0v-6.6h0.3v6.6
				c0,1.2,1.6,1.2,1.6,0V9.3h0.3v4c0,0.9,1.3,0.9,1.3,0V8.9c0-1-0.8-1.9-1.8-1.9H310.7L310.7,7z"/>
		</g>
	</g>
</g>
</svg>
