<?xml version="1.0" encoding="utf-8"?>
<!-- Generator: Adobe Illustrator 21.0.2, SVG Export Plug-In . SVG Version: 6.00 Build 0)  -->
<svg version="1.1" id="Layer_1" xmlns="http://www.w3.org/2000/svg" xmlns:xlink="http://www.w3.org/1999/xlink" x="0px" y="0px"
	 viewBox="0 0 40 40" enable-background="new 0 0 40 40" xml:space="preserve">
<g id="left_lane_to_take_the_slip_road---Merge">
	<g>
		<g>
			<rect x="18.103" y="3.784" fill="#80C341" width="3.792" height="16.216"/>
			<polygon fill="#80C341" points="31.088,12.338 19.799,5.799 8.894,12.039 6.835,9.222 19.812,1.797 33.165,9.531 			"/>
		</g>
		<path fill="#80C341" d="M28.204,20.789c-1.999-2.113-4.762-3.22-8.204-3.318v-0.019c-0.084,0-0.162,0.008-0.246,0.01
			c-0.083-0.001-0.162-0.01-0.246-0.01v0.019c-3.442,0.098-6.206,1.205-8.205,3.318C8.002,24.28,8.076,29.241,8.1,29.893v8.31h3.801
			v-8.351c0-0.035-0.001-0.07-0.003-0.105c-0.003-0.038-0.148-3.898,2.167-6.347c1.305-1.379,3.222-2.093,5.691-2.139
			c2.457,0.045,4.367,0.753,5.671,2.12c2.343,2.456,2.188,6.334,2.186,6.365c-0.002,0.035-0.003,0.07-0.003,0.105v8.351h3.801v-8.31
			C31.434,29.241,31.506,24.279,28.204,20.789z"/>
	</g>
</g>
</svg>
