<?xml version="1.0" encoding="utf-8"?>
<!-- Generator: Adobe Illustrator 21.0.2, SVG Export Plug-In . SVG Version: 6.00 Build 0)  -->
<svg version="1.1" id="Layer_1" xmlns="http://www.w3.org/2000/svg" xmlns:xlink="http://www.w3.org/1999/xlink" x="0px" y="0px"
	 viewBox="0 0 40 40" enable-background="new 0 0 40 40" xml:space="preserve">
<g id="slight_left" display="none">
	<g display="inline">
		<g>
			<polygon fill="#80C341" points="28.49,40 24.703,40 24.703,16.31 13.332,6.623 15.787,3.74 28.49,14.561 			"/>
		</g>
		<polygon fill="#80C341" points="15.288,15.487 11.51,15.237 12.266,3.822 22.701,0 24.004,3.556 15.882,6.531 		"/>
	</g>
</g>
<g id="slight_right" display="none">
	<g display="inline">
		<g>
			<polygon fill="#80C341" points="11.51,40 15.297,40 15.297,16.31 26.669,6.623 24.213,3.74 11.51,14.561 			"/>
		</g>
		<polygon fill="#80C341" points="24.712,15.487 28.49,15.237 27.734,3.822 17.299,0 15.996,3.556 24.118,6.531 		"/>
	</g>
</g>
<g id="left" display="none">
	<g display="inline">
		<rect x="11.002" y="7.244" fill="#80C341" width="18.269" height="3.789"/>
		<polygon fill="#80C341" points="16.96,18.169 19.712,15.564 13.25,8.738 19.71,2.787 17.143,0 7.858,8.553 		"/>
		<rect x="28.353" y="7.244" fill="#80C341" width="3.789" height="32.756"/>
	</g>
</g>
<g id="right" display="none">
	<g display="inline">
		<rect x="10.729" y="7.244" fill="#80C341" width="18.269" height="3.789"/>
		<polygon fill="#80C341" points="23.04,18.169 20.288,15.564 26.75,8.738 20.29,2.787 22.857,0 32.142,8.553 		"/>
		<rect x="7.858" y="7.244" fill="#80C341" width="3.789" height="32.756"/>
	</g>
</g>
<g id="straight" display="none">
	<g display="inline">
		<rect x="18.103" y="2.246" fill="#80C341" width="3.792" height="37.754"/>
		<polygon fill="#80C341" points="31.088,11.913 19.8,4.523 8.894,11.575 6.835,8.391 19.812,0 33.165,8.74 		"/>
	</g>
</g>
<g id="Layer_6" display="none">
	<path display="inline" fill="#FF9800" d="M20,0.5L20,0.5c-7.95,0-14.368,6.297-14.368,14.095c0,2.719,0.885,5.315,2.116,7.449
		l9.365,15.899C17.7,38.981,18.883,39.5,20,39.5c1.115,0,2.242-0.519,2.886-1.558l9.365-15.889c1.241-2.134,2.117-4.683,2.117-7.449
		C34.368,6.806,27.949,0.5,20,0.5z M20,18.758c-2.887,0-5.245-2.313-5.245-5.145c0-2.833,2.358-5.145,5.245-5.145
		c2.886,0,5.244,2.313,5.244,5.145C25.244,16.454,22.886,18.758,20,18.758z"/>
</g>
<g id="Layer_7" display="none">
	<path display="inline" fill="#EF372C" d="M20,0.5L20,0.5c-7.95,0-14.368,6.297-14.368,14.095c0,2.719,0.885,5.315,2.116,7.449
		l9.365,15.899C17.7,38.981,18.883,39.5,20,39.5c1.115,0,2.242-0.519,2.886-1.558l9.365-15.889c1.241-2.134,2.117-4.683,2.117-7.449
		C34.368,6.806,27.949,0.5,20,0.5z M20,18.758c-2.887,0-5.245-2.313-5.245-5.145c0-2.833,2.358-5.145,5.245-5.145
		c2.886,0,5.244,2.313,5.244,5.145C25.244,16.454,22.886,18.758,20,18.758z"/>
</g>
<g id="Layer_8" display="none">
	<g id="Layer_3" display="inline">
		<g>
			<g>
				<path fill="#FF9800" d="M7.519,0.723C6.677,0.723,6,1.582,6,2.64v34.718c0,1.061,0.677,1.919,1.519,1.919
					c0.837,0,1.519-0.858,1.519-1.919V2.64C9.04,1.582,8.358,0.723,7.519,0.723z M29.227,11.22c-0.266-0.45-0.261-1.053,0.007-1.461
					c1.435-2.165,2.914-3.941,4.309-5.358c1.23-1.249-0.372-2.159-0.733-2.349c-7.32-3.889-14.634,4.249-21.948,1.772v19.211
					c7.326,2.479,14.651-5.696,21.98-1.754c0.357,0.188,0.681,0.141,0.839-0.155c0.158-0.299,0.121-0.812-0.101-1.313
					C32.129,16.501,30.678,13.697,29.227,11.22z"/>
			</g>
		</g>
	</g>
</g>
<g id="Layer_9" display="none">
	<g display="inline">
		<path fill="#80C341" d="M23.253,21.487v-7.778c0-4.458-2.603-8.086-7.031-8.086c-4.419,0-7.014,3.627-7.014,8.086V38.35H5.31
			V13.709C5.31,7.06,9.654,1.65,16.222,1.65c6.58,0,10.933,5.41,10.933,12.059l0.023,7.778H23.253z"/>
		<polygon fill="#80C341" points="34.69,16.971 32.085,14.219 25.258,20.681 19.308,14.22 16.521,16.788 25.073,26.073 		"/>
	</g>
</g>
<g id="Layer_10" display="none">
	<g display="inline">
		<path fill="#80C341" d="M16.747,21.487v-7.778c0-4.458,2.603-8.086,7.031-8.086c4.419,0,7.014,3.627,7.014,8.086V38.35h3.898
			V13.709c0-6.649-4.344-12.059-10.912-12.059c-6.58,0-10.933,5.41-10.933,12.059l-0.023,7.778H16.747z"/>
		<polygon fill="#80C341" points="5.31,16.971 7.915,14.219 14.742,20.681 20.692,14.22 23.479,16.788 14.927,26.073 		"/>
	</g>
</g>
<g id="Layer_11">
	<g>
		<path fill="#80C341" d="M21.067,0.5c3.585,0,6.652,1.269,9.19,3.808c2.538,2.54,3.81,5.604,3.81,9.192
			c0,3.59-1.273,6.652-3.81,9.192c-2.538,2.538-5.605,3.808-9.19,3.808h-6.501v13H5.933v-39H21.067z M21.574,17.867
			c1.151,0,2.147-0.422,2.996-1.269c0.844-0.847,1.268-1.88,1.268-3.098c0-1.219-0.423-2.25-1.268-3.098
			c-0.849-0.845-1.846-1.27-2.996-1.27h-7.008v8.735H21.574z"/>
	</g>
</g>
</svg>
