<svg id="Layer_1" data-name="Layer 1" xmlns="http://www.w3.org/2000/svg" width="973" height="26" viewBox="0 0 973 26"><defs><style>.cls-1{fill:#494da0;}.cls-1,.cls-10,.cls-11,.cls-12,.cls-14,.cls-15,.cls-17,.cls-18,.cls-19,.cls-22,.cls-4,.cls-5,.cls-6,.cls-7,.cls-8,.cls-9{stroke:#fff;}.cls-1,.cls-10,.cls-11,.cls-12,.cls-14,.cls-15,.cls-17,.cls-18,.cls-19,.cls-20,.cls-22,.cls-4,.cls-5,.cls-6,.cls-7,.cls-8,.cls-9{stroke-miterlimit:10;}.cls-2,.cls-20{fill:#fff;}.cls-3{fill:#188daf;}.cls-4,.cls-9{fill:none;}.cls-5{fill:#625ba8;}.cls-6{fill:#57b1c9;}.cls-7{fill:#f05f8e;}.cls-8{fill:#c8dc67;}.cls-9{stroke-width:4px;}.cls-10{fill:#80af6b;}.cls-11,.cls-12{fill:#2c5398;}.cls-12{stroke-linecap:round;stroke-width:0.25px;}.cls-13{fill:#0b8241;}.cls-14{fill:#f15c4b;}.cls-15{fill:#4d586e;}.cls-16{fill:#ea9892;}.cls-17{fill:#8b7f99;}.cls-18{fill:#f9bf39;}.cls-19,.cls-21{fill:#30124c;}.cls-20{stroke:#30124c;}.cls-22{fill:#4f3f24;}</style></defs><title>IMG_25102018_201745_0</title><g id="DiningIcon"><circle class="cls-1" cx="13" cy="13.05" r="12"/></g><path class="cls-2" d="M8.13,5.82a28.69,28.69,0,0,1,4.29-.29,6.83,6.83,0,0,1,4.29,1.11A4.06,4.06,0,0,1,18.2,9.87a4.28,4.28,0,0,1-1.3,3.33,6.55,6.55,0,0,1-4.58,1.49,6.81,6.81,0,0,1-1.06,0v5H8.13V5.82Zm3.13,6.36a6.14,6.14,0,0,0,1.06.1c1.69,0,2.75-.87,2.75-2.27s-.92-2.07-2.46-2.07a4,4,0,0,0-1.3.14v4.1Z"/><g id="InformationIcon_v1"><circle class="cls-3" cx="212.26" cy="13.05" r="12"/><circle class="cls-4" cx="212.26" cy="13.05" r="12"/><path class="cls-2" d="M214.43,6.25a2,2,0,0,1-1.88,2,2.18,2.18,0,0,1-2-2,2,2,0,0,1,2-2,2,2,0,0,1,1.88,2m-3.76,5.49h-1.88v-.87h1.88c1.23,0,2.6-.14,3.69-.14V21.51H216v.87h-7.16v-.87h1.81V11.75Z"/></g><g id="WaitingIcons_v2"><circle class="cls-5" cx="262.08" cy="13.05" r="12"/><polygon class="cls-2" points="267.29 13.85 262.51 13.05 263.17 12.54 264.32 12.76 265.48 12.54 267.29 13.85"/><path class="cls-2" d="M264.32,4.81a1.76,1.76,0,0,1,1.73,1.73,1.63,1.63,0,0,1-1.73,1.73,1.73,1.73,0,0,1,0-3.47"/><path class="cls-2" d="M264.76,17.39v4.19a.94.94,0,1,0,1.88,0V17.39a1,1,0,0,0-.94-.94.91.91,0,0,0-.94.94"/><path class="cls-2" d="M261.36,14.35a1,1,0,0,0,.8,1.08l4.12.65a1,1,0,1,0,.29-1.88l-4.12-.65a1,1,0,0,0-1.08.8"/><path class="cls-2" d="M264.32,9.65l2.24-.36v1.59l1.08.87a.43.43,0,0,1,.07.29.43.43,0,0,1-.29.07L266.06,11a.62.62,0,1,0-.72,1l2.39,1.66a.72.72,0,0,0,.87,0,.8.8,0,0,0,.29-.8L268,10.3a2,2,0,0,0-1.73-1.45h-3.69a2,2,0,0,0-1.73,1.45l-.87,2.6a.72.72,0,0,0,.29.8.72.72,0,0,0,.87,0L263.53,12a.62.62,0,1,0-.72-1l-1.37,1.08a.18.18,0,0,1-.29-.07.25.25,0,0,1,.07-.29l1.08-.87V9.29Z"/><path class="cls-2" d="M270.61,19.77a.57.57,0,0,1-.58.58h-2.89V17.6h1.23V14.86a.57.57,0,0,1,.58-.58H270a.57.57,0,0,1,.58.58Z"/><path class="cls-2" d="M264.32,20.35h-5.64a.57.57,0,0,1-.58-.58v-5a.57.57,0,0,1,.58-.58h1.08a.57.57,0,0,1,.58.58v2.75h4Z"/><path class="cls-2" d="M256.66,9.15a2.46,2.46,0,1,1,2.46-2.46,2.44,2.44,0,0,1-2.46,2.46m0-.58a1.88,1.88,0,1,0-1.88-1.88,2,2,0,0,0,1.88,1.88"/><path class="cls-2" d="M256.66,7h-.14c-.07,0-.07-.07-.07-.14V5.46a.22.22,0,1,1,.43,0V6.54l.94-.43a.16.16,0,1,1,.14.29Z"/></g><g id="UnisexRestroom_v2"><circle class="cls-6" cx="461.34" cy="13.05" r="12"/><path class="cls-7" d="M461.34,1a12,12,0,1,0,0,24Z"/><path class="cls-2" d="M467.06,7.7a1.3,1.3,0,1,0-1.3-1.3,1.3,1.3,0,0,0,1.3,1.3"/><path class="cls-2" d="M468.5,8.06a1.64,1.64,0,0,1,1.66,1.66v4a.57.57,0,0,1-.58.58.62.62,0,0,1-.58-.58V10.16h-.29v10a.74.74,0,0,1-.8.72.79.79,0,0,1-.8-.72V14.42h-.29v5.78a.74.74,0,0,1-.8.72.79.79,0,0,1-.8-.72v-10H465v3.61a.58.58,0,1,1-1.16,0v-4a1.64,1.64,0,0,1,1.66-1.66Z"/><path class="cls-2" d="M456.43,15.8v4.55a.58.58,0,1,0,1.16,0V15.8h1.66l-1.73-6h.29s.94,3.18,1.08,3.54a.52.52,0,0,0,.65.36c.29-.07.36-.36.29-.65s-.65-2.24-1.08-3.83A1.71,1.71,0,0,0,457.3,8h-2.1a1.61,1.61,0,0,0-1.45,1.23c-.51,1.66-1.08,3.61-1.16,3.83a.53.53,0,1,0,1,.29c.14-.36,1.08-3.54,1.08-3.54H455l-1.73,6h1.66v4.55a.58.58,0,1,0,1.16,0V15.8Z"/><path class="cls-2" d="M456.28,7.7A1.3,1.3,0,1,0,455,6.4a1.3,1.3,0,0,0,1.3,1.3"/></g><g id="StairIcon_v1"><circle class="cls-8" cx="411.53" cy="13.05" r="12"/><g id="Stair_Icon"><polyline id="StairIcon" class="cls-9" points="418.61 6.47 414.27 6.47 414.27 10.81 409.87 10.81 409.87 15.22 405.53 15.22 405.53 19.56"/></g></g><g id="ElevatorIcons_v1"><circle class="cls-10" cx="361.71" cy="13.05" r="12"/><path class="cls-2" d="M364.82,9.07a1.34,1.34,0,0,1,2.67,0v5.28l1.3-1.73c.87-1.08,2.67.43,1.52,1.52l-3.33,4c-.65.65-1.3.65-1.73,0l-3.11-4c-.87-1.08.65-2.67,1.52-1.52l1.3,1.73"/><path class="cls-2" d="M355.71,17a1.34,1.34,0,0,0,2.67,0V11.75l1.3,1.73c.87,1.08,2.67-.43,1.52-1.52l-3.33-4c-.65-.65-1.3-.65-1.73,0L353,12c-1.08,1.08.65,2.46,1.52,1.52l1.3-1.73"/></g><g id="ElevatorIcons_v3"><circle class="cls-10" cx="859.87" cy="13.05" r="12"/><path class="cls-2" d="M863,9.07a1.34,1.34,0,0,1,2.67,0v5.28l1.3-1.73c.87-1.08,2.67.43,1.52,1.52l-3.33,4c-.65.65-1.3.65-1.73,0l-3.11-4c-.87-1.08.65-2.67,1.52-1.52l1.3,1.73"/><path class="cls-2" d="M853.87,17a1.34,1.34,0,0,0,2.67,0V11.75l1.3,1.73c.87,1.08,2.67-.43,1.52-1.52L856,8c-.65-.65-1.3-.65-1.73,0l-3.11,4c-1.08,1.08.65,2.46,1.52,1.52l1.3-1.73"/></g><g id="Regular_Blue"><polygon id="EntranceIcon_v1" class="cls-11" points="100.63 23.43 112.63 2.67 124.63 23.43 100.63 23.43"/></g><g id="WheelchairIcons"><g id="handicap"><g id="WheelchairIcon"><path class="cls-12" d="M159.71,5.18a2.07,2.07,0,0,0,0-4.13,2.13,2.13,0,0,0-2.14,2.07,2.18,2.18,0,0,0,2.14,2.07"/><path class="cls-12" d="M169,19.85l-3.85-6.41a1.23,1.23,0,0,0-1-.57h-5l1.07-4.7h0a1.39,1.39,0,0,0,.07-.57,1.91,1.91,0,0,0-1.92-1.92,1.79,1.79,0,0,0-1.42.64l-3.85,1.14a.81.81,0,0,0-.57,1l.64,2.78a7.73,7.73,0,0,0-2.78,6,7.82,7.82,0,0,0,15,3.06l-1.21-2a6.14,6.14,0,0,1-12.18-1.14A6,6,0,0,1,153.72,13a.87.87,0,0,0,.78.21.82.82,0,0,0,.64-1l-.71-3.42,1.92-.57-1.21,5.48v.36a1.91,1.91,0,0,0,1.5,1.85,2,2,0,0,0,.64.07h6.84l3,5.06a1.18,1.18,0,0,0,1.64.43,1.36,1.36,0,0,0,.28-1.64"/></g></g></g><g id="RestroomIcons_Women"><circle class="cls-7" cx="511.16" cy="13.05" r="12"/><g id="WomensRestroom_v1"><path class="cls-2" d="M510.73,16.59v5.28a.72.72,0,0,0,1.45,0V16.59h2l-2-7h.36s1.08,3.69,1.23,4.19a.54.54,0,0,0,.72.36.6.6,0,0,0,.36-.72c-.07-.22-.72-2.6-1.3-4.48a2,2,0,0,0-1.73-1.45h-2.46a2.1,2.1,0,0,0-1.73,1.45c-.58,1.88-1.23,4.26-1.3,4.48a.6.6,0,0,0,.36.72.56.56,0,0,0,.72-.36c.14-.43,1.23-4.19,1.23-4.19h.36l-2.1,7h2v5.28a.72.72,0,1,0,1.45,0V16.59Z"/><path class="cls-2" d="M510.58,7.19a1.48,1.48,0,0,0,1.52-1.52,1.52,1.52,0,1,0-3,0,1.53,1.53,0,0,0,1.52,1.52"/></g></g><g id="RestroomIcons_Men"><circle class="cls-6" cx="560.98" cy="13.05" r="12"/><g id="MensRestroom_v1"><path class="cls-2" d="M561,6.83a1.48,1.48,0,0,0,1.52-1.52,1.52,1.52,0,1,0-3,0A1.48,1.48,0,0,0,561,6.83"/><path class="cls-2" d="M562.64,7.27a1.94,1.94,0,0,1,2,2v4.7a.65.65,0,1,1-1.3,0V9.65h-.36V21.44a.88.88,0,0,1-.87.87.84.84,0,0,1-.87-.87v-6.8h-.36v6.8a.87.87,0,0,1-1.73,0V9.65h-.36v4.26a.65.65,0,0,1-1.3,0V9.22a1.94,1.94,0,0,1,2-2Z"/></g></g><g id="ATMIcon"><circle class="cls-13" cx="610.79" cy="13.05" r="12"/><circle class="cls-4" cx="610.79" cy="13.05" r="12"/><g id="ATMIcon_v1"><path class="cls-2" d="M610.14,17.75V13.63A5.34,5.34,0,0,1,607.32,12a4.24,4.24,0,0,1-.87-2.67,3.84,3.84,0,0,1,1-2.67,3.88,3.88,0,0,1,2.67-1.23V4.45h1.45v.94A4.3,4.3,0,0,1,614,6.47a3.75,3.75,0,0,1,1.16,2.39l-2.46.29a2.1,2.1,0,0,0-1.16-1.59v3.83a6.75,6.75,0,0,1,3.25,1.66,3.77,3.77,0,0,1,.87,2.6,4.6,4.6,0,0,1-1.08,3,5.09,5.09,0,0,1-3,1.52V22h-1.45V20.21a4.47,4.47,0,0,1-2.75-1.3,5.4,5.4,0,0,1-1.37-3l2.6-.29a2.94,2.94,0,0,0,.58,1.37A2.33,2.33,0,0,0,610.14,17.75Zm0-10.34a2.2,2.2,0,0,0-.94.65,1.73,1.73,0,0,0-.36,1,1.45,1.45,0,0,0,.29.94,2.49,2.49,0,0,0,.94.72V7.41Zm1.37,10.48a2.05,2.05,0,0,0,1.23-.65,2,2,0,0,0,.43-1.3,2.19,2.19,0,0,0-.36-1.16,2.47,2.47,0,0,0-1.3-.72v3.83Z"/></g></g><g id="DiningIcon-2" data-name="DiningIcon"><circle class="cls-14" cx="660.61" cy="13.05" r="12"/><path class="cls-2" d="M663.65,22.66h-.51a.49.49,0,0,1-.51-.51V15.87l.22-1.16v-.8l-.07-1.08c0-.07,0-.07-.07-.14l-.51-.43a1.57,1.57,0,0,1-.22-.36A11.26,11.26,0,0,1,662,9a38.48,38.48,0,0,1,.72-4.34,1.53,1.53,0,0,1,1-1.08h0a.28.28,0,0,1,.36.22V22.16A.41.41,0,0,1,663.65,22.66Z"/><path class="cls-2" d="M660.25,3.58h0c0-.07-.07-.14-.22-.14a.23.23,0,0,0-.22.22h0l-.07,4h0a.22.22,0,1,1-.43,0h0l-.07-4h0c0-.07-.07-.14-.22-.14s-.14.07-.22.14h0l-.07,4.12h0a.22.22,0,1,1-.43,0h0l-.07-4.12h0a.14.14,0,0,0-.29,0h0l-.07,4.12h0a.22.22,0,1,1-.43,0l-.07-4h0c0-.07-.07-.14-.22-.14s-.14.07-.22.14h0l-.29,5.06a.9.9,0,0,0,.87.94h0a.16.16,0,0,1,.14.14v.07a12.52,12.52,0,0,1,.07,3.25l-.14,1.16v8.1a.47.47,0,0,0,.43.43h.65a.47.47,0,0,0,.43-.43v-8.1l-.14-1.16A8.31,8.31,0,0,1,659,9.94V9.87a.16.16,0,0,1,.14-.14.9.9,0,0,0,.87-.94Z"/></g><g id="PharmacyIcon"><circle class="cls-15" cx="810.06" cy="13.05" r="12"/><path id="PharmacyIcon_v1" class="cls-2" d="M815.48,14.35l2.67-3.76H815.7l-1.45,2.17-1.37-2.17h-2.17a2.67,2.67,0,0,0-.51-1.66,2.42,2.42,0,0,0-1.3-1.08,7.28,7.28,0,0,0-2.53-.29h-4.63v11H804V14h.43a3.53,3.53,0,0,1,1.08.14,1.71,1.71,0,0,1,.65.43,13.16,13.16,0,0,1,1.16,1.59l1.59,2.39h3.69l1.66-2.46,1.59,2.46h2.6Zm-9.9-2.1h-1.66V9.51h1.73a7.14,7.14,0,0,1,1.59.07,1.65,1.65,0,0,1,.87.43,1.15,1.15,0,0,1,.29.87,1.3,1.3,0,0,1-.22.8,1.05,1.05,0,0,1-.65.43A9.46,9.46,0,0,1,805.57,12.25Zm5.86,4.41h-1.08l-.14-.22A14.64,14.64,0,0,0,809,14.64a5,5,0,0,0-1.16-.94,3.81,3.81,0,0,0,2.17-1,3,3,0,0,0,.72-1.59l2.39,3.33Z"/></g><g id="PicnicTableIcon"><circle class="cls-16" cx="909.69" cy="13.05" r="12"/><circle class="cls-4" cx="909.69" cy="13.05" r="12"/><path class="cls-2" d="M902.82,9.44h13.73a.72.72,0,0,0,0-1.45H902.82a.72.72,0,0,0,0,1.45Z"/><path class="cls-2" d="M917.93,12.4h-3.18L913.45,10h-7.59l-1.3,2.39h-3.18a.72.72,0,0,0,0,1.45h2.39L902.1,17a.74.74,0,1,0,1.3.72l2-3.83h8.39l2,3.83a.76.76,0,0,0,.65.36.65.65,0,0,0,.36-.07.73.73,0,0,0,.29-1l-1.66-3.18h2.39a.68.68,0,0,0,.72-.72C918.58,12.69,918.36,12.4,917.93,12.4Zm-11.71,0,.51-.94h5.86l.51.94Z"/></g><g id="LoungeIcon"><circle class="cls-17" cx="311.9" cy="13.05" r="12"/><path class="cls-2" d="M308,15.07a.4.4,0,0,0,.36.22h7.08a.4.4,0,0,0,.36-.22l.65-1.37c.07-.07,0-.14-.07-.22a14.6,14.6,0,0,0-9,0,.14.14,0,0,0-.07.22Z"/><path class="cls-2" d="M320.5,12.25A1.38,1.38,0,0,0,319.27,11a1.57,1.57,0,0,0-1.52.8h0l-.87,1.88h0l-.8,1.59a.64.64,0,0,1-.58.36h-7.3a.74.74,0,0,1-.58-.36l-.8-1.59h0l-.43-1h0l-.43-.94h0a1.32,1.32,0,0,0-1.52-.8,1.38,1.38,0,0,0-1.23,1.23,1.42,1.42,0,0,0,.94,1.52l.51,2.89v.07a.57.57,0,0,0,.58.58h13.23a.57.57,0,0,0,.58-.58v-.07l.51-2.89A1.33,1.33,0,0,0,320.5,12.25Z"/><path class="cls-2" d="M316.74,6.76h-9.69c-2.67,0-2.6,3.9-2.6,3.9h.22a2,2,0,0,1,1.73,1c0,.07.07.07.07.14l.65,1.37c0,.07.07.07.14.07a13.47,13.47,0,0,1,4.7-.8,12.19,12.19,0,0,1,4.7.8c.07,0,.14,0,.14-.07l.65-1.37c0-.07,0-.07.07-.14a2,2,0,0,1,1.73-1h.22C319.41,10.59,319.49,6.76,316.74,6.76Z"/><path class="cls-2" d="M306.4,19.41h0a1,1,0,0,1-1-1v-.8h2v.8A1,1,0,0,1,306.4,19.41Z"/><path class="cls-2" d="M317.46,19.41h0a1,1,0,0,1-1-1v-.8h2v.8A1,1,0,0,1,317.46,19.41Z"/></g><g id="GiftShopIcon"><circle class="cls-18" cx="760.24" cy="13.05" r="12"/><path class="cls-2" d="M756.12,8.93h1.08a1.55,1.55,0,0,1-.72-2,1.54,1.54,0,0,1,2.17-.36,2.19,2.19,0,0,1,.94,1.23l-.43.72a.24.24,0,0,0,.22.36h1.81a.24.24,0,0,0,.22-.36l-.29-.51a1.85,1.85,0,0,1,.72-.94,1.47,1.47,0,0,1,1.88.29c.29.51,0,1.08-.51,1.52h.87a1.73,1.73,0,0,0,.51-2.1,2,2,0,0,0-2.67-.43,2.72,2.72,0,0,0-1.08,1.3.87.87,0,0,0-1-.14,3,3,0,0,0-1.3-1.73c-1.23-.65-2.67-.43-3.18.58A2.08,2.08,0,0,0,756.12,8.93Z"/><path class="cls-2" d="M763.57,9.29h-9.69V11.6h.8v8.82h11.13V11.6h.8V9.29Zm-8.89,1.59V10h4.12v.87Zm10.48,3.54h-3.33V11.6h3.33Zm-6.43-2.82v2.82H755.4V11.6Zm-3.33,5.93h3.33v2.24H755.4Zm6.43,2.17V17.46h3.33V19.7ZM766,10.88h-4.12V10H766Z"/></g><g id="PianoIcon"><circle class="cls-19" cx="959.5" cy="13.05" r="12"/><path class="cls-20" d="M955.6,20.86h-3a.84.84,0,0,1-.87-.87V6.11a.84.84,0,0,1,.87-.87h3Z"/><rect class="cls-20" x="955.6" y="5.24" width="3.9" height="15.61"/><rect class="cls-20" x="959.5" y="5.24" width="3.9" height="15.61"/><path class="cls-20" d="M966.37,20.86h-3V5.24h3a.84.84,0,0,1,.87.87V20A.88.88,0,0,1,966.37,20.86Z"/><rect class="cls-21" x="954.52" y="5.24" width="2.39" height="8.89"/><rect class="cls-21" x="958.28" y="5.24" width="2.39" height="8.89"/><rect class="cls-21" x="962.11" y="5.24" width="2.39" height="8.89"/></g><g id="CafeIcon"><circle class="cls-22" cx="710.42" cy="13.05" r="12"/><path id="CoffeeIcon" class="cls-2" d="M715.41,14.57v-.65h.29a3.11,3.11,0,0,0,0-6.22H705.36v6.87a1.53,1.53,0,0,0,1.52,1.52h6.94a1.46,1.46,0,0,0,1.59-1.52m.36-1.88h-.29V8.93h.29a1.88,1.88,0,1,1,0,3.76m-14.17,3.9a1.79,1.79,0,0,0,1.81,1.81h14.1a1.79,1.79,0,0,0,1.81-1.81Z"/></g><g id="ValetIcon"><circle class="cls-1" cx="62.82" cy="13.05" r="12"/><g id="ValetIcon_v2"><path class="cls-2" d="M72.36,12.33l-.58-.58a1.47,1.47,0,0,0-1.08-.43H62.24a4.79,4.79,0,0,0-4.55-3.18,4.84,4.84,0,1,0,0,9.69,4.93,4.93,0,0,0,3.9-2h1.73l1.23-1.23,1.23,1.23L67,14.64l1.23,1.23,1.23-1.23,1.23,1.23h.43l1.16-2A1.14,1.14,0,0,0,72.36,12.33ZM55.88,14.5a1.52,1.52,0,1,1,0-3A1.58,1.58,0,0,1,57.39,13,1.48,1.48,0,0,1,55.88,14.5Z"/></g></g></svg>