<?xml version="1.0" encoding="utf-8"?>
<!-- Generator: Adobe Illustrator 21.0.2, SVG Export Plug-In . SVG Version: 6.00 Build 0)  -->
<svg version="1.1" xmlns="http://www.w3.org/2000/svg" xmlns:xlink="http://www.w3.org/1999/xlink" x="0px" y="0px"
	 viewBox="0 0 40 40" enable-background="new 0 0 40 40" xml:space="preserve">
<g id="Layer_1">
	<rect x="7.088" y="6.531" fill="#FFFFFF" width="25.824" height="26.939"/>
	<g>
		<g>
			<path fill="#FF9800" d="M29.978,4.907c-0.283-0.268-0.63-0.401-1.04-0.401H1.964c-0.409,0-0.756,0.134-1.039,0.401
				C0.642,5.175,0.5,5.513,0.5,5.923v28.155c0,0.41,0.142,0.748,0.425,1.016c0.284,0.268,0.63,0.401,1.039,0.401h26.974
				c0.409,0,0.756-0.134,1.04-0.401c0.283-0.268,0.425-0.606,0.425-1.016V5.923C30.403,5.513,30.261,5.175,29.978,4.907z
				 M28.041,33.133H2.862V6.868h25.179V33.133z"/>
		</g>
		<g>
			<path d="M8.389,12.442c-0.441-0.441-0.661-0.977-0.661-1.606s0.22-1.165,0.661-1.606C8.83,8.789,9.365,8.568,9.995,8.568
				c0.63,0,1.165,0.22,1.606,0.661c0.441,0.441,0.661,0.976,0.661,1.606s-0.22,1.165-0.661,1.606
				c-0.441,0.441-0.976,0.661-1.606,0.661C9.365,13.103,8.83,12.883,8.389,12.442L8.389,12.442z"/>
			<path d="M5.484,23.283c0.142,0.11,0.307,0.165,0.496,0.165c0.189,0,0.354-0.055,0.496-0.165c0.142-0.11,0.213-0.291,0.213-0.544
				v-6.141c0-0.094,0.047-0.157,0.142-0.189c0.095-0.031,0.173-0.047,0.236-0.047c0.063,0,0.142,0.016,0.236,0.047
				c0.094,0.032,0.142,0.095,0.142,0.189v14.125c0,0.283,0.102,0.52,0.307,0.709c0.205,0.189,0.449,0.284,0.732,0.284
				c0.283,0,0.528-0.095,0.732-0.284c0.205-0.189,0.307-0.425,0.307-0.709v-8.645c0-0.157,0.063-0.26,0.189-0.307
				c0.126-0.047,0.22-0.071,0.283-0.071c0.063,0,0.15,0.024,0.26,0.071c0.11,0.047,0.165,0.15,0.165,0.307v8.645
				c0,0.283,0.102,0.52,0.307,0.709c0.205,0.189,0.448,0.284,0.732,0.284c0.315,0,0.567-0.095,0.756-0.284
				c0.189-0.189,0.283-0.425,0.283-0.709l0.047-14.125c0-0.094,0.047-0.157,0.142-0.189c0.095-0.031,0.173-0.047,0.236-0.047
				c0.063,0,0.142,0.016,0.236,0.047c0.095,0.032,0.142,0.095,0.142,0.189v6.141c0,0.252,0.071,0.433,0.213,0.544
				c0.142,0.11,0.299,0.165,0.472,0.165c0.173,0,0.331-0.055,0.472-0.165c0.142-0.11,0.213-0.291,0.213-0.544v-6.519
				c0-0.63-0.213-1.197-0.638-1.701c-0.425-0.504-1-0.756-1.724-0.756H7.35c-0.724,0-1.252,0.252-1.583,0.756
				c-0.331,0.504-0.496,1.071-0.496,1.701v6.519C5.271,22.992,5.342,23.173,5.484,23.283L5.484,23.283z"/>
			<path d="M20.861,13.103c0.63,0,1.165-0.22,1.606-0.661c0.441-0.441,0.662-0.977,0.662-1.606s-0.221-1.165-0.662-1.606
				c-0.441-0.441-0.976-0.661-1.606-0.661c-0.63,0-1.165,0.22-1.606,0.661c-0.441,0.441-0.661,0.976-0.661,1.606
				s0.22,1.165,0.661,1.606C19.695,12.883,20.231,13.103,20.861,13.103L20.861,13.103z"/>
			<path d="M16.349,23.283c0.142,0.11,0.307,0.165,0.496,0.165c0.189,0,0.354-0.055,0.496-0.165c0.142-0.11,0.213-0.291,0.213-0.544
				v-6.141c0-0.094,0.047-0.157,0.142-0.189c0.095-0.031,0.173-0.047,0.236-0.047c0.063,0,0.142,0.016,0.236,0.047
				c0.095,0.032,0.142,0.095,0.142,0.189v14.125c0,0.283,0.103,0.52,0.307,0.709c0.205,0.189,0.449,0.284,0.732,0.284
				c0.283,0,0.527-0.095,0.732-0.284c0.205-0.189,0.307-0.425,0.307-0.709v-8.645c0-0.157,0.063-0.26,0.189-0.307
				c0.126-0.047,0.22-0.071,0.284-0.071c0.063,0,0.157,0.024,0.283,0.071c0.126,0.047,0.189,0.15,0.189,0.307v8.645
				c0,0.283,0.095,0.52,0.283,0.709c0.189,0.189,0.441,0.284,0.756,0.284c0.283,0,0.528-0.095,0.732-0.284
				c0.205-0.189,0.307-0.425,0.307-0.709V16.599c0-0.094,0.047-0.157,0.142-0.189c0.094-0.031,0.173-0.047,0.236-0.047
				c0.063,0,0.142,0.016,0.236,0.047c0.095,0.032,0.142,0.095,0.142,0.189v6.141c0,0.252,0.071,0.433,0.213,0.544
				c0.142,0.11,0.307,0.165,0.496,0.165c0.189,0,0.354-0.055,0.496-0.165c0.142-0.11,0.213-0.291,0.213-0.544v-6.519
				c0-0.63-0.22-1.197-0.661-1.701c-0.441-0.504-1.024-0.756-1.748-0.756h-4.913c-0.724,0-1.26,0.252-1.606,0.756
				c-0.346,0.504-0.519,1.071-0.519,1.701v6.519C16.136,22.992,16.207,23.173,16.349,23.283L16.349,23.283z"/>
		</g>
		<path d="M35.287,5.165C35.378,5.06,35.51,5,35.649,5s0.271,0.061,0.362,0.165l3.37,3.851c0.125,0.142,0.154,0.344,0.076,0.516
			c-0.078,0.172-0.249,0.282-0.438,0.282h-1.926v7.966c0,0.266-0.216,0.481-0.481,0.481h-1.926c-0.266,0-0.481-0.216-0.481-0.481
			V9.815h-1.926c-0.189,0-0.36-0.111-0.438-0.282c-0.079-0.172-0.048-0.374,0.076-0.516L35.287,5.165z"/>
		<path d="M35.287,35.33c0.091,0.105,0.223,0.165,0.362,0.165s0.271-0.061,0.362-0.165l3.37-3.851
			c0.125-0.142,0.154-0.344,0.076-0.516c-0.078-0.172-0.249-0.282-0.438-0.282h-1.926v-7.966c0-0.266-0.216-0.481-0.481-0.481
			h-1.926c-0.266,0-0.481,0.216-0.481,0.481v7.966h-1.926c-0.189,0-0.36,0.111-0.438,0.282c-0.079,0.172-0.048,0.374,0.076,0.516
			L35.287,35.33z"/>
	</g>
</g>
<g id="Layer_2" display="none">
	<g display="inline">
		<path d="M18.863,8.571c0-2.521-2.05-4.572-4.572-4.572S9.72,6.049,9.72,8.571s2.05,4.572,4.572,4.572S18.863,11.092,18.863,8.571z
			"/>
		<path fill="#FF9800" d="M0.548,31.988c-0.359,2.189,1.326,4.013,3.381,4.013h10.312c0.372,0,0.722-0.184,0.936-0.493
			l13.599-17.356c0.217-0.276,0.548-0.438,0.9-0.438h6.407c1.822,0,3.353-1.487,3.414-3.313c0-0.001,0-0.001,0-0.001
			c0.064-1.901-1.365-3.544-3.659-3.544H25.776c-0.375,0-0.727,0.184-0.941,0.493l-13.6,17.356c-0.217,0.276-0.548,0.438-0.9,0.438
			H4.174C2.371,29.143,0.812,30.367,0.548,31.988z"/>
		<path d="M9.728,17.714v9.143h0.059l8.649-11.046c-0.724-1.571-2.304-2.669-4.144-2.669C11.77,13.142,9.728,15.193,9.728,17.714z"
			/>
	</g>
</g>
<g id="Layer_3" display="none">
	<g display="inline">
		<path fill="#FF9800" d="M37.692,5.809l-6.45-0.004h-0.001c-0.479,0-0.939,0.19-1.278,0.529c-0.34,0.339-0.531,0.8-0.531,1.28
			l-0.002,5.127l-5.128,0.005c-0.997,0.001-1.805,0.809-1.807,1.807l-0.006,5.127l-5.127,0.001c-0.999,0-1.808,0.81-1.808,1.808
			l-0.001,5.122l-5.117-0.006h-0.002c-0.48,0-0.94,0.191-1.279,0.53c-0.34,0.34-0.53,0.801-0.53,1.281l0.006,5.119L2.31,33.534
			H2.309c-0.999,0-1.809,0.81-1.809,1.808c0,0.999,0.81,1.809,1.808,1.81l8.135,0.002h0c0.48,0,0.94-0.191,1.28-0.531
			c0.34-0.34,0.53-0.801,0.529-1.281l-0.006-5.118l5.114,0.005h0.002c0.479,0,0.939-0.19,1.278-0.529
			c0.339-0.339,0.531-0.8,0.531-1.28l0.001-5.124l5.125-0.001c0.998,0,1.807-0.809,1.808-1.807l0.006-5.129l5.129-0.005
			c0.998-0.001,1.807-0.81,1.807-1.808l0.002-5.125l4.64,0.003h0.001c0.998,0,1.808-0.809,1.809-1.808
			C39.501,6.619,38.691,5.809,37.692,5.809L37.692,5.809z M37.692,5.809"/>
		<path d="M13.82,5.711c0,1.582-1.283,2.864-2.864,2.864S8.091,7.292,8.091,5.711c0-1.582,1.283-2.864,2.864-2.864
			S13.82,4.129,13.82,5.711L13.82,5.711z M13.82,5.711"/>
		<path d="M5.609,15.967c0.297,0,0.595-0.104,0.835-0.314l2.099-1.842v2.066c0,0.486,0.145,0.937,0.392,1.315v4.145
			c-0.522,0.386-0.672,1.112-0.327,1.676c0.088,0.144,0.2,0.264,0.327,0.358v1.425c0,0.699,0.566,1.266,1.266,1.266
			c0.7,0,1.266-0.567,1.266-1.266v-2.044l2.539-1.549c0.529-0.323,0.747-0.981,0.515-1.556l-1.252-3.094
			c0.063-0.215,0.098-0.442,0.098-0.677v-3.063l1.781,0.841c0.173,0.082,0.357,0.121,0.541,0.121c0.306,0,0.609-0.111,0.846-0.324
			l1.567-1.407c0.521-0.467,0.563-1.268,0.097-1.788c-0.467-0.521-1.268-0.563-1.788-0.096l-0.942,0.845L12.11,9.418
			c-0.343-0.187-0.737-0.294-1.155-0.294c-0.995,0-1.73,0.719-1.76,0.745l-4.422,3.88c-0.526,0.461-0.578,1.261-0.117,1.787
			C4.907,15.821,5.258,15.967,5.609,15.967L5.609,15.967z M11.468,19.785v-0.931l0.303,0.747L11.468,19.785z M11.468,19.785"/>
	</g>
</g>
<g id="Layer_4" display="none">
	<g display="inline">
		<g>
			<path fill="#FF9800" d="M27.759,0.5C27.641,0.5,6.57,0.498,6.505,0.504C6.065,0.54,5.741,0.911,5.741,1.334
				c0,0.205-0.004,30.475,0.007,30.564c0.042,0.337,0.283,0.605,0.592,0.696l11.195,3.271c0.533,0.156,1.066-0.246,1.066-0.8V32.82
				H22.2v-1.667h-3.599V17.802v-2.376l-5.138-2.099c-1.285-0.524-1.904-1.99-1.381-3.278c0.523-1.287,1.988-1.905,3.274-1.381
				l3.245,1.321V4.605c0-0.371-0.244-0.696-0.599-0.8l-5.603-1.637h14.528v4.078l1.665-0.218V1.334
				C28.591,0.874,28.218,0.5,27.759,0.5z"/>
		</g>
		<g>
			<path d="M31.102,13.79c-5.386,0-3.579-0.047-5.992-0.001l0.002-0.004l-9.742-3.968c-0.681-0.277-1.457,0.05-1.733,0.731
				c-0.277,0.681,0.051,1.458,0.731,1.736l9.708,3.967c0,12.094,0,9.513,0,21.675c0,0.87,0.706,1.575,1.577,1.575
				c0.871,0,1.576-0.705,1.576-1.575v-11.56h0.681v11.56c0,0.87,0.706,1.575,1.576,1.575c0.871,0,1.577-0.705,1.577-1.575
				l0.001-21.031c0-0.157,0.127-0.284,0.284-0.285c0.157,0,0.285,0.126,0.286,0.283v0l0,9.634c0,0.725,0.588,1.312,1.314,1.312
				c0.726,0,1.314-0.588,1.314-1.312v-9.64C34.251,15.176,32.834,13.79,31.102,13.79z"/>
			<path d="M30.291,10.204c0,1.502-1.219,2.72-2.723,2.72c-1.504,0-2.723-1.217-2.723-2.72c0-1.502,1.219-2.72,2.723-2.72
				C29.072,7.484,30.291,8.702,30.291,10.204z"/>
		</g>
	</g>
</g>
</svg>
