<?xml version="1.0" encoding="utf-8"?>
<!-- Generator: Adobe Illustrator 21.0.2, SVG Export Plug-In . SVG Version: 6.00 Build 0)  -->
<svg version="1.1" id="Layer_1" xmlns="http://www.w3.org/2000/svg" xmlns:xlink="http://www.w3.org/1999/xlink" x="0px" y="0px"
	 viewBox="0 0 17.9 31.8" style="enable-background:new 0 0 17.9 31.8;" xml:space="preserve">
<style type="text/css">
	.st0{fill:#FFFFFF;}
	.st1{enable-background:new    ;}
	.st2{fill:#212A64;stroke:#212A64;stroke-width:0.5;stroke-miterlimit:10;}
</style>
<title>key-icon_without-BG</title>
<path class="st0" d="M8,21.7C1.3,12.6,0,11.7,0,8.3C0,3.7,4,0,9,0s8.9,3.7,8.9,8.3c0,3.4-1.3,4.3-8,13.4c-0.4,0.5-1.1,0.6-1.6,0.2
	C8.2,21.9,8.1,21.8,8,21.7L8,21.7z"/>
<g class="st1">
	<path class="st0" d="M1.5,29.8v-5.7h0.8v2.8l2.8-2.8h1l-2.4,2.3l2.5,3.4h-1l-2-2.9l-0.9,0.9v2H1.5z"/>
	<path class="st0" d="M6.8,29.8v-5.7H11v0.7H7.6v1.8h3.2v0.7H7.6v1.9h3.5v0.7H6.8z"/>
	<path class="st0" d="M13.8,29.8v-2.4l-2.2-3.3h0.9l1.1,1.7c0.2,0.3,0.4,0.6,0.6,1c0.2-0.3,0.4-0.6,0.6-1l1.1-1.7h0.9l-2.3,3.3v2.4
		H13.8z"/>
</g>
<g>
	<path class="st2" d="M13.3,8.7c0,0.9-0.4,1.7-1,2.3c-0.6,0.6-1.4,1-2.3,1c-0.5,0-0.8,0.2-0.9,0.5C9,12.8,8.9,13.2,9,13.6
		c0,0.2-0.1,0.4-0.2,0.6c-0.2,0.2-0.6,0.3-0.8,0.2c-0.2-0.1-0.3-0.2-0.4-0.4c0-0.1-0.1-0.2-0.1-0.3v-0.3c-0.1-0.8,0.1-1.5,0.5-2.2
		c0.6-0.5,1.3-0.8,2.1-0.7c0.9,0,1.7-0.8,1.7-1.7c0-0.5-0.2-0.9-0.5-1.2C10.9,7.2,10.4,7,10,7C9.5,7,9,7.2,8.7,7.6
		C8.3,8,8,8.2,7.8,8.2c-0.1,0-0.2,0-0.3-0.1C7.4,8.1,7.3,8.1,7.3,8C7.2,7.9,7.1,7.8,7.1,7.7C7,7.6,7,7.5,7,7.4c0-0.1,0-0.3,0.1-0.4
		c0.3-0.5,0.7-0.9,1.2-1.2C8.8,5.6,9.4,5.4,10,5.4c0.9,0,1.7,0.4,2.3,1C12.9,7,13.3,7.8,13.3,8.7z M9,16.2c0,0.2-0.1,0.4-0.2,0.5
		c-0.2,0.2-0.5,0.3-0.8,0.1c-0.2-0.1-0.3-0.2-0.4-0.4c0-0.1-0.1-0.2-0.1-0.3c0-0.2,0.1-0.4,0.2-0.5c0.1-0.2,0.3-0.2,0.6-0.2
		C8.7,15.4,9,15.8,9,16.2L9,16.2z"/>
</g>
</svg>
