<?xml version="1.0" encoding="utf-8"?>
<!-- Generator: Adobe Illustrator 21.0.2, SVG Export Plug-In . SVG Version: 6.00 Build 0)  -->
<svg version="1.1" id="Layer_1" xmlns="http://www.w3.org/2000/svg" xmlns:xlink="http://www.w3.org/1999/xlink" x="0px" y="0px"
	 viewBox="0 0 40 40" style="enable-background:new 0 0 40 40;" xml:space="preserve">
<style type="text/css">
	.st0{fill:#FFFFFF;}
</style>
<g id="Layer_8">
	<g>
		<path class="st0" d="M33.7,12.2c1.6,0,3,0.6,4.1,1.7c1.2,1.1,1.7,2.5,1.7,4.2v11.7h-7.9v7.8H8.3v-7.8H0.5V18.1
			c0-1.6,0.6-3,1.7-4.2c1.1-1.1,2.5-1.7,4.2-1.7H33.7z M31.6,2.5v7.8H8.3V2.5H31.6z M27.8,33.6v-9.7H12.2v9.7H27.8z M32.2,19.4
			c0.4,0.4,0.9,0.6,1.4,0.6c0.5,0,1-0.2,1.4-0.6c0.4-0.4,0.6-0.9,0.6-1.4c0-0.5-0.2-1-0.6-1.4c-0.4-0.4-0.9-0.6-1.4-0.6
			c-0.5,0-1,0.2-1.4,0.6c-0.4,0.4-0.6,0.9-0.6,1.4C31.6,18.6,31.8,19,32.2,19.4z"/>
	</g>
</g>
</svg>
