<?xml version="1.0" encoding="utf-8"?>
<!-- Generator: Adobe Illustrator 21.0.2, SVG Export Plug-In . SVG Version: 6.00 Build 0)  -->
<svg version="1.1" id="Layer_1" xmlns="http://www.w3.org/2000/svg" xmlns:xlink="http://www.w3.org/1999/xlink" x="0px" y="0px"
	 viewBox="0 0 40 40" enable-background="new 0 0 40 40" xml:space="preserve">
<g id="round-about-Left">
	<g>
		<rect x="23.407" y="23.372" fill="#80C242" width="3.8" height="13.817"/>
		<path fill="#80C242" d="M13.185,14.933c0-6.684,5.438-12.122,12.123-12.122c6.684,0,12.122,5.438,12.122,12.122
			s-5.438,12.122-12.122,12.122C18.623,27.055,13.185,21.617,13.185,14.933z M17.685,14.933c0,4.203,3.419,7.622,7.623,7.622
			c4.203,0,7.622-3.419,7.622-7.622s-3.419-7.622-7.622-7.622C21.104,7.311,17.685,10.73,17.685,14.933z"/>
		<polygon fill="#80C242" points="13.579,12.073 21.537,17.218 24.299,12.945 13.563,6.003 2.571,13.198 5.358,17.456 		"/>
	</g>
</g>
</svg>
