<?xml version="1.0" encoding="utf-8"?>
<!-- Generator: Adobe Illustrator 21.0.2, SVG Export Plug-In . SVG Version: 6.00 Build 0)  -->
<svg version="1.1" id="Layer_1" xmlns="http://www.w3.org/2000/svg" xmlns:xlink="http://www.w3.org/1999/xlink" x="0px" y="0px"
	 viewBox="0 0 40 40" enable-background="new 0 0 40 40" xml:space="preserve">
<g id="round-about-Right">
	<g>
		<rect x="12.793" y="23.372" fill="#80C242" width="3.8" height="13.817"/>
		<path fill="#80C242" d="M14.693,27.055c-6.684,0-12.122-5.438-12.122-12.122S8.009,2.811,14.693,2.811
			c6.685,0,12.123,5.438,12.123,12.122S21.377,27.055,14.693,27.055z M14.693,7.311c-4.203,0-7.622,3.419-7.622,7.622
			s3.419,7.622,7.622,7.622s7.623-3.419,7.623-7.622S18.896,7.311,14.693,7.311z"/>
		<polygon fill="#80C242" points="26.421,12.073 18.463,17.218 15.701,12.945 26.437,6.003 37.429,13.198 34.642,17.456 		"/>
	</g>
</g>
</svg>
