<?xml version="1.0" encoding="utf-8"?>
<!-- Generator: Adobe Illustrator 21.0.2, SVG Export Plug-In . SVG Version: 6.00 Build 0)  -->
<svg version="1.1" id="Layer_1" xmlns="http://www.w3.org/2000/svg" xmlns:xlink="http://www.w3.org/1999/xlink" x="0px" y="0px"
	 viewBox="0 0 40 40" enable-background="new 0 0 40 40" xml:space="preserve">
<g id="ship">
	<g>
		<g>
			<g>
				<path fill="#80C242" d="M27.32,30.087h1.396v-4.203c0-2.74,1.367-5.078,3.393-6.45c1.106-0.781,0.917-2.337-0.369-2.728
					l-2.586-0.784l-1.834-0.591l-6.086-1.956c-0.926-0.191-1.846-0.191-2.763,0l-5.906,1.956l-1.846,0.591l-2.394,0.784
					c-1.475,0.391-1.475,1.947-0.369,2.728l0,0c2.026,1.373,3.393,3.71,3.393,6.45v0.444"/>
			</g>
			<g>
				<path fill="#80C242" d="M29.679,17.899V9.617L27.75,9.614l-0.003-1.248V6.735h-4.601l-0.003-1.602H17.07l0.003,1.602h-4.82
					v1.631l0.006,1.248l-1.938,0.003v8.282h1.938v-6.641h1.938l-0.006-2.892h11.617l0.006,2.892h1.938v6.641
					C27.752,17.899,29.679,17.899,29.679,17.899z"/>
			</g>
		</g>
		<path fill="#80C242" d="M28.493,37.497c-2.925,0-5.442-0.528-5.648-0.572c-2.563-0.353-6.048-2.361-6.196-2.446
			c-5.211-2.794-12.012,0.673-12.081,0.709l-0.921-1.775c0.316-0.164,7.815-3.979,13.976-0.681c0.062,0.035,3.324,1.914,5.569,2.226
			c2.572,0.55,9.585,1.335,11.938-1.432l1.523,1.295C34.838,36.955,31.457,37.497,28.493,37.497z"/>
		<path fill="#80C242" d="M28.574,31.089c-2.834,0-5.273-0.583-5.716-0.694c-2.628-0.387-6.063-2.367-6.209-2.451
			c-5.211-2.795-12.012,0.673-12.081,0.709l-0.921-1.775c0.316-0.164,7.815-3.978,13.976-0.681c0.062,0.035,3.324,1.914,5.569,2.226
			l0.116,0.022c0.083,0.023,8.491,2.168,11.847-1.483l1.473,1.354C34.609,30.511,31.396,31.089,28.574,31.089z"/>
	</g>
</g>
</svg>
