<?xml version="1.0" encoding="utf-8"?>
<!-- Generator: Adobe Illustrator 21.0.2, SVG Export Plug-In . SVG Version: 6.00 Build 0)  -->
<svg version="1.1" id="Layer_1" xmlns="http://www.w3.org/2000/svg" xmlns:xlink="http://www.w3.org/1999/xlink" x="0px" y="0px"
	 viewBox="0 0 40 40" enable-background="new 0 0 40 40" xml:space="preserve">
<g id="Layer_3">
	<g>
		<path fill="#FF9800" d="M37.692,5.809l-6.45-0.004h-0.001c-0.479,0-0.939,0.19-1.278,0.529c-0.34,0.339-0.531,0.8-0.531,1.28
			l-0.002,5.127l-5.128,0.005c-0.997,0.001-1.805,0.809-1.807,1.807l-0.006,5.127l-5.127,0.001c-0.999,0-1.808,0.81-1.808,1.808
			l-0.001,5.122l-5.117-0.006h-0.002c-0.48,0-0.94,0.191-1.279,0.53c-0.34,0.34-0.53,0.801-0.53,1.281l0.006,5.119L2.31,33.534
			H2.309c-0.999,0-1.809,0.81-1.809,1.808c0,0.999,0.81,1.809,1.808,1.81l8.135,0.002l0,0c0.48,0,0.94-0.191,1.28-0.531
			c0.34-0.34,0.53-0.801,0.529-1.281l-0.006-5.118l5.114,0.005h0.002c0.479,0,0.939-0.19,1.278-0.529
			c0.339-0.339,0.531-0.8,0.531-1.28l0.001-5.124l5.125-0.001c0.998,0,1.807-0.809,1.808-1.807l0.006-5.129l5.129-0.005
			c0.998-0.001,1.807-0.81,1.807-1.808l0.002-5.125l4.64,0.003h0.001c0.998,0,1.808-0.809,1.809-1.808
			C39.501,6.619,38.691,5.809,37.692,5.809L37.692,5.809z"/>
		<path d="M13.82,5.711c0,1.582-1.283,2.864-2.864,2.864S8.091,7.292,8.091,5.711c0-1.582,1.283-2.864,2.864-2.864
			S13.82,4.129,13.82,5.711L13.82,5.711z"/>
		<path d="M5.609,15.967c0.297,0,0.595-0.104,0.835-0.314l2.099-1.842v2.066c0,0.486,0.145,0.937,0.392,1.315v4.145
			c-0.522,0.386-0.672,1.112-0.327,1.676c0.088,0.144,0.2,0.264,0.327,0.358v1.425c0,0.699,0.566,1.266,1.266,1.266
			s1.266-0.567,1.266-1.266v-2.044l2.539-1.549c0.529-0.323,0.747-0.981,0.515-1.556l-1.252-3.094
			c0.063-0.215,0.098-0.442,0.098-0.677v-3.063l1.781,0.841c0.173,0.082,0.357,0.121,0.541,0.121c0.306,0,0.609-0.111,0.846-0.324
			l1.567-1.407c0.521-0.467,0.563-1.268,0.097-1.788c-0.467-0.521-1.268-0.563-1.788-0.096l-0.942,0.845L12.11,9.418
			c-0.343-0.187-0.737-0.294-1.155-0.294c-0.995,0-1.73,0.719-1.76,0.745l-4.422,3.88c-0.526,0.461-0.578,1.261-0.117,1.787
			C4.907,15.821,5.258,15.967,5.609,15.967L5.609,15.967z M11.468,19.785v-0.931l0.303,0.747L11.468,19.785z"/>
	</g>
</g>
</svg>
