<svg xmlns="http://www.w3.org/2000/svg" width="41" height="41" viewBox="0 0 41 41"><defs><style>.a{fill:#fff;stroke:rgba(47,47,47,0.5);}.b{fill:#2f2f2f;}</style></defs><g transform="translate(-313.313 -205.424)"><path class="a" d="M20,0A20,20,0,1,1,0,20,20,20,0,0,1,20,0Z" transform="translate(313.813 205.924)"/><path class="b" d="M7.969,0H5.906L3.662-3.609l-.768.551V0H1.078V-8.566H2.895v3.92l.715-1.008L5.93-8.566H7.945L4.957-4.775Zm6.06,0H9.095V-8.566h4.934v1.488H10.911V-5.2h2.9v1.488h-2.9V-1.5h3.117Zm4.5-5.039,1.787-3.527h1.957L19.432-3.334V0h-1.8V-3.275L14.785-8.566h1.969Z" transform="translate(322.813 229.924)"/></g></svg>