<svg xmlns="http://www.w3.org/2000/svg" xmlns:xlink="http://www.w3.org/1999/xlink" width="75.285" height="75.67" viewBox="0 0 75.285 75.67"><defs><style>.a{fill:#c17ae0;}.b,.e{fill:#fff;}.c{fill:none;}.d,.e{stroke:none;}.f{filter:url(#a);}</style><filter id="a" x="0" y="0" width="75.285" height="75.67" filterUnits="userSpaceOnUse"><feOffset input="SourceAlpha"/><feGaussianBlur stdDeviation="3" result="b"/><feFlood flood-color="#080808" flood-opacity="0.161"/><feComposite operator="in" in2="b"/><feComposite in="SourceGraphic"/></filter></defs><g transform="translate(-50 -144)"><g class="f" transform="matrix(1, 0, 0, 1, 50, 144)"><g class="a" transform="translate(9 9)"><path class="d" d="M 28.642578125 56.669921875 C 24.91124725341797 56.669921875 21.2919979095459 55.93442153930664 17.8853588104248 54.48386001586914 C 14.59399795532227 53.08238220214844 11.63772773742676 51.07572174072266 9.098688125610352 48.51962280273438 C 6.559178352355957 45.96306228637695 4.565428256988525 42.98611068725586 3.172808170318604 39.67148208618164 C 1.731038093566895 36.23986053466797 0.999998152256012 32.59392166137695 0.999998152256012 28.8349609375 C 0.999998152256012 25.07600021362305 1.731038093566895 21.43006134033203 3.172808170318604 17.99844169616699 C 4.565428256988525 14.68381118774414 6.559178352355957 11.70686054229736 9.098688125610352 9.150300979614258 C 11.63772773742676 6.59420108795166 14.59399795532227 4.587541103363037 17.8853588104248 3.186060905456543 C 21.2919979095459 1.735500931739807 24.91124725341797 1.000000953674316 28.642578125 1.000000953674316 C 32.37390899658203 1.000000953674316 35.99315643310547 1.735500931739807 39.39979934692383 3.186060905456543 C 42.69115829467773 4.587541103363037 45.64742660522461 6.59420108795166 48.18647003173828 9.150300979614258 C 50.72597885131836 11.70686054229736 52.7197265625 14.68381118774414 54.11234664916992 17.99844169616699 C 55.55411911010742 21.43006134033203 56.28515625 25.07600021362305 56.28515625 28.8349609375 C 56.28515625 32.59392166137695 55.55411911010742 36.23986053466797 54.11234664916992 39.67148208618164 C 52.7197265625 42.98611068725586 50.72597885131836 45.96306228637695 48.18647003173828 48.51962280273438 C 45.64742660522461 51.07572174072266 42.69115829467773 53.08238220214844 39.39979934692383 54.48386001586914 C 35.99315643310547 55.93442153930664 32.37390899658203 56.669921875 28.642578125 56.669921875 Z"/><path class="e" d="M 28.642578125 2 C 25.04663848876953 2 21.55919647216797 2.708599090576172 18.27712631225586 4.106121063232422 C 15.10513687133789 5.456771850585938 12.25576782226562 7.3909912109375 9.808158874511719 9.85504150390625 C 7.359626770019531 12.32001113891602 5.437358856201172 15.19017028808594 4.094749450683594 18.38578033447266 C 2.704769134521484 21.69412231445312 2 25.20973205566406 2 28.8349609375 C 2 32.46018981933594 2.704769134521484 35.97579956054688 4.094749450683594 39.28414154052734 C 5.437358856201172 42.47975158691406 7.359626770019531 45.34991073608398 9.808158874511719 47.81488037109375 C 12.25576782226562 50.2789306640625 15.10513687133789 52.21315002441406 18.27712631225586 53.56380081176758 C 21.55919647216797 54.96131896972656 25.04663848876953 55.669921875 28.642578125 55.669921875 C 32.23851776123047 55.669921875 35.72595977783203 54.96131896972656 39.00802612304688 53.56380081176758 C 42.18001937866211 52.21315002441406 45.02938842773438 50.2789306640625 47.47699737548828 47.81488037109375 C 49.92552947998047 45.34991073608398 51.84779739379883 42.47975158691406 53.19040679931641 39.28414154052734 C 54.58038711547852 35.97579956054688 55.28515625 32.46018981933594 55.28515625 28.8349609375 C 55.28515625 25.20973205566406 54.58038711547852 21.69412231445312 53.19040679931641 18.38578033447266 C 51.84779739379883 15.19017028808594 49.92552947998047 12.32001113891602 47.47699737548828 9.85504150390625 C 45.02938842773438 7.3909912109375 42.18001937866211 5.456771850585938 39.00802612304688 4.106121063232422 C 35.72595977783203 2.708599090576172 32.23851776123047 2 28.642578125 2 M 28.642578125 0 C 44.4614372253418 0 57.28515625 12.90985107421875 57.28515625 28.8349609375 C 57.28515625 44.76007080078125 44.4614372253418 57.669921875 28.642578125 57.669921875 C 12.8237190246582 57.669921875 0 44.76007080078125 0 28.8349609375 C 0 12.90985107421875 12.8237190246582 0 28.642578125 0 Z"/></g></g><g transform="translate(68.334 162)"><path class="b" d="M891,686l.836,13.938h2.509L895.181,686Z" transform="translate(-873.606 -662.07)"/><path class="b" d="M0,0,.836,13.938H3.345L4.181,0Z" transform="matrix(0.174, -0.985, 0.985, 0.174, 23.628, 21.751)"/><path class="b" d="M0,0,.836,13.938H3.345L4.181,0Z" transform="matrix(0.174, 0.985, -0.985, 0.174, 15.08, 17.633)"/><g class="c" transform="translate(0 0)"><path class="d" d="M19.5,0A19.5,19.5,0,1,1,0,19.5,19.5,19.5,0,0,1,19.5,0Z"/><path class="e" d="M 19.5 4 C 15.35980033874512 4 11.46740913391113 5.612281799316406 8.539850234985352 8.539850234985352 C 5.612281799316406 11.46740913391113 4 15.35980033874512 4 19.5 C 4 23.64019966125488 5.612281799316406 27.53258895874023 8.539850234985352 30.46014976501465 C 11.46740913391113 33.38771820068359 15.35980033874512 35 19.5 35 C 23.64019966125488 35 27.53258895874023 33.38771820068359 30.46014976501465 30.46014976501465 C 33.38771820068359 27.53258895874023 35 23.64019966125488 35 19.5 C 35 15.35980033874512 33.38771820068359 11.46740913391113 30.46014976501465 8.539850234985352 C 27.53258895874023 5.612281799316406 23.64019966125488 4 19.5 4 M 19.5 0 C 30.26955032348633 0 39 8.730449676513672 39 19.5 C 39 30.26955032348633 30.26955032348633 39 19.5 39 C 8.730449676513672 39 0 30.26955032348633 0 19.5 C 0 8.730449676513672 8.730449676513672 0 19.5 0 Z"/></g><g transform="translate(14.013 14.014)"><path class="b" d="M5.614,11.224a5.612,5.612,0,1,1,5.611-5.613A5.62,5.62,0,0,1,5.614,11.224Zm0-8.481A2.867,2.867,0,1,0,8.478,5.611,2.871,2.871,0,0,0,5.611,2.744Z" transform="translate(0 0)"/></g></g></g></svg>