<svg xmlns="http://www.w3.org/2000/svg" xmlns:xlink="http://www.w3.org/1999/xlink" width="75.748" height="75.748" viewBox="0 0 75.748 75.748"><defs><style>.a,.b,.c{fill:#f7a55f;}.b,.c{stroke-linecap:round;}.c{stroke:#fefefe;stroke-linejoin:round;stroke-miterlimit:10;stroke-width:2px;}.d,.e,.f{stroke:none;}.e{fill:#fff;}.f{fill:#fefefe;}.g{fill:none;}.h{filter:url(#a);}</style><filter id="a" x="0" y="0" width="75.748" height="75.748" filterUnits="userSpaceOnUse"><feOffset input="SourceAlpha"/><feGaussianBlur stdDeviation="3" result="b"/><feFlood flood-color="#080808" flood-opacity="0.161"/><feComposite operator="in" in2="b"/><feComposite in="SourceGraphic"/></filter></defs><g transform="translate(-138 -143)"><g class="h" transform="matrix(1, 0, 0, 1, 138, 143)"><g class="a" transform="translate(9 9)"><path class="d" d="M 28.8740234375 56.74804306030273 C 25.1106128692627 56.74804306030273 21.46031379699707 56.01119232177734 18.02450370788574 54.5579719543457 C 14.70540332794189 53.15411376953125 11.72434329986572 51.1441535949707 9.16411304473877 48.58393478393555 C 6.603893280029297 46.02370452880859 4.593933582305908 43.04264450073242 3.190073490142822 39.72354507446289 C 1.73685348033905 36.28773498535156 1.000003457069397 32.63743209838867 1.000003457069397 28.8740234375 C 1.000003457069397 25.1106128692627 1.73685348033905 21.46031379699707 3.190073490142822 18.02450370788574 C 4.593933582305908 14.70540332794189 6.603893280029297 11.72434329986572 9.16411304473877 9.16411304473877 C 11.72434329986572 6.603893280029297 14.70540332794189 4.593933582305908 18.02450370788574 3.190073490142822 C 21.46031379699707 1.73685348033905 25.1106128692627 1.000003457069397 28.8740234375 1.000003457069397 C 32.63743209838867 1.000003457069397 36.28773498535156 1.73685348033905 39.72354507446289 3.190073490142822 C 43.04264450073242 4.593933582305908 46.02370452880859 6.603893280029297 48.58393478393555 9.16411304473877 C 51.1441535949707 11.72434329986572 53.15411376953125 14.70540332794189 54.5579719543457 18.02450370788574 C 56.01119232177734 21.46031379699707 56.74804306030273 25.1106128692627 56.74804306030273 28.8740234375 C 56.74804306030273 32.63743209838867 56.01119232177734 36.28773498535156 54.5579719543457 39.72354507446289 C 53.15411376953125 43.04264450073242 51.1441535949707 46.02370452880859 48.58393478393555 48.58393478393555 C 46.02370452880859 51.1441535949707 43.04264450073242 53.15411376953125 39.72354507446289 54.5579719543457 C 36.28773498535156 56.01119232177734 32.63743209838867 56.74804306030273 28.8740234375 56.74804306030273 Z"/><path class="e" d="M 28.8740234375 2.000003814697266 C 25.24517440795898 2.000003814697266 21.72593307495117 2.710273742675781 18.41405487060547 4.111072540283203 C 15.21415328979492 5.464523315429688 12.33993530273438 7.402511596679688 9.871223449707031 9.871223449707031 C 7.402511596679688 12.33993530273438 5.464523315429688 15.21415328979492 4.111072540283203 18.41405487060547 C 2.710273742675781 21.72593307495117 2.000003814697266 25.24517440795898 2.000003814697266 28.8740234375 C 2.000003814697266 32.50287628173828 2.710273742675781 36.02211380004883 4.111072540283203 39.33399200439453 C 5.464523315429688 42.53389358520508 7.402511596679688 45.40811157226562 9.871223449707031 47.87682342529297 C 12.33993530273438 50.34553527832031 15.21415328979492 52.28352355957031 18.41405487060547 53.6369743347168 C 21.72593307495117 55.03777313232422 25.24517440795898 55.74804306030273 28.8740234375 55.74804306030273 C 32.50287628173828 55.74804306030273 36.02211380004883 55.03777313232422 39.33399200439453 53.6369743347168 C 42.53389358520508 52.28352355957031 45.40811157226562 50.34553527832031 47.87682342529297 47.87682342529297 C 50.34553527832031 45.40811157226562 52.28352355957031 42.53389358520508 53.6369743347168 39.33399200439453 C 55.03777313232422 36.02211380004883 55.74804306030273 32.50287628173828 55.74804306030273 28.8740234375 C 55.74804306030273 25.24517440795898 55.03777313232422 21.72593307495117 53.6369743347168 18.41405487060547 C 52.28352355957031 15.21415328979492 50.34553527832031 12.33993530273438 47.87682342529297 9.871223449707031 C 45.40811157226562 7.402511596679688 42.53389358520508 5.464523315429688 39.33399200439453 4.111072540283203 C 36.02211380004883 2.710273742675781 32.50287628173828 2.000003814697266 28.8740234375 2.000003814697266 M 28.8740234375 3.814697265625e-06 C 44.82070159912109 3.814697265625e-06 57.74804306030273 12.92734527587891 57.74804306030273 28.8740234375 C 57.74804306030273 44.82070159912109 44.82070159912109 57.74804306030273 28.8740234375 57.74804306030273 C 12.92734527587891 57.74804306030273 3.814697265625e-06 44.82070159912109 3.814697265625e-06 28.8740234375 C 3.814697265625e-06 12.92734527587891 12.92734527587891 3.814697265625e-06 28.8740234375 3.814697265625e-06 Z"/></g></g><g transform="translate(162.897 160.84)"><g transform="translate(0 3.05)"><g class="b" transform="translate(0 0)"><path class="d" d="M 11.18115997314453 38.11006927490234 L 11.18113994598389 38.11006927490234 C 11.07851982116699 38.11006927490234 10.97430038452148 38.10581970214844 10.87135982513428 38.09741973876953 C 9.934780120849609 38.01977157592773 9.086420059204102 37.60186004638672 8.54242992401123 36.95072937011719 C 8.102780342102051 36.42446899414062 7.894810199737549 35.78031921386719 7.956840038299561 35.13693237304688 L 8.454171180725098 29.927734375 L 6.970850467681885 35.81541061401367 C 6.67201042175293 37.00086975097656 5.472110271453857 37.82875061035156 4.05288028717041 37.82880020141602 C 3.787540197372437 37.82881164550781 3.519950151443481 37.79980087280273 3.257570266723633 37.74259948730469 C 2.343950271606445 37.54460906982422 1.563950300216675 37.01935195922852 1.118810296058655 36.30175018310547 C 0.7556102871894836 35.71623229980469 0.6437002420425415 35.04423141479492 0.8037102818489075 34.40951156616211 L 4.320902824401855 20.44888114929199 L 3.95667028427124 20.93187141418457 C 3.444480180740356 21.61149024963379 2.613950252532959 22.01741981506348 1.735190272331238 22.01749038696289 C 1.184580326080322 22.01753997802734 0.6523002982139587 21.86094093322754 0.1958902627229691 21.56463050842285 C -0.4263597428798676 21.15986061096191 -0.8373197317123413 20.54677963256836 -0.9620197415351868 19.83782958984375 C -1.08398973941803 19.14443969726562 -0.9144997596740723 18.44855117797852 -0.484769731760025 17.87835121154785 L 6.487060070037842 8.633370399475098 C 6.999290466308594 7.953690528869629 7.830130100250244 7.547770500183105 8.709360122680664 7.547770500183105 C 8.806887626647949 7.547770500183105 8.905168533325195 7.55280590057373 9.00229549407959 7.56275463104248 L 14.90305042266846 7.654171466827393 L 18.61856842041016 5.497512817382812 L 21.8634204864502 0.2778505384922028 C 22.35421943664551 -0.5105594396591187 23.25634002685547 -0.999999463558197 24.21805953979492 -0.999999463558197 C 24.6853199005127 -0.999999463558197 25.14834976196289 -0.8842494487762451 25.55709075927734 -0.6652594804763794 C 26.20578956604004 -0.3176894783973694 26.68351936340332 0.2765105366706848 26.8677806854248 0.9649805426597595 C 27.0489501953125 1.64193058013916 26.94302940368652 2.345810413360596 26.56954002380371 2.94696044921875 L 23.09728050231934 8.53242015838623 C 23.03120613098145 8.638566970825195 22.95718383789062 8.74040699005127 22.8764533996582 8.836323738098145 C 22.65323066711426 9.166446685791016 22.35097122192383 9.447177886962891 21.99777984619141 9.65156078338623 L 16.62315940856934 12.7712287902832 L 15.93627548217773 18.24507904052734 L 14.27145004272461 35.68291091918945 C 14.13825035095215 37.06692123413086 12.80974006652832 38.11003875732422 11.18115997314453 38.11006927490234 Z"/><path class="f" d="M 11.18113994598389 37.11006927490234 C 12.27687072753906 37.11005020141602 13.19188022613525 36.46165084838867 13.27597999572754 35.58787155151367 L 14.94223022460938 18.13511085510254 L 15.69262981414795 12.15510082244873 L 21.49691963195801 8.786030769348145 C 21.74440002441406 8.642820358276367 21.93934059143066 8.451020240783691 22.07666015625 8.232300758361816 C 22.13965034484863 8.16222095489502 22.19713973999023 8.086190223693848 22.24801063537598 8.004460334777832 L 25.72013092041016 2.419220447540283 C 26.20004081726074 1.646790504455566 25.91514015197754 0.6610705256462097 25.08481979370117 0.2162005305290222 C 24.81130790710449 0.06965735554695129 24.51274681091309 -1.070556663762545e-06 24.21805572509766 -1.070556663762545e-06 C 23.61813735961914 -1.070556663762545e-06 23.03451538085938 0.2888434827327728 22.71269035339355 0.8058105111122131 L 19.33621025085449 6.237210750579834 L 15.16504001617432 8.658350944519043 L 8.938779830932617 8.561890602111816 C 8.862493515014648 8.552447319030762 8.785848617553711 8.547768592834473 8.70936393737793 8.547768592834473 C 8.162092208862305 8.547768592834473 7.623210430145264 8.78734016418457 7.285480499267578 9.235470771789551 L 0.3138302564620972 18.48021125793457 C -0.2361597269773483 19.20998001098633 -0.04418972879648209 20.21551132202148 0.7404202818870544 20.72589111328125 C 1.043859601020813 20.92288970947266 1.391173839569092 21.01752090454102 1.735108137130737 21.01749229431152 C 2.282226800918579 21.0174446105957 2.82054877281189 20.77785873413086 3.158250331878662 20.32977104187012 L 6.49785041809082 15.90131092071533 L 1.773370265960693 34.65394973754883 C 1.543320298194885 35.5665397644043 2.303560256958008 36.51264953613281 3.470580339431763 36.76554870605469 C 3.667030572891235 36.80838012695312 3.862447261810303 36.82880401611328 4.052848339080811 36.82879638671875 C 4.993531227111816 36.82876968383789 5.809825897216797 36.330078125 6.001150131225586 35.57110977172852 L 8.911360740661621 24.01975059509277 L 10.02276039123535 24.01975059509277 L 8.95221996307373 35.23289108276367 C 8.862330436706543 36.16527938842773 9.758160591125488 37.00170135498047 10.95260047912598 37.10073089599609 C 11.02952003479004 37.10700225830078 11.1057300567627 37.11006927490234 11.18113994598389 37.11006927490234 M 11.18118000030518 39.11006927490234 L 11.18113994598389 39.11006927490234 C 11.05152034759521 39.11006927490234 10.91996002197266 39.10470199584961 10.79011058807373 39.09412002563477 C 9.587320327758789 38.99440002441406 8.489370346069336 38.44692993164062 7.775010108947754 37.59186172485352 C 7.654513835906982 37.4476318359375 7.546540260314941 37.29671478271484 7.451494693756104 37.14038848876953 C 6.745552539825439 38.17137908935547 5.479872226715088 38.82875442504883 4.052910327911377 38.82880020141602 C 3.716000318527222 38.82880020141602 3.376760244369507 38.79207992553711 3.044550180435181 38.71965026855469 C 1.868770241737366 38.46485137939453 0.8562402725219727 37.7755012512207 0.2690302729606628 36.82888031005859 C -0.2383197247982025 36.01097869873047 -0.3928097188472748 35.06496047973633 -0.1659597307443619 34.16506958007812 L 2.67173957824707 22.90152931213379 C 2.368721961975098 22.97765350341797 2.054239749908447 23.0174617767334 1.735290288925171 23.01749038696289 C 0.9909002780914307 23.01755142211914 0.2702902555465698 22.80520057678223 -0.3486397266387939 22.40336990356445 C -1.194149732589722 21.85338020324707 -1.776149749755859 20.98177146911621 -1.946899771690369 20.01107025146484 C -2.117429733276367 19.04166030883789 -1.881779789924622 18.07050132751465 -1.283369779586792 17.27647972106934 L 5.688640117645264 8.03126049041748 C 6.388580322265625 7.102530479431152 7.517950057983398 6.547770500183105 8.709360122680664 6.547770500183105 C 8.825271606445312 6.547770500183105 8.94199275970459 6.553046226501465 9.057779312133789 6.563494205474854 L 14.64105415344238 6.649992942810059 L 17.90094184875488 4.757802963256836 L 21.01415061950684 -0.2500994801521301 C 21.68631935119629 -1.329879522323608 22.91374015808105 -1.999999523162842 24.21805953979492 -1.999999523162842 C 24.84953117370605 -1.999999523162842 25.47587013244629 -1.843259453773499 26.02935028076172 -1.546709418296814 C 26.92068099975586 -1.069159507751465 27.57837104797363 -0.2479094713926315 27.83378028869629 0.7064505219459534 C 28.08716011047363 1.653200507164001 27.9398307800293 2.636310577392578 27.4189510345459 3.474690437316895 L 23.9465503692627 9.060380935668945 C 23.86435890197754 9.192432403564453 23.77343940734863 9.319455146789551 23.67496681213379 9.439945220947266 C 23.37054252624512 9.875937461853027 22.9667854309082 10.24618053436279 22.4986400604248 10.51709079742432 L 17.55368804931641 13.38736152648926 L 16.93036079406738 18.35471343994141 L 15.26693058013916 35.77795028686523 C 15.08403015136719 37.67819213867188 13.32760047912598 39.11003112792969 11.18118000030518 39.11006927490234 Z"/></g></g><g class="c" transform="translate(9.941 0.536)"><circle class="d" cx="2.467" cy="2.467" r="2.467"/><circle class="g" cx="2.467" cy="2.467" r="3.467"/></g></g></g></svg>