<svg xmlns="http://www.w3.org/2000/svg" xmlns:xlink="http://www.w3.org/1999/xlink" width="75.75" height="75.65" viewBox="0 0 75.75 75.65"><defs><style>.a{fill:#f96562;}.b,.d{fill:#fff;}.c,.d{stroke:none;}.e{filter:url(#a);}</style><filter id="a" x="0" y="0" width="75.75" height="75.65" filterUnits="userSpaceOnUse"><feOffset input="SourceAlpha"/><feGaussianBlur stdDeviation="3" result="b"/><feFlood flood-color="#080808" flood-opacity="0.161"/><feComposite operator="in" in2="b"/><feComposite in="SourceGraphic"/></filter></defs><g transform="translate(-226 -143)"><g class="e" transform="matrix(1, 0, 0, 1, 226, 143)"><g class="a" transform="translate(9 9)"><path class="c" d="M 28.875 56.65026092529297 C 25.11124038696289 56.65026092529297 21.46062088012695 55.91463088989258 18.0245304107666 54.46379089355469 C 14.7052698135376 53.06229400634766 11.72408008575439 51.05573272705078 9.163789749145508 48.49986267089844 C 6.603610038757324 45.9441032409668 4.593709945678711 42.96828079223633 3.189899921417236 39.65505218505859 C 1.73678994178772 36.22544097900391 1 32.58172225952148 1 28.82513236999512 C 1 25.06854248046875 1.73678994178772 21.4248218536377 3.189899921417236 17.99521255493164 C 4.593709945678711 14.68198204040527 6.603610038757324 11.70616245269775 9.163789749145508 9.150402069091797 C 11.72408008575439 6.594532489776611 14.7052698135376 4.587972164154053 18.0245304107666 3.186472415924072 C 21.46062088012695 1.735632419586182 25.11124038696289 1.000002384185791 28.875 1.000002384185791 C 32.63875961303711 1.000002384185791 36.28937911987305 1.735632419586182 39.72547149658203 3.186472415924072 C 43.04473114013672 4.587972164154053 46.02592086791992 6.594532489776611 48.58620834350586 9.150402069091797 C 51.14638900756836 11.70616245269775 53.15628814697266 14.68198204040527 54.56010055541992 17.99521255493164 C 56.01321029663086 21.4248218536377 56.75 25.06854248046875 56.75 28.82513236999512 C 56.75 32.58172225952148 56.01321029663086 36.22544097900391 54.56010055541992 39.65505218505859 C 53.15628814697266 42.96828079223633 51.14638900756836 45.9441032409668 48.58620834350586 48.49986267089844 C 46.02592086791992 51.05573272705078 43.04473114013672 53.06229400634766 39.72547149658203 54.46379089355469 C 36.28937911987305 55.91463088989258 32.63875961303711 56.65026092529297 28.875 56.65026092529297 Z"/><path class="d" d="M 28.875 2.000003814697266 C 25.24559020996094 2.000003814697266 21.7258415222168 2.709140777587891 18.41350936889648 4.107711791992188 C 15.21340179443359 5.458911895751953 12.33903884887695 7.393623352050781 9.870281219482422 9.858123779296875 C 7.401760101318359 12.32238388061523 5.463951110839844 15.19135284423828 4.110668182373047 18.38534164428711 C 2.710128784179688 21.69085311889648 2 25.20331192016602 2 28.82513236999512 C 2 32.44695281982422 2.710128784179688 35.95941162109375 4.110668182373047 39.26492309570312 C 5.463951110839844 42.45891189575195 7.401760101318359 45.327880859375 9.870281219482422 47.79214096069336 C 12.33903884887695 50.25664138793945 15.21340179443359 52.19135284423828 18.41350936889648 53.54255294799805 C 21.7258415222168 54.94112396240234 25.24559020996094 55.65026092529297 28.875 55.65026092529297 C 32.50440979003906 55.65026092529297 36.02416229248047 54.94112396240234 39.33649063110352 53.54255294799805 C 42.53659820556641 52.19135284423828 45.41096115112305 50.25664138793945 47.87971878051758 47.79214096069336 C 50.34823989868164 45.327880859375 52.28604888916016 42.45891189575195 53.63932800292969 39.26492309570312 C 55.03987121582031 35.95941162109375 55.75 32.44695281982422 55.75 28.82513236999512 C 55.75 25.20331192016602 55.03987121582031 21.69085311889648 53.63932800292969 18.38534164428711 C 52.28604888916016 15.19135284423828 50.34823989868164 12.32238388061523 47.87971878051758 9.858123779296875 C 45.41096115112305 7.393623352050781 42.53659820556641 5.458911895751953 39.33649063110352 4.107711791992188 C 36.02416229248047 2.709140777587891 32.50440979003906 2.000003814697266 28.875 2.000003814697266 M 28.875 3.814697265625e-06 C 44.82221984863281 3.814697265625e-06 57.75 12.90545272827148 57.75 28.82513236999512 C 57.75 44.74481201171875 44.82221984863281 57.65026092529297 28.875 57.65026092529297 C 12.92778015136719 57.65026092529297 0 44.74481201171875 0 28.82513236999512 C 0 12.90545272827148 12.92778015136719 3.814697265625e-06 28.875 3.814697265625e-06 Z"/></g></g><g transform="translate(250 162)"><path class="b" d="M17.6,34.067V33.15H9.776v.917a2.933,2.933,0,1,1-5.865,0V33.15H3a3,3,0,0,1-3-3V5A5.006,5.006,0,0,1,5,0H22.372a5.006,5.006,0,0,1,5,5V30.15a3,3,0,0,1-3,3h-.91v.917a2.933,2.933,0,1,1-5.865,0ZM23.462,31.2a1.953,1.953,0,1,0-.443-.05h.443v.05Zm-5.865,0v-.05h.446A1.95,1.95,0,0,0,17.6,27.3H9.77a1.951,1.951,0,0,0-.441,3.85h.447v.05ZM1.956,29.25A1.954,1.954,0,0,0,3.911,31.2v-.05h.443a1.951,1.951,0,1,0-2.4-1.9Zm0-16.45v8.65H25.417V12.8a5.005,5.005,0,0,0-5-5H6.955A5.005,5.005,0,0,0,1.956,12.8ZM7.821,3.9A1.952,1.952,0,0,0,9.77,5.85H17.6a1.95,1.95,0,1,0,0-3.9H9.77A1.951,1.951,0,0,0,7.821,3.9Z"/></g></g></svg>