<svg xmlns="http://www.w3.org/2000/svg" xmlns:xlink="http://www.w3.org/1999/xlink" width="75.748" height="75.748" viewBox="0 0 75.748 75.748"><defs><style>.a,.c{fill:#007db6;}.b,.d,.g{fill:none;}.c,.d{stroke-linecap:round;stroke-linejoin:round;stroke-miterlimit:10;}.d{stroke:#fff;stroke-width:2px;}.e,.f{stroke:none;}.f{fill:#fff;}.h{filter:url(#a);}</style><filter id="a" x="0" y="0" width="75.748" height="75.748" filterUnits="userSpaceOnUse"><feOffset input="SourceAlpha"/><feGaussianBlur stdDeviation="3" result="b"/><feFlood flood-color="#080808" flood-opacity="0.161"/><feComposite operator="in" in2="b"/><feComposite in="SourceGraphic"/></filter></defs><g transform="translate(-138 -143)"><g class="h" transform="matrix(1, 0, 0, 1, 138, 143)"><g class="a" transform="translate(9 9)"><path class="e" d="M 28.8740234375 56.74804306030273 C 25.1106128692627 56.74804306030273 21.46031379699707 56.01119232177734 18.02450370788574 54.5579719543457 C 14.70540332794189 53.15411376953125 11.72434329986572 51.1441535949707 9.16411304473877 48.58393478393555 C 6.603893280029297 46.02370452880859 4.593933582305908 43.04264450073242 3.190073490142822 39.72354507446289 C 1.73685348033905 36.28773498535156 1.000003457069397 32.63743209838867 1.000003457069397 28.8740234375 C 1.000003457069397 25.1106128692627 1.73685348033905 21.46031379699707 3.190073490142822 18.02450370788574 C 4.593933582305908 14.70540332794189 6.603893280029297 11.72434329986572 9.16411304473877 9.16411304473877 C 11.72434329986572 6.603893280029297 14.70540332794189 4.593933582305908 18.02450370788574 3.190073490142822 C 21.46031379699707 1.73685348033905 25.1106128692627 1.000003457069397 28.8740234375 1.000003457069397 C 32.63743209838867 1.000003457069397 36.28773498535156 1.73685348033905 39.72354507446289 3.190073490142822 C 43.04264450073242 4.593933582305908 46.02370452880859 6.603893280029297 48.58393478393555 9.16411304473877 C 51.1441535949707 11.72434329986572 53.15411376953125 14.70540332794189 54.5579719543457 18.02450370788574 C 56.01119232177734 21.46031379699707 56.74804306030273 25.1106128692627 56.74804306030273 28.8740234375 C 56.74804306030273 32.63743209838867 56.01119232177734 36.28773498535156 54.5579719543457 39.72354507446289 C 53.15411376953125 43.04264450073242 51.1441535949707 46.02370452880859 48.58393478393555 48.58393478393555 C 46.02370452880859 51.1441535949707 43.04264450073242 53.15411376953125 39.72354507446289 54.5579719543457 C 36.28773498535156 56.01119232177734 32.63743209838867 56.74804306030273 28.8740234375 56.74804306030273 Z"/><path class="f" d="M 28.8740234375 2.000003814697266 C 25.24517440795898 2.000003814697266 21.72593307495117 2.710273742675781 18.41405487060547 4.111072540283203 C 15.21415328979492 5.464523315429688 12.33993530273438 7.402511596679688 9.871223449707031 9.871223449707031 C 7.402511596679688 12.33993530273438 5.464523315429688 15.21415328979492 4.111072540283203 18.41405487060547 C 2.710273742675781 21.72593307495117 2.000003814697266 25.24517440795898 2.000003814697266 28.8740234375 C 2.000003814697266 32.50287628173828 2.710273742675781 36.02211380004883 4.111072540283203 39.33399200439453 C 5.464523315429688 42.53389358520508 7.402511596679688 45.40811157226562 9.871223449707031 47.87682342529297 C 12.33993530273438 50.34553527832031 15.21415328979492 52.28352355957031 18.41405487060547 53.6369743347168 C 21.72593307495117 55.03777313232422 25.24517440795898 55.74804306030273 28.8740234375 55.74804306030273 C 32.50287628173828 55.74804306030273 36.02211380004883 55.03777313232422 39.33399200439453 53.6369743347168 C 42.53389358520508 52.28352355957031 45.40811157226562 50.34553527832031 47.87682342529297 47.87682342529297 C 50.34553527832031 45.40811157226562 52.28352355957031 42.53389358520508 53.6369743347168 39.33399200439453 C 55.03777313232422 36.02211380004883 55.74804306030273 32.50287628173828 55.74804306030273 28.8740234375 C 55.74804306030273 25.24517440795898 55.03777313232422 21.72593307495117 53.6369743347168 18.41405487060547 C 52.28352355957031 15.21415328979492 50.34553527832031 12.33993530273438 47.87682342529297 9.871223449707031 C 45.40811157226562 7.402511596679688 42.53389358520508 5.464523315429688 39.33399200439453 4.111072540283203 C 36.02211380004883 2.710273742675781 32.50287628173828 2.000003814697266 28.8740234375 2.000003814697266 M 28.8740234375 3.814697265625e-06 C 44.82070159912109 3.814697265625e-06 57.74804306030273 12.92734527587891 57.74804306030273 28.8740234375 C 57.74804306030273 44.82070159912109 44.82070159912109 57.74804306030273 28.8740234375 57.74804306030273 C 12.92734527587891 57.74804306030273 3.814697265625e-06 44.82070159912109 3.814697265625e-06 28.8740234375 C 3.814697265625e-06 12.92734527587891 12.92734527587891 3.814697265625e-06 28.8740234375 3.814697265625e-06 Z"/></g></g><g transform="translate(163.497 156.573)"><g transform="translate(0 13.182)"><g class="b" transform="translate(-9.559 -4.905)"><path class="e" d="M19.543,28.68S16.9,32,14.867,34.755s-6-.034-3.627-3.23,4.552-5.736,4.552-5.736l1.294-6.977.359-1.881,3.9,4.481Z"/><path class="f" d="M 12.84091758728027 35.87718200683594 C 13.54601383209229 35.87718200683594 14.28645420074463 35.54336166381836 14.86731910705566 34.75531005859375 C 16.89521980285645 32.00410079956055 19.54344940185547 28.67968940734863 19.54344940185547 28.67968940734863 L 21.34339904785156 21.41131019592285 L 17.44501876831055 16.93066024780273 L 17.08638954162598 18.81144905090332 L 15.79240894317627 25.78877067565918 C 15.79240894317627 25.78877067565918 13.61373901367188 28.32905006408691 11.24046897888184 31.52516937255859 C 9.546993255615234 33.80580520629883 11.08441162109375 35.87718200683594 12.84091758728027 35.87718200683594 M 12.84091854095459 37.87717819213867 C 11.22346878051758 37.87717819213867 9.704949378967285 36.93601989746094 8.972309112548828 35.47946929931641 C 8.581599235534668 34.70270919799805 8.432859420776367 33.82389831542969 8.542168617248535 32.93804931640625 C 8.653498649597168 32.03577041625977 9.021099090576172 31.15925025939941 9.634738922119141 30.33283996582031 C 11.48788070678711 27.83719253540039 13.20454502105713 25.75762367248535 13.92274379730225 24.90209579467773 L 15.11991882324219 18.4467601776123 L 15.12083911895752 18.44179916381836 L 15.12178897857666 18.43684005737305 L 15.48041915893555 16.55604934692383 L 16.25154876708984 12.51194000244141 L 18.9538688659668 15.61788940429688 L 22.85224914550781 20.09853935241699 L 23.53466987609863 20.88289070129395 L 23.28475952148438 21.89206886291504 L 21.48480987548828 29.16044998168945 L 21.37984848022461 29.58428001403809 L 21.1077880859375 29.92581939697266 C 21.08152961730957 29.95878982543945 18.45878982543945 33.25363922119141 16.47723960876465 35.94197082519531 C 15.57072925567627 37.17182159423828 14.24533939361572 37.87717819213867 12.84091854095459 37.87717819213867 Z"/></g><g class="b" transform="translate(-3.108 -5.872)"><path class="e" d="M20.769,9.613c.047.067,4.31,5.273,4.31,5.273s1.5.393,4.373,1.264,1.866,4.3-.851,3.54-5.061-1.463-5.061-1.463L20.07,14.42S20.722,9.546,20.769,9.613Z"/><path class="f" d="M 20.76787185668945 9.612306594848633 C 20.71334457397461 9.612306594848633 20.07049942016602 14.42006874084473 20.07049942016602 14.42006874084473 L 23.54006958007812 18.22683906555176 C 23.54006958007812 18.22683906555176 25.88446044921875 18.92878913879395 28.6009407043457 19.68941879272461 C 28.86887550354004 19.76444053649902 29.11992073059082 19.79867172241211 29.35254859924316 19.79867172241211 C 31.47844314575195 19.79867172241211 32.04305648803711 16.9346981048584 29.45149993896484 16.14949798583984 C 26.57636070251465 15.27839851379395 25.07842063903809 14.88552856445312 25.07842063903809 14.88552856445312 C 25.07842063903809 14.88552856445312 20.81558990478516 9.679878234863281 20.7689094543457 9.61298942565918 C 20.76859092712402 9.612531661987305 20.76824760437012 9.612306594848633 20.76787185668945 9.612306594848633 M 20.76786994934082 7.612308502197266 L 21.81290054321289 7.612308502197266 L 22.37391471862793 8.418001174926758 C 22.66708946228027 8.781467437744141 24.6777172088623 11.23907470703125 26.22051048278809 13.12342643737793 C 26.92153167724609 13.31751251220703 28.19781303405762 13.67988014221191 30.03141975402832 14.23541927337646 C 31.0841007232666 14.55436897277832 31.93505096435547 15.14365863800049 32.49229049682617 15.93959903717041 C 33.04977035522461 16.73586845397949 33.27977752685547 17.69408798217773 33.13996887207031 18.63772964477539 C 33.01068878173828 19.51025009155273 32.57164001464844 20.30706787109375 31.90370941162109 20.88140869140625 C 31.20584106445312 21.48148918151855 30.32366943359375 21.79866790771484 29.3525505065918 21.79866790771484 C 28.93045043945312 21.79866790771484 28.49615097045898 21.73698806762695 28.06170082092285 21.61534881591797 C 25.35921096801758 20.85863876342773 22.99000930786133 20.14986801147461 22.96640014648438 20.14279937744141 L 22.43532943725586 19.98378753662109 L 22.06191062927246 19.57406997680664 L 18.59233856201172 15.76729869842529 L 17.96464920043945 15.07860851287842 L 18.08813858032227 14.15500926971436 C 18.08975982666016 14.1429386138916 18.25151062011719 12.93374824523926 18.41788101196289 11.74009895324707 C 18.51617050170898 11.03493881225586 18.59704208374023 10.47150802612305 18.65824127197266 10.06544876098633 C 18.69664001464844 9.810628890991211 18.72719955444336 9.618207931518555 18.75165939331055 9.477178573608398 C 18.76869201660156 9.378938674926758 18.78318023681641 9.303218841552734 18.79726028442383 9.238859176635742 C 19.0430793762207 8.115249633789062 19.96411895751953 7.612308502197266 20.76786994934082 7.612308502197266 Z"/></g><g class="c" transform="translate(-11 -14)"><path class="e" d="M 29.23288536071777 45.85589218139648 C 28.29899215698242 45.85589218139648 27.41792869567871 45.45621871948242 26.79577255249023 44.78828048706055 L 26.43752479553223 44.96772384643555 L 26.14604187011719 43.77849578857422 C 26.03909492492676 43.51443099975586 25.96686172485352 43.22465515136719 25.93074226379395 42.91468048095703 L 24.2364673614502 36.11264801025391 L 19.85271453857422 32.11331176757812 C 19.23230361938477 31.7536678314209 18.70345687866211 31.26832962036133 18.31265258789062 30.69990730285645 L 18.13378524780273 30.52103233337402 L 18.11684989929199 30.38628578186035 C 17.69958877563477 29.66447067260742 17.48015594482422 28.85323524475098 17.48015594482422 28.0254020690918 C 17.48015594482422 27.69529151916504 17.52038383483887 27.36541938781738 17.60573196411133 27.00240898132324 L 17.60232543945312 26.98306274414062 L 17.65770530700684 26.77159309387207 C 17.66592407226562 26.74021339416504 18.25619697570801 24.48316764831543 18.81173133850098 22.17568016052246 L 17.86313819885254 22.87055778503418 L 15.60482597351074 27.93414306640625 C 15.23591327667236 29.13140296936035 14.12308311462402 29.9604320526123 12.87003517150879 29.9604320526123 C 11.28749561309814 29.9604320526123 10.0000057220459 28.67293167114258 10.0000057220459 27.09037208557129 C 10.0000057220459 26.59337425231934 10.13327884674072 26.10188484191895 10.38619136810303 25.66356468200684 L 13.01058578491211 19.47235298156738 L 13.06001567840576 19.35574150085449 L 13.07557582855225 19.33539581298828 C 13.2547721862793 18.95071601867676 13.52013683319092 18.60926818847656 13.85280513763428 18.3353214263916 L 13.86578559875488 18.31844139099121 L 13.97025585174561 18.23842239379883 L 19.53455543518066 13.97657203674316 C 20.35787582397461 13.34670257568359 21.38124465942383 13.00000190734863 22.41658592224121 13.00000190734863 L 24.53347587585449 13.00000190734863 L 24.69589614868164 13.00000190734863 L 24.70328330993652 13.00244617462158 C 26.99201774597168 13.07950115203857 28.83034515380859 14.96542835235596 28.83034515380859 17.27260208129883 C 28.83034515380859 17.5416259765625 28.79945755004883 17.81776237487793 28.73643112182617 18.10912132263184 L 28.75170516967773 18.14590263366699 L 28.66066551208496 18.47281265258789 L 26.11797523498535 27.82370567321777 L 30.24879455566406 33.36617279052734 L 30.36874580383301 33.5271110534668 L 30.41730499267578 33.72188186645508 L 32.27009582519531 41.15429306030273 C 32.46946334838867 41.59387588500977 32.5704345703125 42.05216979980469 32.5704345703125 42.5183219909668 C 32.5704345703125 44.35866165161133 31.07321548461914 45.85589218139648 29.23288536071777 45.85589218139648 Z"/><path class="f" d="M 29.23288536071777 44.85589218139648 C 30.52414512634277 44.85589218139648 31.5704345703125 43.80959320068359 31.5704345703125 42.5183219909668 C 31.5704345703125 42.14805221557617 31.4769344329834 41.80303192138672 31.32358551025391 41.49165344238281 L 29.44699478149414 33.96376037597656 L 25.02529525756836 28.0310115814209 L 27.69570541381836 18.21042251586914 C 27.69570541381836 18.21042251586914 27.68916511535645 18.19452285766602 27.6854248046875 18.18611145019531 C 27.77051544189453 17.89438247680664 27.83034515380859 17.5914421081543 27.83034515380859 17.27260208129883 C 27.83034515380859 15.46519184112549 26.36517524719238 14.00000190734863 24.55778503417969 14.00000190734863 C 24.55217552185059 14.00000190734863 24.54750442504883 14.00187206268311 24.54188537597656 14.00187206268311 C 24.53907585144043 14.00187206268311 24.53627586364746 14.00000190734863 24.53347587585449 14.00000190734863 L 22.41658592224121 14.00000190734863 C 21.59470558166504 14.00000190734863 20.79526519775391 14.27116203308105 20.14261627197266 14.77046203613281 L 14.57831573486328 19.03231239318848 L 14.56896495819092 19.04447174072266 C 14.29313564300537 19.24831199645996 14.07340526580811 19.52319145202637 13.94344520568848 19.84672164916992 L 13.93128490447998 19.86262321472168 L 11.28050518035889 26.1160831451416 C 11.10566520690918 26.40032196044922 11.0000057220459 26.73226165771484 11.0000057220459 27.09037208557129 C 11.0000057220459 28.12358283996582 11.83684539794922 28.9604320526123 12.87003517150879 28.9604320526123 C 13.72932529449463 28.9604320526123 14.4455451965332 28.37790298461914 14.66433525085449 27.58781242370605 L 17.0579948425293 22.22075271606445 L 20.38946533203125 19.78033256530762 C 19.77422523498535 22.63684272766113 18.62508583068848 27.02492141723633 18.62508583068848 27.02492141723633 L 18.62788581848145 27.04082298278809 C 18.54093551635742 27.35685157775879 18.48015594482422 27.68225288391113 18.48015594482422 28.0254020690918 C 18.48015594482422 28.77249145507812 18.70456504821777 29.46440315246582 19.08230590820312 30.04880142211914 L 19.0832462310791 30.05628204345703 L 19.0888557434082 30.06189155578613 C 19.42732620239258 30.58176231384277 19.89670562744141 30.99973297119141 20.4427661895752 31.29799270629883 L 25.13375473022461 35.57762145996094 L 26.91776466369629 42.73992156982422 C 26.94208526611328 42.9942512512207 26.9981861114502 43.2382926940918 27.09823608398438 43.46269226074219 L 27.11038589477539 43.51226043701172 L 27.12160491943359 43.50664138793945 C 27.49467468261719 44.30142211914062 28.29598617553711 44.85589218139648 29.23288536071777 44.85589218139648 M 29.23288536071777 46.85589218139648 C 27.66493034362793 46.85589218139648 26.21185684204102 45.99067687988281 25.45041084289551 44.62783432006836 C 25.34415435791016 44.46974563598633 25.26015090942383 44.29601287841797 25.20215225219727 44.11114883422852 C 25.07859039306641 43.79544448852539 24.9926815032959 43.45588302612305 24.94579887390137 43.09779357910156 L 23.33917999267578 36.64767074584961 L 19.25446701049805 32.9211540222168 C 18.53407287597656 32.48517990112305 17.91945838928223 31.90498924255371 17.46258926391602 31.22823715209961 C 17.41525459289551 31.16277885437012 17.37197113037109 31.09455680847168 17.33300590515137 31.02409172058105 C 16.84518623352051 30.2312068939209 16.55878639221191 29.34190368652344 16.49419975280762 28.42485237121582 C 15.9394645690918 29.93260955810547 14.49193382263184 30.9604320526123 12.87003517150879 30.9604320526123 C 10.7360954284668 30.9604320526123 9.000005722045898 29.22433280944824 9.000005722045898 27.09037208557129 C 9.000005722045898 26.4393367767334 9.168123245239258 25.79672431945801 9.48764705657959 25.22101783752441 L 12.08988571166992 19.08207321166992 C 12.11011219024658 19.03435897827148 12.13216590881348 18.98749732971191 12.15599155426025 18.94157600402832 C 12.40531539916992 18.39459419250488 12.78195762634277 17.91193199157715 13.25668430328369 17.53121757507324 C 13.29082679748535 17.50115776062012 13.32602214813232 17.47223663330078 13.36219501495361 17.44453239440918 L 18.92649459838867 13.18268203735352 C 19.9237060546875 12.41977214813232 21.16286468505859 12.00000190734863 22.41658592224121 12.00000190734863 L 24.53347587585449 12.00000190734863 C 24.53745460510254 12.00000190734863 24.54144287109375 12.00001525878906 24.54542350769043 12.00003910064697 C 24.54953765869141 12.00001525878906 24.55366325378418 12.00000190734863 24.55778503417969 12.00000190734863 C 27.46508598327637 12.00000190734863 29.83034515380859 14.36528205871582 29.83034515380859 17.27260208129883 C 29.83034515380859 17.6608829498291 29.78070068359375 18.05544090270996 29.6790599822998 18.47163200378418 C 29.66716957092285 18.55992889404297 29.64934921264648 18.6479606628418 29.62562561035156 18.73520278930664 L 27.21065521240234 27.61639595031738 L 31.05060577392578 32.76859283447266 C 31.20895576477051 32.98105239868164 31.32350540161133 33.22287368774414 31.38760566711426 33.4799919128418 L 33.21969223022461 40.82936096191406 C 33.45254516601562 41.37260818481445 33.5704345703125 41.9396858215332 33.5704345703125 42.5183219909668 C 33.5704345703125 44.91006088256836 31.62461471557617 46.85589218139648 29.23288536071777 46.85589218139648 Z"/></g></g><g class="d" transform="translate(11.991 3)"><ellipse class="e" cx="2.465" cy="2.465" rx="2.465" ry="2.465"/><ellipse class="g" cx="2.465" cy="2.465" rx="3.465" ry="3.465"/></g></g></g></svg>