<svg xmlns="http://www.w3.org/2000/svg" xmlns:xlink="http://www.w3.org/1999/xlink" width="32" height="32" viewBox="0 0 32 32"><defs><style>.a,.b{fill:none;}.a{stroke:#2f2f2f;stroke-width:2px;}.c{clip-path:url(#a);}.d,.f{fill:#2f2f2f;}.e,.f{stroke:none;}</style><clipPath id="a"><path class="a" d="M2613.852-1862.945a15.9,15.9,0,0,1-11.314-4.686,15.894,15.894,0,0,1-4.686-11.313,15.9,15.9,0,0,1,4.686-11.314,15.9,15.9,0,0,1,11.314-4.686,15.9,15.9,0,0,1,11.314,4.686,15.9,15.9,0,0,1,4.686,11.314,15.894,15.894,0,0,1-4.686,11.313A15.9,15.9,0,0,1,2613.852-1862.945Zm0-26a10.012,10.012,0,0,0-10,10,10.011,10.011,0,0,0,10,10,10.011,10.011,0,0,0,10-10A10.012,10.012,0,0,0,2613.852-1888.945Z" transform="translate(-2600.5 1892.5)"/></clipPath></defs><g transform="translate(2.648 2.445)"><g class="b" transform="translate(-0.648 -0.445)"><path class="e" d="M14,0A14,14,0,1,1,0,14,14,14,0,0,1,14,0Z"/><path class="f" d="M 14 3 C 11.06179046630859 3 8.299449920654297 4.144199371337891 6.221820831298828 6.221820831298828 C 4.144199371337891 8.299449920654297 3 11.06179046630859 3 14 C 3 16.93820953369141 4.144199371337891 19.7005500793457 6.221820831298828 21.77817916870117 C 8.299449920654297 23.85580062866211 11.06179046630859 25 14 25 C 16.93820953369141 25 19.7005500793457 23.85580062866211 21.77817916870117 21.77817916870117 C 23.85580062866211 19.7005500793457 25 16.93820953369141 25 14 C 25 11.06179046630859 23.85580062866211 8.299449920654297 21.77817916870117 6.221820831298828 C 19.7005500793457 4.144199371337891 16.93820953369141 3 14 3 M 14 0 C 21.73199081420898 0 28 6.268009185791016 28 14 C 28 21.73199081420898 21.73199081420898 28 14 28 C 6.268009185791016 28 0 21.73199081420898 0 14 C 0 6.268009185791016 6.268009185791016 0 14 0 Z"/></g><g class="c"><line class="a" y2="40" transform="translate(13.352 -6.445)"/><line class="a" y2="40" transform="translate(33.352 13.555) rotate(90)"/></g><path class="d" d="M0,0V12L8,6Z" transform="translate(7.352 17.055) rotate(-90)"/></g></svg>