<svg xmlns="http://www.w3.org/2000/svg" viewBox="0 0 48.005 64"><defs><style>.a{fill:#ff9802;}.b,.d{fill:#fff;}.b{stroke-linejoin:round;}.c,.d{stroke:none;}</style></defs><g transform="translate(-15 -585.295)"><rect class="a" width="48.005" height="64" rx="3" transform="translate(15 585.295)"/><g transform="translate(21.001 596.478)"><g class="b" transform="translate(0 0)"><path class="c" d="M 11.88771533966064 30.25339508056641 L 11.63771533966064 30.25339508056641 L 5.818554878234863 30.25339508056641 L 5.568554878234863 30.25339508056641 L 5.568554878234863 30.00339508056641 L 5.568554878234863 12.25130558013916 L 5.108947789267404e-06 12.25130558013916 L -0.4909248948097229 12.25130558013916 L -0.2021848857402802 11.8542652130127 L 8.525634765625 -0.1470443606376648 L 8.727814674377441 -0.4250543713569641 L 8.930005073547363 -0.1470543742179871 L 17.65845489501953 11.85425567626953 L 17.94722557067871 12.25130558013916 L 17.45627593994141 12.25130558013916 L 11.88771533966064 12.25130558013916 L 11.88771533966064 30.00339508056641 L 11.88771533966064 30.25339508056641 Z"/><path class="d" d="M 11.63771533966064 30.00339508056641 L 11.63771533966064 12.00130558013916 L 17.45627593994141 12.00130558013916 L 8.727825164794922 -4.367065230326261e-06 L 5.108947789267404e-06 12.00130558013916 L 5.818554878234863 12.00130558013916 L 5.818554878234863 30.00339508056641 L 11.63771533966064 30.00339508056641 M 11.63771533966064 30.50339508056641 L 5.818554878234863 30.50339508056641 C 5.542415142059326 30.50339508056641 5.318554878234863 30.2795352935791 5.318554878234863 30.00339508056641 L 5.318554878234863 12.50130558013916 L 5.108947789267404e-06 12.50130558013916 C -0.1880548894405365 12.50130558013916 -0.36021488904953 12.39578533172607 -0.4455448985099792 12.22819519042969 C -0.530884861946106 12.06061553955078 -0.5149748921394348 11.85932540893555 -0.4043648838996887 11.70722579956055 L 8.323454856872559 -0.294084370136261 C 8.417534828186035 -0.4234543740749359 8.567845344543457 -0.5000043511390686 8.727814674377441 -0.5000043511390686 C 8.887784957885742 -0.5000043511390686 9.038095474243164 -0.4234643578529358 9.132184982299805 -0.2940943539142609 L 17.86063575744629 11.70721530914307 C 17.97125434875488 11.8593053817749 17.98717498779297 12.06060600280762 17.90183448791504 12.22819519042969 C 17.81649589538574 12.39577579498291 17.64433479309082 12.50130558013916 17.45627593994141 12.50130558013916 L 12.13771533966064 12.50130558013916 L 12.13771533966064 30.00339508056641 C 12.13771533966064 30.2795352935791 11.91385555267334 30.50339508056641 11.63771533966064 30.50339508056641 Z"/></g><g class="b" transform="translate(18.547 13.092)"><path class="c" d="M 8.727814674377441 30.42844581604004 L 8.525634765625 30.15043640136719 L -0.2021848857402802 18.14912605285645 L -0.4909248948097229 17.75208473205566 L 5.108947789267404e-06 17.75208473205566 L 5.568554878234863 17.75208473205566 L 5.568554878234863 -4.367065230326261e-06 L 5.568554878234863 -0.250004380941391 L 5.818554878234863 -0.250004380941391 L 11.63771533966064 -0.250004380941391 L 11.88771533966064 -0.250004380941391 L 11.88771533966064 -4.367065230326261e-06 L 11.88771533966064 17.75208473205566 L 17.45627593994141 17.75208473205566 L 17.94722557067871 17.75208473205566 L 17.65845489501953 18.14913558959961 L 8.930005073547363 30.15044593811035 L 8.727814674377441 30.42844581604004 Z"/><path class="d" d="M 8.727825164794922 30.00339508056641 L 17.45627593994141 18.00208473205566 L 11.63771533966064 18.00208473205566 L 11.63771533966064 -4.367065230326261e-06 L 5.818554878234863 -4.367065230326261e-06 L 5.818554878234863 18.00208473205566 L 5.108947789267404e-06 18.00208473205566 L 8.727825164794922 30.00339508056641 M 8.727814674377441 30.50339508056641 C 8.567845344543457 30.50339508056641 8.417534828186035 30.42684555053711 8.323454856872559 30.29747581481934 L -0.4043648838996887 18.29616546630859 C -0.5149748921394348 18.14406585693359 -0.530884861946106 17.94277572631836 -0.4455448985099792 17.77519607543945 C -0.36021488904953 17.60760498046875 -0.1880548894405365 17.50208473205566 5.108947789267404e-06 17.50208473205566 L 5.318554878234863 17.50208473205566 L 5.318554878234863 -4.367065230326261e-06 C 5.318554878234863 -0.2761443555355072 5.542415142059326 -0.5000043511390686 5.818554878234863 -0.5000043511390686 L 11.63771533966064 -0.5000043511390686 C 11.91385555267334 -0.5000043511390686 12.13771533966064 -0.2761443555355072 12.13771533966064 -4.367065230326261e-06 L 12.13771533966064 17.50208473205566 L 17.45627593994141 17.50208473205566 C 17.64433479309082 17.50208473205566 17.81649589538574 17.60761642456055 17.90183448791504 17.77519607543945 C 17.98717498779297 17.94278526306152 17.97125434875488 18.14408493041992 17.86063575744629 18.29617500305176 L 9.132184982299805 30.2974853515625 C 9.038095474243164 30.42685508728027 8.887784957885742 30.50339508056641 8.727814674377441 30.50339508056641 Z"/></g></g></g></svg>