<svg xmlns="http://www.w3.org/2000/svg" viewBox="0 0 48.005 64"><defs><style>.a{fill:#ff9802;}.b,.d{fill:#fff;}.b{stroke:#fff;}.b,.c{stroke-linecap:round;stroke-linejoin:round;}.c,.f{fill:none;}.c,.d{stroke:#ff9802;}.c{stroke-width:2px;}.e{stroke:none;}</style></defs><g transform="translate(-128.005 -344)"><rect class="a" width="48.005" height="64" rx="3" transform="translate(128.005 344)"/><g transform="translate(-2.297 -6.441)"><path class="b" d="M3711,481.142l18.284,9.142,18.284-9.142L3729.284,472,3711,481.142" transform="translate(-3574.995 -84.43)"/><g transform="translate(136.005 373.285)"><path class="c" d="M3711,481.142l18.284,9.142,18.284-9.142L3729.284,472,3711,481.142" transform="translate(-3711 -470.857)"/><path class="b" d="M3711,481.142l18.284,9.142,18.284-9.142L3729.284,472,3711,481.142" transform="translate(-3711 -472)"/></g><g transform="translate(136.005 359)"><path class="c" d="M3711,481.142l18.284,9.142,18.284-9.142L3729.284,472,3711,481.142" transform="translate(-3711 -470.857)"/><path class="b" d="M3711,481.142l18.284,9.142,18.284-9.142L3729.284,472,3711,481.142" transform="translate(-3711 -472)"/></g></g><circle class="a" cx="3" cy="3" r="3" transform="translate(149.005 360)"/><circle class="a" cx="3" cy="3" r="3" transform="translate(149.005 389)"/><g class="d" transform="translate(151.005 363)"><rect class="e" width="2" height="28"/><rect class="f" x="0.5" y="0.5" width="1" height="27"/></g></g></svg>