<svg xmlns="http://www.w3.org/2000/svg" xmlns:xlink="http://www.w3.org/1999/xlink" viewBox="0 0 48 64"><defs><style>.a{fill:#7cb441;}.b{fill:url(#a);}.c,.d,.e,.g{fill:#fff;}.c,.e{stroke-linejoin:round;}.e{stroke-linecap:round;}.f,.g{stroke:none;}</style><linearGradient id="a" x1="0.5" x2="0.5" y2="0.941" gradientUnits="objectBoundingBox"><stop offset="0" stop-color="#7cb441"/><stop offset="0.828" stop-color="#eaf9fe"/><stop offset="1" stop-color="#fff"/></linearGradient></defs><g transform="translate(-288 -438)"><g transform="translate(32 -18)"><rect class="a" width="48" height="64" rx="3" transform="translate(256 456)"/></g><g transform="translate(1 -1)"><path class="b" d="M9.225,0H0L.553,21.088l8.672-2.1Z" transform="translate(319.728 452.449) rotate(30)"/><g class="c" transform="translate(309.9 473)"><path class="f" d="M 8.425137519836426 22.25 L 8.175137519836426 22.25 L -2.193756017732085e-06 22.25 L -0.2500022053718567 22.25 L -0.2500022053718567 22 L -0.2500022053718567 -1.77635683940025e-15 L -0.2500022053718567 -0.25 L -2.193756017732085e-06 -0.25 L 8.175137519836426 -0.25 L 8.425137519836426 -0.25 L 8.425137519836426 -1.77635683940025e-15 L 8.425137519836426 22 L 8.425137519836426 22.25 Z"/><path class="g" d="M -1.9073486328125e-06 0 L -1.9073486328125e-06 22 L 8.175137519836426 22 L 8.175137519836426 0 L -1.9073486328125e-06 0 M -1.9073486328125e-06 -0.5 L 8.175137519836426 -0.5 C 8.451277732849121 -0.5 8.675137519836426 -0.2761402130126953 8.675137519836426 0 L 8.675137519836426 22 C 8.675137519836426 22.2761402130127 8.451277732849121 22.5 8.175137519836426 22.5 L -1.9073486328125e-06 22.5 C -0.2761421203613281 22.5 -0.5000019073486328 22.2761402130127 -0.5000019073486328 22 L -0.5000019073486328 0 C -0.5000019073486328 -0.2761402130126953 -0.2761421203613281 -0.5 -1.9073486328125e-06 -0.5 Z"/></g><g class="d" transform="translate(301.315 459.014) rotate(-30)"><path class="f" d="M 7.763040065765381 20.30922889709473 L 7.456850051879883 20.22834777832031 L -0.06385000050067902 18.24170875549316 L -0.25 18.19253921508789 L -0.25 17.99999809265137 L -0.25 -1.442260781914229e-06 L -0.25 -0.2500014305114746 L 0 -0.2500014305114746 L 8 -0.2500014305114746 L 8.256070137023926 -0.2500014305114746 L 8.249930381774902 0.005988557823002338 L 7.7706298828125 19.99262809753418 L 7.763040065765381 20.30922889709473 Z"/><path class="g" d="M 0 -1.9073486328125e-06 L 0 17.99999809265137 L 7.520699977874756 19.98663902282715 L 8 -1.9073486328125e-06 L 0 -1.9073486328125e-06 M -0.5 -0.5000019073486328 L 0 -0.5000019073486328 L 8 -0.5000019073486328 L 8.512129783630371 -0.5000019073486328 L 8.499859809875488 0.01198768615722656 L 8.020560264587402 19.99862861633301 L 8.005370140075684 20.6318187713623 L 7.39300012588501 20.47005844116211 L -0.1276998519897461 18.48341941833496 L -0.5 18.38506889343262 L -0.5 17.99999809265137 L -0.5 -1.9073486328125e-06 L -0.5 -0.5000019073486328 Z"/></g><g class="e" transform="translate(295 464.196) rotate(-120)"><path class="f" d="M -0.2499957382678986 24.60354995727539 L -0.2499957382678986 24 L -0.2499957382678986 -1.77635683940025e-15 L -0.2499957382678986 -0.6035500168800354 L 0.1767842620611191 -0.1767800003290176 L 12.17674446105957 11.82322025299072 L 12.35351467132568 12 L 12.17674446105957 12.17677974700928 L 0.1767842620611191 24.17678070068359 L -0.2499957382678986 24.60354995727539 Z"/><path class="g" d="M 3.814697265625e-06 0 L 3.814697265625e-06 24 L 11.99996471405029 12 L 3.814697265625e-06 0 M -0.0001058578491210938 -0.5000133514404297 C 0.1300268173217773 -0.5000133514404297 0.2579021453857422 -0.4492092132568359 0.3535547256469727 -0.3535499572753906 L 12.35351467132568 11.64645004272461 C 12.54878425598145 11.84171009063721 12.54878425598145 12.15828990936279 12.35351467132568 12.35354995727539 L 0.3535547256469727 24.35354995727539 C 0.2579107284545898 24.44919967651367 0.1300144195556641 24.50001335144043 -0.0001058578491210938 24.50001335144043 C -0.06451797485351562 24.50001335144043 -0.1294698715209961 24.48756408691406 -0.1913356781005859 24.46194076538086 C -0.3781757354736328 24.38455009460449 -0.4999961853027344 24.20223045349121 -0.4999961853027344 24 L -0.4999961853027344 0 C -0.4999961853027344 -0.2022304534912109 -0.3781757354736328 -0.3845500946044922 -0.1913356781005859 -0.4619407653808594 C -0.129481315612793 -0.4875602722167969 -0.06450653076171875 -0.5000133514404297 -0.0001058578491210938 -0.5000133514404297 Z"/></g></g></g></svg>