<svg xmlns="http://www.w3.org/2000/svg" xmlns:xlink="http://www.w3.org/1999/xlink" viewBox="0 0 48 64"><defs><style>.a{fill:#7cb441;}.b{fill:url(#a);}.c,.d,.e,.g{fill:#fff;}.c,.e{stroke-linejoin:round;}.e{stroke-linecap:round;}.f,.g{stroke:none;}</style><linearGradient id="a" x1="0.5" x2="0.5" y2="0.941" gradientUnits="objectBoundingBox"><stop offset="0" stop-color="#fff"/><stop offset="0.182" stop-color="#eaf9fe"/><stop offset="1" stop-color="#7cb441"/></linearGradient></defs><g transform="translate(-200 -96)"><rect class="a" width="48" height="64" rx="3" transform="translate(200 96)"/><g transform="translate(-81.221 -343)"><path class="b" d="M8.876,21.089l-9.232,0L.187,0l8.68,2.1Z" transform="translate(306.685 470.892) rotate(150)"/><g class="c" transform="translate(298.102 473)"><path class="f" d="M 8.43402099609375 22.25 L 8.18402099609375 22.25 L 1.451721232115233e-06 22.25 L -0.2499985545873642 22.25 L -0.2499985545873642 22 L -0.2499985545873642 -1.77635683940025e-15 L -0.2499985545873642 -0.25 L 1.451721232115233e-06 -0.25 L 8.18402099609375 -0.25 L 8.43402099609375 -0.25 L 8.43402099609375 -1.77635683940025e-15 L 8.43402099609375 22 L 8.43402099609375 22.25 Z"/><path class="g" d="M 1.9073486328125e-06 0 L 1.9073486328125e-06 22 L 8.18402099609375 22 L 8.18402099609375 0 L 1.9073486328125e-06 0 M 1.9073486328125e-06 -0.5 L 8.18402099609375 -0.5 C 8.460161209106445 -0.5 8.68402099609375 -0.2761402130126953 8.68402099609375 0 L 8.68402099609375 22 C 8.68402099609375 22.2761402130127 8.460161209106445 22.5 8.18402099609375 22.5 L 1.9073486328125e-06 22.5 C -0.2761383056640625 22.5 -0.4999980926513672 22.2761402130127 -0.4999980926513672 22 L -0.4999980926513672 0 C -0.4999980926513672 -0.2761402130126953 -0.2761383056640625 -0.5 1.9073486328125e-06 -0.5 Z"/></g><g class="d" transform="translate(305.121 476.635) rotate(-150)"><path class="f" d="M 0.1089857220649719 20.38946342468262 L 0.109105721116066 20.13922500610352 L 0.1175757199525833 2.134334325790405 L 0.1176657229661942 1.941944360733032 L 0.3036557137966156 1.892764329910278 L 7.831425666809082 -0.09794566035270691 L 8.137825965881348 -0.1789756566286087 L 8.145276069641113 0.1378643363714218 L 8.615555763244629 20.12970352172852 L 8.621575355529785 20.38546371459961 L 8.365745544433594 20.38558387756348 L 0.35922572016716 20.38934516906738 L 0.1089857220649719 20.38946342468262 Z"/><path class="g" d="M 0.3591057360172272 20.13934516906738 L 8.365625381469727 20.13558387756348 L 7.895345687866211 0.1437443494796753 L 0.3675757348537445 2.134454250335693 L 0.3591057360172272 20.13934516906738 M -0.1411342769861221 20.63957405090332 L -0.140894278883934 20.13910484313965 L -0.1324242800474167 2.134214401245117 L -0.132244274020195 1.749444365501404 L 0.2397457212209702 1.651074290275574 L 7.767515659332275 -0.3396356701850891 L 8.380305290222168 -0.5016856789588928 L 8.395205497741699 0.1319843381643295 L 8.865486145019531 20.12382507324219 L 8.87751579284668 20.63534355163574 L 8.365856170654297 20.63558387756348 L 0.359335720539093 20.63934516906738 L -0.1411342769861221 20.63957405090332 Z"/></g><g class="e" transform="translate(300.395 452.196) rotate(-60)"><path class="f" d="M -0.2384211272001266 24.6230640411377 L -0.238701120018959 24.01968383789062 L -0.2500011324882507 0.0001237448159372434 L -0.2502811253070831 -0.6040662527084351 L 0.1768188774585724 -0.1767262518405914 L 12.18569850921631 11.83870410919189 L 12.36233901977539 12.0154333114624 L 12.18569850921631 12.19216346740723 L 0.1881188750267029 24.19629287719727 L -0.2384211272001266 24.6230640411377 Z"/><path class="g" d="M 0.01129887718707323 24.01956367492676 L 12.00887870788574 12.0154333114624 L -1.122894332183932e-06 3.744811920114444e-06 L 0.01129887718707323 24.01956367492676 M 0.01118860393762589 24.51958084106445 C -0.05317168682813644 24.51958084106445 -0.1180477663874626 24.50715637207031 -0.1798711270093918 24.4815731048584 C -0.366721123456955 24.40426445007324 -0.4886011183261871 24.22201347351074 -0.4887011349201202 24.01980400085449 L -0.5000011324882507 0.0002437448129057884 C -0.5001011490821838 -0.2020562589168549 -0.3782811164855957 -0.3844862580299377 -0.1913911253213882 -0.4619162678718567 C -0.1295203119516373 -0.4875531196594238 -0.06453625857830048 -0.5000120401382446 -0.0001152635159087367 -0.5000120401382446 C 0.1300569623708725 -0.5000120401382446 0.25798299908638 -0.4491689503192902 0.3536488711833954 -0.3534562587738037 L 12.36252880096436 11.66197395324707 C 12.55765914916992 11.85721397399902 12.55765914916992 12.1736536026001 12.36252880096436 12.36889362335205 L 0.3649488687515259 24.37302398681641 C 0.2692969739437103 24.46872329711914 0.141345739364624 24.51958084106445 0.01118860393762589 24.51958084106445 Z"/></g></g></g></svg>