<svg xmlns="http://www.w3.org/2000/svg" viewBox="0 0 48 64"><defs><style>.a{fill:#7cb441;}.b,.d{fill:#fff;}.b{stroke-linejoin:round;}.c,.d{stroke:none;}</style></defs><g transform="translate(-256 -456)"><rect class="a" width="48" height="64" rx="3" transform="translate(256 456)"/><g class="b" transform="translate(264 468)"><path class="c" d="M 32.2498779296875 40.25024032592773 L 31.99987983703613 40.25024032592773 L 24.00036811828613 40.25024032592773 L 23.75036811828613 40.25024032592773 L 23.75036811828613 40.00024032592773 L 23.75036811828613 16.25 L 16.24987983703613 16.25 L 16.24987983703613 24.00024032592773 L 16.24987983703613 24.50024032592773 L 15.84987926483154 24.20024108886719 L -0.1500010341405869 12.20024013519287 L -0.4166610240936279 12.00024032592773 L -0.1500010341405869 11.8002405166626 L 15.84987926483154 -0.1999998390674591 L 16.24987983703613 -0.5000098347663879 L 16.24987983703613 1.629638575195713e-07 L 16.24987983703613 7.750490188598633 L 24.00036811828613 7.750490188598633 L 31.99987983703613 7.750490188598633 L 32.2498779296875 7.750490188598633 L 32.2498779296875 8.000490188598633 L 32.2498779296875 16 L 32.2498779296875 40.00024032592773 L 32.2498779296875 40.25024032592773 Z"/><path class="d" d="M 31.99987983703613 40.00024032592773 L 31.99987983703613 16 L 31.99987983703613 8.000490188598633 L 24.00036811828613 8.000490188598633 L 15.99987888336182 8.000490188598633 L 15.99987888336182 1.629638575195713e-07 L -1.0351562877986e-06 12.00024032592773 L 15.99987888336182 24.00024032592773 L 15.99987888336182 16 L 24.00036811828613 16 L 24.00036811828613 40.00024032592773 L 31.99987983703613 40.00024032592773 M 31.99987983703613 40.50024032592773 L 24.00036811828613 40.50024032592773 C 23.72422981262207 40.50024032592773 23.50036811828613 40.2763786315918 23.50036811828613 40.00024032592773 L 23.50036811828613 16.5 L 16.49987983703613 16.5 L 16.49987983703613 24.00024032592773 C 16.49987983703613 24.18963050842285 16.39287948608398 24.36276054382324 16.22348976135254 24.44745063781738 C 16.15273666381836 24.48282623291016 16.07615089416504 24.5002384185791 15.99993705749512 24.50024223327637 C 15.89367294311523 24.50024795532227 15.78810882568359 24.46641159057617 15.69987869262695 24.40023994445801 L -0.3000010251998901 12.40023994445801 C -0.4259010255336761 12.30580997467041 -0.5000010132789612 12.15762042999268 -0.5000010132789612 12.00024032592773 C -0.5000010132789612 11.84286975860596 -0.4259110391139984 11.69466972351074 -0.3000110387802124 11.60023975372314 L 15.69986915588379 -0.3999998271465302 C 15.78808975219727 -0.4661637842655182 15.89368724822998 -0.5000036358833313 15.99993991851807 -0.5000036358833313 C 16.0761661529541 -0.5000036358833313 16.1527214050293 -0.4825969338417053 16.22347831726074 -0.4472198486328125 C 16.39287948608398 -0.3625198304653168 16.49987983703613 -0.1893898397684097 16.49987983703613 1.629638575195713e-07 L 16.49987983703613 7.500490188598633 L 24.00036811828613 7.500490188598633 L 31.99987983703613 7.500490188598633 C 32.27602005004883 7.500490188598633 32.4998779296875 7.724349975585938 32.4998779296875 8.000490188598633 L 32.4998779296875 16 L 32.4998779296875 40.00024032592773 C 32.4998779296875 40.2763786315918 32.27602005004883 40.50024032592773 31.99987983703613 40.50024032592773 Z"/></g></g></svg>