<svg xmlns="http://www.w3.org/2000/svg" viewBox="0 0 48 64"><defs><style>.a{fill:#7cb441;}.b,.d{fill:#fff;}.b{stroke-linejoin:round;}.c,.d{stroke:none;}</style></defs><g transform="translate(-216 -464)"><rect class="a" width="48" height="64" rx="3" transform="translate(216 464)"/><g class="b" transform="translate(1997 4191)"><path class="c" d="M -1764.750122070312 -3674.75 L -1765.000122070312 -3674.75 L -1772.999633789062 -3674.75 L -1773.249633789062 -3674.75 L -1773.249633789062 -3675 L -1773.249633789062 -3706.999755859375 L -1773.249633789062 -3707.249755859375 L -1772.999633789062 -3707.249755859375 L -1765.000122070312 -3707.249755859375 L -1757.249755859375 -3707.249755859375 L -1757.249755859375 -3715.000244140625 L -1757.249755859375 -3715.500244140625 L -1756.849731445312 -3715.2001953125 L -1740.849731445312 -3703.199951171875 L -1740.583129882812 -3703 L -1740.849731445312 -3702.800048828125 L -1756.849731445312 -3690.800048828125 L -1757.249755859375 -3690.5 L -1757.249755859375 -3691 L -1757.249755859375 -3698.750244140625 L -1764.750122070312 -3698.750244140625 L -1764.750122070312 -3675 L -1764.750122070312 -3674.75 Z"/><path class="d" d="M -1765.000122070312 -3675 L -1765.000122070312 -3699.000244140625 L -1756.999755859375 -3699.000244140625 L -1756.999755859375 -3691 L -1740.999755859375 -3703 L -1756.999755859375 -3715.000244140625 L -1756.999755859375 -3706.999755859375 L -1765.000122070312 -3706.999755859375 L -1772.999633789062 -3706.999755859375 L -1772.999633789062 -3675 L -1765.000122070312 -3675 M -1765.000122070312 -3674.5 L -1772.999633789062 -3674.5 C -1773.275756835938 -3674.5 -1773.499633789062 -3674.723876953125 -1773.499633789062 -3675 L -1773.499633789062 -3706.999755859375 C -1773.499633789062 -3707.27587890625 -1773.275756835938 -3707.499755859375 -1772.999633789062 -3707.499755859375 L -1765.000122070312 -3707.499755859375 L -1757.499755859375 -3707.499755859375 L -1757.499755859375 -3715.000244140625 C -1757.499755859375 -3715.189697265625 -1757.392700195312 -3715.36279296875 -1757.223388671875 -3715.447509765625 C -1757.152587890625 -3715.48291015625 -1757.076049804688 -3715.500244140625 -1756.999755859375 -3715.500244140625 C -1756.8935546875 -3715.500244140625 -1756.787963867188 -3715.46630859375 -1756.69970703125 -3715.400146484375 L -1740.69970703125 -3703.39990234375 C -1740.573852539062 -3703.3056640625 -1740.499755859375 -3703.157470703125 -1740.499755859375 -3703 C -1740.499755859375 -3702.842529296875 -1740.573852539062 -3702.6943359375 -1740.69970703125 -3702.60009765625 L -1756.69970703125 -3690.60009765625 C -1756.787963867188 -3690.533935546875 -1756.8935546875 -3690.5 -1756.999755859375 -3690.5 C -1757.076049804688 -3690.5 -1757.152587890625 -3690.517333984375 -1757.223388671875 -3690.552734375 C -1757.392700195312 -3690.637451171875 -1757.499755859375 -3690.810546875 -1757.499755859375 -3691 L -1757.499755859375 -3698.500244140625 L -1764.500122070312 -3698.500244140625 L -1764.500122070312 -3675 C -1764.500122070312 -3674.723876953125 -1764.723999023438 -3674.5 -1765.000122070312 -3674.5 Z"/></g></g></svg>