<svg xmlns="http://www.w3.org/2000/svg" viewBox="0 0 48 64"><defs><style>.a{fill:#7cb441;}.b,.d{fill:#fff;}.b{stroke-linejoin:round;}.c,.d{stroke:none;}</style></defs><g transform="translate(304 520) rotate(180)"><rect class="a" width="48" height="64" rx="3" transform="translate(256 456)"/><g class="b" transform="translate(3978.101 -1270.6) rotate(-90)"><path class="c" d="M -1758.6005859375 -3682.264404296875 L -1758.767822265625 -3682.4150390625 L -1773.166748046875 -3695.37451171875 L -1773.651000976562 -3695.810302734375 L -1772.99951171875 -3695.810302734375 L -1763.650390625 -3695.810302734375 L -1763.650390625 -3715.000244140625 L -1763.650390625 -3715.250244140625 L -1763.400390625 -3715.250244140625 L -1753.7998046875 -3715.250244140625 L -1753.5498046875 -3715.250244140625 L -1753.5498046875 -3715.000244140625 L -1753.5498046875 -3695.810302734375 L -1744.200439453125 -3695.810302734375 L -1743.548950195312 -3695.810302734375 L -1744.033203125 -3695.37451171875 L -1758.433349609375 -3682.4150390625 L -1758.6005859375 -3682.264404296875 Z"/><path class="d" d="M -1758.6005859375 -3682.600830078125 L -1744.200439453125 -3695.560302734375 L -1753.7998046875 -3695.560302734375 L -1753.7998046875 -3715.000244140625 L -1763.400390625 -3715.000244140625 L -1763.400390625 -3695.560302734375 L -1772.99951171875 -3695.560302734375 L -1758.6005859375 -3682.600830078125 M -1758.6005859375 -3682.100830078125 C -1758.720336914062 -3682.100830078125 -1758.839965820312 -3682.1435546875 -1758.93505859375 -3682.229248046875 L -1773.333984375 -3695.188720703125 C -1773.487915039062 -3695.3271484375 -1773.54052734375 -3695.546142578125 -1773.46630859375 -3695.739501953125 C -1773.392211914062 -3695.9326171875 -1773.20654296875 -3696.060302734375 -1772.99951171875 -3696.060302734375 L -1763.900390625 -3696.060302734375 L -1763.900390625 -3715.000244140625 C -1763.900390625 -3715.2763671875 -1763.676513671875 -3715.500244140625 -1763.400390625 -3715.500244140625 L -1753.7998046875 -3715.500244140625 C -1753.523681640625 -3715.500244140625 -1753.2998046875 -3715.2763671875 -1753.2998046875 -3715.000244140625 L -1753.2998046875 -3696.060302734375 L -1744.200439453125 -3696.060302734375 C -1743.993408203125 -3696.060302734375 -1743.807739257812 -3695.9326171875 -1743.733642578125 -3695.739501953125 C -1743.659423828125 -3695.546142578125 -1743.712036132812 -3695.3271484375 -1743.865966796875 -3695.188720703125 L -1758.26611328125 -3682.229248046875 C -1758.361206054688 -3682.1435546875 -1758.480834960938 -3682.100830078125 -1758.6005859375 -3682.100830078125 Z"/></g></g></svg>