<svg xmlns="http://www.w3.org/2000/svg" xmlns:xlink="http://www.w3.org/1999/xlink" viewBox="0 0 48 64"><defs><style>.a{fill:#7cb441;}.b,.e{fill:#fff;}.b{stroke-linejoin:round;}.c{fill:url(#a);}.d,.e{stroke:none;}</style><linearGradient id="a" x1="0.5" x2="0.5" y2="0.941" gradientUnits="objectBoundingBox"><stop offset="0" stop-color="#7cb441"/><stop offset="0.828" stop-color="#eaf9fe"/><stop offset="1" stop-color="#fff"/></linearGradient></defs><g transform="translate(-288 -440)"><g transform="translate(32 -16)"><rect class="a" width="48" height="64" rx="3" transform="translate(256 456)"/></g><g class="b" transform="translate(319.825 464)"><path class="d" d="M 8.425137519836426 32.25 L 8.175137519836426 32.25 L -2.193756017732085e-06 32.25 L -0.2500022053718567 32.25 L -0.2500022053718567 32 L -0.2500022053718567 0 L -0.2500022053718567 -0.25 L -2.193756017732085e-06 -0.25 L 8.175137519836426 -0.25 L 8.425137519836426 -0.25 L 8.425137519836426 0 L 8.425137519836426 32 L 8.425137519836426 32.25 Z"/><path class="e" d="M -1.9073486328125e-06 0 L -1.9073486328125e-06 32 L 8.175137519836426 32 L 8.175137519836426 0 L -1.9073486328125e-06 0 M -1.9073486328125e-06 -0.5 L 8.175137519836426 -0.5 C 8.451277732849121 -0.5 8.675137519836426 -0.2761383056640625 8.675137519836426 0 L 8.675137519836426 32 C 8.675137519836426 32.27613830566406 8.451277732849121 32.5 8.175137519836426 32.5 L -1.9073486328125e-06 32.5 C -0.2761421203613281 32.5 -0.5000019073486328 32.27613830566406 -0.5000019073486328 32 L -0.5000019073486328 0 C -0.5000019073486328 -0.2761383056640625 -0.2761421203613281 -0.5 -1.9073486328125e-06 -0.5 Z"/></g><path class="c" d="M0,0H9.173V18.86H0Z" transform="translate(319.331 448)"/><g class="b" transform="translate(325.978 466.908) rotate(120)"><path class="d" d="M -0.515457808971405 24.51545906066895 L -0.5126978158950806 24.2599983215332 L -0.2499878108501434 -0.002711716806516051 L -0.2473378032445908 -0.2473417222499847 L -0.002707806183025241 -0.2499917149543762 L 8.084861755371094 -0.3375617265701294 L 8.340322494506836 -0.3403217196464539 L 8.337562561035156 -0.08486171811819077 L 8.074851989746094 24.17784881591797 L 8.072201728820801 24.42247772216797 L 7.827572345733643 24.42512893676758 L -0.2599978148937225 24.51269912719727 L -0.515457808971405 24.51545906066895 Z"/><path class="e" d="M 8.08757209777832 -0.08757209777832031 L 2.384185791015625e-06 -1.9073486328125e-06 L -0.2627077102661133 24.26270866394043 L 7.824862003326416 24.17513847351074 L 8.08757209777832 -0.08757209777832031 M 8.087596893310547 -0.5875720977783203 C 8.220121383666992 -0.5875720977783203 8.347309112548828 -0.5349445343017578 8.441122055053711 -0.4411220550537109 C 8.536222457885742 -0.3460311889648438 8.58900260925293 -0.2166309356689453 8.587542533874512 -0.08216094970703125 L 8.324831962585449 24.1805477142334 C 8.321891784667969 24.45245742797852 8.102182388305664 24.67216873168945 7.830272197723389 24.67510795593262 L -0.2572975158691406 24.7626781463623 C -0.2591037750244141 24.76269721984863 -0.2609291076660156 24.76270866394043 -0.2627325057983398 24.76270866394043 C -0.3952569961547852 24.76270866394043 -0.5224447250366211 24.71008110046387 -0.6162576675415039 24.61625862121582 C -0.7113580703735352 24.52116775512695 -0.7641382217407227 24.39176750183105 -0.7626781463623047 24.25729751586914 L -0.4999675750732422 -0.005411148071289062 C -0.4970273971557617 -0.2773208618164062 -0.277318000793457 -0.4970321655273438 -0.005407810211181641 -0.4999713897705078 L 8.082161903381348 -0.5875415802001953 C 8.083968162536621 -0.5875606536865234 8.085793495178223 -0.5875720977783203 8.087596893310547 -0.5875720977783203 Z"/></g><g class="b" transform="translate(304.122 472.765) rotate(-150)"><path class="d" d="M 0.01804306544363499 24.75682258605957 L 0.01271306443959475 24.26541328430176 L -0.249986931681633 0.002712424611672759 L -0.255486935377121 -0.5060275793075562 L 0.1506030708551407 -0.1995475739240646 L 16.45708274841309 12.10694217681885 L 16.72316360473633 12.30775260925293 L 16.45587348937988 12.5069522857666 L 0.4120930731296539 24.46316337585449 L 0.01804306544363499 24.75682258605957 Z"/><path class="e" d="M 3.814697265625e-06 1.9073486328125e-06 L 0.2627029418945312 24.26270294189453 L 16.30648231506348 12.30649280548096 L 3.814697265625e-06 1.9073486328125e-06 M -6.29425048828125e-05 -0.4999980926513672 C 0.1066818237304688 -0.4999980926513672 0.2127342224121094 -0.4658622741699219 0.3012027740478516 -0.3990974426269531 L 16.6076831817627 11.90739250183105 C 16.73330307006836 12.00220203399658 16.80695343017578 12.15062236785889 16.80648231506348 12.30801200866699 C 16.80600357055664 12.46539211273193 16.73145294189453 12.61336231231689 16.60525321960449 12.70741271972656 L 0.5614728927612305 24.66362190246582 C 0.4735078811645508 24.72917747497559 0.368403434753418 24.7627067565918 0.2626457214355469 24.7627067565918 C 0.187042236328125 24.7627067565918 0.1111183166503906 24.74558258056641 0.04083251953125 24.71078300476074 C -0.1277675628662109 24.6273021697998 -0.2352275848388672 24.45624160766602 -0.2372665405273438 24.26811218261719 L -0.4999675750732422 0.005413055419921875 C -0.5020275115966797 -0.1852073669433594 -0.3955268859863281 -0.3604183197021484 -0.2253570556640625 -0.4463367462158203 C -0.1541233062744141 -0.4822978973388672 -0.07691001892089844 -0.4999980926513672 -6.29425048828125e-05 -0.4999980926513672 Z"/></g></g></svg>