<svg xmlns="http://www.w3.org/2000/svg" xmlns:xlink="http://www.w3.org/1999/xlink" viewBox="0 0 48 64"><defs><style>.a{fill:#7cb441;}.b,.e{fill:#fff;}.b{stroke-linejoin:round;}.c{fill:url(#a);}.d,.e{stroke:none;}</style><linearGradient id="a" x1="0.5" x2="0.5" y2="0.941" gradientUnits="objectBoundingBox"><stop offset="0" stop-color="#7cb441"/><stop offset="0.828" stop-color="#eaf9fe"/><stop offset="1" stop-color="#fff"/></linearGradient></defs><g transform="translate(-200 -96)"><rect class="a" width="48" height="64" rx="3" transform="translate(200 96)"/><g transform="translate(-82.496 -344)"><g class="b" transform="translate(290.504 464.027)"><path class="d" d="M 8.418763160705566 32.25 L 8.168763160705566 32.25 L 3.487701405902044e-06 32.25 L -0.2499965131282806 32.25 L -0.2499965131282806 32 L -0.2499965131282806 0 L -0.2499965131282806 -0.25 L 3.487701405902044e-06 -0.25 L 8.168763160705566 -0.25 L 8.418763160705566 -0.25 L 8.418763160705566 0 L 8.418763160705566 32 L 8.418763160705566 32.25 Z"/><path class="e" d="M 3.814697265625e-06 0 L 3.814697265625e-06 32 L 8.168763160705566 32 L 8.168763160705566 0 L 3.814697265625e-06 0 M 3.814697265625e-06 -0.5 L 8.168763160705566 -0.5 C 8.444903373718262 -0.5 8.668763160705566 -0.2761383056640625 8.668763160705566 0 L 8.668763160705566 32 C 8.668763160705566 32.27613830566406 8.444903373718262 32.5 8.168763160705566 32.5 L 3.814697265625e-06 32.5 C -0.2761363983154297 32.5 -0.4999961853027344 32.27613830566406 -0.4999961853027344 32 L -0.4999961853027344 0 C -0.4999961853027344 -0.2761383056640625 -0.2761363983154297 -0.5 3.814697265625e-06 -0.5 Z"/></g><path class="c" d="M9.166,0H0V18.846H9.166Z" transform="translate(290 448)"/><g class="b" transform="translate(313.389 454.558) rotate(60)"><path class="d" d="M 8.609699249267578 24.59170150756836 L 8.354069709777832 24.58884048461914 L 0.2680495977401733 24.49860000610352 L 0.0235896036028862 24.49588012695312 L 0.02085960283875465 24.25141143798828 L -0.2499803900718689 0.002790732774883509 L -0.2528403997421265 -0.2528392672538757 L 0.002789603546261787 -0.2499792724847794 L 8.088809967041016 -0.1597392708063126 L 8.333270072937012 -0.1570192724466324 L 8.335999488830566 0.08745073527097702 L 8.606839179992676 24.3360710144043 L 8.609699249267578 24.59170150756836 Z"/><path class="e" d="M 8.35685920715332 24.3388614654541 L 8.086019515991211 0.0902407318353653 L -3.964233314945886e-07 7.327270736823266e-07 L 0.2708396017551422 24.24862098693848 L 8.35685920715332 24.3388614654541 M 8.35686206817627 24.8388614654541 C 8.354999542236328 24.8388614654541 8.353143692016602 24.83885192871094 8.351279258728027 24.83883094787598 L 0.2652595937252045 24.74859046936035 C -0.006520396564155817 24.74556159973145 -0.2260904014110565 24.52597999572754 -0.2291304022073746 24.25419998168945 L -0.499970406293869 0.005580732598900795 C -0.5014703869819641 -0.1289492696523666 -0.4486903846263885 -0.2584092617034912 -0.3535603880882263 -0.3535492718219757 C -0.259738564491272 -0.4473710954189301 -0.1325344145298004 -0.5000003576278687 -2.818298298734589e-06 -0.5000003576278687 C 0.001859202631749213 -0.5000003576278687 0.003715554485097528 -0.4999900460243225 0.005579603370279074 -0.4999692738056183 L 8.091599464416504 -0.4097292721271515 C 8.36337947845459 -0.4066992700099945 8.582949638366699 -0.187119260430336 8.585989952087402 0.08466073125600815 L 8.856829643249512 24.33328056335449 C 8.858329772949219 24.46781158447266 8.805549621582031 24.59727096557617 8.710419654846191 24.69241142272949 C 8.616598129272461 24.78623199462891 8.48939323425293 24.8388614654541 8.35686206817627 24.8388614654541 Z"/></g><g class="b" transform="translate(302.254 451.756) rotate(-30)"><path class="d" d="M -0.2556653320789337 24.764404296875 L -0.2499753385782242 24.25527381896973 L 0.02075465768575668 -0.002785957651212811 L 0.02623465657234192 -0.4940459430217743 L 0.4201346635818481 -0.2004459649324417 L 16.45050430297852 11.74802398681641 L 16.71768379211426 11.94717407226562 L 16.4517650604248 12.14798450469971 L 0.1506646573543549 24.45757484436035 L -0.2556653320789337 24.764404296875 Z"/><path class="e" d="M 4.656982582673663e-06 24.25806427001953 L 16.30110549926758 11.94847393035889 L 0.2707346677780151 4.042358341393992e-06 L 4.656982582673663e-06 24.25806427001953 M -5.733520447392948e-05 24.7580680847168 C -0.07692552357912064 24.7580680847168 -0.1541148126125336 24.74037170410156 -0.2253653407096863 24.70439338684082 C -0.3955853283405304 24.61844444274902 -0.5020953416824341 24.44316482543945 -0.4999653398990631 24.25248336791992 L -0.2292353361845016 -0.005575957708060741 C -0.2271353453397751 -0.1936759650707245 -0.1196353435516357 -0.3646859526634216 0.04896465688943863 -0.448125958442688 C 0.1192036271095276 -0.4828850626945496 0.1951194703578949 -0.4999983906745911 0.2706702053546906 -0.4999983906745911 C 0.3764589428901672 -0.4999983906745911 0.4815543591976166 -0.466468870639801 0.5695446729660034 -0.4008859694004059 L 16.59991455078125 11.54758358001709 C 16.72607421875 11.64162445068359 16.80061531066895 11.78956413269043 16.80110549926758 11.94691371917725 C 16.80159378051758 12.10426425933838 16.72798538208008 12.25266361236572 16.60241508483887 12.34748363494873 L 0.301314651966095 24.65707397460938 C 0.2128398418426514 24.72389030456543 0.106715239584446 24.7580680847168 -5.733520447392948e-05 24.7580680847168 Z"/></g></g></g></svg>