<svg xmlns="http://www.w3.org/2000/svg" viewBox="0 0 48.005 64"><defs><style>.a{fill:#ff9802;}.b{fill:#fff;stroke:#fff;stroke-linejoin:round;}</style></defs><g transform="translate(-128 -344)"><rect class="a" width="48.005" height="64" rx="3" transform="translate(128 344)"/><path class="b" d="M4.22,48.482v-37H15.446a38.178,38.178,0,0,1,8.319.555,9.087,9.087,0,0,1,4.987,3.622,12.037,12.037,0,0,1,2.009,7.206A12.758,12.758,0,0,1,29.6,28.594a9.984,9.984,0,0,1-2.943,3.647A9.842,9.842,0,0,1,23.033,34a37.449,37.449,0,0,1-7.256.53H11.216V48.482Zm7-30.741v10.5h3.829a17,17,0,0,0,5.531-.58,4.652,4.652,0,0,0,2.186-1.817,5.219,5.219,0,0,0,.792-2.877,4.978,4.978,0,0,0-1.111-3.332,4.761,4.761,0,0,0-2.813-1.641,31.514,31.514,0,0,0-5.034-.252Z" transform="translate(134.653 346.518)"/></g></svg>