<svg xmlns="http://www.w3.org/2000/svg" viewBox="0 0 48 64"><defs><style>.a,.e{fill:#7cb441;}.b,.c,.h{fill:#fff;}.b,.d{stroke:#fff;}.b,.c{stroke-linecap:round;stroke-linejoin:round;}.b{stroke-width:0.5px;}.d,.g{fill:none;}.d{stroke-width:8px;}.e{opacity:0.6;}.f,.h{stroke:none;}</style></defs><g transform="translate(-216 -464)"><rect class="a" width="48" height="64" rx="3" transform="translate(216 464)"/><g transform="translate(8.186)"><g class="b" transform="translate(228.304 512)"><rect class="f" width="7.992" height="8"/><rect class="g" x="-0.25" y="-0.25" width="8.492" height="8.5"/></g><g class="b" transform="translate(228.305 484)"><rect class="f" width="7.992" height="8"/><rect class="g" x="-0.25" y="-0.25" width="8.492" height="8.5"/></g><g class="c" transform="translate(220.313 484) rotate(-90)"><path class="f" d="M -0.2499957382678986 24.58016586303711 L -0.2499957382678986 23.97701644897461 L -0.2499957382678986 -3.68286123375583e-06 L -0.2499957382678986 -0.6031537055969238 L 0.1766942590475082 -0.1768636852502823 L 12.17665386199951 11.81164646148682 L 12.353684425354 11.98850631713867 L 12.17665386199951 12.16536617279053 L 0.1766942590475082 24.15387725830078 L -0.2499957382678986 24.58016586303711 Z"/><path class="h" d="M 4.264373728801729e-06 23.97701644897461 L 11.99996471405029 11.98850631713867 L 4.264373728801729e-06 -3.68286123375583e-06 L 4.264373728801729e-06 23.97701644897461 M -0.0001012434368021786 24.47702789306641 C -0.06455909460783005 24.47702789306641 -0.1295429468154907 24.46456527709961 -0.1914457380771637 24.43890571594238 C -0.3782257437705994 24.36149597167969 -0.4999957382678986 24.17920684814453 -0.4999957382678986 23.97701644897461 L -0.4999957382678986 -3.68286123375583e-06 C -0.4999957382678986 -0.2021936774253845 -0.3782257437705994 -0.3844836950302124 -0.1914457380771637 -0.4618936777114868 C -0.129554346203804 -0.4875475764274597 -0.06454746425151825 -0.5000153183937073 -0.0001012825014186092 -0.5000153183937073 C 0.1299425512552261 -0.5000153183937073 0.2577486634254456 -0.4492723643779755 0.353384256362915 -0.3537236750125885 L 12.35334396362305 11.63478660583496 C 12.44722461700439 11.72856616973877 12.49996471405029 11.85581588745117 12.49996471405029 11.98850631713867 C 12.49996471405029 12.12119674682617 12.44722461700439 12.24844646453857 12.35334396362305 12.34222602844238 L 0.353384256362915 24.33073616027832 C 0.2577573955059052 24.42627716064453 0.129930317401886 24.47702789306641 -0.0001012434368021786 24.47702789306641 Z"/></g><g class="d" transform="translate(218.314 488)"><ellipse class="f" cx="13.987" cy="14" rx="13.987" ry="14"/><ellipse class="g" cx="13.987" cy="14" rx="9.987" ry="10"/></g><path class="e" d="M218.314,502l6.473-16.581L240.657,502l-16.614,14.6-5.729-14.069Z" transform="translate(13.309)"/></g></g></svg>