<svg xmlns="http://www.w3.org/2000/svg" viewBox="0 0 48 64"><defs><style>.a,.e{fill:#7cb441;}.b,.c,.h{fill:#fff;}.b,.d{stroke:#fff;}.b,.c{stroke-linecap:round;stroke-linejoin:round;}.b{stroke-width:0.5px;}.d,.g{fill:none;}.d{stroke-width:8px;}.e{opacity:0.6;}.f,.h{stroke:none;}</style></defs><g transform="translate(-216 -464)"><rect class="a" width="48" height="64" rx="3" transform="translate(216 464)"/><g class="b" transform="translate(236 512)"><rect class="f" width="8" height="8"/><rect class="g" x="-0.25" y="-0.25" width="8.5" height="8.5"/></g><g class="b" transform="translate(236 484)"><rect class="f" width="8" height="8"/><rect class="g" x="-0.25" y="-0.25" width="8.5" height="8.5"/></g><g class="c" transform="translate(228 484) rotate(-90)"><path class="f" d="M -0.2499957382678986 24.60354995727539 L -0.2499957382678986 24 L -0.2499957382678986 -1.77635683940025e-15 L -0.2499957382678986 -0.6035500168800354 L 0.1767842620611191 -0.1767800003290176 L 12.17674446105957 11.82322025299072 L 12.35351467132568 12 L 12.17674446105957 12.17677974700928 L 0.1767842620611191 24.17678070068359 L -0.2499957382678986 24.60354995727539 Z"/><path class="h" d="M 3.814697265625e-06 0 L 3.814697265625e-06 24 L 11.99996471405029 12 L 3.814697265625e-06 0 M -0.0001058578491210938 -0.5000133514404297 C 0.1300268173217773 -0.5000133514404297 0.2579021453857422 -0.4492092132568359 0.3535547256469727 -0.3535499572753906 L 12.35351467132568 11.64645004272461 C 12.54878425598145 11.84171009063721 12.54878425598145 12.15828990936279 12.35351467132568 12.35354995727539 L 0.3535547256469727 24.35354995727539 C 0.2579107284545898 24.44919967651367 0.1300144195556641 24.50001335144043 -0.0001058578491210938 24.50001335144043 C -0.06451797485351562 24.50001335144043 -0.1294698715209961 24.48756408691406 -0.1913356781005859 24.46194076538086 C -0.3781757354736328 24.38455009460449 -0.4999961853027344 24.20223045349121 -0.4999961853027344 24 L -0.4999961853027344 0 C -0.4999961853027344 -0.2022304534912109 -0.3781757354736328 -0.3845500946044922 -0.1913356781005859 -0.4619407653808594 C -0.129481315612793 -0.4875602722167969 -0.06450653076171875 -0.5000133514404297 -0.0001058578491210938 -0.5000133514404297 Z"/></g><g class="d" transform="translate(226 488)"><circle class="f" cx="14" cy="14" r="14"/><circle class="g" cx="14" cy="14" r="10"/></g><path class="e" d="M240.679,502,234.2,485.419,218.314,502l16.63,14.6,5.734-14.069Z"/></g></svg>