<svg xmlns="http://www.w3.org/2000/svg" viewBox="0 0 48 64"><defs><style>.a{fill:#7cb441;}.b,.d{fill:#fff;}.b{stroke-linejoin:round;}.c,.d{stroke:none;}</style></defs><g transform="translate(-256 -456)"><rect class="a" width="48" height="64" rx="3" transform="translate(256 456)"/><g class="b" transform="translate(4520.515 64.221)"><path class="c" d="M -4224.2646484375 448.0292053222656 L -4224.5146484375 448.0292053222656 L -4232.69091796875 448.0292053222656 L -4232.94091796875 448.0292053222656 L -4232.94091796875 447.7792053222656 L -4232.94091796875 419.0311584472656 L -4241.70556640625 427.60791015625 L -4236.107421875 433.0863037109375 L -4235.74365234375 433.4421691894531 L -4236.24755859375 433.5125732421875 L -4256.48046875 436.3402099609375 L -4256.810546875 436.3863525390625 L -4256.7626953125 436.0565185546875 L -4253.8720703125 416.2576904296875 L -4253.80078125 415.7713928222656 L -4253.44970703125 416.1151123046875 L -4247.84375 421.6010437011719 L -4236.5732421875 410.5725708007812 L -4236.57763671875 410.5657348632812 L -4236.43212890625 410.4341735839844 L -4236.28173828125 410.2873229980469 L -4236.27587890625 410.2931823730469 L -4224.68212890625 399.8143615722656 L -4224.2646484375 399.4369201660156 L -4224.2646484375 399.9998474121094 L -4224.2646484375 416.4646911621094 L -4224.2646484375 447.7792053222656 L -4224.2646484375 448.0292053222656 Z"/><path class="d" d="M -4224.5146484375 447.7792053222656 L -4224.5146484375 416.4646911621094 L -4224.5146484375 399.9998474121094 L -4236.2568359375 410.6128540039062 L -4236.18310546875 410.7347412109375 L -4236.2822265625 410.6374206542969 L -4247.84375 421.9508361816406 L -4253.62451171875 416.2937927246094 L -4256.51513671875 436.0926208496094 L -4236.2822265625 433.2649841308594 L -4242.06298828125 427.60791015625 L -4232.69091796875 418.4367370605469 L -4232.69091796875 447.7792053222656 L -4224.5146484375 447.7792053222656 M -4224.5146484375 448.2792053222656 L -4232.69091796875 448.2792053222656 C -4232.96728515625 448.2792053222656 -4233.19091796875 448.0553588867188 -4233.19091796875 447.7792053222656 L -4233.19091796875 419.6255798339844 L -4241.34814453125 427.60791015625 L -4235.9326171875 432.9076232910156 C -4235.79638671875 433.0409545898438 -4235.74755859375 433.2401733398438 -4235.80712890625 433.4212646484375 C -4235.86669921875 433.6023254394531 -4236.0244140625 433.7337951660156 -4236.212890625 433.7601623535156 L -4256.44580078125 436.5878295898438 C -4256.46923828125 436.5910339355469 -4256.4921875 436.5926208496094 -4256.51513671875 436.5926208496094 C -4256.6474609375 436.5926208496094 -4256.775390625 436.5401916503906 -4256.86962890625 436.4450988769531 C -4256.98095703125 436.3334655761719 -4257.03271484375 436.1761169433594 -4257.009765625 436.0203857421875 L -4254.119140625 416.2215576171875 C -4254.09228515625 416.035400390625 -4253.962890625 415.8802490234375 -4253.78466796875 415.820068359375 C -4253.73193359375 415.8023986816406 -4253.67822265625 415.7937927246094 -4253.62451171875 415.7937927246094 C -4253.49609375 415.7937927246094 -4253.36962890625 415.843505859375 -4253.27490234375 415.9364318847656 L -4247.84375 421.2512512207031 L -4236.6318359375 410.2800598144531 C -4236.626953125 410.2752380371094 -4236.6220703125 410.2705688476562 -4236.6171875 410.2660217285156 C -4236.60888671875 410.2577514648438 -4236.6005859375 410.2497253417969 -4236.59228515625 410.2419128417969 L -4224.85009765625 399.62890625 C -4224.75634765625 399.544189453125 -4224.63623046875 399.4998474121094 -4224.5146484375 399.4998474121094 C -4224.44580078125 399.4998474121094 -4224.376953125 399.5139465332031 -4224.3115234375 399.5428771972656 C -4224.130859375 399.6231079101562 -4224.0146484375 399.8021850585938 -4224.0146484375 399.9998474121094 L -4224.0146484375 416.4646911621094 L -4224.0146484375 447.7792053222656 C -4224.0146484375 448.0553588867188 -4224.23828125 448.2792053222656 -4224.5146484375 448.2792053222656 Z"/></g></g></svg>