<svg xmlns="http://www.w3.org/2000/svg" viewBox="0 0 48 64"><defs><style>.a{fill:#7cb441;}.b,.d{fill:#fff;}.b{stroke-linejoin:round;}.c,.d{stroke:none;}</style></defs><g transform="translate(-216 -464)"><rect class="a" width="48" height="64" rx="3" transform="translate(216 464)"/><g class="b" transform="translate(4480.516 72)"><path class="c" d="M -4248.08984375 448.0292053222656 L -4248.33984375 448.0292053222656 L -4256.51513671875 448.0292053222656 L -4256.76513671875 448.0292053222656 L -4256.76513671875 447.7792053222656 L -4256.76513671875 415.7789001464844 L -4256.76513671875 415.5289001464844 L -4256.763671875 415.5289001464844 L -4256.763671875 399.9998474121094 L -4256.763671875 399.4368286132812 L -4256.34619140625 399.8143920898438 L -4244.75390625 410.2938232421875 L -4244.748046875 410.2877807617188 L -4244.59228515625 410.4400634765625 L -4244.453125 410.5657653808594 L -4244.45703125 410.5722961425781 L -4233.18701171875 421.6012268066406 L -4227.5810546875 416.1151123046875 L -4227.22998046875 415.7713928222656 L -4227.15869140625 416.2576904296875 L -4224.26806640625 436.0565185546875 L -4224.22021484375 436.3863525390625 L -4224.55029296875 436.3402099609375 L -4244.78173828125 433.5125732421875 L -4245.28564453125 433.4421691894531 L -4244.921875 433.0863037109375 L -4239.32470703125 427.6080932617188 L -4248.08984375 419.0302734375 L -4248.08984375 447.7792053222656 L -4248.08984375 448.0292053222656 Z"/><path class="d" d="M -4248.33984375 447.7792053222656 L -4248.33984375 418.4358215332031 L -4238.96728515625 427.6080932617188 L -4244.7470703125 433.2649841308594 L -4224.515625 436.0926208496094 L -4227.40625 416.2937927246094 L -4233.18701171875 421.9510192871094 L -4244.748046875 410.6374206542969 L -4244.84765625 410.7347106933594 L -4244.77392578125 410.6128540039062 L -4256.513671875 399.9998474121094 L -4256.513671875 415.7789001464844 L -4256.51513671875 415.7789001464844 L -4256.51513671875 447.7792053222656 L -4248.33984375 447.7792053222656 M -4248.33984375 448.2792053222656 L -4256.51513671875 448.2792053222656 C -4256.79150390625 448.2792053222656 -4257.01513671875 448.0553588867188 -4257.01513671875 447.7792053222656 L -4257.01513671875 415.7789001464844 C -4257.01513671875 415.7659301757812 -4257.0146484375 415.7531127929688 -4257.013671875 415.7403869628906 L -4257.013671875 399.9998474121094 C -4257.013671875 399.8021850585938 -4256.8974609375 399.6230773925781 -4256.716796875 399.5428771972656 C -4256.6513671875 399.5139465332031 -4256.58251953125 399.4998474121094 -4256.513671875 399.4998474121094 C -4256.39208984375 399.4998474121094 -4256.27197265625 399.544189453125 -4256.17822265625 399.6289367675781 L -4244.4384765625 410.241943359375 C -4244.43115234375 410.2486877441406 -4244.423828125 410.2555541992188 -4244.4169921875 410.2626342773438 C -4244.41064453125 410.2682495117188 -4244.404296875 410.2740478515625 -4244.3984375 410.2800598144531 L -4233.18701171875 421.2514343261719 L -4227.755859375 415.9364318847656 C -4227.6611328125 415.843505859375 -4227.53466796875 415.7937927246094 -4227.40625 415.7937927246094 C -4227.3525390625 415.7937927246094 -4227.298828125 415.8023986816406 -4227.24609375 415.820068359375 C -4227.06787109375 415.8802490234375 -4226.9384765625 416.035400390625 -4226.91162109375 416.2215576171875 L -4224.02099609375 436.0203857421875 C -4223.998046875 436.1761169433594 -4224.0498046875 436.3334655761719 -4224.1611328125 436.4450988769531 C -4224.25537109375 436.5401916503906 -4224.38330078125 436.5926208496094 -4224.515625 436.5926208496094 C -4224.53857421875 436.5926208496094 -4224.5615234375 436.5910339355469 -4224.5849609375 436.5878295898438 L -4244.81640625 433.7601623535156 C -4245.0048828125 433.7337951660156 -4245.16259765625 433.6023559570312 -4245.22216796875 433.4212646484375 C -4245.28173828125 433.2402038574219 -4245.23291015625 433.0409851074219 -4245.0966796875 432.9076538085938 L -4239.68212890625 427.6081237792969 L -4247.83984375 419.6247253417969 L -4247.83984375 447.7792053222656 C -4247.83984375 448.0553588867188 -4248.0634765625 448.2792053222656 -4248.33984375 448.2792053222656 Z"/></g></g></svg>