<svg id="Layer_1" data-name="Layer 1" xmlns="http://www.w3.org/2000/svg" viewBox="0 0 50 52.03"><defs><style>.cls-1{fill:#fff;}.cls-2{fill:#ff9800;}</style></defs><title>sidewalk icon</title><rect class="cls-1" x="3.02" y="3.37" width="44.46" height="45.13"/><path class="cls-2" d="M50.33.67A2.15,2.15,0,0,0,48.65,0H3.35A2,2,0,0,0,1.67.67,2.15,2.15,0,0,0,1,2.35V49.65a2.15,2.15,0,0,0,.67,1.68A2.15,2.15,0,0,0,3.35,52h45.3a2,2,0,0,0,1.68-.67A2.15,2.15,0,0,0,51,49.65V2.35A2.15,2.15,0,0,0,50.33.67ZM47,48H4.86V4H47Z" transform="translate(-1 0.01)"/><g id="Layer_9" data-name="Layer 9"><path d="M23.37,17.64l-3.15,1.24v6H16.66V16.56l9.19-3.89a4.25,4.25,0,0,0,.7-.08,4.34,4.34,0,0,1,.7-.08,3.47,3.47,0,0,1,3,1.74l1.82,2.82a8.35,8.35,0,0,0,3.11,3.1,8.53,8.53,0,0,0,4.43,1.2v3.48a12.26,12.26,0,0,1-9.69-4.39l-1.07,5.3,3.73,3.56.84,13.25H29.84L29,32l-3.64-3.56-4.5,14.16H17.13Zm10.1-9.56a3.39,3.39,0,0,0-1-2.48,3.6,3.6,0,0,0-5.05,0,3.39,3.39,0,0,0-1,2.48,3.39,3.39,0,0,0,1,2.48,3.6,3.6,0,0,0,5.05,0A3.39,3.39,0,0,0,33.47,8.08Z" transform="translate(-1 0.01)"/></g><rect x="3.98" y="43.38" width="3.59" height="2.77"/><rect x="10.39" y="43.38" width="3.59" height="2.77"/><rect x="16.8" y="43.38" width="3.59" height="2.77"/><rect x="23.21" y="43.38" width="3.59" height="2.77"/><rect x="29.62" y="43.38" width="3.59" height="2.77"/><rect x="36.03" y="43.38" width="3.59" height="2.77"/><rect x="42.44" y="43.38" width="3.59" height="2.77"/><rect x="3.98" y="34.02" width="3.59" height="2.77"/><rect x="10.39" y="34.02" width="3.59" height="2.77"/><rect x="23.21" y="34.02" width="3.59" height="2.77"/><rect x="36.03" y="34.02" width="3.59" height="2.77"/><rect x="42.44" y="34.02" width="3.59" height="2.77"/></svg>