<svg xmlns="http://www.w3.org/2000/svg" viewBox="0 0 48 64"><defs><style>.a{fill:#7cb441;}.b,.d{fill:#fff;}.b{stroke-linejoin:round;}.c,.d{stroke:none;}</style></defs><g transform="translate(-288 -440)"><g transform="translate(32 -16)"><rect class="a" width="48" height="64" rx="3" transform="translate(256 456)"/></g><g class="b" transform="translate(2064.492 4154.492)"><path class="c" d="M -1739.3251953125 -3658.242431640625 L -1739.5751953125 -3658.242431640625 L -1749.64306640625 -3658.242431640625 L -1749.89306640625 -3658.242431640625 L -1749.89306640625 -3658.492431640625 L -1749.89306640625 -3684.419189453125 L -1753.814208984375 -3688.340087890625 L -1760.75634765625 -3681.397705078125 L -1761.10986328125 -3681.044189453125 L -1761.180541992188 -3681.5390625 L -1764.739379882812 -3706.45703125 L -1764.786499023438 -3706.787109375 L -1764.45654296875 -3706.739990234375 L -1739.539794921875 -3703.179931640625 L -1739.044921875 -3703.109130859375 L -1739.3984375 -3702.755615234375 L -1746.3408203125 -3695.813232421875 L -1739.47412109375 -3688.946533203125 L -1739.32763671875 -3688.946533203125 L -1739.3251953125 -3688.696533203125 L -1739.3251953125 -3658.492431640625 L -1739.3251953125 -3658.242431640625 Z"/><path class="d" d="M -1739.5751953125 -3658.492431640625 L -1739.5751953125 -3688.694091796875 L -1739.5751953125 -3688.696533203125 L -1739.57763671875 -3688.696533203125 L -1746.6943359375 -3695.813232421875 L -1739.5751953125 -3702.932373046875 L -1764.491943359375 -3706.492431640625 L -1760.93310546875 -3681.574462890625 L -1753.814208984375 -3688.693603515625 L -1749.64306640625 -3684.522705078125 L -1749.64306640625 -3658.492431640625 L -1739.5751953125 -3658.492431640625 M -1739.5751953125 -3657.992431640625 L -1749.64306640625 -3657.992431640625 C -1749.919189453125 -3657.992431640625 -1750.14306640625 -3658.21630859375 -1750.14306640625 -3658.492431640625 L -1750.14306640625 -3684.315673828125 L -1753.814208984375 -3687.986572265625 L -1760.57958984375 -3681.220947265625 C -1760.6748046875 -3681.125732421875 -1760.802612304688 -3681.074462890625 -1760.933227539062 -3681.074462890625 C -1760.986083984375 -3681.074462890625 -1761.039428710938 -3681.082763671875 -1761.091186523438 -3681.10009765625 C -1761.270874023438 -3681.159912109375 -1761.4013671875 -3681.316162109375 -1761.428100585938 -3681.503662109375 L -1764.986938476562 -3706.421630859375 C -1765.009155273438 -3706.57763671875 -1764.956787109375 -3706.734619140625 -1764.845458984375 -3706.845947265625 C -1764.751098632812 -3706.9404296875 -1764.62353515625 -3706.992431640625 -1764.491943359375 -3706.992431640625 C -1764.468505859375 -3706.992431640625 -1764.44482421875 -3706.99072265625 -1764.421264648438 -3706.9873046875 L -1739.504516601562 -3703.42724609375 C -1739.317016601562 -3703.400634765625 -1739.160766601562 -3703.270263671875 -1739.100830078125 -3703.090576171875 C -1739.041015625 -3702.910888671875 -1739.087768554688 -3702.712646484375 -1739.2216796875 -3702.578857421875 L -1745.987182617188 -3695.813232421875 L -1739.243286132812 -3689.0693359375 C -1739.140258789062 -3688.977783203125 -1739.0751953125 -3688.8447265625 -1739.0751953125 -3688.696533203125 L -1739.0751953125 -3658.492431640625 C -1739.0751953125 -3658.21630859375 -1739.299072265625 -3657.992431640625 -1739.5751953125 -3657.992431640625 Z"/></g></g></svg>