<svg xmlns="http://www.w3.org/2000/svg" viewBox="0 0 48 64"><defs><style>.a{fill:#7cb441;}.b,.d{fill:#fff;}.b{stroke-linejoin:round;}.c,.d{stroke:none;}</style></defs><g transform="translate(-200 -96)"><rect class="a" width="48" height="64" rx="3" transform="translate(200 96)"/><g class="b" transform="translate(1985 3810.515)"><path class="c" d="M -1762.681030273438 -3658.265380859375 L -1762.931030273438 -3658.265380859375 L -1773.000244140625 -3658.265380859375 L -1773.250244140625 -3658.265380859375 L -1773.250244140625 -3658.515380859375 L -1773.250244140625 -3688.72412109375 L -1773.250244140625 -3688.97412109375 L -1773.093017578125 -3688.97412109375 L -1766.233276367188 -3695.834228515625 L -1773.177001953125 -3702.77734375 L -1773.530639648438 -3703.130859375 L -1773.03564453125 -3703.20166015625 L -1748.115356445312 -3706.7626953125 L -1747.785278320312 -3706.809814453125 L -1747.83251953125 -3706.479736328125 L -1751.391967773438 -3681.559326171875 L -1751.462646484375 -3681.064453125 L -1751.816162109375 -3681.41796875 L -1758.759399414062 -3688.36083984375 L -1762.681030273438 -3684.439453125 L -1762.681030273438 -3658.515380859375 L -1762.681030273438 -3658.265380859375 Z"/><path class="d" d="M -1762.931030273438 -3658.515380859375 L -1762.931030273438 -3684.54296875 L -1758.759399414062 -3688.71435546875 L -1751.639404296875 -3681.5947265625 L -1748.079956054688 -3706.51513671875 L -1773.000244140625 -3702.9541015625 L -1765.879760742188 -3695.834228515625 L -1772.989501953125 -3688.72412109375 L -1773.000244140625 -3688.72412109375 L -1773.000244140625 -3658.515380859375 L -1762.931030273438 -3658.515380859375 M -1762.931030273438 -3658.015380859375 L -1773.000244140625 -3658.015380859375 C -1773.2763671875 -3658.015380859375 -1773.500244140625 -3658.2392578125 -1773.500244140625 -3658.515380859375 L -1773.500244140625 -3688.72412109375 C -1773.500244140625 -3688.8935546875 -1773.415893554688 -3689.04345703125 -1773.286865234375 -3689.1337890625 L -1766.5869140625 -3695.834228515625 L -1773.353759765625 -3702.6005859375 C -1773.487670898438 -3702.734375 -1773.534423828125 -3702.9326171875 -1773.474609375 -3703.1123046875 C -1773.414672851562 -3703.291748046875 -1773.258422851562 -3703.42236328125 -1773.070922851562 -3703.448974609375 L -1748.150634765625 -3707.010009765625 C -1748.127075195312 -3707.013427734375 -1748.103393554688 -3707.01513671875 -1748.079956054688 -3707.01513671875 C -1747.9482421875 -3707.01513671875 -1747.82080078125 -3706.963134765625 -1747.726440429688 -3706.86865234375 C -1747.615112304688 -3706.75732421875 -1747.562744140625 -3706.600341796875 -1747.5849609375 -3706.4443359375 L -1751.144409179688 -3681.52392578125 C -1751.171142578125 -3681.33642578125 -1751.301635742188 -3681.18017578125 -1751.481323242188 -3681.120361328125 C -1751.533081054688 -3681.10302734375 -1751.58642578125 -3681.0947265625 -1751.639282226562 -3681.0947265625 C -1751.769897460938 -3681.0947265625 -1751.897583007812 -3681.145751953125 -1751.992919921875 -3681.2412109375 L -1758.759399414062 -3688.00732421875 L -1762.431030273438 -3684.3359375 L -1762.431030273438 -3658.515380859375 C -1762.431030273438 -3658.2392578125 -1762.654907226562 -3658.015380859375 -1762.931030273438 -3658.015380859375 Z"/></g></g></svg>