<svg xmlns="http://www.w3.org/2000/svg" viewBox="0 0 48 64"><defs><style>.a{fill:#7cb441;}.b,.d{fill:#fff;}.b{stroke-linejoin:round;}.c,.d{stroke:none;}</style></defs><g transform="translate(-200 -96)"><rect class="a" width="48" height="64" rx="3" transform="translate(200 96)"/><g class="b" transform="translate(-1534.2 -3563) rotate(180)"><path class="c" d="M -1753.5498046875 -3666.750244140625 L -1753.7998046875 -3666.750244140625 L -1763.400390625 -3666.750244140625 L -1763.650390625 -3666.750244140625 L -1763.650390625 -3667.000244140625 L -1763.650390625 -3695.550048828125 L -1772.99951171875 -3695.550048828125 L -1773.49951171875 -3695.550048828125 L -1773.199584960938 -3695.949951171875 L -1758.800537109375 -3715.150146484375 L -1758.6005859375 -3715.4169921875 L -1758.400634765625 -3715.150146484375 L -1744.00048828125 -3695.949951171875 L -1743.700439453125 -3695.550048828125 L -1744.200439453125 -3695.550048828125 L -1753.5498046875 -3695.550048828125 L -1753.5498046875 -3667.000244140625 L -1753.5498046875 -3666.750244140625 Z"/><path class="d" d="M -1753.7998046875 -3667.000244140625 L -1753.7998046875 -3695.800048828125 L -1744.200439453125 -3695.800048828125 L -1758.6005859375 -3715.000244140625 L -1772.99951171875 -3695.800048828125 L -1763.400390625 -3695.800048828125 L -1763.400390625 -3667.000244140625 L -1753.7998046875 -3667.000244140625 M -1753.7998046875 -3666.500244140625 L -1763.400390625 -3666.500244140625 C -1763.676513671875 -3666.500244140625 -1763.900390625 -3666.72412109375 -1763.900390625 -3667.000244140625 L -1763.900390625 -3695.300048828125 L -1772.99951171875 -3695.300048828125 C -1773.188842773438 -3695.300048828125 -1773.362060546875 -3695.406982421875 -1773.44677734375 -3695.576416015625 C -1773.531372070312 -3695.745849609375 -1773.51318359375 -3695.948486328125 -1773.399536132812 -3696.10009765625 L -1759.000610351562 -3715.30029296875 C -1758.906127929688 -3715.426025390625 -1758.757934570312 -3715.500244140625 -1758.6005859375 -3715.500244140625 C -1758.443237304688 -3715.500244140625 -1758.295043945312 -3715.42626953125 -1758.200561523438 -3715.30029296875 L -1743.800415039062 -3696.10009765625 C -1743.686767578125 -3695.948486328125 -1743.668579101562 -3695.745849609375 -1743.753173828125 -3695.576416015625 C -1743.837890625 -3695.406982421875 -1744.010986328125 -3695.300048828125 -1744.200439453125 -3695.300048828125 L -1753.2998046875 -3695.300048828125 L -1753.2998046875 -3667.000244140625 C -1753.2998046875 -3666.72412109375 -1753.523681640625 -3666.500244140625 -1753.7998046875 -3666.500244140625 Z"/></g></g></svg>