<svg xmlns="http://www.w3.org/2000/svg" viewBox="0 0 48 64"><defs><style>.a{fill:#7cb441;}.b{fill:none;stroke:#fff;stroke-width:10.4px;}.b,.c{stroke-linejoin:round;}.c,.e{fill:#fff;}.d,.e{stroke:none;}</style></defs><g transform="translate(-216 -464)"><rect class="a" width="48" height="64" rx="3" transform="translate(216 464)"/><g transform="translate(225.23 477)"><path class="b" d="M3663.067,269s.081-13-12.048-13c-9.982,0-11.695,8.805-12.014,12.234l0,30.588" transform="translate(-3639 -256)"/><g class="c" transform="translate(35.57 12) rotate(90)"><path class="d" d="M -0.25 24.49989891052246 L -0.25 23.99989891052246 L -0.25 -5.447387820822769e-07 L -0.25 -0.500000536441803 L 0.1500000059604645 -0.2000005394220352 L 16.14999961853027 11.79994964599609 L 16.41666984558105 11.99994945526123 L 16.14999961853027 12.19994926452637 L 0.1500000059604645 24.19989967346191 L -0.25 24.49989891052246 Z"/><path class="e" d="M 0 23.99989891052246 L 16 11.99994945526123 L 0 -5.447387820822769e-07 L 0 23.99989891052246 M -6.187499820953235e-05 24.49990081787109 C -0.07628782093524933 24.49990081787109 -0.1528516262769699 24.48249053955078 -0.2236099988222122 24.44710922241211 C -0.3930000066757202 24.36241912841797 -0.5 24.18928909301758 -0.5 23.99989891052246 L -0.5 -5.447387820822769e-07 C -0.5 -0.1893905401229858 -0.3930000066757202 -0.3625205457210541 -0.2236099988222122 -0.4472105503082275 C -0.1528619676828384 -0.4825866520404816 -0.07627682387828827 -0.500002384185791 -6.19140628259629e-05 -0.500002384185791 C 0.1062023639678955 -0.500002384185791 0.2117702066898346 -0.4661714434623718 0.300000011920929 -0.4000005424022675 L 16.29999923706055 11.59994983673096 C 16.42589950561523 11.69437980651855 16.5 11.84256935119629 16.5 11.99994945526123 C 16.5 12.15732955932617 16.42589950561523 12.30551910400391 16.29999923706055 12.3999490737915 L 0.300000011920929 24.39989852905273 C 0.211779460310936 24.46606254577637 0.1061911284923553 24.49990081787109 -6.187499820953235e-05 24.49990081787109 Z"/></g></g></g></svg>