<svg xmlns="http://www.w3.org/2000/svg" viewBox="0 0 48 64"><defs><style>.a{fill:#7cb441;}.b{fill:none;stroke:#fff;stroke-width:10.4px;}.b,.c{stroke-linejoin:round;}.c,.e{fill:#fff;}.d,.e{stroke:none;}</style></defs><g transform="translate(-216 -464)"><rect class="a" width="48" height="64" rx="3" transform="translate(216 464)"/><g transform="translate(160 208)"><path class="b" d="M3639,269s-.081-13,12.048-13c9.982,0,11.695,8.805,12.014,12.234l0,30.588" transform="translate(-3568.297 13)"/><g class="c" transform="translate(83.2 281) rotate(90)"><path class="d" d="M -0.25 24.49989891052246 L -0.25 23.99989891052246 L -0.25 -5.447387820822769e-07 L -0.25 -0.500000536441803 L 0.1500000059604645 -0.2000005394220352 L 16.14999961853027 11.79994964599609 L 16.41666984558105 11.99994945526123 L 16.14999961853027 12.19994926452637 L 0.1500000059604645 24.19989967346191 L -0.25 24.49989891052246 Z"/><path class="e" d="M 0 0 L 0 23.99989891052246 L 16 11.99994945526123 L 0 0 M -6.103515625e-05 -0.5000019073486328 C 0.1062021255493164 -0.5000019073486328 0.2117700576782227 -0.4661712646484375 0.3000001907348633 -0.3999996185302734 L 16.29999923706055 11.59994983673096 C 16.42589950561523 11.69437980651855 16.5 11.84256935119629 16.5 11.99994945526123 C 16.5 12.15732955932617 16.42589950561523 12.30551910400391 16.29999923706055 12.3999490737915 L 0.3000001907348633 24.39989852905273 C 0.2117795944213867 24.46606254577637 0.1061906814575195 24.49990081787109 -6.103515625e-05 24.49990081787109 C -0.07628822326660156 24.49990081787109 -0.1528511047363281 24.48249053955078 -0.2236099243164062 24.44710922241211 C -0.3929996490478516 24.36241912841797 -0.5 24.18928909301758 -0.5 23.99989891052246 L -0.5 0 C -0.5 -0.1893901824951172 -0.3929996490478516 -0.3625202178955078 -0.2236099243164062 -0.4472103118896484 C -0.152862548828125 -0.4825859069824219 -0.07627677917480469 -0.5000019073486328 -6.103515625e-05 -0.5000019073486328 Z"/></g></g></g></svg>