<svg xmlns="http://www.w3.org/2000/svg" width="58" height="58" viewBox="0 0 58 58"><defs><style>.a{fill:#e4e1da;}.b{fill:#ffccd5;}.c{fill:#9ddf7b;}.d{fill:#fcab1a;}.e{fill:#ffd634;}.f{opacity:0.125;}.g{fill:#fff;}.h{fill:#90c36c;}.i{fill:#f4efeb;}.j{fill:#3394e3;}.k{fill:#0078d9;}.l{fill:#de1c25;}.m{fill:#0179da;}.n{opacity:0.24;}</style></defs><path class="a" d="M307.68,185.954v20.423h24.5a12.753,12.753,0,0,0,3.64-.53Z" transform="translate(-286.984 -148.377)"/><path class="b" d="M284.2,169.357V191.55a12.675,12.675,0,0,0,8.422,11.968V175.31Z" transform="translate(-284.199 -146.254)"/><path class="a" d="M292.728,144.071a12.685,12.685,0,0,0-7.689,7.7l7.689,5.435Z" transform="translate(-284.306 -143.334)"/><path class="c" d="M307.68,143.226v22.39l36.749,25.976a12.749,12.749,0,0,0,.458-3.385v-12.73a31.546,31.546,0,0,1-15.853-4.058,32.541,32.541,0,0,1-4.464-3.083c-1.129-.921-1.948-1.68-2.308-1.943-2.29-1.675-4.558-4.972-6.345-9.072a35.53,35.53,0,0,1-3.047-13.85c0-.082,0-.163,0-.245Z" transform="translate(-286.888 -143.226)"/><path class="d" d="M285.261,151.959a12.8,12.8,0,0,0-1.062,5.121v11.2l47.79,33.809a12.747,12.747,0,0,0,9.966-10.023Z" transform="translate(-284.199 -144.343)"/><path class="e" d="M284.936,152.9a12.839,12.839,0,0,0-.737,4.3v10.149l48.89,34.591a12.751,12.751,0,0,0,8.654-8.846Z" transform="translate(-284.199 -144.463)"/><path class="f" d="M298,143.226a12.647,12.647,0,0,0-5.223,1.123V200.1A12.647,12.647,0,0,0,298,201.226h8.715v-58Z" transform="translate(-285.296 -143.226)"/><path class="g" d="M298.138,143.226a12.684,12.684,0,0,0-4.282.74v56.519a12.684,12.684,0,0,0,4.282.74h7.774v-58Z" transform="translate(-285.434 -143.226)"/><path class="h" d="M313.635,143.226c0,.082,0,.163,0,.245a35.529,35.529,0,0,0,3.047,13.85c1.786,4.1,4.054,7.4,6.345,9.072.36.264,1.179,1.023,2.308,1.943a32.538,32.538,0,0,0,4.464,3.083,31.544,31.544,0,0,0,15.853,4.058v-1.77a29.678,29.678,0,0,1-14.976-3.825,30.772,30.772,0,0,1-4.224-2.918c-1.079-.88-1.8-1.578-2.38-2-1.822-1.332-4.068-4.445-5.769-8.35a33.915,33.915,0,0,1-2.9-13.143c0-.083,0-.163,0-.245Z" transform="translate(-287.649 -143.226)"/><path class="i" d="M314.649,143.226c0,.082,0,.162,0,.245,0,9.389,4.918,19.2,9.03,22.208,1.876,1.372,8.559,8.9,22.1,8.914V155.931a12.676,12.676,0,0,0-12.7-12.7Z" transform="translate(-287.779 -143.226)"/><path class="h" d="M328.627,143.226c.155,6,1.659,10.165,5.355,13.632A17.932,17.932,0,0,0,340,160.934a24.549,24.549,0,0,0,7.57,1.4V160.3a22.474,22.474,0,0,1-6.839-1.259,15.758,15.758,0,0,1-5.357-3.662c-3.315-3.11-4.579-6.5-4.715-12.15Z" transform="translate(-289.567 -143.226)"/><path class="c" d="M329.79,143.226c.146,5.83,1.53,9.6,5.035,12.891,3.084,2.893,5.654,4.792,12.891,5.2v-5.384a12.677,12.677,0,0,0-12.7-12.7Z" transform="translate(-289.716 -143.226)"/><path class="j" d="M298.51,143.226a12.909,12.909,0,0,0-1.749.122v24.681a10.114,10.114,0,0,1,6.989-.046V143.226Z" transform="translate(-285.738 -143.226)"/><path class="k" d="M48.139,41.941a.914.914,0,0,0-.463.143,8.938,8.938,0,0,1-8.462.658.918.918,0,0,0-1.187.436,11.27,11.27,0,0,0-1.138,4.9v0a11.267,11.267,0,0,0,22.533,0v0a11.262,11.262,0,0,0-1.136-4.911.92.92,0,0,0-1.191-.434,8.853,8.853,0,0,1-8.436-.649.9.9,0,0,0-.259-.072.456.456,0,0,0-.26-.072Z" transform="translate(-4.404 -5.05)"/><path class="g" d="M48.22,42.464a.456.456,0,0,0-.231.072,9.4,9.4,0,0,1-8.892.691.456.456,0,0,0-.594.218,10.81,10.81,0,0,0-1.092,4.7v0a10.811,10.811,0,0,0,21.621,0h0a10.806,10.806,0,0,0-1.09-4.712.456.456,0,0,0-.595-.217,9.314,9.314,0,0,1-8.867-.681.456.456,0,0,0-.26-.072Z" transform="translate(-4.471 -5.117)"/><path class="l" d="M332.521,186.214a9.86,9.86,0,0,1-9.321.724,10.352,10.352,0,0,0-.9,2.859h20.421a10.358,10.358,0,0,0-.9-2.869,9.77,9.77,0,0,1-9.3-.714Z" transform="translate(-288.757 -148.507)"/><path class="k" d="M322.19,191.148q-.049.46-.057.923a10.355,10.355,0,1,0,20.709,0q0-.463-.048-.923Z" transform="translate(-288.736 -149.041)"/><g transform="translate(36.506 43.366)"><path class="g" d="M46.465,49.583v1.01H42.2a2.433,2.433,0,0,1,.416-1.084,7.513,7.513,0,0,1,1.368-1.363,8.153,8.153,0,0,0,1.009-.929,1.115,1.115,0,0,0,.251-.666.7.7,0,0,0-.221-.557A1.007,1.007,0,0,0,43.815,46a.988.988,0,0,0-.26.681l-1.212-.108a1.714,1.714,0,0,1,.68-1.289,2.474,2.474,0,0,1,1.429-.391,2.22,2.22,0,0,1,1.477.453,1.416,1.416,0,0,1,.537,1.127,1.772,1.772,0,0,1-.156.732,2.883,2.883,0,0,1-.485.724,7.41,7.41,0,0,1-.8.724q-.576.472-.732.627a1.965,1.965,0,0,0-.247.3Z" transform="translate(-42.2 -44.895)"/><path class="g" d="M49.08,47.531a1.419,1.419,0,0,1-.688-.488,1.2,1.2,0,0,1-.212-.685,1.311,1.311,0,0,1,.494-1.049,2.6,2.6,0,0,1,2.815,0,1.3,1.3,0,0,1,.5,1.049,1.153,1.153,0,0,1-.229.7,1.437,1.437,0,0,1-.645.468,1.674,1.674,0,0,1,.8.554,1.349,1.349,0,0,1,.277.84A1.617,1.617,0,0,1,51.63,50.2a2.173,2.173,0,0,1-1.49.492,2.439,2.439,0,0,1-1.442-.406,1.526,1.526,0,0,1-.68-1.316,1.49,1.49,0,0,1,.255-.844A1.611,1.611,0,0,1,49.08,47.531Zm.251-1.1a.645.645,0,0,0,.2.507.929.929,0,0,0,1.1,0,.65.65,0,0,0,.208-.511.616.616,0,0,0-.208-.488.772.772,0,0,0-.541-.186.807.807,0,0,0-.559.186.627.627,0,0,0-.208.492Zm-.113,2.431a.939.939,0,0,0,.255.7.891.891,0,0,0,.645.252.858.858,0,0,0,.624-.24.942.942,0,0,0,.247-.7.842.842,0,0,0-.251-.639A.876.876,0,0,0,50.1,48a.8.8,0,0,0-.667.275.944.944,0,0,0-.217.6Z" transform="translate(-42.944 -44.895)"/><path class="g" d="M55.755,44.895a1.823,1.823,0,0,1,1.442.588,3.456,3.456,0,0,1,.619,2.311,3.465,3.465,0,0,1-.624,2.315,1.822,1.822,0,0,1-1.438.581,1.907,1.907,0,0,1-1.494-.635,3.463,3.463,0,0,1-.567-2.272,3.45,3.45,0,0,1,.624-2.307A1.822,1.822,0,0,1,55.755,44.895Zm0,.9a.647.647,0,0,0-.394.128.813.813,0,0,0-.268.449,8.266,8.266,0,0,0-.013,2.8.945.945,0,0,0,.281.5.689.689,0,0,0,.788,0,.835.835,0,0,0,.268-.453,8.22,8.22,0,0,0,.013-2.787.931.931,0,0,0-.286-.5A.628.628,0,0,0,55.755,45.8Z" transform="translate(-43.67 -44.895)"/></g><ellipse class="m" cx="10.279" cy="10.279" rx="10.279" ry="10.279" transform="translate(4.242 24.361)"/><path class="g" d="M300.128,175.4l-.021,0a.514.514,0,0,0-.055.009.7.7,0,0,0-.078.018.1.1,0,0,0-.017,0l-.026.012a.671.671,0,0,0-.077.036c-.016.009-.031.018-.046.028s-.036.025-.053.039a.668.668,0,0,0-.051.046c-.013.014-.026.028-.038.042a.639.639,0,0,0-.044.059c-.01.014-.019.029-.027.044a.641.641,0,0,0-.035.075c0,.009-.009.017-.013.027l-.937,2.711a.054.054,0,0,0-.005.011l-.7,2.028-.474,1.371h0l-1.817,5.258a.657.657,0,0,0,.519.925h0a.727.727,0,0,0,.115,0l.033,0a.59.59,0,0,0,.083-.014l.052-.014c.021-.007.041-.014.062-.023a.669.669,0,0,0,.066-.033l.037-.022a.649.649,0,0,0,.083-.065l.01-.007.037-.036v0l3.46-3.33,3.46,3.33.01.01.028.027.009.007a.661.661,0,0,0,.082.065l.037.022a.635.635,0,0,0,.066.033c.02.009.041.016.062.023l.052.014a.7.7,0,0,0,.082.014l.034,0a.655.655,0,0,0,.115,0h0a.657.657,0,0,0,.519-.925l-2.992-8.659s0-.005,0-.008l-.938-2.714c0-.011-.01-.02-.014-.03a.674.674,0,0,0-.032-.069c-.009-.016-.019-.032-.029-.047a.687.687,0,0,0-.043-.058c-.013-.016-.026-.03-.041-.044a.619.619,0,0,0-.047-.043.65.65,0,0,0-.057-.041c-.015-.01-.029-.019-.045-.027a.657.657,0,0,0-.076-.035c-.009,0-.017-.009-.026-.012l-.017,0a.683.683,0,0,0-.078-.018l-.055-.009-.066,0c-.015,0-.03,0-.045,0Z" transform="translate(-285.587 -147.145)"/><path class="n" d="M349.812,198.686c-.015.056-.031.112-.047.168.016-.056.033-.11.049-.166Z" transform="translate(-292.27 -150.005)"/><path class="n" d="M349.758,198.878c-.017.057-.033.115-.05.172C349.725,198.993,349.741,198.936,349.758,198.878Z" transform="translate(-292.263 -150.03)"/><path class="n" d="M349.687,199.076c-.045.148-.092.3-.142.442C349.595,199.372,349.642,199.224,349.687,199.076Z" transform="translate(-292.242 -150.055)"/><path class="n" d="M298.033,143.244l-.2.013C297.9,143.253,297.965,143.248,298.033,143.244Z" transform="translate(-285.877 -143.229)"/><path class="n" d="M297.342,143.293c-.091.009-.181.019-.271.029C297.161,143.312,297.251,143.3,297.342,143.293Z" transform="translate(-285.845 -143.235)"/><path class="n" d="M296.665,143.373c-.1.013-.19.027-.284.043C296.476,143.4,296.57,143.387,296.665,143.373Z" transform="translate(-285.757 -143.245)"/><path class="n" d="M296,143.483c-.1.018-.2.037-.295.058C295.8,143.52,295.9,143.5,296,143.483Z" transform="translate(-285.67 -143.259)"/><path class="n" d="M295.356,143.618c-.105.025-.211.049-.315.076C295.146,143.667,295.251,143.643,295.356,143.618Z" transform="translate(-285.585 -143.276)"/><path class="n" d="M285.01,152.915q-.084.237-.158.478Q284.926,153.152,285.01,152.915Z" transform="translate(-284.282 -144.465)"/><path class="n" d="M284.822,153.494q-.071.231-.133.466Q284.751,153.725,284.822,153.494Z" transform="translate(-284.261 -144.54)"/><path class="n" d="M284.654,154.1q-.056.218-.105.439Q284.6,154.32,284.654,154.1Z" transform="translate(-284.243 -144.617)"/><path class="n" d="M284.513,154.715q-.044.2-.08.411C284.457,154.988,284.484,154.85,284.513,154.715Z" transform="translate(-284.229 -144.696)"/><path class="n" d="M284.4,155.322c-.024.139-.044.279-.064.42C284.354,155.6,284.375,155.461,284.4,155.322Z" transform="translate(-284.216 -144.773)"/><path class="n" d="M284.311,155.926c-.018.141-.033.283-.046.426C284.279,156.21,284.293,156.068,284.311,155.926Z" transform="translate(-284.207 -144.851)"/><path class="n" d="M284.249,156.546c-.011.133-.02.267-.027.4C284.229,156.813,284.237,156.679,284.249,156.546Z" transform="translate(-284.202 -144.866)"/><path class="n" d="M284.21,157.176c-.007.179-.012.358-.012.539C284.2,157.534,284.2,157.355,284.21,157.176Z" transform="translate(-284.199 -144.944)"/><path class="n" d="M339.95,208.748l0,0q.182-.054.362-.114c-.12.04-.242.076-.364.112Z" transform="translate(-291.015 -151.278)"/><path class="n" d="M344.721,206.246q-.294.232-.6.447Q344.427,206.478,344.721,206.246Z" transform="translate(-291.548 -150.972)"/><path class="n" d="M344.049,206.776q-.152.106-.307.206Q343.9,206.881,344.049,206.776Z" transform="translate(-291.5 -151.04)"/><path class="n" d="M343.577,207.061q-.3.195-.618.373Q343.273,207.256,343.577,207.061Z" transform="translate(-291.4 -151.077)"/><path class="n" d="M342.877,207.507q-.169.095-.341.185Q342.709,207.6,342.877,207.507Z" transform="translate(-291.346 -151.134)"/><path class="n" d="M342.412,207.732q-.324.168-.659.319Q342.088,207.9,342.412,207.732Z" transform="translate(-291.246 -151.162)"/><path class="n" d="M295.041,208.893c.1.027.21.051.315.076C295.251,208.945,295.146,208.92,295.041,208.893Z" transform="translate(-285.585 -151.311)"/><path class="n" d="M295.7,209.049c.1.021.2.04.295.058C295.9,209.089,295.8,209.07,295.7,209.049Z" transform="translate(-285.67 -151.331)"/><path class="n" d="M296.381,209.176c.094.015.189.029.284.043C296.57,209.206,296.476,209.192,296.381,209.176Z" transform="translate(-285.757 -151.347)"/><path class="n" d="M297.071,209.272c.09.01.18.021.271.029C297.251,209.293,297.161,209.282,297.071,209.272Z" transform="translate(-285.845 -151.359)"/><path class="n" d="M297.832,209.339c.067,0,.133.01.2.013Z" transform="translate(-285.877 -151.368)"/></svg>