<svg xmlns="http://www.w3.org/2000/svg" width="58" height="58" viewBox="0 0 58 58"><defs><style>.a{fill:#e9f8f8;stroke:#707070;}.b{fill:#686871;stroke-linecap:square;stroke-linejoin:round;}.c,.f{fill:#fff;}.d,.f{stroke:none;}.e{fill:none;}</style></defs><g transform="translate(-2)"><g transform="translate(2)"><g class="a"><rect class="d" width="58" height="58" rx="12"/><rect class="e" x="0.5" y="0.5" width="57" height="57" rx="11.5"/></g><g transform="translate(12.654 11.599)"><g transform="translate(13.709)"><g class="b"><path class="d" d="M 16.98210144042969 25.00500106811523 L 2.000710487365723 25.00500106811523 C 0.483970582485199 25.00500106811523 -0.74998939037323 23.77144050598145 -0.74998939037323 22.25520133972168 L -0.74998939037323 2.0007004737854 C -0.74998939037323 0.4839605391025543 0.483970582485199 -0.749999463558197 2.000710487365723 -0.749999463558197 L 10.54730033874512 -0.749999463558197 L 10.85799026489258 -0.749999463558197 L 11.07766056060791 -0.5302994847297668 L 19.51226043701172 7.905410766601562 L 19.73190116882324 8.125080108642578 L 19.73190116882324 8.435710906982422 L 19.73190116882324 22.25520133972168 C 19.73190116882324 23.77144050598145 18.49834060668945 25.00500106811523 16.98210144042969 25.00500106811523 Z"/><path class="f" d="M 16.98210144042969 24.25500106811523 C 18.08479118347168 24.25500106811523 18.98190116882324 23.35789108276367 18.98190116882324 22.25520133972168 L 18.98190116882324 8.435710906982422 L 10.54730033874512 5.340576194612368e-07 L 2.000710487365723 5.340576194612368e-07 C 0.8975206017494202 5.340576194612368e-07 1.058441193890758e-05 0.8975105285644531 1.058441193890758e-05 2.0007004737854 L 1.058441193890758e-05 22.25520133972168 C 1.058441193890758e-05 23.35789108276367 0.8975206017494202 24.25500106811523 2.000710487365723 24.25500106811523 L 16.98210144042969 24.25500106811523 M 16.98210144042969 25.75500106811523 L 2.000710487365723 25.75500106811523 C 0.07042058557271957 25.75500106811523 -1.49998939037323 24.18500137329102 -1.49998939037323 22.25520133972168 L -1.49998939037323 2.0007004737854 C -1.49998939037323 0.07041053473949432 0.07042058557271957 -1.499999523162842 2.000710487365723 -1.499999523162842 L 10.54730033874512 -1.499999523162842 C 10.94516086578369 -1.499999523162842 11.32672023773193 -1.341939449310303 11.60803031921387 -1.06058943271637 L 20.04263114929199 7.375120639801025 C 20.32389068603516 7.656420707702637 20.48190116882324 8.037920951843262 20.48190116882324 8.435710906982422 L 20.48190116882324 22.25520133972168 C 20.48190116882324 24.18500137329102 18.91190147399902 25.75500106811523 16.98210144042969 25.75500106811523 Z"/></g><path class="c" d="M1389.926-6377.408s0,4.021,0,4.4a1.739,1.739,0,0,0,1.774,1.932c1.712.009,4.554,0,4.554,0Z" transform="translate(-1379.458 6380.141)"/></g><g transform="translate(0 11.6)"><g class="b"><path class="d" d="M 16.98210144042969 25.00500106811523 L 2.000710487365723 25.00500106811523 C 0.483970582485199 25.00500106811523 -0.74998939037323 23.77144050598145 -0.74998939037323 22.25520133972168 L -0.74998939037323 2.0007004737854 C -0.74998939037323 0.4839605391025543 0.483970582485199 -0.749999463558197 2.000710487365723 -0.749999463558197 L 10.54730033874512 -0.749999463558197 L 10.85799026489258 -0.749999463558197 L 11.07766056060791 -0.5302994847297668 L 19.51226043701172 7.905410766601562 L 19.73190116882324 8.125080108642578 L 19.73190116882324 8.435710906982422 L 19.73190116882324 22.25520133972168 C 19.73190116882324 23.77144050598145 18.49834060668945 25.00500106811523 16.98210144042969 25.00500106811523 Z"/><path class="f" d="M 16.98210144042969 24.25500106811523 C 18.08479118347168 24.25500106811523 18.98190116882324 23.35789108276367 18.98190116882324 22.25520133972168 L 18.98190116882324 8.435710906982422 L 10.54730033874512 5.340576194612368e-07 L 2.000710487365723 5.340576194612368e-07 C 0.8975206017494202 5.340576194612368e-07 1.058441193890758e-05 0.8975105285644531 1.058441193890758e-05 2.0007004737854 L 1.058441193890758e-05 22.25520133972168 C 1.058441193890758e-05 23.35789108276367 0.8975206017494202 24.25500106811523 2.000710487365723 24.25500106811523 L 16.98210144042969 24.25500106811523 M 16.98210144042969 25.75500106811523 L 2.000710487365723 25.75500106811523 C 0.07042058557271957 25.75500106811523 -1.49998939037323 24.18500137329102 -1.49998939037323 22.25520133972168 L -1.49998939037323 2.0007004737854 C -1.49998939037323 0.07041053473949432 0.07042058557271957 -1.499999523162842 2.000710487365723 -1.499999523162842 L 10.54730033874512 -1.499999523162842 C 10.94516086578369 -1.499999523162842 11.32672023773193 -1.341939449310303 11.60803031921387 -1.06058943271637 L 20.04263114929199 7.375120639801025 C 20.32389068603516 7.656420707702637 20.48190116882324 8.037920951843262 20.48190116882324 8.435710906982422 L 20.48190116882324 22.25520133972168 C 20.48190116882324 24.18500137329102 18.91190147399902 25.75500106811523 16.98210144042969 25.75500106811523 Z"/></g><path class="c" d="M1389.926-6377.408s0,4.021,0,4.4a1.739,1.739,0,0,0,1.774,1.932c1.712.009,4.554,0,4.554,0Z" transform="translate(-1379.458 6380.141)"/></g></g></g></g></svg>