<svg xmlns="http://www.w3.org/2000/svg" xmlns:xlink="http://www.w3.org/1999/xlink" width="58" height="58" viewBox="0 0 58 58"><defs><clipPath id="a"><rect width="58" height="58" rx="12" transform="translate(35 415)" fill="#fff" stroke="#707070" stroke-width="1"/></clipPath></defs><g transform="translate(-35 -415)" clip-path="url(#a)"><g transform="translate(-141.03 182.43)"><rect width="58.002" height="58.002" rx="5.134" transform="translate(176.03 232.467)" fill="#34a668"/><path d="M201.937,255.713l-27.976,27.976a5.036,5.036,0,0,0,3.648,1.555H225.5a5.037,5.037,0,0,0,4-1.967Z" transform="translate(3.477 5.225)" fill="#4788f5"/><path d="M201.937,255.713l-27.976,27.976a5.036,5.036,0,0,0,3.648,1.555H225.5a5.037,5.037,0,0,0,4-1.967Z" transform="translate(-50.27 464.435) rotate(-90)" fill="#c3c3c3"/><path d="M186.391,232.566a8.307,8.307,0,0,0,0,16.612,7.762,7.762,0,0,0,6.115-2.427,8.56,8.56,0,0,0,2.015-6.07,9.143,9.143,0,0,0-.062-1.042H186.49v2.937h4.681a4.187,4.187,0,0,1-1.02,1.916,4.779,4.779,0,0,1-3.765,1.495,5.115,5.115,0,0,1,0-10.228,4.938,4.938,0,0,1,3.459,1.248l2.3-2.3,0,0a7.991,7.991,0,0,0-5.747-2.138Zm4.275,5.462,0,.007v0Z" transform="translate(3.412 5.58)" fill="#fff"/><path d="M205.87,257.259l-4.116,4.8,24.624,24.611h.793c2.945,0,5.316-2.37,4.633-4.235Z" transform="translate(3.051 5.222)" fill="#fff"/><path d="M172.531,271.961v.624a4.018,4.018,0,0,0,4.027,4.027h.78l36.953-36.2-3.77-5.634Z" transform="translate(3.732 13.857)" fill="#fddc4f"/><path d="M218.361,218.555a12.778,12.778,0,0,0-11,18.909h0c.322.557.623,1.114.891,1.668q.375.6.712,1.194.386.566.741,1.139c.982,1.4,1.874,2.773,2.725,4.091.594,1.01,1.261,2.09,1.847,3.159a26.727,26.727,0,0,1,3.446,11.014s0,.006,0,.01a.76.76,0,0,0,.658.528.8.8,0,0,0,.7-.632,26.719,26.719,0,0,1,3.436-10.919c.586-1.069,1.253-2.149,1.847-3.159.852-1.318,1.744-2.69,2.725-4.091q.354-.573.741-1.139.336-.6.712-1.194c.269-.554.569-1.111.892-1.668h0a12.876,12.876,0,0,0-11.068-18.909Z" transform="translate(3.102 13.655)" fill="#dd4b3e"/><ellipse cx="4.723" cy="4.508" rx="4.723" ry="4.508" transform="translate(216.969 239.689)" fill="#802d27"/></g></g></svg>