<svg xmlns="http://www.w3.org/2000/svg" xmlns:xlink="http://www.w3.org/1999/xlink" width="58" height="58" viewBox="0 0 58 58"><defs><linearGradient id="a" x1="0.068" y1="0.061" x2="0.937" y2="0.94" gradientUnits="objectBoundingBox"><stop offset="0" stop-color="#fe06e4"/><stop offset="1" stop-color="#fd02ca"/></linearGradient></defs><g transform="translate(-197 -416)"><rect width="58" height="58" rx="12" transform="translate(197 416)" fill="url(#a)"/><path d="M15.009,14.5c0,1.041-.109,1.561-.865,1.561-.789,0-.913-.473-.913-1.418V6.333H7.109V16.1a6.114,6.114,0,0,0,1.368,4.2A4.57,4.57,0,0,0,12.1,21.941a5.947,5.947,0,0,0,3.048-.924c-.575,2.177-1.866,3.265-3.8,3.265A6.382,6.382,0,0,1,9.2,23.772a11.632,11.632,0,0,1-2.091-.977v5.072A14.7,14.7,0,0,0,9.2,28.949a9.274,9.274,0,0,0,3.324.637,8.369,8.369,0,0,0,6.412-2.9,9.078,9.078,0,0,0,2.2-6.4V6.333H15.009ZM28.891.075C21.625.729,22.119,8.5,22.119,8.5V22.085c3.95,0,5.925-1.9,5.925-4.522V15.789h2.914V9.879H28.044V9.088A3.286,3.286,0,0,1,28.7,6.954a2.161,2.161,0,0,1,1.718-.746c.487.006,1.383.167,1.564.87l.013.056v6.159a9.654,9.654,0,0,0,1.342,5.448A7.691,7.691,0,0,0,36.2,21.289a8.08,8.08,0,0,0,3.81.938c.149,0,.421,0,.671-.016V15.953c-1.252,0-1.79-.232-2.188-.71a4.346,4.346,0,0,1-.593-2.606h2.133v-6.3h-2.02c-.38-2.364-1.8-5.924-7.064-6.321,0,0-.623-.023-1.112-.006C29.458.02,28.891.075,28.891.075ZM8.192,21.593l0,.009a8.031,8.031,0,0,1-2.074.86v.032L6.1,22.465a5.011,5.011,0,0,1-1.068.123A4.609,4.609,0,0,1,1.38,20.926,6.168,6.168,0,0,1,0,16.693V.409H6.122V16.693A6.161,6.161,0,0,0,7.5,20.926,5.34,5.34,0,0,0,8.192,21.593Z" transform="translate(206 430)" fill="#fff"/></g></svg>