<svg xmlns="http://www.w3.org/2000/svg" width="58" height="58" viewBox="0 0 58 58"><g transform="translate(-279 -417)"><rect width="58" height="58" rx="12" transform="translate(279 417)"/><g transform="translate(284 438)"><path d="M2.736,11.789a4.065,4.065,0,0,0,.835,1.368,3.591,3.591,0,0,0,1.263.869,4.122,4.122,0,0,0,1.588.3,3.93,3.93,0,0,0,1.565-.313,3.85,3.85,0,0,0,1.275-.881,3.994,3.994,0,0,0,.846-1.356,4.9,4.9,0,0,0,.3-1.762V0h2.434V16.228H10.432V14.721A5.589,5.589,0,0,1,8.52,16.043a6.061,6.061,0,0,1-2.376.464,6.434,6.434,0,0,1-2.423-.452,5.672,5.672,0,0,1-1.947-1.287,6.069,6.069,0,0,1-1.3-2.005A6.875,6.875,0,0,1,0,10.154V0H2.434V10.015A5,5,0,0,0,2.736,11.789Z" fill="#fff"/><path d="M288.865,0V5.912a6.2,6.2,0,0,1,1.878-1.287,5.63,5.63,0,0,1,2.318-.475,6.114,6.114,0,0,1,2.434.487,6.133,6.133,0,0,1,3.292,3.292,6.056,6.056,0,0,1,.487,2.411,5.973,5.973,0,0,1-.487,2.4,6.163,6.163,0,0,1-3.292,3.28,6.114,6.114,0,0,1-2.434.487,5.71,5.71,0,0,1-2.33-.475,6.158,6.158,0,0,1-1.889-1.287v1.484h-2.318V0Zm.267,11.939a4.034,4.034,0,0,0,.869,1.3,4.2,4.2,0,0,0,1.3.881,3.947,3.947,0,0,0,1.6.325,3.89,3.89,0,0,0,1.576-.325,4.056,4.056,0,0,0,1.287-.881,4.3,4.3,0,0,0,.869-1.3,3.947,3.947,0,0,0,.325-1.6,4.029,4.029,0,0,0-.325-1.611,4.261,4.261,0,0,0-.869-1.31,3.9,3.9,0,0,0-1.287-.869,4.076,4.076,0,0,0-4.451.869,4.159,4.159,0,0,0-.881,1.31,4.03,4.03,0,0,0-.325,1.611A4.072,4.072,0,0,0,289.131,11.939Z" transform="translate(-271.825)" fill="#fff"/><path d="M552.269,85.129a6.308,6.308,0,0,1,1.275-1.959,6.134,6.134,0,0,1,6.7-1.356,5.607,5.607,0,0,1,1.878,1.287,5.879,5.879,0,0,1,1.229,1.947,6.645,6.645,0,0,1,.441,2.446v.765H554.17a3.965,3.965,0,0,0,.464,1.333,4.02,4.02,0,0,0,.869,1.066,3.973,3.973,0,0,0,1.182.707,3.861,3.861,0,0,0,1.4.255,4.056,4.056,0,0,0,3.408-1.739l1.692,1.252a6.176,6.176,0,0,1-5.1,2.527,6.528,6.528,0,0,1-2.469-.464,6.012,6.012,0,0,1-1.994-1.3,6.162,6.162,0,0,1-1.333-1.959,6.325,6.325,0,0,1-.023-4.81Zm3.257-.916a3.952,3.952,0,0,0-1.31,2.191h7.21a3.835,3.835,0,0,0-1.287-2.191,3.644,3.644,0,0,0-4.614,0Z" transform="translate(-523.499 -77.177)" fill="#fff"/><path d="M813.841,87.05a3.139,3.139,0,0,0-.742,2.2v6.723h-2.341V84.152h2.318v1.461a3.3,3.3,0,0,1,1.148-1.136,3.247,3.247,0,0,1,1.681-.417h.811v2.179h-.974A2.461,2.461,0,0,0,813.841,87.05Z" transform="translate(-769.168 -79.747)" fill="#fff"/></g></g></svg>