<svg xmlns="http://www.w3.org/2000/svg" width="58" height="58" viewBox="0 0 58 58"><g transform="translate(7 7)"><rect width="58" height="58" rx="12" transform="translate(-7 -7)" fill="#42d4ff"/><path d="M24.206,34.158c-15.847,0-19.246-4.282-20.7-6.111A2.186,2.186,0,0,1,3,26.648a2.211,2.211,0,0,1,2.209-2.209c.764,0,3.093,0,3.093-4.345v-.515C8.3,11.54,15.436,5,24.206,5s15.9,6.54,15.9,14.579S32.976,34.158,24.206,34.158Z" transform="translate(0)" fill="#37474f"/><path d="M24.439,32.624c7.795,0,14.137-5.748,14.137-12.812S32.234,7,24.439,7,10.3,12.748,10.3,19.812v.515c0,5.516-3.4,6.112-4.86,6.112A.442.442,0,0,0,5,26.881a.424.424,0,0,0,.108.28C6.417,28.81,9.445,32.624,24.439,32.624Z" transform="translate(-0.233 -0.233)" fill="#fff"/><circle cx="1.767" cy="1.767" r="1.767" transform="translate(26.857 14.719)" fill="#37474f"/><circle cx="1.767" cy="1.767" r="1.767" transform="translate(18.021 14.719)" fill="#37474f"/><path d="M31.6,23.5a5.049,5.049,0,0,1-5.3,3.976A5.049,5.049,0,0,1,21,23.5" transform="translate(-2.096 -2.154)" fill="none" stroke="#37474f" stroke-linecap="round" stroke-linejoin="round" stroke-miterlimit="10" stroke-width="2"/><circle cx="3.976" cy="3.976" r="3.976" transform="translate(10.952 30.624)" fill="#37474f"/><circle cx="1.325" cy="1.325" r="1.325" transform="translate(13.603 33.275)" fill="#607d8b"/><circle cx="3.976" cy="3.976" r="3.976" transform="translate(25.09 30.624)" fill="#37474f"/><circle cx="1.325" cy="1.325" r="1.325" transform="translate(27.74 33.275)" fill="#607d8b"/></g></svg>