<svg id="call" xmlns="http://www.w3.org/2000/svg" viewBox="0 0 29.03 29.01"><defs><style>.cls-1{fill:#fff;}</style></defs><title>call</title><path class="cls-1" d="M37.5,31.39a1.4,1.4,0,0,1-.43,1.23L33,36.68a2.3,2.3,0,0,1-.72.52,3,3,0,0,1-.88.28l-.18,0-.4,0a14.18,14.18,0,0,1-1.89-.2,14.34,14.34,0,0,1-3.2-1A26.85,26.85,0,0,1,21.43,34a32,32,0,0,1-5.1-4.3,33.69,33.69,0,0,1-3.56-4.06A28.89,28.89,0,0,1,10.49,22a19.25,19.25,0,0,1-1.29-3,15.81,15.81,0,0,1-.58-2.3,7.6,7.6,0,0,1-.12-1.52q0-.55,0-.61a3,3,0,0,1,.28-.88A2.3,2.3,0,0,1,9.32,13l4.09-4.09a1.35,1.35,0,0,1,1-.43,1.15,1.15,0,0,1,.71.23,2.14,2.14,0,0,1,.52.57l3.29,6.24a1.5,1.5,0,0,1,.15,1.08,1.91,1.91,0,0,1-.52,1L17,19.1a.51.51,0,0,0-.11.2.76.76,0,0,0,0,.23A5.54,5.54,0,0,0,17.43,21a13.55,13.55,0,0,0,1.14,1.8,20,20,0,0,0,2.18,2.44,20.34,20.34,0,0,0,2.46,2.2A14.19,14.19,0,0,0,25,28.59a4.79,4.79,0,0,0,1.11.45l.38.08.2,0a.51.51,0,0,0,.2-.11l1.75-1.78a1.88,1.88,0,0,1,1.29-.49,1.61,1.61,0,0,1,.83.18h0l5.93,3.5a1.55,1.55,0,0,1,.77,1Zm0,0" transform="translate(-8.49 -8.49)"/></svg>