<svg xmlns="http://www.w3.org/2000/svg" viewBox="0 0 12.97 16.026"><defs><style>.a{fill:#fff;}</style></defs><g transform="translate(0 0)"><path class="a" d="M6.485,16.026a.82.82,0,0,1-.667-.323c-.908-1.22-1.692-2.255-2.265-3.01C.612,8.809,0,8,0,6.01A6.269,6.269,0,0,1,6.486,0,6.268,6.268,0,0,1,12.97,6.01c0,1.991-.613,2.8-3.556,6.686l-.076.1c-.63.833-1.345,1.776-2.187,2.907A.83.83,0,0,1,6.485,16.026ZM6.424,7.751h0L7.966,9.294A1.091,1.091,0,0,0,9.51,7.75L7.968,6.208,9.51,4.666A1.091,1.091,0,0,0,7.966,3.122L6.424,4.665,4.882,3.122A1.091,1.091,0,1,0,3.34,4.666L4.882,6.208,3.34,7.75A1.091,1.091,0,1,0,4.882,9.294L6.423,7.752Z"/></g></svg>