<svg id="email" xmlns="http://www.w3.org/2000/svg" viewBox="0 0 28 19.6"><defs><style>.cls-1{fill:#fff;}</style></defs><title>email</title><path class="cls-1" d="M11.21,14.36l10.08,8a2.59,2.59,0,0,0,1.7.49,2.58,2.58,0,0,0,1.7-.49l10.08-8c.81-.64.62-1.16-.4-1.16H11.62c-1,0-1.21.52-.4,1.16Zm0,0" transform="translate(-9 -13.2)"/><path class="cls-1" d="M35.51,16.46l-11,8.37a2.66,2.66,0,0,1-3,0l-11-8.37C9.67,15.84,9,16.18,9,17.2V30.93a1.87,1.87,0,0,0,1.86,1.87H35.13A1.87,1.87,0,0,0,37,30.93V17.2c0-1-.67-1.36-1.49-.74Zm0,0" transform="translate(-9 -13.2)"/></svg>