<svg xmlns="http://www.w3.org/2000/svg" width="9.912" height="14.561" viewBox="0 0 9.912 14.561"><defs><style>.a{fill:#fff;}</style></defs><path class="a" d="M-5.063-9.99s.005.29,1.609.295S-1.89-9.99-1.89-9.99A1.533,1.533,0,0,1-.278-11.562a1.4,1.4,0,0,1,1.563,1.338c0,.859-.342,1.27-1.67,2.051a2.929,2.929,0,0,0-1.66,3.33l.029.391s.018.191,1.538.186S1.03-4.453,1.03-4.453v-.459c0-.918.371-1.357,1.709-2.129a3.562,3.562,0,0,0,2.109-3.271c0-2.344-1.934-3.906-4.9-3.906C-3.179-14.219-5.034-12.549-5.063-9.99ZM-.405.342c1.26,0,1.992-.654,1.992-1.777S.854-3.223-.405-3.223s-2,.654-2,1.787S-1.665.342-.405.342Z" transform="translate(5.063 14.219)"/></svg>