<svg id="_Map_Tutorial" data-name=" Map Tutorial" xmlns="http://www.w3.org/2000/svg" viewBox="0 0 10.53 30.31"><defs><style>.cls-1{fill:#fff;}</style></defs><title>Map Tutorial</title><path class="cls-1" d="M21,34.53V21H17.74V17.36H25V34.53h3.22v3.63H17.74V34.53Zm-.58-24.23a2.41,2.41,0,0,1,.7-1.72,2.35,2.35,0,0,1,1.77-.73,2.41,2.41,0,0,1,1.74.71,2.33,2.33,0,0,1,.73,1.74A2.37,2.37,0,0,1,24.59,12a2.39,2.39,0,0,1-1.74.72A2.36,2.36,0,0,1,21.1,12,2.39,2.39,0,0,1,20.38,10.29Z" transform="translate(-17.74 -7.84)"/></svg>