<svg id="Layer_1" data-name="Layer 1" xmlns="http://www.w3.org/2000/svg" viewBox="0 0 60 60"><defs><style>.cls-1{fill:#707070;}.cls-1,.cls-2{fill-rule:evenodd;}.cls-2{fill:#fff;}</style></defs><title>menu-close-icon</title><path class="cls-1" d="M30,.5A29.5,29.5,0,1,1,.5,30,29.5,29.5,0,0,1,30,.5Z"/><path class="cls-2" d="M14.64,43.7,45,13.33a1.26,1.26,0,0,1,1.79,1.79L16.42,45.49a1.26,1.26,0,1,1-1.79-1.79Z"/><path class="cls-2" d="M14.64,13.33a1.26,1.26,0,0,1,1.79,0L46.8,43.7A1.26,1.26,0,1,1,45,45.49L14.64,15.11A1.26,1.26,0,0,1,14.64,13.33Z"/></svg>