<svg id="Clear_Route" data-name="Clear Route" xmlns="http://www.w3.org/2000/svg" viewBox="0 0 29.02 28.85"><defs><style>.cls-1{fill:#fff;}</style></defs><title>Clear Route</title><path class="cls-1" d="M12.93,16.51a12.05,12.05,0,0,1,14.41-4.73,1.19,1.19,0,0,0,1.56-.69,1.22,1.22,0,0,0-.69-1.56A14.42,14.42,0,0,0,11.11,31.1l-1.26-.16a1.21,1.21,0,0,0-.3,2.39l4.13.51a1.2,1.2,0,0,0,1.35-1s.52-4.23.52-4.28a1.21,1.21,0,0,0-2.4-.14L13,29.58a12.06,12.06,0,0,1-.06-13.07Zm0,0" transform="translate(-8.49 -8.58)"/><path class="cls-1" d="M17.79,36.47A14.42,14.42,0,0,0,34.89,14.9l1.26.16a1.21,1.21,0,1,0,.3-2.39l-4.13-.51a1.2,1.2,0,0,0-1.35,1s-.52,4.23-.52,4.28a1.21,1.21,0,0,0,2.41.14l.15-1.2a12,12,0,0,1-14.35,17.8,1.19,1.19,0,0,0-1.56.69,1.22,1.22,0,0,0,.69,1.56Zm0,0" transform="translate(-8.49 -8.58)"/></svg>