<svg id="Layer_1" data-name="Layer 1" xmlns="http://www.w3.org/2000/svg" width="32" height="32" viewBox="0 0 32 32"><defs><style>.cls-1{fill:#fff;}</style></defs><title>privacy-icon</title><g id="svgg"><path id="path0" class="cls-1" d="M14.28,1a9.32,9.32,0,0,1-10,1.78c-2.89-1.23-3.23-.6-3,5.62A28.21,28.21,0,0,0,14.23,31.16c1.62,1.09,1.91,1.1,3.39.14A28.5,28.5,0,0,0,30.75,6.86c0-4.84-.31-5.23-3-4.09-3.33,1.41-6.88.78-10-1.8C16.08-.33,15.85-.33,14.28,1M17,3.58a12.2,12.2,0,0,0,2,1.16,3.54,3.54,0,0,1,1.09.62C20.07,5.8,6.69,19.24,6.51,19a25.76,25.76,0,0,1-1.88-4.61c-.93-3.24-1.37-9.19-.66-9A11.17,11.17,0,0,0,7.9,5.9a10.85,10.85,0,0,0,7.16-2.29c.52-.38,1-.7,1-.71s.44.3.94.67m7.36,3.25c-.41.44-4.07,4.19-8.12,8.33L8.85,22.69,8.4,22.1l-.45-.59,1.18-1.24c.65-.68,4.07-4.19,7.59-7.8l6.41-6.56,1,.06,1,.06-.75.79m4,1.46A26.59,26.59,0,0,1,16.43,29.18c-.51.32-2.65-1.19-4.82-3.41l-1.12-1.14L12.05,23C24,10.8,28.23,6.53,28.31,6.6a8.34,8.34,0,0,1,.05,1.68"/></g></svg>